<?xml version="1.0" encoding="UTF-8"?><svg id="_레이어_1" xmlns="http://www.w3.org/2000/svg" viewBox="0 0 192 192"><defs><style>.cls-1{stroke:#000;stroke-miterlimit:10;stroke-width:2.009px;}.cls-2{fill:#fffbee;}</style></defs><rect class="cls-2" x="1" y="1" width="190" height="190" rx="29" ry="29"/><path d="m162,2c15.439,0,28,12.561,28,28v132c0,15.439-12.561,28-28,28H30c-15.439,0-28-12.561-28-28V30C2,14.561,14.561,2,30,2h132m0-2H30C13.431,0,0,13.431,0,30v132c0,16.569,13.431,30,30,30h132c16.569,0,30-13.431,30-30V30c0-16.569-13.431-30-30-30h0Z"/><path class="cls-1" d="m40.993,139.384c-3.004,0-5.867-.875-8.575-2.614-2.72-1.751-4.755-4.317-6.103-7.7-.485-1.266-.804-2.626-.946-4.081-.142-1.443-.225-2.851-.225-4.211v-1.892c0-.674.083-1.301.225-1.881.142-.58.509-.875,1.088-.875.189,0,.296.095.296.296,0,.58-.035,1.159-.083,1.739s-.071,1.159-.071,1.739c0,4.566,1.147,7.996,3.418,10.326,2.271,2.318,5.11,3.489,8.504,3.489s6.683-.97,9.888-2.91c3.194-1.94,6.15-4.412,8.859-7.416,2.224-2.413,4.435-5.571,6.612-9.439,2.188-3.88,4.435-8.043,6.766-12.502-3.111.095-6.352.213-9.746.367-3.395.142-6.493.461-9.297.934-.875.106-1.112-.142-.733-.721.39-.58,1.112-1.313,2.188-2.176,1.065-.875,2.2-1.656,3.418-2.33,1.206-.674,2.2-1.065,2.969-1.159,1.656.095,3.714.166,6.186.213,2.472.047,4.909.13,7.333.225,2.129-3.88,4.187-7.83,6.174-11.851,1.987-4.021,3.856-7.771,5.606-11.26.958-1.94,2.247-3.903,3.844-5.89,1.597-1.987,3.395-3.749,5.382-5.299,1.987-1.549,4.045-2.519,6.174-2.91-5.133.189-10.444.343-15.908.438-5.476.095-10.692.816-15.625,2.176-2.235.58-4.223,1.36-5.961,2.33-1.751.97-3.004,2.176-3.785,3.631-.769,1.455-1.159,3.052-1.159,4.79,0,2.425.674,4.175,2.034,5.24.095.095.142.189.142.284,0,.201-.166.39-.509.58-.343.201-.651.248-.946.154-.863-.485-1.94-1.68-3.194-3.56-1.266-1.892-2.034-3.466-2.33-4.731-.284-1.159-.426-2.224-.426-3.194,0-2.519.816-4.483,2.46-5.89,1.656-1.396,3.738-2.413,6.257-3.052,2.519-.627,5.086-1.017,7.7-1.159s4.944-.213,6.978-.213h16.133c3.678,0,6.872-.024,9.592-.083,2.709-.047,4.885-.213,6.541-.509.189,0,.331-.012.438-.071.095-.047.189-.071.284-.071.58,0,.875.201.875.58,0,.39-.166.757-.509,1.088-.343.343-.603.509-.804.509-3.004.296-5.807,1.609-8.421,3.927-2.614,2.33-4.991,5.334-7.12,9.013-.591,1.065-1.656,3.052-3.205,5.961-1.549,2.91-3.241,6.103-5.086,9.592-1.833,3.489-3.537,6.73-5.086,9.734,1.845.095,3.371.177,4.577.225,1.218.047,1.916.071,2.105.071h21.373c.863,0,2.496-.154,4.861-.438,2.377-.296,4.199-.733,5.453-1.313,2.614-5.039,5.287-10.03,7.996-14.962,2.709-4.944,5.252-9.379,7.629-13.306,2.377-3.915,4.234-6.754,5.595-8.504,1.644-.674,3.513-1.49,5.595-2.46,2.082-.97,4.163-1.845,6.257-2.626,2.082-.769,3.939-1.159,5.595-1.159.485,0,.994.142,1.526.438s.792.58.792.875c0,.485-.97.721-2.898.721-.97,0-1.987.177-3.052.509-1.076.343-2.425,1.384-4.069,3.123-1.36,1.36-3.134,3.667-5.311,6.907-2.176,3.253-4.53,7.026-7.049,11.331-2.519,4.317-5.062,8.847-7.629,13.59-2.567,4.755-4.968,9.379-7.191,13.886-2.235,4.506-4.128,8.575-5.677,12.206-1.549,3.631-2.567,6.422-3.052,8.362-.095.674-.213,1.431-.355,2.247-.154.828-.225,1.62-.225,2.401,0,1.549.39,2.91,1.171,4.069.769,1.159,2.224,1.739,4.353,1.739,1.549,0,3.123-.284,4.731-.863,1.597-.591,3.016-1.218,4.282-1.892,3.489-1.94,6.635-4.577,9.45-7.925,2.803-3.335,5.086-6.174,6.825-8.504.296-.378.485-.58.58-.58.296,0,.438.343.438,1.017,0,.58-.142,1.112-.438,1.597-1.833,2.626-4.258,5.654-7.262,9.084-3.004,3.442-6.493,6.281-10.468,8.504-3.099,1.644-6.635,2.472-10.61,2.472-3.004,0-5.595-1.088-7.771-3.264-2.176-2.188-3.276-4.826-3.276-7.925,0-1.549.296-3.099.875-4.648.875-2.235,2.306-5.429,4.293-9.592,1.975-4.163,4.234-8.776,6.754-13.815-.97.875-2.082,1.656-3.347,2.33-1.254.674-2.472.97-3.631.875-3.004-.296-6.422-.461-10.243-.509-3.832-.047-8.753-.071-14.749-.071h-6.978c-2.72,5.512-5.524,10.917-8.433,16.204-2.91,5.275-5.914,9.616-9.013,12.999-2.425,2.626-5.323,4.755-8.717,6.399-3.395,1.644-6.789,2.472-10.172,2.472Z"/></svg>