<?xml version="1.0" encoding="UTF-8"?><svg id="_레이어_1" xmlns="http://www.w3.org/2000/svg" xmlns:xlink="http://www.w3.org/1999/xlink" viewBox="0 0 296 33"><defs><style>.cls-1{fill:#313718;}.cls-2{fill:#313816;}.cls-3{fill:#f3f7e8;}.cls-4{fill:#646a4f;}.cls-5{fill:#e9c861;}.cls-6{fill:#fff;}.cls-7{fill:#b9b5af;}.cls-8{fill:#889192;}.cls-9{fill:#33524a;}.cls-10{fill:#cac4be;}.cls-11{fill:#df953e;}.cls-12{fill:#fdfae9;}.cls-13{fill:#4b5132;}.cls-14{fill:#fefff3;}.cls-15{fill:#a3a69f;}.cls-16{fill:#373e1e;}.cls-17{fill:#836d6a;}.cls-18{fill:#dee1dc;}.cls-19{fill:#69615f;}.cls-20{fill:#8a8e80;}.cls-21{fill:#25211e;}.cls-22{fill:#979b8c;}.cls-23{fill:#323721;}.cls-24{fill:#dde1d1;}.cls-25{fill:#1b1f11;}.cls-26{fill:#0c0c0c;}.cls-27{fill:#989b90;}.cls-28{fill:#f1f5e7;}.cls-29{fill:#f0f7f6;}.cls-30{fill:#32381c;}.cls-31{fill:#396069;}.cls-32{fill:#e6a85e;}.cls-33{fill:#767970;}.cls-34{fill:#676a61;}.cls-35{fill:#c03516;}.cls-36{fill:#af6a30;}.cls-37{fill:#cbcfc0;}.cls-38{fill:#f7dce1;}.cls-39{fill:#282c1a;}.cls-40{opacity:.8;}.cls-40,.cls-41,.cls-42{fill:none;}.cls-43{fill:#5b5e53;}.cls-44{fill:#505443;}.cls-45{fill:#d9ddce;}.cls-46{fill:#4696af;}.cls-47{fill:#b7bbac;}.cls-48{fill:#f1ae62;}.cls-49{fill:#f1f5e6;}.cls-50{fill:#767c63;}.cls-51{fill:#aa6b2d;}.cls-52{fill:#a3a795;}.cls-53{fill:#898e79;}.cls-54{fill:#41867d;}.cls-55{fill:#686d57;}.cls-56{fill:#89916d;}.cls-57{fill:#d2d5cb;}.cls-58{fill:#5c614d;}.cls-59{fill:#ecefe8;}.cls-60{fill:#919587;}.cls-61{fill:#e6a152;}.cls-62{fill:#626750;}.cls-63{fill:#d1d4c9;}.cls-64{fill:#34302d;}.cls-65{fill:#2a2a26;}.cls-66{fill:#d7dad3;}.cls-67{fill:#bbbfb1;}.cls-68{fill:#783707;}.cls-69{fill:#a7aa9f;}.cls-70{fill:#898b85;}.cls-71{fill:#595d4f;}.cls-72{fill:#b46e27;}.cls-73{fill:#30351c;}.cls-74{fill:#c0c5b1;}.cls-75{fill:#a1a49f;}.cls-76{fill:#365a6a;}.cls-77{fill:#aeb1a8;}.cls-78{fill:#945216;}.cls-79{fill:#fb8505;}.cls-80{fill:#d5d9c9;}.cls-81{fill:#bcc0b1;}.cls-82{fill:#bec2b4;}.cls-83{fill:#869291;}.cls-84{fill:#5b6240;}.cls-85{fill:#d5d8cd;}.cls-86{fill:#6c5a43;}.cls-87{fill:#e1e3df;}.cls-88{fill:#474a3f;}.cls-89{fill:#fefefc;}.cls-90{fill:#f8faf5;}.cls-91{fill:#965114;}.cls-92{fill:#e7faf8;}.cls-93{fill:#fefff4;}.cls-94{fill:#555047;}.cls-95{fill:#eaeaea;}.cls-96{fill:#999e8a;}.cls-97{fill:#cfd4c0;}.cls-98{fill:#565d3f;}.cls-99{fill:#89a8ba;}.cls-100{fill:#66767c;}.cls-101{fill:#4e9b94;}.cls-102{fill:#5e6254;}.cls-103{fill:#095269;}.cls-104{fill:#55584d;}.cls-105{fill:#81a6c0;}.cls-106{fill:#7e3c10;}.cls-107{fill:#e7dacb;}.cls-108{fill:#d1d5cd;}.cls-109{fill:#fafbf6;}.cls-110{fill:#a7ac93;}.cls-111{fill:#494039;}.cls-112{fill:#fef8f3;}.cls-113{fill:#fce5b7;}.cls-114{fill:#b16c29;}.cls-115{fill:#778583;}.cls-116{fill:#fefff8;}.cls-117{fill:#bbbeb3;}.cls-118{fill:#878c75;}.cls-119{fill:#c9cdbe;}.cls-120{fill:#95998c;}.cls-121{fill:#fdfef4;}.cls-122{fill:#f6faeb;}.cls-123{fill:#1c220a;}.cls-124{fill:#fffdf6;}.cls-125{fill:#fdfffd;}.cls-126{fill:#3b1a04;}.cls-127{fill:#f4f7ee;}.cls-128{fill:#8e2514;}.cls-129{fill:#dde2d1;}.cls-130{fill:#313524;}.cls-131{fill:#a79d95;}.cls-132{fill:#999d8f;}.cls-133{fill:#b8bcae;}.cls-134{fill:#444a2b;}.cls-135{fill:#56473b;}.cls-136{fill:#472308;}.cls-137{fill:#65695b;}.cls-138{fill:#a1a596;}.cls-139{fill:#e79642;}.cls-140{fill:#29300e;}.cls-42{clip-path:url(#clippath);}.cls-141{fill:#747869;}.cls-142{fill:#494e3a;}.cls-143{fill:#e8ecde;}.cls-144{fill:#616556;}.cls-145{fill:#787b72;}.cls-146{fill:#474e2e;}.cls-147{fill:#060c00;}.cls-148{fill:#575c46;}.cls-149{fill:#f4f1e9;}.cls-150{fill:#b8bbb0;}.cls-151{fill:#787c6d;}.cls-152{fill:#0f5466;}.cls-153{fill:#282c1d;}.cls-154{fill:#757b61;}.cls-155{fill:#343922;}.cls-156{fill:#333824;}.cls-157{fill:#75796b;}.cls-158{fill:#6d725d;}.cls-159{fill:#464b38;}.cls-160{fill:#f0e4c2;}.cls-161{fill:#cc8c38;}.cls-162{fill:#585d45;}.cls-163{fill:#6f7267;}.cls-164{fill:#6f7362;}.cls-165{fill:#8f957b;}.cls-166{fill:#f4e5be;}.cls-167{fill:#9a9e90;}.cls-168{fill:#4c9a91;}.cls-169{fill:#171c08;}.cls-170{fill:#454a39;}.cls-171{fill:#aeb1a6;}.cls-172{fill:#3c3f34;}.cls-173{fill:#989b94;}.cls-174{fill:#cdd1c2;}.cls-175{fill:#a6aa9c;}.cls-176{fill:#fefefe;}.cls-177{fill:#cfd2cb;}</style><clipPath id="clippath"><rect class="cls-41" x="352.261" y="-100.606" width="296" height="296"/></clipPath></defs><rect class="cls-5" width="296" height="33"/><g class="cls-42"><g class="cls-40"><path class="cls-90" d="m292.806,22.187c-.704.214-1.977-.494-1.999.746-.017.993,1.168,1.004,2.005,1.104l.009.01c-.003-.313-.005-.626-.008-.939-.003-.307-.006-.614-.008-.921Z"/><path class="cls-59" d="m292.844,4.562c-.317.33-.633.661-.95.991,0,.309,0,.618-.001.926.62.002,1.239.005,1.859.008.229-.006.458-.013.687-.023.027-.301.054-.602.08-.903-.267-.268-.534-.535-.801-.803-.287-.086-.578-.152-.874-.196Z"/><path class="cls-129" d="m291.035,16.586c.521.649,1.042,1.299,1.564,1.948,0,0,.375-.106.374-.105-.136-.263-.146-.531-.029-.803-.075-.627-.149-1.255-.224-1.882-.277-.018-.554-.026-.831-.024h-.002c-.284.288-.568.577-.851.866Z"/><path class="cls-18" d="m293.752,6.487c-.62-.003-1.24-.005-1.859-.008.011.628.021,1.255.031,1.882.328-.062.658-.124.986-.185.249-.241.499-.482.749-.724l.094-.966Z"/><path class="cls-159" d="m290.861,13.953c.078.239.148.48.21.724.285.068.57.135.856.202,0,0-.088-.229-.088-.229.336-.279.671-.557,1.007-.836-.319-.29-.638-.58-.957-.87-.304-.002-.607,0-.911.01,0,0-.095-.07-.095-.07-.008.356-.015.712-.023,1.068Z"/><path class="cls-117" d="m292.599,18.534c.147.247.244.511.292.795.278.054.559.083.842.088.31,0,.621-.002.931-.002-.011-.293-.002-.586.027-.878l-.91-.179-.4.084-.408-.012-.375.106Z"/><path class="cls-87" d="m293.733,19.417c-.284-.005-.565-.034-.842-.088-.025.645-.051,1.291-.078,1.937.24-.009.482-.004.723.015.115-.278.197-.565.246-.861-.016-.334-.033-.668-.049-1.002Z"/><path class="cls-108" d="m293.536,21.28c-.241-.019-.482-.024-.722-.015,0,.308-.003.615-.007.922,0,.307.004.614.006.922.333-.03.666-.061.999-.09-.046-.303-.044-.607.004-.911-.057-.293-.03-.577.083-.854l-.364.026Z"/><path class="cls-150" d="m292.91,8.175c-.329.062-.658.123-.987.186.024.616.048,1.231.07,1.846.256-.026.513-.054.771-.084.013-.582.025-1.165.037-1.748,0,0,.108-.201.108-.201Z"/><path class="cls-67" d="m292.812,24.037c.005.243,0,.487-.014.73,0,0,.023.439.023.439.318-.029.637-.057.955-.086.305-.07.61-.139.915-.208-.029-.292-.039-.585-.03-.878,0,0-.461.002-.461.002l-.46-.008c-.306.004-.612.01-.917.019l-.009-.01Z"/><path class="cls-69" d="m290.854,32.196c-.305.305-.611.61-.917.913,0,0,.226.349.225.349.249-.141.516-.2.801-.177l-.051-.054c.018-.246.078-.48.18-.705l-.239-.327Z"/><path class="cls-77" d="m291.892,31.417c-.346.26-.692.52-1.038.779,0,0,.238.326.238.325.268-.118.546-.202.834-.253-.031-.268-.052-.537-.063-.807l.03-.045Z"/><path class="cls-116" d="m291.889,30.498c-.004.307-.003.615.003.921,0-.001-.03.043-.028.042.323-.007.645-.012.967-.017-.009-.272-.065-.534-.169-.786-.244-.116-.501-.17-.771-.16Z"/><path class="cls-177" d="m291.889,30.498c.27-.009.527.044.771.16l.259-.263c-.081-.274-.175-.544-.282-.809-.233-.007-.465-.024-.697-.049-.017.32-.034.641-.051.961Z"/><path class="cls-15" d="m291.94,29.536c.232.026.464.042.698.049.001,0,.398.007.398.007-.061-.317-.122-.634-.183-.951,0,0-.095.058-.095.058-.257-.019-.513-.05-.767-.091-.017.31-.034.619-.051.929Z"/><path class="cls-33" d="m291.991,28.608c.254.042.51.072.768.091.01-.314.019-.628.028-.941-.254-.01-.508-.027-.761-.052-.14.296-.151.597-.035.903Z"/><path class="cls-43" d="m292.026,27.705c.253.025.507.043.761.052.008-.314.016-.627.024-.94-.263.006-.524-.015-.782-.062,0,.316-.002.633-.003.949Z"/><path class="cls-25" d="m292.029,26.756c.259.047.519.067.782.061,0-.317,0-.634-.001-.951-.254,0-.501.044-.739.133l-.242-.138c.022.308.089.607.201.895Z"/><path class="cls-82" d="m291.983,25.068c-.787.121-.922.368-.155.792,0,0,.242.138.242.138-.029-.31-.059-.62-.088-.93Z"/><path class="cls-157" d="m291.983,25.068c.029.31.058.62.088.93.239-.088.485-.133.739-.132-.004-.22,0-.44.011-.66,0,0-.023-.439-.023-.439-.262.127-.533.227-.815.301Z"/><path class="cls-174" d="m291.035,16.586c.284-.289.568-.578.851-.867-.285.003-.569-.008-.853-.033-.033.3-.032.601.002.901Z"/><path class="cls-47" d="m291.034,15.685c.284.025.568.036.853.033,0,0,.002.001.002.001-.004-.281.009-.561.039-.84-.285-.067-.571-.135-.856-.203-.012.336-.025.672-.037,1.008Z"/><path class="cls-27" d="m290.861,13.953c.008-.356.015-.712.023-1.068-.842.338-.803.695-.023,1.068Z"/><path class="cls-144" d="m290.979,12.955c.303-.009.607-.012.91-.01.013-.307.013-.614,0-.921-.266-.011-.53.004-.792.046-.125.283-.165.578-.119.885Z"/><path class="cls-20" d="m291.098,12.07c.262-.042.526-.058.792-.046l.034.027c-.038-.248-.019-.491.057-.73l-.175-.389c-.236.379-.472.758-.707,1.138Z"/><path class="cls-138" d="m292.763,10.123c-.257.03-.514.058-.77.085-.072.24-.135.482-.188.726,0,0,.175.388.175.387.231-.149.482-.239.754-.271.051-.272.095-.546.133-.82l-.104-.106Z"/><path class="cls-140" d="m292.709-1.7c.055.53.11,1.061.165,1.592.252.068.504.134.757.199.635-.005,1.269-.01,1.904-.015.646.296,1.291.591,1.937.887.307-.031.611-.078.913-.14-.026-.27-.035-.543-.026-.815.306-.308.612-.616.918-.924-.306-.924-.612-1.848-.918-2.772-.935-.624-1.869-1.247-2.804-1.871-.322-.012-.645-.024-.967-.036-.58.026-1.161.052-1.741.078,0,0-.046-.018-.046-.018-.016.319-.032.638-.049.957l.113-.068c.698.377.801.699-.086.93l.023.014c-.031.668-.062,1.335-.092,2.003Z"/><path class="cls-120" d="m292.844,4.562c.296.044.587.109.874.195.284-.086.571-.098.862-.036.017-.368.033-.736.05-1.103-.323-.292-.647-.585-.97-.879-.252.021-.503.04-.755.057-.02.589-.04,1.177-.06,1.766Z"/><path class="cls-80" d="m293.63.09c-.253-.064-.505-.13-.757-.199,0,.672-.001,1.344-.003,2.015.244-.036.483-.098.715-.187.088-.299.174-.599.261-.898-.067-.245-.139-.489-.216-.731Z"/><path class="cls-175" d="m293.585,1.719c-.231.089-.47.152-.714.188-.069.3-.059.596.032.89.253-.017.505-.036.756-.057,0,0,.167.098.167.098-.079-.293-.068-.583.032-.87l-.273-.248Z"/><path class="cls-143" d="m292.821,24.047c.306-.009.612-.016.917-.017-.003-.304-.004-.609-.004-.915l.079-.097c-.333.031-.667.061-1,.091.003.313.006.625.008.938Z"/><path class="cls-154" d="m294.629,3.617c-.017.368-.033.736-.05,1.104.068.286.048.566-.06.84-.027.301-.054.602-.079.903.001,0,.414.023.414.023.23-.02.461-.039.692-.057.038-.581.077-1.162.115-1.742-.033-.334-.066-.669-.099-1.003-.318-.001-.635-.003-.953-.004,0,0,.021-.063.021-.063Z"/><path class="cls-74" d="m293.752,6.487c-.031.322-.063.644-.093.966.053.243.065.489.038.737,0,0,.11.371.109.37.254-.13.52-.229.796-.299.072-.303.144-.607.216-.91-.153-.294-.141-.582.037-.862,0,0-.413-.023-.414-.023-.23.01-.459.017-.688.023Z"/><path class="cls-45" d="m294.519,5.561c.109-.274.129-.554.06-.84-.291-.062-.578-.05-.862.037.267.268.534.536.801.803Z"/><path class="cls-96" d="m292.72,15.744c.075.627.149,1.255.223,1.882.246-.047.495-.082.746-.106.036-.281.076-.562.119-.842-.064-.564-.129-1.128-.193-1.692l-.438-.099-.449.015c.068.282.065.563-.008.843Z"/><path class="cls-141" d="m293.689,17.519c-.251.024-.499.059-.746.106-.116.273-.106.54.03.803,0,0,.409.012.409.012,0,0,.4-.084.399-.083-.028-.279-.058-.559-.092-.838Z"/><path class="cls-97" d="m292.72,15.744c.073-.28.076-.562.008-.844-.296-.083-.592-.167-.888-.25,0,0,.087.229.088.229-.03.279-.043.559-.039.84.277-.002.554.006.831.024Z"/><path class="cls-28" d="m293.696,8.189c.027-.248.015-.493-.038-.737-.25.242-.5.483-.749.724,0,0-.107.2-.107.199.307-.02.605-.082.894-.186Z"/><path class="cls-73" d="m291.89,12.024c.013.307.013.614,0,.921.319.29.638.58.957.87.26.049.523.078.788.086,1.129-.501.241-1.184.163-1.795-.625-.019-1.249-.038-1.874-.056l-.034-.027Z"/><path class="cls-62" d="m293.633,13.902c-.265-.009-.527-.037-.787-.087-.335.278-.671.557-1.007.836.296.083.592.166.888.25,0,0,.449-.015.449-.015,0,0,.438.099.439.098s.203-.317.203-.317c-.087-.249-.148-.504-.185-.765Z"/><path class="cls-71" d="m293.689,17.519c.034.279.065.559.092.838.304.059.607.119.91.177,0,0-.063-.091-.063-.091.021-.275.034-.549.041-.825-.005-.285.01-.568.044-.851-.299-.06-.6-.091-.905-.092-.044.28-.083.561-.119.842Z"/><path class="cls-57" d="m293.733,19.417c.016.334.033.668.049,1.001.318.009.637.018.956.028.257-.074.516-.137.778-.189.056-.273.084-.548.084-.827-.311-.005-.623-.01-.934-.015-.31,0-.621.002-.931.002Z"/><path class="cls-127" d="m294.665,19.414c.311.005.623.01.934.015,0,0-.01-.008-.01-.008-.003-.273-.018-.545-.046-.816-.305-.054-.61-.108-.915-.161,0,0,.062.09.063.091-.028.293-.037.586-.026.879Z"/><path class="cls-173" d="m294.738,20.446c-.319-.01-.637-.019-.956-.028-.048.297-.13.584-.245.862-.001,0,.363-.026.362-.026.215,0,.43-.011.646-.034.082-.254.145-.512.192-.775Z"/><path class="cls-171" d="m293.817,22.108c-.048.304-.05.607-.004.911,0,0-.078.096-.078.096.314-.01.628-.019.942-.027,0-.242-.023-.483-.069-.721-.26-.097-.524-.183-.791-.258Z"/><path class="cls-145" d="m293.817,22.108c.267.076.531.162.791.258l.117-.341c-.028-.233.003-.457.094-.674l-.275-.132c-.214.023-.43.035-.644.034-.112.276-.14.561-.082.854Z"/><path class="cls-52" d="m293.696,8.189c-.289.104-.587.166-.894.186-.012.584-.024,1.167-.038,1.749-.001-.001.103.105.101.103.264-.046.518-.127.762-.242.06-.474.119-.95.179-1.425l-.11-.371Z"/><path class="cls-170" d="m292.82,25.206c-.011.22-.015.44-.011.66,0,.317,0,.634.001.951-.008.313-.016.626-.024.94-.009.314-.018.628-.028.942,0,0,.094-.057.094-.057.266.333.532.667.798,1,0,0,.107-.056.107-.056.294.302.587.603.881.905.311.007.622.013.936.019.005-.311.008-.621.01-.932-.006-.304-.004-.608.005-.913-.838-.356-.901-1.095-.917-1.857-.744-.326-.909-.96-.898-1.687-.318.029-.637.057-.955.086Z"/><path class="cls-39" d="m293.775,25.121c-.011.728.154,1.361.898,1.687.302.006.604.007.906.004.009-.294-.001-.588-.03-.881-.313-.296-.626-.592-.939-.888l.08-.132c-.305.07-.61.139-.915.209Z"/><path class="cls-49" d="m294.66,24.033c-.009.294.001.587.03.879,0,0-.08.131-.08.131.314-.073.628-.146.942-.219.024-.265.034-.53.031-.795-.313.004-.626.007-.938.01,0,0,.015-.006.015-.006Z"/><path class="cls-93" d="m294.677,23.087c-.314.009-.628.018-.942.028,0,.306,0,.612.004.916,0-.002.461.006.461.006,0,0,.461-.001.461-.002,0,0-.015.005-.014.005.017-.3.013-.599-.01-.898l.041-.054Z"/><path class="cls-102" d="m290.913,33.227c.66-.015,1.32-.029,1.979-.043-.038-.211-.068-.424-.091-.638-.278-.137-.57-.229-.876-.278-.288.051-.566.135-.834.253-.101.225-.161.46-.179.706Z"/><path class="cls-85" d="m291.925,32.269c.306.049.598.141.876.278l.013-.414c-.002-.239-.007-.479-.014-.718l.03.03c-.322.005-.644.01-.967.017.01.271.031.54.062.808Z"/><path class="cls-63" d="m292.66,30.658c.104.252.16.513.169.786,0,0-.03-.029-.03-.029.34-.017.68-.034,1.02-.051-.075-.277-.107-.558-.098-.844l.013-.013c-.281.028-.553-.009-.815-.112l-.259.263Z"/><path class="cls-163" d="m292.919,30.395c.263.103.534.141.815.112,0-.307.009-.615.024-.922,0,0-.107.056-.107.056-.204-.029-.409-.045-.616-.049,0,0-.397-.007-.398-.007.106.265.201.535.281.809Z"/><path class="cls-104" d="m293.036,29.592c.206.004.412.02.616.049-.267-.333-.533-.666-.799-.999.061.317.122.634.183.951Z"/><path class="cls-162" d="m291.923,12.05c.625.019,1.249.038,1.873.056.261-.034.52-.08.777-.14-.267-.291-.534-.582-.801-.872-.346-.015-.692-.03-1.039-.045-.272.032-.524.123-.754.271-.076.24-.095.483-.056.731Z"/><path class="cls-55" d="m292.734,11.049c.346.015.692.03,1.038.045-.014-.259.003-.515.051-.77l-.197-.34c-.243.116-.497.197-.761.243-.036.276-.08.549-.131.822Z"/><path class="cls-13" d="m297.472.961c-.646-.296-1.291-.591-1.936-.888-.012.321-.025.644-.039.967-.267.315-.534.631-.801.946-.023.274-.044.548-.062.822,0,0,.02-.034.02-.034.296-.003.592.006.888.026.358-.018.716-.035,1.073-.053.276-.292.552-.583.828-.875-.026-.305-.016-.608.029-.911Z"/><path class="cls-4" d="m295.497,1.04c.013-.323.026-.645.039-.967-.635.006-1.27.011-1.905.016.077.242.149.486.216.732.55.073,1.1.146,1.65.219Z"/><path class="cls-156" d="m293.659,2.739c.323.293.647.586.97.879,0,0-.021.062-.019.063.043-.3.057-.603.044-.906,0,0-.02.034-.019.034,0,0-.404-.005-.404-.005l-.403.033-.167-.098Z"/><path class="cls-110" d="m295.497,1.04c-.55-.073-1.101-.146-1.65-.219-.086.299-.173.599-.261.898,0,0,.273.247.272.247.281-.086.561-.079.839.02.267-.315.534-.631.801-.946Z"/><path class="cls-58" d="m294.696,1.987c-.277-.1-.557-.107-.839-.02-.099.287-.11.577-.031.87,0,0,.403-.033.403-.033,0,0,.404.005.404.005.018-.274.039-.548.062-.821Z"/><path class="cls-98" d="m296.614,2.747c-.358.018-.716.035-1.072.052.045.294.051.589.019.885.033.334.066.669.098,1.002.268-.034.539-.045.811-.037.316-.311.632-.622.948-.934-.002-.281.024-.559.078-.834l-.17-.277c-.232.072-.469.12-.711.142Z"/><path class="cls-16" d="m296.47,4.65c-.271-.009-.542.003-.81.037-.037.582-.075,1.162-.113,1.744,0,0,.026.047.026.047.308-.001.616-.002.924-.004.312,0,.624,0,.936,0-.01-.292.001-.582.034-.872-.316-.33-.632-.66-.948-.99,0,0-.05.037-.05.037Z"/><path class="cls-30" d="m294.854,6.487c-.178.28-.19.568-.037.862.252-.291.504-.581.755-.872,0,0-.026-.046-.026-.047-.231.017-.462.036-.692.056Z"/><path class="cls-165" d="m295.561,3.684c.032-.296.026-.591-.019-.885-.297-.019-.592-.028-.889-.025.014.303,0,.606-.044.906.316,0,.634.002.952.004Z"/><path class="cls-146" d="m295.573,6.478c-.252.291-.504.581-.755.872-.072.303-.144.607-.216.91-.011.614-.022,1.228-.033,1.843.337.025.673.049,1.01.072.003-.299.004-.597.006-.895.323-.331.646-.662.969-.993-.019-.604-.038-1.208-.057-1.812-.308.001-.616.002-.924.004Z"/><path class="cls-50" d="m294.568,10.102c.011-.614.023-1.228.034-1.843-.276.07-.542.169-.796.299-.059.477-.119.952-.179,1.427,0-.001.196.339.196.338.237-.11.486-.184.745-.221Z"/><path class="cls-158" d="m293.808,16.677c.305.001.606.032.904.091,0-.001-.05-.159-.05-.159.002-.325.004-.65.006-.975-.283-.323-.567-.645-.85-.968,0,0-.202.316-.203.317.064.565.128,1.129.193,1.693Z"/><path class="cls-123" d="m293.819,14.667c.283.323.567.645.85.968.282.039.561.02.836-.054.052-.26.079-.522.081-.786,0-.315-.001-.629-.002-.944.008-.347.016-.695.023-1.042-.021-.262-.029-.525-.024-.788-.336-.018-.673-.036-1.009-.054-.257.06-.516.106-.777.14.078.611.966,1.294-.163,1.795.036.261.098.516.185.765Z"/><path class="cls-70" d="m294.628,18.444c.305.054.61.108.915.16.322-.038.643-.075.964-.112,0-.308.001-.615.002-.924-.311-.004-.622-.007-.932-.009-.304.01-.607.03-.909.06-.006.275-.02.55-.041.825Z"/><path class="cls-88" d="m294.669,17.62c.302-.03.605-.051.91-.059.007-.302.005-.605-.003-.908-.306.014-.61,0-.913-.044,0,0,.049.158.05.159-.034.284-.049.567-.044.852Z"/><path class="cls-137" d="m294.738,20.446c-.047.262-.11.521-.192.775-.002,0,.273.131.272.131.235.209.471.418.707.627,0,0,.072.382.072.381.264-.123.537-.218.819-.287.047-.245.107-.487.177-.726-.045-.302-.116-.599-.211-.889-.284-.089-.573-.156-.868-.201-.262.053-.521.116-.778.189Z"/><path class="cls-167" d="m295.515,20.256c.294.044.584.111.869.2,0,0,.237-.225.237-.225-.092-.268-.14-.543-.144-.826l.03.021-.459-.007-.459.003s.009.007.01.008c0,.279-.027.555-.083.827Z"/><path class="cls-66" d="m295.589,19.421l.459-.003s.459.007.459.006c0-.311,0-.622,0-.932-.321.037-.643.074-.964.112.027.273.043.545.046.817Z"/><path class="cls-60" d="m294.608,22.366c.045.238.068.478.069.721,0,0-.041.054-.04.053.308-.005.607-.058.898-.157.033-.205.053-.413.063-.622,0,0-.072-.382-.072-.382,0,0-.395.113-.395.113l-.406-.067-.117.341Z"/><path class="cls-172" d="m294.725,22.025l.406.067s.395-.113.395-.113c-.236-.21-.472-.419-.708-.628-.09.217-.121.441-.093.674Z"/><path class="cls-169" d="m295.579,26.812c-.302.003-.604.002-.906-.004.016.762.079,1.501.916,1.855-.002-.002-.008-.01-.008-.01.007-.622.014-1.243.021-1.865l-.022.024Z"/><path class="cls-130" d="m295.573,30.51c-.311-.007-.622-.013-.933-.02,0,0,.022.012.022.012-.013.287.003.572.046.855l-.087.135.952-.238c.012-.249.016-.498.014-.747l-.014.003Z"/><path class="cls-153" d="m293.759,29.585c-.016.307-.024.614-.024.922,0,0-.013.013-.013.013.314-.006.627-.012.941-.018,0,0-.022-.012-.022-.012-.294-.302-.588-.603-.881-.905Z"/><path class="cls-148" d="m295.586,29.578c-.003.31-.005.62-.01.932-.002,0,.012-.002.011-.003.317-.015.634-.031.952-.046-.028-.3-.047-.601-.056-.903l-.448.023-.448-.003Z"/><path class="cls-118" d="m295.586,29.578l.448.003s.448-.023.449-.022c0,0,.013.013.013.013.018-.292.002-.581-.049-.869-.288-.023-.577-.039-.866-.05,0,0,.007.008.008.01-.007.306-.009.61-.003.914Z"/><path class="cls-164" d="m295.552,24.824c-.314.073-.628.146-.942.219.313.296.626.592.94.886.302-.037.601-.077.9-.124.04-.282.058-.566.053-.85-.317-.044-.634-.087-.951-.131Z"/><path class="cls-142" d="m296.45,25.806c-.299.046-.599.087-.9.124.028.294.038.588.029.883,0,0,.021-.024.021-.024.283-.327.566-.655.85-.983Z"/><path class="cls-45" d="m295.552,24.824c.317.044.634.087.951.131l-.025-.025c-.007-.309-.015-.618-.022-.927-.297.021-.594.033-.892.034l.019-.01c.003.266-.008.531-.031.796Z"/><path class="cls-37" d="m295.534,22.981c-.29.101-.589.153-.897.158.022.3.026.6.009.899.312-.003.625-.006.938-.01,0,0-.019.009-.019.009.008-.264.032-.527.071-.788l-.102-.269Z"/><path class="cls-22" d="m292.801,32.547c.023.214.053.427.091.638.302.101.603.203.905.305,0,0-.086-.326-.086-.325.025-.246.02-.493-.015-.739-.294-.098-.588-.195-.883-.293l-.013.414Z"/><path class="cls-14" d="m292.814,32.133c.294.098.588.195.884.29.323-.019.645-.036.967-.053-.003-.293-.018-.586-.044-.878,0,0,.087-.135.087-.134,0,0-.444.068-.444.068l-.445-.062c-.34.017-.68.034-1.02.051.008.239.012.478.014.718Z"/><path class="cls-151" d="m293.819,31.364l.445.062s.444-.068.444-.068c-.044-.284-.059-.569-.046-.855-.313.006-.627.012-.94.018-.01.286.023.568.098.844Z"/><path class="cls-1" d="m294.573,11.966c.336.018.673.036,1.009.054l.207-.064c-.064-.598-.128-1.197-.193-1.796l-.02.014c-.336-.024-.672-.048-1.009-.073-.26.037-.508.111-.746.221-.048.255-.065.512-.05.771.267.291.534.582.801.872Z"/><path class="cls-56" d="m295.585,9.28c-.002.298-.003.596-.006.895-.001,0,.018-.013.018-.013.336.331.671.661,1.006.991.247-.036.496-.039.745-.008.045-.641.09-1.282.136-1.922,0,0-.054.028-.054.028l-.995-.068c-.282.039-.565.071-.849.098Z"/><path class="cls-2" d="m295.585,9.28c.284-.026.567-.059.851-.096.061-.291.083-.585.066-.883,0,0,.052-.014.052-.014-.323.331-.646.662-.969.993Z"/><path class="cls-132" d="m294.663,16.609c.303.044.607.058.915.041.32-.007.638-.01.955-.014-.012-.279-.039-.556-.083-.832-.315-.074-.63-.149-.946-.223-.275.074-.553.093-.836.054-.002.324-.004.649-.006.974Z"/><path class="cls-134" d="m295.583,12.02c-.005.263.003.526.024.789.25.332.5.663.75.994,0,0,.159.069.157.068.305-.003.612-.004.918-.003,0-.308,0-.616,0-.925,0-.31,0-.62,0-.93-.274.018-.545-.003-.812-.065l-.414.021-.415-.014-.207.064Z"/><path class="cls-44" d="m295.504,15.581c.315.074.63.149.947.221.021-.34.04-.678.06-1.016-.309.003-.617.006-.926.008-.002.265-.029.527-.081.786Z"/><path class="cls-155" d="m295.585,14.795c.309-.003.617-.006.926-.008,0,0-.004.007-.004.007-.002-.307,0-.614.008-.921,0,0-.159-.069-.158-.068-.256.042-.514.057-.774.047,0,.315.001.629.002.944Z"/><path class="cls-147" d="m295.583,13.851c.26.01.518-.005.774-.047-.251-.331-.501-.662-.751-.994-.008.346-.015.694-.023,1.041Z"/><path class="cls-34" d="m296.533,16.636c-.318.004-.636.008-.956.014.006.306.008.609.001.911.309.001.62.004.931.008,0,0-.004-.006-.004-.005.008-.32.016-.641.024-.961l.004.034Z"/><path class="cls-133" d="m296.509,23.152c-.031-.359-.061-.719-.092-1.079-.283.068-.556.163-.819.286-.01.211-.031.419-.063.624,0-.002.102.268.101.266.283-.101.575-.133.874-.097Z"/><path class="cls-23" d="m296.45,25.806c-.283.328-.567.655-.85.983-.007.621-.014,1.243-.02,1.865.289.01.578.027.867.049.328-.015.655-.03.982-.044.305-.002.611,0,.916.006.299-.294.598-.589.898-.883l.043-.053c0-.301-.008-.601-.026-.902-.385-.238-1.726.415-.893-.958-.011-.229-.008-.458.011-.688-.302-.11-.605-.219-.907-.328-.331.026-.661.052-.992.079l.025.025c.005.285-.013.568-.053.85Z"/><path class="cls-53" d="m296.539,30.461c-.318.015-.635.031-.952.046.003.249-.002.498-.013.748,0,0-.009.418-.009.418.605-.063,1.211-.126,1.817-.188.048-.298.039-.594-.026-.888-.271-.052-.543-.097-.816-.135Z"/><path class="cls-119" d="m294.622,31.492c.026.292.04.585.044.878,0,0-.027-.022-.026-.021.315-.002.63-.004.945-.006-.012-.223-.019-.446-.02-.67,0,0,.009-.418.009-.418-.317.079-.634.158-.952.238Z"/><path class="cls-3" d="m296.509,23.152c-.299-.036-.59-.005-.874.097-.039.263-.062.525-.071.79.297-.002.595-.013.892-.034,0,0,.099.065.097.064-.023-.321-.044-.641-.066-.961l.022.045Z"/><path class="cls-81" d="m294.665,32.37c-.322.017-.644.033-.967.053.034.249.039.496.013.742.321.1.643.202.965.305,0,0-.029-.391-.029-.391.011-.243.008-.486-.008-.73l.027.022Z"/><path class="cls-84" d="m295.79,11.957l.415.014s.414-.021.414-.02c-.076-.264-.08-.53-.014-.797-.336-.331-.671-.661-1.007-.992.064.598.128,1.197.193,1.795Z"/><path class="cls-24" d="m295.558,33.129c.329.091.658.182.987.273,0,0-.098-.292-.098-.292.28-.273.561-.547.841-.821l.166.07c-.041-.299-.059-.6-.055-.902l-.018.025c-.605.063-1.211.125-1.816.188,0,.224.007.447.02.671.002.263-.007.525-.025.786Z"/><path class="cls-122" d="m295.558,33.129c.019-.262.027-.524.025-.786-.315.002-.629.004-.945.006.016.243.018.486.008.729.304.017.608.034.912.051Z"/></g></g><polygon class="cls-46" points="264.754 33 277.089 9.871 283.11 32.249 264.754 33"/><polygon class="cls-105" points="277.95 33 283.853 5.543 291.023 30.839 277.95 33"/><polygon class="cls-99" points="13.188 9.329 4.048 33 24.547 33 13.188 9.329"/><polygon class="cls-6" points="10.426 16.48 13.188 9.329 16.392 16.006 14.541 14.57 13.879 16.002 13.411 14.848 12.327 16.48 12.595 14.032 10.426 16.48"/><polygon class="cls-6" points="274.565 14.604 277.089 9.871 278.409 14.777 277.221 13.511 276.637 14.777 276.3 13.511 274.565 14.604"/><polygon class="cls-6" points="281.693 15.59 283.853 5.543 286.701 15.59 284.515 13.231 284.197 15.59 283.715 14.031 282.781 15.59 282.914 13.231 281.693 15.59"/><path class="cls-101" d="m264.247,23.564c.051.508-.726.106-.383.616.221.328.404.682.624,1.01.244.364.185.51-.275.532-.711.033-1.433-.128-2.132.115-.046.004-.093.01-.138.019-.158-.193-.32-.175-.484-.007-.046-.007-.092-.01-.139-.011-.649-.293-1.316.035-1.974-.055-.472-.064-.779-.123-.374-.687.328-.457.563-.98.839-1.474l.053-.044c1.044.33,2.116.114,3.174.156.283.011.378-.188.402-.435l.611.01"/><path class="cls-168" d="m264.051,23.308c-.204-.003-.407-.007-.611-.01-1.147-.327-2.317-.078-3.474-.136-.174-.001-.347-.007-.521-.003-.36.008-.456-.139-.264-.45.273-.442.538-.891.832-1.318.203-.295.255-.478-.19-.534-.371-.046-.45-.242-.252-.566.622-1.014,1.255-2.021,1.843-3.054.211-.371.384-.25.525-.024.678,1.092,1.344,2.191,1.987,3.303.178.308-.08.384-.329.389-.49.01-.477.163-.21.52.309.411.516.897.812,1.319.203.289.12.433-.148.564Z"/><path class="cls-54" d="m259.965,23.162c1.158.057,2.327-.192,3.474.136-.024.247-.119.447-.402.435-1.059-.042-2.13.174-3.175-.156-.01-.048-.018-.097-.025-.146.042-.09.085-.179.127-.269Z"/><path class="cls-131" d="m261.357,27.762c-.02-.493-.04-.987-.06-1.48.007-.148.015-.297.022-.445.046,0,.093.005.139.011.103.269-.174.784.279.778.317-.004.145-.499.205-.77.046-.009.092-.015.138-.019.004.151.008.303.012.454-.088.493.024,1.005-.142,1.491-.198-.007-.396-.013-.594-.02Z"/><path class="cls-17" d="m261.942,25.855c-.06.272.112.767-.205.77-.453.006-.176-.509-.279-.778.164-.168.326-.186.484.008Z"/><path class="cls-95" d="m0,24s42.23,3.192,86.115,3.095c0,0,63.283-1.846,125.584-.093,0,0,58.301,1.329,84.301-2.412v8.41H0v-9Z"/><path class="cls-125" d="m274.803,19.18c1.129,1.243,2.258,2.485,3.386,3.727.032.038.064.076.095.114-.087.625-.596.294-.911.401-.047,0-.095-.001-.142-.002l.002-.021c-.224-.176-.488-.112-.737-.113-1.803-.008-3.606-.009-5.409-.013-.408-.496-.798-1.009-1.229-1.485-.747-.826-1.556-1.599-2.105-2.585.604.026,1.221-.158,1.811.109-.175.8.319,1.24.885,1.642q1.403.128,1.412-1.242c.001-.169.011-.339.016-.508.975-.008,1.951-.016,2.926-.024Z"/><path class="cls-92" d="m267.753,19.203c.549.987,1.358,1.76,2.105,2.585.431.476.821.989,1.229,1.485-.519.007-1.037.014-1.556.02-.848-.949-1.703-1.892-2.538-2.852-.238-.273-.391-.293-.634-.004-.697.829-1.417,1.638-2.134,2.451-.222.252-.426.544-.82.541-.048-.003-.097-.006-.145-.009-.32-.074-.783.183-.892-.384.038-.044.075-.087.113-.131.934-.896,1.753-1.898,2.566-2.899.583-.718,1.23-1.139,2.178-.939.148.154.352.089.527.134Z"/><path class="cls-111" d="m271.877,19.204c-.006.169-.015.338-.016.508q-.01,1.371-1.412,1.242c-.004-.316-.021-.632-.01-.947.051-1.421-.342-1.366,1.408-1.317.006.128.012.255.018.383.004.044.008.088.011.132Z"/><path class="cls-19" d="m271.848,18.69c-1.751-.048-1.357-.103-1.408,1.317-.011.315.006.632.01.947-.565-.402-1.059-.842-.885-1.642.108-.099.078-.186-.022-.267.125-.166.096-.336.014-.508.807,0,1.613,0,2.42,0-.043.051-.085.102-.128.152Z"/><path class="cls-29" d="m271.976,18.538c-.807,0-1.613,0-2.42,0,0-.122,0-.244,0-.367.807-.002,1.614-.004,2.421-.006,0,.124,0,.249,0,.373Z"/><path class="cls-83" d="m271.877,19.204c-.004-.044-.008-.088-.011-.132.979.038,1.967-.171,2.937.108-.975.008-1.951.016-2.926.024Z"/><path class="cls-8" d="m269.542,19.045c.1.081.131.169.022.267-.59-.268-1.207-.083-1.811-.109-.176-.045-.379.019-.527-.134.772-.008,1.544-.016,2.316-.024Z"/><path class="cls-115" d="m271.977,18.165c-.807.002-1.614.004-2.421.006.807-.228,1.614-.224,2.421-.006Z"/><path class="cls-128" d="m277.228,26.992c-.18.225-.368.446-.402.749-2.382.067-4.764.048-7.147.009-.001-.96-.004-1.92-.004-2.88q0-1.153,1.094-1.397c.02-.004.037-.021.055-.032,2.136-.014,4.272-.028,6.408-.041,0,0-.002.021-.002.021-.001,1.19-.002,2.381-.003,3.571Zm-2.373-1.146c.221.015.306-.104.304-.308-.001-.201-.02-.4-.279-.416-.212-.013-.297.124-.302.322-.005.202.005.393.277.401Zm.302-1.234c.005-.2-.076-.328-.291-.327-.271,0-.289.186-.285.392.003.213.106.306.317.29.228-.017.264-.171.26-.355Zm-3.232.008c.006-.197-.055-.335-.283-.334-.23.001-.281.145-.278.339.002.189.04.341.277.336.229-.005.279-.153.284-.341Zm.842.867c-.004-.177-.021-.349-.259-.353-.237-.004-.267.158-.264.343.004.176.01.354.252.356.233.002.267-.162.27-.346Zm3.222-.002c-.007-.173-.026-.351-.251-.357-.262-.007-.287.182-.281.385.006.184.044.333.277.322.232-.011.25-.175.255-.351Zm-4.151-.002c.004-.119.009-.268-.208-.279-.232-.012-.291.116-.282.314.007.148-.004.303.214.314.231.011.292-.117.276-.348Zm4.142-.872c.003-.196-.062-.326-.289-.308-.244.019-.226.201-.232.367-.006.176.074.271.257.275.24.005.259-.158.263-.334Zm-3.505.333c.183.021.282-.059.281-.243,0-.159.054-.356-.188-.395-.202-.032-.32.058-.319.274,0,.168-.02.35.226.364Z"/><path class="cls-10" d="m266.846,27.771c-.029.003-.058.009-.085.02,0,0-.055-.032-.055-.032.005-.935.023-1.87.007-2.804-.006-.371.089-.571.496-.521.126.015.257.017.382,0,.512-.074.725.1.69.653-.047.741-.021,1.487-.007,2.23.003.171-.136.469.249.446.386-.004.771-.009,1.157-.013,2.382.039,4.764.058,7.147-.009-.033.059-.066.118-.098.176-2.644-.005-5.288-.01-7.933-.016-.23,0-.474.061-.667-.13.005-.895-.01-1.791.022-2.685.018-.515-.277-.526-.652-.524-.372.002-.673.006-.658.523.026.894.007,1.79.006,2.686Z"/><path class="cls-75" d="m277.385,25.585c-.004.43-.007.859-.011,1.289-.049.039-.098.079-.146.118.001-1.19.002-2.381.003-3.571.047,0,.095.001.142.002.004.721.008,1.442.012,2.163Z"/><path class="cls-107" d="m277.234,23.399c-2.136.014-4.272.028-6.408.041-.426-.094-.886.109-1.294-.147.519-.007,1.037-.014,1.556-.02,1.803.003,3.606.005,5.409.012.249.001.513-.062.737.113Z"/><path class="cls-35" d="m269.532,23.294c.408.255.868.052,1.294.147-.018.011-.035.028-.055.032q-1.094.244-1.094,1.397c0,.96.003,1.92.004,2.88-.386.004-.771.009-1.157.013-.001-.726.009-1.452-.005-2.177-.031-1.609.304-1.372-1.503-1.406-.418-.008-.563.154-.554.566.021,1.003.01,2.007.012,3.01-1.028.008-2.057.016-3.085.024,0,0-.003-.002-.003-.002.007-1.449.015-2.898.022-4.347.394.003.597-.289.82-.541.716-.812,1.436-1.622,2.134-2.451.243-.289.397-.269.634.004.835.96,1.691,1.903,2.538,2.852Zm-3.71,1.752q-.001-.987-1.127-.988-.802,0-.801.959t.979.97q.951,0,.949-.941Z"/><path class="cls-7" d="m263.406,23.43c-.007,1.449-.015,2.898-.022,4.347-.267-.517-.081-1.071-.12-1.606-.036-.482-.023-.968-.032-1.452.01-.433.02-.866.03-1.299.048.003.097.006.145.009Z"/><path class="cls-38" d="m274.856,25.848c-.273-.01-.283-.2-.278-.403.005-.198.09-.335.302-.322.259.016.278.215.279.416.001.204-.083.323-.303.309Z"/><path class="cls-38" d="m275.158,24.612c.002.184-.033.338-.261.355-.211.016-.313-.078-.317-.29-.003-.205.015-.391.285-.392.216,0,.296.127.292.326Z"/><path class="cls-38" d="m271.926,24.619c-.005.189-.055.338-.284.342-.237.005-.275-.147-.277-.336-.002-.194.048-.337.278-.339.228-.001.289.137.283.333Z"/><path class="cls-38" d="m272.767,25.488c-.003.183-.036.347-.269.345-.242-.002-.248-.18-.252-.356-.004-.185.026-.347.264-.343.238.004.255.175.258.354Z"/><path class="cls-38" d="m275.99,25.486c-.005.174-.023.338-.255.35-.232.011-.271-.139-.277-.322-.006-.203.018-.392.281-.385.225.006.244.184.251.358Z"/><path class="cls-38" d="m271.84,25.483c.016.231-.045.359-.276.348-.217-.01-.207-.165-.214-.314-.009-.197.05-.325.282-.314.217.011.212.16.208.279Z"/><path class="cls-38" d="m275.983,24.611c-.005.177-.024.34-.264.335-.184-.004-.264-.099-.257-.275.006-.166-.013-.347.232-.367.227-.018.292.112.29.307Z"/><path class="cls-38" d="m272.478,24.946c-.247-.015-.226-.197-.226-.365-.001-.216.116-.306.319-.274.242.038.187.236.188.395,0,.184-.098.264-.28.244Z"/><path class="cls-176" d="m266.846,27.771c0-.895.02-1.791-.006-2.686-.015-.517.286-.521.658-.523.375-.002.67.009.652.524-.032.894-.017,1.79-.022,2.685-.428,0-.855,0-1.283,0Z"/><path class="cls-7" d="m263.387,27.779c1.028-.008,2.057-.016,3.085-.024.078.001.156.003.234.004,0,0,.055.032.055.032-1.125.164-2.25.173-3.374-.012Z"/><path class="cls-135" d="m266.706,27.76c-.078-.001-.156-.003-.234-.004-.002-1.003.009-2.007-.012-3.01-.009-.412.136-.574.554-.566,1.807.034,1.472-.203,1.503,1.406.014.726.004,1.452.005,2.177-.384.023-.245-.275-.249-.446-.014-.743-.04-1.489.007-2.23.035-.553-.178-.727-.69-.653-.125.018-.256.016-.382,0-.407-.05-.502.15-.496.521.015.934-.003,1.869-.007,2.804Z"/><path class="cls-86" d="m265.821,25.046q.001.941-.949.941-.978,0-.979-.97t.801-.959q1.126,0,1.127.988Zm-1.403.125c-.232.017-.254.182-.253.364,0,.212.101.311.317.3.241-.013.261-.176.257-.358-.005-.206-.101-.319-.321-.306Zm.876.652c.235.02.284-.128.285-.317,0-.152-.006-.309-.207-.328-.203-.019-.319.075-.322.289-.002.176-.002.35.244.356Zm-.241-1.238c-.005.194.021.347.256.358.19.008.267-.084.263-.261-.004-.163.033-.354-.216-.375-.21-.018-.315.076-.303.279Zm-.339.053c-.004-.183-.035-.338-.273-.333-.238.005-.264.158-.261.342.002.164.041.286.24.297.226.012.298-.108.294-.306Z"/><path class="cls-38" d="m264.418,25.171c.22-.013.316.1.321.306.004.182-.016.346-.257.358-.216.011-.316-.087-.317-.3,0-.183.021-.347.253-.364Z"/><path class="cls-38" d="m265.294,25.823c-.245-.006-.246-.18-.244-.356.002-.213.119-.308.322-.289.201.019.207.176.207.328,0,.19-.049.338-.285.317Z"/><path class="cls-38" d="m265.053,24.585c-.012-.203.093-.297.303-.279.249.021.212.212.216.375.004.177-.073.27-.263.261-.235-.01-.261-.164-.256-.358Z"/><path class="cls-38" d="m264.714,24.638c.004.199-.069.319-.294.306-.199-.011-.238-.133-.24-.297-.002-.184.024-.337.261-.342.238-.005.27.15.273.333Z"/><path class="cls-101" d="m286.023,23.136c.055.552-.789.115-.416.669.24.357.439.741.678,1.098.265.396.201.554-.299.578-.772.036-1.558-.139-2.317.125-.05.004-.101.011-.15.02-.172-.21-.348-.191-.526-.008-.05-.007-.1-.011-.151-.012-.706-.318-1.43.038-2.146-.06-.513-.07-.847-.134-.406-.747.356-.496.612-1.065.912-1.602l.058-.048c1.135.359,2.3.124,3.451.17.308.012.411-.204.437-.473l.664.011"/><path class="cls-168" d="m285.811,22.857c-.221-.004-.443-.007-.665-.011-1.247-.356-2.518-.085-3.777-.147-.189-.002-.378-.008-.566-.004-.391.008-.495-.152-.287-.489.297-.481.584-.968.905-1.433.221-.32.278-.52-.206-.581-.403-.05-.489-.263-.273-.615.676-1.102,1.364-2.197,2.003-3.32.229-.403.418-.272.57-.026.737,1.187,1.461,2.382,2.16,3.591.194.335-.087.417-.358.423-.533.011-.519.177-.228.565.335.447.561.975.883,1.434.22.314.131.471-.161.613Z"/><path class="cls-54" d="m281.369,22.699c1.258.062,2.53-.208,3.777.147-.026.269-.129.486-.437.473-1.151-.046-2.316.189-3.451-.17-.011-.053-.02-.105-.027-.159.046-.097.092-.195.138-.292Z"/><path class="cls-131" d="m282.882,27.699c-.022-.536-.043-1.073-.065-1.609.008-.161.016-.323.024-.484.05.001.101.005.151.012.112.293-.189.852.303.846.345-.004.157-.542.223-.838.05-.009.1-.016.15-.02.004.165.009.329.014.494-.095.536.026,1.093-.154,1.621-.215-.007-.43-.014-.646-.022Z"/><path class="cls-17" d="m283.518,25.626c-.066.296.122.833-.223.838-.492.006-.191-.553-.303-.846.178-.183.354-.202.526.008Z"/><path class="cls-91" d="m250.139,17.87c.468.227.936.454,1.404.681.104.05.19.123.247.222.729,1.26,1.469,2.512,2.08,3.837.279.605.226,1.128-.152,1.684-.75,1.102-1.546,2.148-2.699,2.869-.229.143-.479.221-.735.29-.264-.127-.576-.051-.835-.198.006-.131.046-.272.013-.393-.192-.684-.201-1.386-.244-2.085.115-.505-.014-1.025.091-1.53.159.026.226-.074.248-.202.048-.275.098-.551.114-.828.008-.142-.022-.317-.244-.307-.027-.097-.175-.157-.128-.263.201-.457.225-.94.252-1.427.028-.497.193-.977.204-1.477.084-.038.205-.101.186-.175-.072-.281.17-.457.2-.698Z"/><path class="cls-78" d="m241.104,25.35c-.03.444-.256.556-.639.315-.196-.123-.33-.301-.44-.5-.63-1.131-.917-2.362-1.145-3.624-.119-.659.07-1.155.482-1.612.905-1.003,1.918-1.89,2.982-2.72.107-.083.216-.152.361-.138.487.045.974.019,1.461.005.096.039.245-.031.286.117.038.136-.058.219-.147.31-.276.285-.445.612-.456,1.027-.018.69-.538,1.1-.935,1.576-.199.089-.36.226-.508.385-.593.633-1.211,1.242-1.847,1.831-.149.138-.181.275-.127.461.127.444.253.888.365,1.336.075.299.103.612.257.888.017.115.033.229.05.344Z"/><path class="cls-149" d="m249.216,24.777c.043.699.052,1.402.244,2.085.034.12-.006.261-.013.393-.105.365-.231.72-.424,1.049-.627.093-1.252.199-1.882.275-.351.042-.671-.147-.997-.241-.305-.088-.593-.258-.902-.362-.105-.035-.153-.13-.22-.206-.046-.215-.134-.432-.128-.646.008-.326-.184-.422-.436-.48-.127-.029-.261-.033-.391-.048-.848-.198-1.696-.398-2.545-.594-.11-.025-.221-.04-.285-.15.444.104.897.174,1.35.172.468-.002.748-.372,1.057-.663.023-.021-.006-.097-.011-.148.225.02.45.041.674.061-.079.099-.283-.051-.301.129-.014.14.119.234.219.314.102.081.226.139.345.195.563.262,1.126.522,1.691.778.725.329.989.332,1.359-.253.021-.034.063-.054.085-.087.413-.611,1.079-.981,1.509-1.575Z"/><path class="cls-72" d="m249.752,18.743c-.011.501-.175.981-.204,1.477-.028.487-.051.97-.252,1.427-.047.106.101.166.128.263-.008.04-.016.08-.024.121-.071-.071-.071-.186-.17-.243-.546-.315-1.062-.676-1.619-.977-.42-.227-.869-.439-1.18-.831.16-.413.231-.847.325-1.277.069-.312.032-.649.195-.94.121-.228.086-.485.13-.727.316-.151.601.035.887.105.456.111.894.287,1.314.503.098.051.21.074.316.11-.065.073-.076.149-.047.246.074.245.135.494.202.741Zm-.996.892c.162-.002.378,0,.448-.25.06-.215-.206-.576-.436-.616-.284-.051-.557.136-.582.397-.018.192.258.437.569.469Z"/><path class="cls-89" d="m243.634,25.216c.005.051.034.126.011.148-.309.29-.589.661-1.057.663-.453.001-.906-.068-1.35-.172-.203-.126-.002-.359-.134-.504-.017-.115-.033-.229-.05-.344.054-.242.045-.484-.006-.723-.103-.48-.127-.963-.036-1.444.048-.253.106-.61.381-.619.227-.008.298.32.321.571.015.157.046.333.261.359.016.023.038.044.046.069.285.868.785,1.563,1.612,1.996Z"/><path class="cls-114" d="m242.914,20.106c.397-.476.917-.887.935-1.576.011-.415.18-.742.456-1.027.089-.091.185-.174.147-.31-.041-.148-.19-.078-.286-.117.77-.057,1.534-.201,2.31-.168.142.006.304-.001.285.219-.392.497-.783.994-1.175,1.491-.236.284-.473.567-.709.851-.19.202-.409.359-.688.411-.425.079-.851.152-1.277.227Zm1.396-1.474c.366.032.534-.077.555-.331.017-.202-.074-.339-.273-.379-.205-.041-.514.221-.551.428-.047.27.127.278.268.282Z"/><path class="cls-124" d="m250.244,28.483c-.288.433-.216,1.054.162,1.41.47.443.456.431.039.929-.201.239-.354.194-.621.109-.581-.186-.808-.522-.75-1.123.019-.201.017-.421-.006-.63-.021-.19.096-.295.217-.403.289-.129.563-.278.762-.535.171-.004.18.122.197.243Z"/><path class="cls-12" d="m245.587,18.618c.392-.497.783-.994,1.175-1.491.017,0,.034,0,.051-.002.146.005.184.087.168.221-.017.139-.021.279-.031.418-.163.291-.126.628-.195.94-.095.43-.165.864-.325,1.277-.21-.176-.133-.408-.119-.626.028-.448-.295-.778-.723-.737Z"/><path class="cls-51" d="m244.069,26.597c.131.015.264.019.391.048.252.057.444.154.436.48-.005.214.082.431.128.646-.018.158-.038.315-.052.473-.01.105-.025.2-.158.21-.259-.167-.447-.408-.657-.627-.057-.085-.115-.171-.172-.256.028-.324.056-.649.084-.973Z"/><path class="cls-36" d="m250.047,28.24c-.199.257-.473.405-.762.535-.226-.081-.277-.257-.261-.471.193-.329.32-.685.424-1.049.259.146.571.071.835.198-.15.241-.051.557-.236.788Z"/><path class="cls-106" d="m249.752,18.743c-.066-.247-.127-.496-.202-.741-.03-.098-.018-.174.047-.246.19-.008.371.03.542.114-.03.241-.273.418-.2.698.019.074-.102.137-.186.175Z"/><path class="cls-166" d="m243.984,27.571c.057.085.115.171.172.256-.147.008-.195.138-.277.225-.037-.063-.074-.126-.111-.188.031-.128-.032-.325.216-.294Z"/><path class="cls-160" d="m246.951,17.764c.01-.139.014-.28.031-.418.016-.134-.022-.215-.168-.221.077-.067.119-.236.267-.088-.044.242-.009.498-.13.727Z"/><path class="cls-121" d="m243.879,28.053c.083-.087.13-.217.277-.225.209.219.397.46.657.627.162.405-.105.768-.111,1.153-.008.555-.37.677-.816.774-.44.095-.511.089-.734-.315-.266-.482-.273-.496.22-.751.304-.157.475-.36.459-.714-.008-.182.03-.365.047-.548Z"/><path class="cls-176" d="m245.587,18.618c.428-.042.751.288.723.737-.013.218-.09.45.119.626.311.392.761.603,1.18.831.556.301,1.073.662,1.619.977.099.057.099.172.17.243-.031.405-.062.811-.093,1.216-.104.506.025,1.025-.091,1.53-.43.594-1.096.964-1.509,1.575-.022.033-.064.054-.085.087-.37.585-.634.582-1.359.253-.565-.256-1.129-.516-1.691-.778-.12-.056-.243-.113-.345-.195-.1-.08-.233-.175-.219-.314.018-.18.222-.029.301-.129.07-.043.148-.043.227-.056.813-.126,1.451-.523,1.87-1.242.45-.488.558-1.053.382-1.683-.04-.177-.189-.258-.325-.339-.522-.31-1.068-.555-1.686-.597.02-.148-.039-.227-.192-.253-.15-.025-.299-.06-.443-.108-.19-.063-.287-.162-.098-.343.175-.168.312-.369.487-.541.173-.17.383-.351.348-.646.236-.284.473-.567.709-.851Z"/><path class="cls-68" d="m249.307,23.246c.031-.405.062-.81.093-1.216.008-.04.016-.08.024-.121.222-.01.252.165.244.307-.015.277-.066.553-.114.828-.022.127-.089.228-.248.202Z"/><path class="cls-112" d="m244.878,19.469c.035.295-.175.477-.348.646-.175.172-.312.373-.487.541-.189.181-.092.281.098.343.144.047.293.083.443.108.153.025.212.105.192.253-.166.06-.25-.121-.375-.136-.653-.077-1.312-.106-1.934.147-.197.08-.361.241-.453.485-.165.437-.097.861-.039,1.293-.215-.026-.246-.202-.261-.359-.023-.251-.094-.579-.321-.571-.276.009-.334.366-.381.619-.091.481-.067.964.036,1.444.051.239.06.482.006.723-.154-.277-.182-.589-.257-.888-.112-.448-.238-.892-.365-1.336-.053-.185-.021-.323.127-.461.636-.589,1.254-1.197,1.847-1.831.148-.158.309-.295.508-.385.426-.075.852-.148,1.277-.227.279-.052.498-.209.688-.411Z"/><path class="cls-26" d="m241.976,23.15c-.058-.433-.126-.856.039-1.293.092-.244.256-.405.453-.485.622-.252,1.281-.224,1.934-.147.125.015.209.195.375.136.618.041,1.164.287,1.686.597.136.081.285.161.325.339-.085.215-.204.014-.306.025-.208-.273-.543-.307-.826-.44-.34-.096-.697-.13-1.024-.275-.301-.214-.636-.206-.978-.15-.364-.032-.696.143-1.052.167-.079.005-.107.078-.147.14-.293.451-.257.954-.17,1.435.044.24.099.516.29.722.181.194.346.403.516.607.164.196.355.318.626.325.264.007.528.054.791.089.166.022.332.019.475-.064.408-.237.861-.418,1.13-.845.035-.056.11-.087.166-.13.042.026.085.051.127.077-.419.72-1.056,1.116-1.87,1.242-.08.012-.157.013-.227.056-.225-.02-.45-.041-.674-.061-.827-.433-1.327-1.129-1.612-1.996-.008-.025-.031-.046-.046-.069Z"/><path class="cls-136" d="m248.756,19.635c-.311-.032-.588-.277-.569-.469.025-.261.298-.448.582-.397.229.041.496.401.436.616-.07.25-.286.248-.448.25Z"/><path class="cls-126" d="m244.31,18.633c-.141-.004-.315-.012-.268-.282.036-.208.346-.47.551-.428.199.04.29.177.273.379-.022.254-.189.363-.555.331Z"/><path class="cls-21" d="m246.405,23.978c-.042-.026-.085-.051-.127-.077.117-.521.29-1.034.203-1.581.102-.011.221.19.306-.025.176.63.067,1.195-.382,1.683Z"/><path class="cls-64" d="m246.481,22.321c.087.547-.086,1.06-.203,1.581-.056.043-.131.074-.166.13-.268.427-.721.607-1.13.845-.142.083-.309.086-.475.064-.263-.036-.526-.082-.791-.089-.271-.007-.463-.13-.626-.325-.17-.204-.336-.412-.516-.607-.191-.206-.246-.482-.29-.722-.087-.481-.124-.984.17-1.435.04-.062.068-.135.147-.14.356-.024.687-.199,1.052-.167.044.007.089.013.133.02-.06.053-.134.038-.204.042-.11.005-.216.048-.223.165-.006.115.09.183.2.193.64.061,1.268.219,1.914.233.162.004.228-.067.182-.228.282.133.618.167.826.44Z"/><path class="cls-94" d="m245.656,21.881c.046.161-.02.232-.182.228-.646-.014-1.274-.173-1.914-.233-.11-.01-.206-.078-.2-.193.007-.117.112-.159.223-.165.071-.004.144.011.204-.042.291-.015.561.103.845.13.327.145.684.179,1.024.275Z"/><path class="cls-65" d="m244.632,21.605c-.284-.028-.554-.145-.845-.13-.044-.007-.089-.013-.133-.02.342-.055.677-.064.978.15Z"/><path class="cls-6" d="m244.432,18.153c-.023,0-.051-.002-.043-.045.006-.033.055-.075.088-.069.032.006.047.028.044.061-.003.041-.03.058-.089.053Z"/><path class="cls-6" d="m248.637,18.978c-.023,0-.051-.002-.043-.045.006-.033.055-.075.088-.069.032.006.047.028.044.061-.003.041-.03.058-.089.053Z"/><path class="cls-109" d="m216.926,18.692c-.503-.049-.868-.404-1.305-.598-.409-.182-.784-.295-1.121.11-.324.39-.254.843.041,1.138.863.866.889,1.839.821,3.007-.212,3.62,1.395,6.117,4.807,7.521,4.412,1.816,8.604,1.21,12.393-1.623,3.073-2.299,3.66-6.389,1.359-9.811-.856-1.272-1.009-2.567-1.136-3.955-.022-.24.001-.484-.021-.724-.037-.391-.228-.658-.657-.641-.374.016-.555.266-.578.611-.034.516-.036,1.034-.051,1.553.209.58.677,1.213.57,1.726-.193.927.235,1.485.703,2.104.278.534.615,1.047.821,1.608.299.812.726,1.686.13,2.512-.478.662-1.215,1.069-1.897,1.519-.471.31-.574.104-.782-.332-.455-.953-.523-2.036-1.144-2.939-.55-.8-1.054-1.399-2.135-.932-.427.185-.9.323-1.392.245-1.139.46-2.344.385-3.531.41-1.522.032-3.004-.135-4.198-1.242-.566-.422-1.131-.843-1.697-1.265Z"/><path class="cls-109" d="m230.521,15.8c-.172.649-.624.844-1.244.768-.24-.305-.523-.195-.693.02-.474.599-1.186.764-1.814,1.084-1.903.745-3.829.509-5.717.01-.54-.142-1.044-.252-1.588-.229-.584.112-.781-.491-1.214-.658-.419-.362-.838-.723-1.257-1.085-.445-1.579-.353-3.084.617-4.467.742-.153,1.481-.311,2.116-.761.679-.178,1.193-.61,1.676-1.09.759-.495,1.302-1.194,1.813-1.923.369-.204.744-.258,1.178-.222,3.492.283,6.117,2.792,6.523,6.275.006.783-.198,1.53-.397,2.277Zm-4.147-4.762c-.415.191-.247.547-.048.844-.181.493-1.271.8-.446,1.48.688.567,1.117-.19,1.504-.614.493-.542,1.137-.957,1.511-1.664-.669-.075-1.131.385-1.698.466-.17-.344-.392-.71-.823-.511Zm2.046,2.618c.144-.145.33-.314.142-.518-.187-.203-.38-.053-.525.101-1.121,1.191-2.558,1.202-4.032,1.091-.249-.019-.62-.197-.644.239-.018.325.355.272.563.314.368.073.75.077.843.086,1.581.007,2.724-.379,3.653-1.313Zm-3.73-.752c.233.036.4-.14.392-.375-.013-.407-.188-.758-.601-.87-.315-.085-.399.176-.432.444.022.416.201.733.64.801Z"/><path class="cls-103" d="m221.403,9.393c.759-.495,1.302-1.194,1.813-1.923.068-.229.164-.455.197-.689.104-.737-.004-1.414-.805-1.699-.773-.275-1.236.185-1.586.803-.168.296-.323.599-.518.963-.454-.218-.617-.598-.682-.986-.134-.799-.604-.825-1.192-.562-.342.153-.664.361-.972.578-.486.344-.91.766-1.062,1.359-.205.803.677.72.978,1.12.12.16.311.267.469.398.846.069,1.261-.58,1.756-1.075.413-.414.891-.546,1.392-.302.551.268.295.746.185,1.168-.073.282-.286.575.024.848Z"/><path class="cls-152" d="m217.611,11.243c.742-.153,1.481-.311,2.116-.761-.697-.425-1.508-.643-2.138-1.189-.034,0-.069-.004-.103.002-.666.124-1.528.163-1.472,1.065.056.909.917.842,1.598.881Z"/><path class="cls-9" d="m218.045,8.754c.846.069,1.261-.58,1.756-1.075.413-.414.891-.546,1.392-.302.551.268.295.746.185,1.168-.073.282-.286.575.024.848-.483.48-.997.912-1.676,1.09-.697-.425-1.508-.643-2.138-1.189.198-.141.479-.212.457-.54Zm3.032-.446c.066-.268-.014-.482-.215-.646-.272-.223-.444.012-.611.172-.425.406-.833.831-1.364,1.105-.224.116-.457.239-.307.543.117.237.346.325.609.315.525-.002,1.765-.988,1.888-1.489Z"/><path class="cls-32" d="m230.521,15.8c.314-.236.581-.466.855.097.264.542.403,1.077.35,1.675-.07.778.231,1.325,1.023,1.537-.469-.619-.896-1.177-.703-2.104.107-.513-.361-1.146-.57-1.726-.41-.515.238-1.365-.558-1.757.006.783-.198,1.53-.397,2.277Z"/><path class="cls-139" d="m217.163,17.839c.546-.158.403-1.032,1.088-1.044-.419-.362-.838-.723-1.257-1.085-.607.286-.466.714-.144,1.085.278.321.346.655.313,1.045Z"/><path class="cls-61" d="m226.352,20.789c-1.641-.232-3.269.265-4.932.026-1.006-.144-1.834-.682-2.796-.858,1.194,1.107,2.676,1.274,4.198,1.242,1.186-.025,2.392.05,3.531-.41Z"/><path class="cls-11" d="m226.326,11.882c-.181.493-1.271.8-.446,1.48.688.567,1.117-.19,1.504-.614.493-.542,1.137-.957,1.511-1.664-.669-.075-1.131.385-1.697.466-.195.362-.505.42-.871.333Z"/><path class="cls-31" d="m224.767,14.969c1.581.007,2.724-.379,3.653-1.313.144-.145.33-.314.142-.518-.187-.203-.38-.053-.525.101-1.121,1.191-2.558,1.202-4.032,1.091-.249-.019-.62-.197-.644.239-.018.325.355.272.563.314.368.073.75.077.843.086Z"/><path class="cls-113" d="m219.465,17.453c.968.528,1.998.828,3.104.852.376-.007.753-.003,1.128-.024,1.015-.057,2.054.215,3.041-.221,0,0,0,0,0,0,.011-.129.022-.259.033-.388-1.903.745-3.829.509-5.717.01-.54-.142-1.044-.252-1.588-.229Z"/><path class="cls-76" d="m224.05,12.103c.022.416.201.733.64.801.233.036.4-.14.392-.375-.013-.407-.188-.758-.601-.87-.315-.085-.399.176-.432.444Z"/><path class="cls-76" d="m226.326,11.882c.366.087.677.03.871-.333-.17-.344-.392-.71-.823-.512-.415.191-.247.547-.048.844Z"/><path class="cls-48" d="m226.77,17.672c-.011.129-.022.259-.033.388.847-.498,1.694-.995,2.54-1.493-.24-.305-.523-.195-.693.02-.474.599-1.186.764-1.814,1.084Z"/><path class="cls-48" d="m226.737,18.06c-.987.436-2.026.164-3.041.221-.375.021-.752.017-1.128.024,1.245.376,2.513.169,3.774.15.23-.003.37-.156.395-.396Z"/><path class="cls-161" d="m219.189,9.798c.525-.002,1.765-.988,1.888-1.489.066-.268-.014-.482-.215-.646-.272-.223-.444.012-.611.172-.425.406-.833.831-1.364,1.105-.224.116-.457.239-.307.543.117.237.346.325.608.315Z"/><path class="cls-100" d="m229.722,22.02c.134.206.307.269.525.151.171-.093.279-.242.189-.43-.108-.228-.321-.233-.527-.147-.189.078-.251.231-.187.426Z"/><path class="cls-100" d="m230.255,24.543c.15.191.326.237.529.101.16-.106.252-.263.148-.44-.127-.215-.336-.2-.531-.097-.178.094-.226.249-.146.436Z"/><path class="cls-79" d="m230.521,15.8c-.172.649-.624.844-1.244.768-.847.498-1.694.995-2.54,1.493h0c-.025.239-.165.392-.395.395-1.26.019-2.529.226-3.774-.15-1.106-.024-2.136-.324-3.104-.852-.584.112-.781-.491-1.214-.658-.685.012-.543.887-1.088,1.044-.284.227-.131.576-.236.853.566.421,1.131.843,1.697,1.265.962.176,1.79.714,2.796.858,1.664.239,3.291-.259,4.932-.026.492.078.965-.06,1.392-.245,1.081-.468,1.585.132,2.135.932.621.903.689,1.986,1.144,2.939.208.436.311.643.782.332.681-.449,1.419-.856,1.897-1.519.596-.826.169-1.7-.13-2.512-.207-.561-.543-1.073-.821-1.607-.792-.212-1.093-.758-1.023-1.537.053-.598-.086-1.133-.35-1.675-.274-.564-.541-.334-.855-.097Z"/><path class="cls-6" d="m224.564,11.981c-.023.001-.051.002-.047-.041.003-.034.049-.08.082-.076.032.004.049.024.049.057,0,.041-.025.061-.084.061Z"/><path class="cls-6" d="m226.632,11.225c-.023.001-.051.002-.047-.041.003-.034.049-.08.082-.076.032.004.049.024.049.057,0,.041-.025.061-.084.061Z"/></svg>