<?xml version="1.0" encoding="UTF-8"?><svg id="_레이어_1" xmlns="http://www.w3.org/2000/svg" xmlns:xlink="http://www.w3.org/1999/xlink" viewBox="0 0 296 33"><defs><style>.cls-1{fill:#c93b55;}.cls-2{fill:#91071e;}.cls-3{fill:#cb9c85;}.cls-4{fill:#d49984;}.cls-5{clip-path:url(#clippath-2);}.cls-5,.cls-6,.cls-7,.cls-8,.cls-9,.cls-10{fill:none;}.cls-11{fill:#bd0b27;}.cls-12{fill:#934026;}.cls-13{fill:#ce6339;}.cls-14{fill:#b05734;}.cls-15{fill:#90091e;}.cls-16{fill:#c67750;}.cls-17{fill:#f0c8bc;}.cls-18{fill:#ac5232;}.cls-19{fill:#f9d3bd;}.cls-20{fill:#b55231;}.cls-21{fill:#c07f61;}.cls-22{fill:#954225;}.cls-23{fill:#b66374;}.cls-24{fill:#eff0ef;}.cls-6{opacity:.7;}.cls-25{fill:#b55330;}.cls-26{fill:#90081e;}.cls-27{fill:#feffff;}.cls-28{fill:#d89056;}.cls-29{fill:#ad5431;}.cls-30{fill:#ba7c60;}.cls-31{fill:#19171a;}.cls-32{fill:#f0ebea;}.cls-33{fill:#1b1b1c;}.cls-34{fill:#ac4f31;}.cls-35{fill:#fdfdfd;}.cls-36{fill:#e6b9a2;}.cls-37{fill:#bfbec1;}.cls-38{fill:#dfa695;}.cls-39{fill:#fdfdfe;}.cls-7{clip-path:url(#clippath-3);}.cls-40{fill:#e19f6d;}.cls-41{fill:#be0a27;}.cls-42{fill:#d68c6f;}.cls-43{fill:#d58c6f;}.cls-44{fill:#eec7bd;}.cls-9{clip-path:url(#clippath);}.cls-45{fill:#b77655;}.cls-10{clip-path:url(#clippath-1);}.cls-46{fill:#f3e9e2;}.cls-47{fill:#d48e6f;}.cls-48{fill:#cb9b85;}.cls-49{fill:#b55331;}.cls-50{fill:#fbfcfb;}.cls-51{fill:#f2f2f2;}.cls-52{fill:#b35d6d;}.cls-53{fill:#801328;}</style><clipPath id="clippath"><rect class="cls-8" x="-.271" y="-52.642" width="296" height="33" rx="6.679" ry="6.679"/></clipPath><clipPath id="clippath-1"><rect class="cls-8" x="207.623" y="-57.346" width="83.106" height="73.675" transform="translate(498.353 -41.017) rotate(-180)"/></clipPath><clipPath id="clippath-2"><rect class="cls-8" x="-.271" y=".358" width="296" height="33" rx="10" ry="10"/></clipPath><clipPath id="clippath-3"><rect class="cls-8" x="207.623" y="-4.346" width="83.106" height="73.675" transform="translate(498.353 64.983) rotate(-180)"/></clipPath></defs><g class="cls-9"><g class="cls-10"><path class="cls-36" d="m249.116,16.865c-2.221.014-4.441.027-6.662.041-.005-.063-.008-.126-.011-.189,1.709-.008,3.419-.025,5.128-.017.341.002.582-.029.545-.795-.111-2.254-.149-4.521-.313-6.762-.061-.827.175-1.836-.342-2.503-.888.04-1.784-.255-2.662.176-2.212.081-4.423.158-6.635.245-1.75.069-3.5.176-5.251.21-.519.01-.627.278-.514,1.119.121.903.115,1.853.194,2.776.149,1.756.155,3.545.419,5.275l-.006.028c-.002.071.005.139.021.204-.48-.009-.96-.018-1.44-.027.166-3.164-.143-6.312-.12-9.471.002-.258-.11-.416-.239-.531-.761-.011-1.523-.07-2.283-.019-.635.042-1.285-.248-1.907.194-.604-.005-1.208-.011-1.812-.016.006-.458.012-.915.017-1.373,4.592,0,9.184-.027,13.776.028.699.008.862-.356.792-1.453-.173-2.708-.297-5.425-.44-8.138-.207-.488-.512-.255-.768-.256-4.552-.029-9.105-.038-13.657-.051.141-1.02-.013-1.579-.716-1.419-.207.047-.466.175-.638-.22,2.422.022,4.845.021,7.267.084.524.014.677-.259.651-1.131-.082-2.762-.121-5.528-.177-8.293-.184-.452-.46-.248-.694-.251-1.945-.025-3.89-.027-5.835-.036.054-.91.126-1.83-.717-1.634-.151.035-.237-.18-.224-.456.036.005.071.016.106.032.161.335.384.197.581.201,2.145.047,4.288-.042,6.431-.16,2.65-.145,5.302-.202,7.954-.255.45-.009.6-.253.606-1.006.014-1.634.079-3.267.124-4.9.356-.355.752-.174,1.129-.242.04.084.081.169.121.253,0,.81-.02,1.622.006,2.429.044,1.367-.107,2.754.139,4.101.275.025.551.078.825.069,2.19-.072,4.381-.158,6.571-.236,2.513-.09,5.027-.193,7.54-.249.442-.01.593-.234.618-.994.058-1.709.182-3.412.279-5.117.405-.362.81-.357,1.214,0,.01,1.119-.005,2.241.038,3.356.041,1.059-.142,2.144.123,3.177,1.425.393,2.865.133,4.295.278.222.978-.043,1.37-.595,1.385-.728.019-1.456.017-2.184.023-.828-.013-1.657-.026-2.485-.04-1.2-.441-2.414-.139-3.621-.186-1.295-.017-2.59-.021-3.884-.062-.348-.011-.471.115-.442.778.13,2.955.219,5.915.323,8.873-.007.668.297.468.494.468,1.541.002,3.082-.018,4.623-.032l4.435.053c-.091.46-.182.92-.272,1.379-.511.081-.801.445-.685,1.416.035.295-.011.618-.02.929-.7,1.096-.929,2.694-1.483,4.012-.016-.285-.03-.513-.043-.74.051-1.606.109-3.212.146-4.819.008-.368.15-.895-.251-.994-2.749-.008-5.498-.016-8.247-.024-.141,0-.278.016-.379.216-1.985.017-3.97.035-5.954.05-1.01.007-1.053.059-.966,1.799.127,2.518.277,5.033.417,7.549.09.833.48.434.722.437,4.469.041,8.937.048,13.406.063.091.55-.267.843-.268,1.341-.923.002-1.847.005-2.77.007-1.018-.288-2.035-.437-3.048.044-.137,3.26-.273,6.52-.41,9.78-.005.074-.008.147-.008.221Zm-9.004-23.126c2.396-.024,4.792-.07,7.187-.055.488.003.644-.337.678-1.078.095-2.053.208-4.104.314-6.156.272-1.485.212-1.641-.653-1.649-.482-.004-.965.006-1.447.01-1.059-.083-2.118-.168-3.177-.248-3.155-.239-6.31-.458-9.464-.731-.533-.046-.761.266-.789,1.131-.092,2.838-.191,5.676-.287,8.514-.017.673.289.478.487.478.851.002,1.702-.029,2.553-.048,1.533-.022,3.069.18,4.597-.169Z"/><path class="cls-25" d="m258.252-2.076c.009-.31.056-.633.02-.928-.116-.971.174-1.335.685-1.416,1.406.025,2.809-.111,4.213-.167,3.179-.127,6.355-.384,9.533-.558.498.026.996.051,1.494.077-.214,2.238-.044,4.512-.223,6.755-.052.65-.069,1.303-.14,1.957-.172,1.572-.144,1.581-1.12,1.591-4.18-.008-8.36-.013-12.539-.023-1.605-.004-1.565-.012-1.648-2.789-.045-1.5-.021-3.028-.275-4.498Z"/><path class="cls-13" d="m224.25,5.003c-.312-3.04-.562-6.09-.538-9.186.138,0,.276.001.415.002,4.998.019,9.997.037,14.995.056.021,2.753.229,5.483.37,8.22.032.615-.022.872-.403.871-3.471-.013-6.944.104-10.411-.081-1.285-.068-2.573-.05-3.859-.151-.202-.016-.422-.074-.57.269Z"/><path class="cls-25" d="m272.535,7.1c.2.397.486.097.716.249,0,2.142,0,4.285,0,6.427,0,2.136.005,2.202-1.225,2.465-1.737.372-3.48.317-5.223.028-.293-.049-.701-.409-.905.368-.035.014-.069.019-.105.014.035-.93.077-1.859.104-2.789.057-1.944.099-3.889.16-5.832.032-1.005.214-1.577.961-1.466,1.833.273,3.676.369,5.515.536Z"/><path class="cls-13" d="m225.226,6.802c.604.005,1.208.011,1.812.016,1.386.001,2.773.002,4.159.003.05,2.647.099,5.293.15,7.94q.028,1.452-.864,1.455c-2.149.005-4.298.01-6.448.015-.012-.425-.013-.852-.039-1.275-.068-1.138.13-2.309-.144-3.422,0,0-.008.006-.008.006.006-1.554.013-3.109.019-4.663.454-.025.908-.05,1.362-.074Z"/><path class="cls-48" d="m272.535,7.1c-1.839-.167-3.682-.263-5.515-.536-.747-.111-.93.461-.961,1.466-.061,1.943-.104,3.888-.16,5.832-.027.93-.069,1.86-.104,2.79-.298.006-.595.011-.893.017.007-2.869.015-5.737.019-8.606,0-.33.055-.744-.271-.751-.623-.016-1.248.025-1.868-.059-2.481-.336-4.972-.076-7.453-.342l.025-.098c0-.497.359-.791.268-1.341.969-.071.952-.072,1.003-1.751.026-.841-.127-1.707.103-2.524.013.228.026.456.043.74.554-1.318.783-2.917,1.483-4.012.254,1.47.23,2.998.275,4.498.082,2.777.043,2.785,1.648,2.789,4.18.01,8.36.016,12.539.023-.241.572-.085,1.253-.179,1.865Z"/><path class="cls-14" d="m224.25,5.003c.148-.343.368-.284.57-.269,1.285.101,2.573.082,3.859.151,3.467.184,6.94.068,10.411.081.381.001.435-.256.403-.871-.141-2.737-.349-5.467-.37-8.22.083-.004.166-.007.25-.01.144,2.713.267,5.43.44,8.138.07,1.097-.093,1.461-.792,1.453-4.592-.055-9.184-.028-13.776-.028-.313-.262-.759.362-.994-.425Z"/><path class="cls-38" d="m264.901,16.668c.298-.006.595-.011.893-.017.036.005.071,0,.105-.014.274.019.549.054.823.055,2.271.008,4.542.009,6.814.012-.139.296-.337.205-.515.205-7.877.007-15.754.01-23.631.01-.091,0-.183-.036-.274-.055,0-.074.004-.148.008-.221,0,0,.062.011.062.011,0,0,.062-.01.062-.009.974.004,1.947.008,2.921.011,4.244.004,8.487.008,12.731.012Z"/><path class="cls-22" d="m273.535,16.705c-2.271-.003-4.542-.004-6.814-.012-.274,0-.549-.036-.823-.055.204-.777.611-.417.904-.368,1.744.289,3.487.344,5.223-.028,1.23-.263,1.225-.329,1.225-2.465,0-2.142,0-4.285,0-6.427.089-.004.178-.008.266-.012.004,3.119.009,6.239.013,9.358l.005.01Z"/><path class="cls-19" d="m231.586,16.645c.48.009.96.018,1.44.027,2.817-.003,5.634-.006,8.452-.009l.965.054c.002.063.006.126.011.189-6.025.01-12.049.022-18.074.024-.13,0-.261-.103-.391-.158.009-.05.015-.101.017-.154.251.023.502.068.753.067,2.276-.009,4.552-.026,6.827-.041Z"/><path class="cls-4" d="m223.853,11.533c.274,1.113.075,2.284.144,3.422.025.423.026.85.038,1.275-.01.129-.02.259-.03.388-.002.052-.008.103-.017.154-.242-1.732-.124-3.49-.135-5.239Z"/><path class="cls-13" d="m241.493,4.972c-.14-2.516-.291-5.031-.417-7.549-.088-1.739-.045-1.791.966-1.799,1.985-.014,3.97-.033,5.954-.05,2.866,0,5.731,0,8.597,0-.091,2.558-.167,5.117-.281,7.672-.056,1.266-.394,1.715-1.163,1.715-4.552.004-9.104.007-13.656.01Z"/><path class="cls-13" d="m233.012,16.439c-.264-1.73-.27-3.519-.419-5.275-.079-.923-.072-1.873-.194-2.776-.113-.841-.005-1.109.514-1.119,1.751-.034,3.501-.141,5.251-.21,2.212-.087,4.423-.164,6.635-.245.878.004,1.756.008,2.634.013.052,1.472.025,2.968.179,4.409.128,1.201.02,2.409.178,3.592.173,1.29.117,1.391-.686,1.391-4.084,0-8.168,0-12.252-.009-.435,0-.871.075-1.302-.171-.204-.116-.478-.186-.537.4Z"/><path class="cls-13" d="m249.248,16.645l-.062.01s-.062-.01-.062-.011c.137-3.26.273-6.52.41-9.78,1.016-.015,2.032-.03,3.048-.044.923-.002,1.847-.004,2.77-.007,0,0-.025.098-.025.098-.115.234-.257.443-.34.706-.902,2.862-1.795,5.733-2.691,8.601h0c-.831.001-1.662-.007-2.493.007-.212.004-.488-.161-.555.419Z"/><path class="cls-29" d="m241.493,4.972c4.552-.003,9.104-.006,13.656-.01.768,0,1.107-.449,1.163-1.715.113-2.555.189-5.114.281-7.672.011-.064.02-.128.029-.192.401.098.26.625.251.994-.037,1.607-.095,3.213-.146,4.819-.23.817-.077,1.683-.103,2.524-.051,1.679-.034,1.68-1.003,1.751-4.469-.015-8.937-.022-13.406-.063-.242-.002-.632.397-.722-.437Z"/><path class="cls-34" d="m233.012,16.439c.06-.586.334-.516.537-.4.432.246.868.17,1.302.171,4.084.009,8.168.009,12.252.009.803,0,.858-.102.686-1.391-.158-1.183-.05-2.391-.178-3.592-.154-1.441-.127-2.937-.179-4.408.009-.063.019-.126.029-.189.517.668.281,1.676.342,2.503.164,2.241.202,4.509.313,6.762.038.767-.203.797-.545.795-1.709-.008-3.419.009-5.128.017-.322-.018-.643-.036-.965-.054-.174-.275-.391-.187-.593-.187-2.627-.006-5.253-.006-7.88-.008l.006-.028Z"/><path class="cls-18" d="m224.005,16.618c.01-.129.02-.259.03-.388,2.149-.005,4.299-.01,6.448-.015q.892-.002.864-1.455c-.05-2.647-.1-5.293-.149-7.94.01-.059.02-.118.03-.178.128.115.241.273.239.531-.023,3.159.286,6.307.12,9.471-2.276.015-4.552.031-6.828.041-.251,0-.502-.043-.753-.067Z"/><path class="cls-30" d="m233.005,16.468c2.627.001,5.253.001,7.88.008.202,0,.419-.088.593.187-2.817.003-5.634.006-8.452.009-.016-.065-.023-.133-.021-.204Z"/><path class="cls-43" d="m231.228,6.643c-.01.059-.02.119-.03.178-1.386-.001-2.773-.002-4.159-.003.621-.442,1.271-.152,1.907-.194.76-.051,1.522.008,2.283.019Z"/><path class="cls-47" d="m252.583,6.819c-1.016.015-2.032.029-3.048.044,1.014-.481,2.031-.332,3.048-.044Z"/><path class="cls-42" d="m247.461,6.639c-.01.063-.019.126-.029.189-.878-.004-1.756-.008-2.634-.013.879-.431,1.775-.136,2.662-.176Z"/><path class="cls-25" d="m252.297,16.218c.896-2.868,1.789-5.739,2.691-8.601.083-.263.225-.472.34-.706,2.482.266,4.972.006,7.453.342.619.084,1.245.043,1.868.059,0,2.536,0,5.072-.001,7.609,0,1.419-.06,1.527-.906,1.529-2.77.005-5.544.136-8.309-.068-1.045-.077-2.102.331-3.136-.163Z"/><path class="cls-12" d="m252.297,16.218c1.034.494,2.091.086,3.136.163,2.765.204,5.539.073,8.309.068.846-.002.905-.109.906-1.529.002-2.536,0-5.072.001-7.609.326.006.271.42.271.751-.004,2.869-.012,5.737-.019,8.606-4.244-.004-8.487-.008-12.731-.012.042-.146.085-.292.127-.438h0Z"/><path class="cls-25" d="m252.297,16.219c-.042.146-.085.292-.127.438-.974-.004-1.947-.007-2.921-.011.067-.58.343-.416.555-.42.831-.015,1.662-.006,2.493-.007Z"/></g><g class="cls-6"><path class="cls-25" d="m273.637-5.479c-.171.298-3.063,6.145-3.138,6.411-.677.121-1.061.638-1.322,1.197-.723,1.548-1.769,2.817-3.002,3.945-1.159-.378-2.141-1.02-2.88-2.029-.039-.167-.126-.283-.303-.303.513-.966.931-1.967.996-3.084.021-.357.088-.784-.49-.738-1.989.006-3.92-.353-5.796-1.016-.53-.188-.682-.1-.77.511-.139.973-.151,1.928-.066,2.898.041.472-.041.986.595,1.106-.07.037-.14.074-.21.111-.341.057-.643-.103-.956-.191-.84-.237-1.59-.757-2.483-.829-.601-.429-.582-1.127-.719-1.757-.179-.443-.095-.918-.16-1.374-.021-1.294.054-2.573.539-3.79,1.604.118,3.206.288,4.811.343,3.921.135,7.827-.189,11.732-.516.193.004.386.017.579.012,1.48-.038,3.065.116,3.433-1.977.023-.129.135-.246.218-.359.41-.56.189-.755-.4-.743-1.162.005-2.324.009-3.486.014l-.033-.057c1.066-.298,2.157-.156,3.229-.121.854.027,1.257-.336,1.568-1.078.849-2.021,1.581-4.074,1.965-6.25.373-2.108.699-4.216.613-6.372-.027-.671-.298-.903-.9-.647-.669.285-1.381.323-2.054.199-1.111-.205-2.222-.179-3.326-.123-1.533.077-2.203-.643-3.062-2.271.973.104,1.95-.045,2.929-.004.999.041,2.044-.6,3.085-.898.554-.158.616-.105.849.291.587.998,1.113,1.091,2.052.018.303-.346.383-.816.442-1.274.049-.16.139-.32.14-.48.003-2.596-.006-5.193-.012-7.789l.069-.691c.285.785-.024,1.626.197,2.487.65-.406,1.26-.782,1.865-1.167.394-.251.879-.732,1.238-.31.275.323-.22.81-.473,1.164-.831,1.16-1.427,2.431-1.773,3.825-.117.472-.272.963.306,1.26-.696.716-1.279,1.543-1.384,2.55-.138,1.321.549,2.323,1.496,3.149-.276.261-.347.554-.172.915.279.575.355,1.194.322,1.828-.081,1.526.417,2.916.942,4.3.772,2.033,1.663,4.016,2.317,6.1.47,1.497.276,3.014.084,4.467"/><path class="cls-25" d="m272.836,13.407c-.428.51-.998.567-1.596.251-1.465-.774-2.441-3.247-1.731-4.742.361-.759.21-.995-.499-1.108.833-1.709,2.113-3.03,3.496-4.262"/><path class="cls-25" d="m272.507,3.546c-1.383,1.232-2.663,2.553-3.496,4.262-.566.715-1.153.482-1.72.019-.556-.453-.915-1.053-1.116-1.752,1.234-1.127,2.28-2.397,3.002-3.945.261-.559.645-1.076,1.322-1.197,1.393.448,2.033,1.281,2.008,2.613Z"/><path class="cls-25" d="m251.133,12.448c.19-.123.175-.316.164-.507.743-.884,1.474-1.781,2.543-2.281.238-.111.321-.332.251-.572-.254-.872-.113-1.76-.125-2.641,1.904.062,3.698.536,5.357,1.517.263.5.117,1.044.168,1.568.051.518-.179,1.064.144,1.555.427.696.357,1.478.372,2.246-.41,1.375-1.521,1.92-2.685,2.403-.283.05-.566.101-.848.151-.726.009-1.452.018-2.178.027-.332-.007-.664-.019-.996-.021-.891-.006-1.778-.02-2.486-.705-.47-.984-.079-1.862.32-2.74Zm.921-.51c.616-.415,1.046-.703,1.642-1.104-.814.062-1.214.4-1.642,1.104Z"/><path class="cls-25" d="m252.445,5.061c.258-.963.378-2.003,1.369-2.549.892.071,1.643.592,2.482.829.313.088.615.248.956.191.637.302,1.305.352,2,.32.935-.042,1.784.245,2.516.862.536,2.069-.639,3.632-2.445,3.25-1.659-.98-3.452-1.455-5.357-1.517-.689-.25-1.493-.368-1.522-1.386Z"/><path class="cls-25" d="m261.767,4.714c-.732-.617-1.581-.903-2.516-.862-.695.031-1.362-.018-2-.32.07-.037.14-.074.21-.111-.637-.121-.554-.634-.595-1.106-.085-.971-.073-1.925.066-2.898.088-.612.239-.699.77-.511,1.876.663,3.807,1.023,5.796,1.016-.235,1.639-.779,3.156-1.681,4.533-.017.087-.033.173-.05.26Z"/><path class="cls-25" d="m261.817,4.454c.902-1.377,1.446-2.895,1.681-4.533.578-.046.511.381.49.738-.066,1.117-.483,2.118-.996,3.084.021.045.02.09-.003.135-.53-.107-.611.749-1.171.577Z"/><path class="cls-25" d="m252.054,11.938c.428-.704.828-1.042,1.642-1.104-.596.401-1.025.69-1.642,1.104Z"/></g><path class="cls-2" d="m269.306,1.097c-1.168-.37-2.159-1-2.903-1.989-.039-.164-.127-.278-.306-.297.517-.948.938-1.929,1.005-3.024.021-.35.089-.769-.494-.723-2.005.006-3.952-.346-5.843-.997-.535-.184-.688-.098-.776.501-.141.954-.152,1.89-.067,2.842.042.463-.042.967.6,1.085-.071.036-.141.073-.212.109-.344.056-.648-.101-.964-.187-.846-.232-1.603-.743-2.503-.813-.606-.421-.586-1.105-.725-1.723-.181-.434-.095-.9-.161-1.348-.022-1.269.055-2.523.543-3.717,1.617.116,3.232.282,4.85.336,3.953.133,7.891-.185,11.827-.506.195.004.389.016.584.012,1.492-.037,3.09.114,3.461-1.939.023-.127.136-.241.219-.352.414-.549.191-.741-.403-.729-1.172.005-2.343.009-3.515.014l-.034-.056c1.074-.292,2.175-.153,3.255-.119.86.027,1.267-.33,1.581-1.057.856-1.982,1.593-3.995,1.981-6.129.376-2.068.705-4.135.618-6.249-.027-.658-.301-.886-.908-.635-.675.279-1.392.317-2.071.195-1.12-.201-2.241-.175-3.353-.121-1.546.075-2.221-.631-3.087-2.227.981.102,1.966-.044,2.953-.004,1.007.041,2.061-.589,3.11-.88.559-.155.621-.103.856.285.591.979,1.122,1.07,2.069.017.305-.34.386-.8.445-1.249.049-.157.141-.314.141-.471.003-2.546-.006-5.092-.012-7.639l.07-.678c.288.77-.024,1.595.199,2.439.656-.398,1.27-.767,1.88-1.144.397-.246.887-.718,1.248-.304.277.317-.222.795-.477,1.141-.838,1.138-1.439,2.384-1.787,3.751-.118.463-.275.944.309,1.236-.702.702-1.289,1.513-1.395,2.5-.14,1.295.554,2.278,1.508,3.088-.278.256-.35.544-.174.897.281.563.358,1.171.324,1.792-.082,1.497.42,2.86.95,4.217.779,1.994,1.676,3.938,2.336,5.982.474,1.468.278,2.956.084,4.381-.13.957-.655,1.945-1.223,2.817-.155.238-.355.453-.113.744-.506.663-1.243,1.055-1.864,1.582-1.227.691-2.534,1.223-3.936,1.288-1.596.075-3.058-.518-4.436-1.298-.288-.163-.567-.341-.864-.52-.173.292.03.568-.046.829-.683.119-1.069.626-1.333,1.174-.729,1.518-1.783,2.763-3.027,3.868Z"/><path class="cls-31" d="m275.69-1.383c.914.947,1.591,2.087,2.537,3.017.658.647.641,1.545.396,2.38-.484,1.649-1.498,2.997-2.6,4.273-.432.5-1.006.556-1.609.246-1.477-.759-2.461-3.184-1.745-4.65.364-.745.212-.976-.503-1.087.839-1.676,2.13-2.971,3.524-4.179Z"/><path class="cls-51" d="m275.69-1.383c-1.394,1.208-2.685,2.503-3.524,4.179-.57.701-1.163.473-1.734.019-.56-.445-.922-1.033-1.125-1.718,1.244-1.105,2.298-2.351,3.027-3.868.263-.548.65-1.055,1.333-1.174,1.405.439,2.05,1.256,2.025,2.562Z"/><path class="cls-31" d="m254.142,7.347c.191-.12.176-.309.165-.497.749-.867,1.486-1.747,2.564-2.237.24-.109.324-.325.253-.561-.256-.855-.114-1.726-.126-2.59,1.92.061,3.728.526,5.4,1.487.265.49.118,1.024.169,1.537.051.508-.18,1.043.145,1.525.43.682.36,1.45.375,2.203-.413,1.348-1.534,1.883-2.707,2.357-.285.049-.57.099-.855.148-.732.009-1.464.017-2.196.026-.335-.007-.669-.019-1.004-.021-.898-.006-1.792-.02-2.507-.691-.473-.965-.08-1.826.323-2.687Zm.929-.5c.621-.407,1.054-.69,1.655-1.083-.82.061-1.224.392-1.655,1.083Z"/><path class="cls-51" d="m255.464.103c.26-.944.381-1.964,1.38-2.5.9.07,1.656.58,2.503.813.315.087.62.243.964.187.643.297,1.316.345,2.016.314.942-.041,1.798.24,2.537.845.541,2.029-.644,3.561-2.465,3.187-1.672-.961-3.481-1.426-5.4-1.487-.695-.246-1.505-.361-1.534-1.359Z"/><path class="cls-37" d="m255.07,6.847c.431-.691.835-1.022,1.655-1.083-.601.393-1.034.676-1.655,1.083Z"/></g><rect class="cls-52" x="-.271" y=".358" width="296" height="33"/><g class="cls-5"><g class="cls-7"><path class="cls-40" d="m222.59,23.26c-.128-2.246-.263-4.49-.383-6.737-.144-2.679-.258-5.363-.423-8.038-.064-1.037.076-1.406.754-1.404,8.971.025,17.942-.003,26.914-.019.301,0,.601-.012.902-.018.092.014.184.041.276.041,6.891-.01,13.782-.022,20.673-.033.744.018,1.489.035,2.233.053-.387,1.448-.757,2.909-1.163,4.341-1.181,4.173-2.376,8.335-3.566,12.502-.537.146-1.049-.204-1.58-.218-5.497-.139-10.994.131-16.492-.193-5.516-.325-11.039.101-16.561-.229-3.856-.231-7.721-.047-11.582-.048Z"/><path class="cls-36" d="m249.116,69.865c-2.221.014-4.441.027-6.662.041-.005-.063-.008-.126-.011-.189,1.709-.008,3.419-.025,5.128-.017.341.002.582-.029.545-.795-.111-2.254-.149-4.521-.313-6.762-.061-.827.175-1.836-.342-2.503-.888.04-1.784-.255-2.662.176-2.212.081-4.423.158-6.635.245-1.75.069-3.5.176-5.251.21-.519.01-.627.278-.514,1.119.121.903.115,1.853.194,2.776.149,1.756.155,3.545.419,5.275l-.006.028c-.002.071.005.139.021.204-.48-.009-.96-.018-1.44-.027.166-3.164-.143-6.312-.12-9.471.002-.258-.11-.416-.239-.531-.761-.011-1.523-.07-2.283-.019-.635.042-1.285-.248-1.907.194-.604-.005-1.208-.011-1.812-.016.006-.458.012-.915.017-1.373,4.592,0,9.184-.027,13.776.028.699.008.862-.356.792-1.453-.173-2.708-.297-5.425-.44-8.138-.207-.488-.512-.255-.768-.256-4.552-.029-9.105-.038-13.657-.051.141-1.02-.013-1.579-.716-1.419-.207.047-.466.175-.638-.22,2.422.022,4.845.021,7.267.084.524.014.677-.259.651-1.131-.082-2.762-.121-5.528-.177-8.293-.184-.452-.46-.248-.694-.251-1.945-.025-3.89-.027-5.835-.036.054-.91.126-1.83-.717-1.634-.151.035-.237-.18-.224-.456.036.005.071.016.106.032.161.335.384.197.581.201,2.145.047,4.288-.042,6.431-.16,2.65-.145,5.302-.202,7.954-.255.45-.009.6-.253.606-1.006.014-1.634.079-3.267.124-4.9.356-.355.752-.174,1.129-.242.04.084.081.169.121.253,0,.81-.02,1.622.006,2.429.044,1.367-.107,2.754.139,4.101.275.025.551.078.825.069,2.19-.072,4.381-.158,6.571-.236,2.513-.09,5.027-.193,7.54-.249.442-.01.593-.234.618-.994.058-1.709.182-3.412.279-5.117.405-.362.81-.357,1.214,0,.01,1.119-.005,2.241.038,3.356.041,1.059-.142,2.144.123,3.177,1.425.393,2.865.133,4.295.278.222.978-.043,1.37-.595,1.385-.728.019-1.456.017-2.184.023-.828-.013-1.657-.026-2.485-.04-1.2-.441-2.414-.139-3.621-.186-1.295-.017-2.59-.021-3.884-.062-.348-.011-.471.115-.442.778.13,2.955.219,5.915.323,8.873-.007.668.297.468.494.468,1.541.002,3.082-.018,4.623-.032l4.435.053c-.091.46-.182.92-.272,1.379-.511.081-.801.445-.685,1.416.035.295-.011.618-.02.929-.7,1.096-.929,2.694-1.483,4.012-.016-.285-.03-.513-.043-.74.051-1.606.109-3.212.146-4.819.008-.368.15-.895-.251-.994-2.749-.008-5.498-.016-8.247-.024-.141,0-.278.016-.379.216-1.985.017-3.97.035-5.954.05-1.01.007-1.053.059-.966,1.799.127,2.518.277,5.033.417,7.549.09.833.48.434.722.437,4.469.041,8.937.048,13.406.063.091.55-.267.843-.268,1.341-.923.002-1.847.005-2.77.007-1.018-.288-2.035-.437-3.048.044-.137,3.26-.273,6.52-.41,9.78-.005.074-.008.147-.008.221Zm-9.004-23.126c2.396-.024,4.792-.07,7.187-.055.488.003.644-.337.678-1.078.095-2.053.208-4.104.314-6.156.272-1.485.212-1.641-.653-1.649-.482-.004-.965.006-1.447.01-1.059-.083-2.118-.168-3.177-.248-3.155-.239-6.31-.458-9.464-.731-.533-.046-.761.266-.789,1.131-.092,2.838-.191,5.676-.287,8.514-.017.673.289.478.487.478.851.002,1.702-.029,2.553-.048,1.533-.022,3.069.18,4.597-.169Z"/><path class="cls-25" d="m262.565,35.938c-1.431-.145-2.87.115-4.295-.278.079-.262.216-.513.375-.419.99.585,1.993-.233,2.994.155,1.006.389,1.259.112,1.789-1.447.41-1.207.813-2.422,1.211-3.641.375-1.147.281-1.417-.487-1.42-2.003-.008-4.006-.008-6.009-.012-.008-.233-.004-.47-.027-.699-.115-1.116.149-1.382.814-1.455,2.254-.25,4.512-.214,6.766-.335,2.739-.147,5.48-.493,8.225-.285.06,1.934.121,3.869.181,5.803-.006,1.419-.013,2.839-.019,4.258-.361.013-.723.027-1.084.04-3.478-.088-6.956-.176-10.434-.263Z"/><path class="cls-3" d="m273.922,26.101c-2.745-.208-5.486.138-8.225.285-2.254.121-4.512.085-6.766.335-.665.074-.929.34-.814,1.455.024.229.019.466.027.699-.012.084-.023.168-.034.252-.405-.356-.81-.362-1.215,0,.039-.938.079-1.876.118-2.814-.171-.393-.421-.241-.639-.241-3.268-.006-6.537-.002-9.805.008-.223,0-.465-.115-.656.204-1.202.006-2.403.014-3.605.016q-1.501.002-1.513,2.571c-.377.068-.773-.113-1.129.242.003-.46.031-.926.002-1.38-.036-.563.192-1.266-.267-1.634-4.951-.009-9.901-.019-14.852-.028-.002-.615-.004-1.23-.006-1.846.409-.617.836-.013,1.248-.006,4.73.083,9.46-.1,14.192.153,6.067.325,12.139-.037,18.211.233,5.217.232,10.441.048,15.661.047q1.146,0,1.473-1.629c.003.347-.005.695.011,1.04.027.595-.12.841-.477.815-.411-.031-.823-.014-1.235.004-.214.009-.496-.11-.495.505,0,.531.239.462.441.479.131.011.281-.053.348.233Z"/><path class="cls-13" d="m223.97,35.234c-.035-.016-.07-.027-.106-.032-.007-.305-.014-.609-.022-.914-.003-1.717-.005-3.433-.008-5.15.249-.259.525-.255.804-.254,1.502.006,3.004.003,4.505.003,3.142,0,6.285.023,9.427-.021.561-.008.728.288.694,1.2-.041,1.089-.031,2.187-.004,3.279.021.848-.158,1.172-.677,1.185-1.658.042-3.314.012-4.975.161-2.969.267-5.948.208-8.923.293-.244.007-.515-.14-.716.25Z"/><path class="cls-16" d="m275.328,23.024q-.327,1.628-1.473,1.629c-5.221,0-10.444.185-15.661-.047-6.072-.27-12.145.092-18.211-.233-4.732-.254-9.462-.07-14.192-.153-.411-.007-.839-.611-1.248.006-.481-.01-.964-.069-1.443-.016-.448.05-.575-.273-.51-.951,3.861.001,7.726-.183,11.582.048,5.522.331,11.045-.096,16.561.229,5.499.324,10.995.055,16.492.193.531.013,1.043.364,1.58.218,1.775.004,3.551-.002,5.326.019.384.005.594-.062.688-.878.162-1.403-.005-2.806.118-4.186.348-3.916.318-7.878.536-11.808.277-.075.443.048.429.598-.013.502.005,1.006.009,1.509-.315,4.593-.366,9.217-.582,13.822Z"/><path class="cls-49" d="m223.97,35.234c.201-.39.472-.243.716-.25,2.975-.086,5.954-.026,8.923-.293,1.661-.15,3.317-.119,4.975-.161.518-.013.698-.337.677-1.185-.027-1.091-.038-2.19.004-3.279.035-.912-.133-1.207-.694-1.2-3.142.044-6.284.021-9.427.021-1.502,0-3.004.003-4.505-.003-.279-.001-.555-.004-.804.254-.033-.022-.068-.037-.103-.047-.001-.925-.098-1.85.001-2.775,5.003-.004,10.006-.007,15.009-.016.223,0,.466.116.658-.2.459.368.231,1.071.267,1.634.029.455,0,.92-.002,1.38-.044,1.633-.109,3.266-.124,4.9-.007.753-.157.997-.606,1.006-2.652.053-5.304.11-7.954.255-2.144.118-4.287.206-6.431.16-.197-.004-.42.134-.581-.201Z"/><path class="cls-45" d="m239.401,26.1c-.192.316-.435.199-.658.2-5.003.01-10.006.012-15.009.016.238-.404.549-.11.815-.245,4.951.009,9.901.019,14.852.028Z"/><path class="cls-28" d="m273.534,7.105c.646-.003,1.293-.007,1.939-.01-.218,3.931-.187,7.893-.536,11.808-.123,1.38.044,2.782-.118,4.186-.094.817-.304.883-.688.878-1.775-.021-3.551-.015-5.326-.019,1.19-4.167,2.385-8.328,3.566-12.502.406-1.433.776-2.893,1.163-4.341Z"/><path class="cls-13" d="m241.06,35.656c-.246-1.347-.095-2.734-.139-4.101-.026-.808-.005-1.619-.006-2.429.187-.168.382-.243.597-.243,4.804.006,9.608.009,14.411-.004.368,0,.547.155.545.848-.005,1.48-.229,2.933-.156,4.42.027.556-.215.596-.465.599-1.52.021-3.042.171-4.556.176-3.23.011-6.454.353-9.683.299-.215-.004-.487-.145-.548.435Z"/><path class="cls-20" d="m241.06,35.656c.061-.58.334-.439.548-.435,3.229.054,6.453-.287,9.683-.299,1.515-.005,3.037-.155,4.556-.176.25-.004.492-.043.465-.599-.073-1.487.151-2.941.156-4.42.002-.693-.176-.849-.545-.848-4.804.013-9.608.01-14.411.004-.215,0-.411.075-.597.243-.04-.084-.081-.168-.121-.253q.012-2.571,1.513-2.571c1.202-.002,2.403-.01,3.605-.016,3.7.01,7.4.019,11.1.028-.04.938-.079,1.876-.118,2.814-.097,1.705-.222,3.408-.279,5.117-.026.761-.176.985-.618.994-2.514.056-5.027.159-7.54.249-2.19.078-4.38.164-6.571.236-.275.009-.55-.045-.825-.069Z"/><path class="cls-13" d="m258.109,29.128c.011-.084.023-.168.034-.252,2.003.003,4.006.004,6.009.012.768.003.861.273.487,1.42-.398,1.219-.801,2.434-1.211,3.641-.529,1.559-.783,1.836-1.789,1.447-1.001-.387-2.005.43-2.994-.155-.159-.094-.296.157-.375.419-.265-1.033-.082-2.118-.123-3.177-.043-1.115-.028-2.237-.038-3.356Z"/><path class="cls-21" d="m257.013,26.314c-3.7-.009-7.4-.019-11.1-.028.191-.32.434-.204.656-.204,3.268-.01,6.537-.014,9.805-.008.217,0,.468-.151.639.241Z"/></g><g class="cls-6"><path class="cls-25" d="m273.637,47.521c-.171.298-3.063,6.145-3.138,6.411-.677.121-1.061.638-1.322,1.197-.723,1.548-1.769,2.817-3.002,3.945-1.159-.378-2.141-1.02-2.88-2.029-.039-.167-.126-.283-.303-.303.513-.966.931-1.967.996-3.084.021-.357.088-.784-.49-.738-1.989.006-3.92-.353-5.796-1.016-.53-.188-.682-.1-.77.511-.139.973-.151,1.928-.066,2.898.041.472-.041.986.595,1.106-.07.037-.14.074-.21.111-.341.057-.643-.103-.956-.191-.84-.237-1.59-.757-2.483-.829-.601-.429-.582-1.127-.719-1.757-.179-.443-.095-.918-.16-1.374-.021-1.294.054-2.573.539-3.79,1.604.118,3.206.288,4.811.343,3.921.135,7.827-.189,11.732-.516.193.004.386.017.579.012,1.48-.038,3.065.116,3.433-1.977.023-.129.135-.246.218-.359.41-.56.189-.755-.4-.743-1.162.005-2.324.009-3.486.014l-.033-.057c1.066-.298,2.157-.156,3.229-.121.854.027,1.257-.336,1.568-1.078.849-2.021,1.581-4.074,1.965-6.25.373-2.108.699-4.216.613-6.372-.027-.671-.298-.903-.9-.647-.669.285-1.381.323-2.054.199-1.111-.205-2.222-.179-3.326-.123-1.533.077-2.203-.643-3.062-2.271.973.104,1.95-.045,2.929-.004.999.041,2.044-.6,3.085-.898.554-.158.616-.105.849.291.587.998,1.113,1.091,2.052.018.303-.346.383-.816.442-1.274.049-.16.139-.32.14-.48.003-2.596-.006-5.193-.012-7.789l.069-.691c.285.785-.024,1.626.197,2.487.65-.406,1.26-.782,1.865-1.167.394-.251.879-.732,1.238-.31.275.323-.22.81-.473,1.164-.831,1.16-1.427,2.431-1.773,3.825-.117.472-.272.963.306,1.26-.696.716-1.279,1.543-1.384,2.55-.138,1.321.549,2.323,1.496,3.149-.276.261-.347.554-.172.915.279.575.355,1.194.322,1.828-.081,1.526.417,2.916.942,4.3.772,2.033,1.663,4.016,2.317,6.1.47,1.497.276,3.014.084,4.467"/><path class="cls-25" d="m277.717,26.776c-.058.458-.139.928-.442,1.274-.939,1.074-1.466.98-2.052-.018-.233-.396-.295-.449-.849-.291-1.041.297-2.086.939-3.085.898-.979-.041-1.956.108-2.929.004-.381-.803-.914-1.501-1.466-2.18-1.434-1.761-2.659-3.65-3.553-5.768-.586-1.389-1.31-2.712-2.145-3.963-.198-.296-.327-.672-.714-.794.474-1.006.206-2.506-.579-3.253-.284-.27-.603-.375-.977-.219.082-.203-.01-.499.239-.607,1.067-.463,2.24-.733,3.187.022.835.665,1.698.738,2.633.798.014.039.031.078.049.115.142.384.154.785.126,1.186-.058.825.147,1.587.533,2.296.561,1.032,2.118,1.902,3.152.539-.031.487-.027.965.332,1.35-.225.198-.055.352.055.51.383.553.403,1.2.067,1.7-.511.76-.586,1.518-.473,2.395.107.835.258,1.02,1.046.739.586-.209,1.215-.319,1.672.077.471.409.848.378,1.338.178.197-.08.446-.11.652-.068.443.091.621.009.511-.504-.064-.3-.017-.626-.021-.941-.027-2.322.294-4.692-.92-6.848-.078-.139-.061-.333-.094-.5-.196-1.005-.289-2.044-.881-2.977-.258.445.05.949-.274,1.361-.458-.481-.217-1.214-.673-1.64,0-.114-.011-.23,0-.343.021-.216-.09-.522.171-.608.379-.124.295.317.448.48.056.06.108.125.224.259.218-.704.583-1.3.503-2.03.203.209.121.481.16.729.209,1.351.524,2.673,1.09,3.919.08.176.15.427.375.405.268-.026.163-.311.217-.486.268-.864.295-1.812.822-2.586.133-.195.24-.513.567-.364.292.133.204.392.181.662-.089,1.048-.229,2.088-.268,3.144-.051,1.389-.237,2.773-.387,4.157-.208,1.918-.207,3.816.543,5.627.34.821.845,1.492,1.846,1.465l.043.697Zm-11.351-7.455c-.021-.053-.046-.168-.104-.262-.443-.716-.974-1.386-1.107-2.262-.028-.182-.136-.235-.292-.175-.178.068-.375.117-.444.339-.139.447.717,2.643,1.119,2.862.21.114.43.124.628-.017.137-.097.25-.229.199-.484Z"/><path class="cls-25" d="m279.274,25.075c-.579-.297-.423-.788-.306-1.26.346-1.395.942-2.665,1.773-3.825.253-.354.748-.841.473-1.164-.359-.422-.844.059-1.238.31-.605.385-1.215.761-1.865,1.167-.221-.861.088-1.702-.197-2.487.016-.253.028-.507.048-.759.149-1.81.671-3.565.749-5.386.701-.202,1.279.083,1.829.484.219.257.443.508.656.77,1.082,1.333,2.286,2.575,3.058,4.145,1.18,2.4,1.623,5.008,1.969,7.638-.177.81-.599,1.487-1.102,2.117-.154.193-.318.432-.545.068-.519-1.803-1.553-2.428-3.868-2.339-.57-.095-.945.382-1.435.521Z"/><path class="cls-25" d="m271.182,11.648c.455.426.214,1.159.673,1.64.324-.411.016-.916.274-1.361.592.932.685,1.972.881,2.977.033.167.015.362.094.5,1.213,2.156.893,4.526.92,6.848.004.314-.044.64.021.941.11.513-.068.595-.511.504-.207-.042-.455-.013-.652.068-.49.2-.867.231-1.338-.178-.456-.396-1.086-.285-1.672-.077-.788.281-.939.096-1.046-.739-.112-.876-.038-1.634.473-2.395.336-.5.316-1.147-.067-1.7-.109-.158-.28-.312-.055-.51.455.501,1.005.704,1.649.491.742-.246,1.38-.639,1.518-1.519.142-.9-.235-1.632-1.065-2.11-.257-.148-.51-.23-.242-.616.552-.796.386-1.552-.199-2.257.017-.24.123-.415.345-.507Zm1.686,4.924c-.503,1.028-.51,2.198-.992,3.227-.113.242.041.542.3.628.32.106.405-.197.504-.43.472-1.108.357-2.256.187-3.425Z"/><path class="cls-25" d="m280.709,24.554c2.315-.089,3.349.536,3.868,2.339.33,1.896-.216,3.179-1.703,4.002-.691.407-1.194-.175-1.779-.346-1.468-.428-2.222-2.538-1.792-3.953.272-.893.87-1.414,1.406-2.042Z"/><path class="cls-25" d="m268.844,16.816c-1.034,1.362-2.59.493-3.152-.539-.386-.709-.591-1.47-.533-2.296.028-.401.016-.802-.126-1.186.684-.381,1.089-1.119,1.79-1.477.56.335,1.12.67,1.68,1.005.216.882.998,1.546.883,2.564-.077.681-.135,1.352-.542,1.928Z"/><path class="cls-25" d="m268.844,16.816c.407-.576.465-1.247.542-1.928.115-1.018-.667-1.682-.883-2.564.889-.855,1.551-.903,2.334-.169.585.704.751,1.46.199,2.257-.268.387-.015.469.242.616.83.478,1.206,1.209,1.065,2.11-.138.88-.776,1.274-1.518,1.519-.644.213-1.194.01-1.649-.491-.359-.386-.363-.863-.332-1.35Zm1.826.823c.014-.302-.17-.398-.37-.395-.286.004-.469.188-.465.491.004.305.19.496.48.461.314-.037.228-.398.355-.557Z"/><path class="cls-25" d="m286.224,24.708c-.346-2.631-.789-5.238-1.969-7.638-.772-1.57-1.976-2.812-3.058-4.145-.213-.262-.437-.514-.656-.77,3.117,1.632,4.817,4.376,5.685,7.746.41,1.593.542,3.206-.001,4.808Z"/><path class="cls-25" d="m280.709,24.554c-.536.628-1.134,1.149-1.406,2.042-.43,1.414.323,3.524,1.792,3.953.586.171,1.089.753,1.779.346-.238.702.189,1.256.41,1.847.199.531.479,1.031.421,1.629-.368-.886-.741-1.77-1.103-2.659-.158-.388-.303-.551-.798-.373-.874.315-1.645-.214-2.419-.565-.946-.826-1.634-1.828-1.496-3.149.106-1.006.688-1.834,1.384-2.55.49-.139.864-.616,1.435-.521Z"/><path class="cls-25" d="m251.624,13.192c.385-.06.691-.431,1.124-.304.141.572.264,1.15.431,1.714.07.237.019.612.435.602.175,1.234.717,2.355,1.036,3.545-.145.079-.302.241-.434.222-.855-.121-.763.476-.761,1.013.008,1.894.609,3.606,1.642,5.134,1.188,1.758,2.466,3.452,3.708,5.171.168.233.495.423.152.76-.921.327-1.832.851-2.835.362-.627-.306-1.21-.283-1.808.029-.116.002-.233.003-.349.005-.953.362-1.727-.055-2.473-.598-.21-.408-.548-.489-.971-.455-.969.076-1.786-.26-2.414-1.039-.199-.371-.105-.87-.642-1.096-1.595-.67-1.809-1.078-1.695-2.862.094-.255-.114-.354-.245-.485-.529-.527-.783-1.16-.725-1.92.205-.391.362-.822.629-1.161.27-.343.182-.605.005-.908-.004-.402-.008-.805-.012-1.207.293-.4.585-.8.878-1.201.75-.325,1.043-.967,1.146-1.742.472-.923,1.223-1.496,2.179-1.785.361-.109.639-.277.829-.624.276-.505.79-.77,1.172-1.169Z"/><path class="cls-25" d="m253.963,31.445c.116-.002.233-.003.349-.005-.107.599-.577,1.082-.643,1.651-.181,1.569-.601,3.112-.386,4.729.313,2.356,1.284,4.214,3.29,5.53,2.036,1.336,4.371,1.417,6.607,1.754,2.349.354,4.759.306,7.148.204,0,0,.033.057.033.057-.224.155-.48.127-.728.128-3.145.006-6.292.092-9.433-.02-1.733-.062-3.481-.121-5.201-.574-1.385-.364-2.793-.719-4.237-.807.002-.352-.068-.676-.341-.92-.053-.888-.106-1.776-.158-2.664.051-.803.102-1.606.153-2.409.133-.345.265-.69.398-1.035.213-.565.426-1.131.639-1.696,0,0,.008-.021.008-.021.379-.613.824-1.194,1.119-1.846.352-.777,1.222-1.162,1.384-2.055Z"/><path class="cls-25" d="m270.327,45.307c-2.388.103-4.799.15-7.148-.204-2.236-.337-4.571-.418-6.607-1.754-2.005-1.316-2.977-3.173-3.29-5.53-.215-1.617.205-3.161.386-4.729.066-.569.536-1.052.643-1.651.598-.312,1.182-.334,1.809-.029,1.003.489,1.914-.035,2.835-.362.609.162,1.057.591,1.537.97.64.505,1.287,1.004,2.127,1.094.13.014.3,0,.392-.078.134-.111.031-.254-.062-.366-.911-1.098-1.429-2.415-2.034-3.697-.623-1.323-1.363-2.579-2.395-3.669-1.349-1.426-2.601-2.969-3.036-5.013-.124-.581-.324-1.145-.489-1.717l-.048-.024.014-.053c.553-.101.928-.506,1.347-.838.906-.499,1.875-.807,2.869-1.06.47-.119.982-.206,1.303-.66.387.121.516.497.714.794.836,1.251,1.559,2.574,2.145,3.963.894,2.118,2.119,4.006,3.553,5.768.552.678,1.085,1.377,1.466,2.18.859,1.627,1.529,2.348,3.062,2.271,1.103-.055,2.215-.082,3.326.123.673.124,1.385.086,2.054-.199.602-.256.873-.024.9.647.086,2.156-.24,4.264-.613,6.372-.385,2.176-1.117,4.229-1.965,6.25-.311.742-.715,1.105-1.568,1.078-1.072-.034-2.163-.177-3.229.121Z"/><path class="cls-25" d="m277.674,26.08c.007-2.049.005-4.097.026-6.146.005-.477-.067-.97.146-1.428.006,2.597.015,5.193.012,7.789,0,.16-.091.32-.14.48-.014-.232-.029-.464-.043-.697Z"/><path class="cls-25" d="m260.482,15.94c-.321.454-.834.54-1.303.66-.994.253-1.963.561-2.869,1.06-.67-.097-1.222.007-1.347.838l-.014.053s.048.024.048.024c-.196-.108-.211.16-.348.176-.318-1.19-.861-2.31-1.036-3.545,1.153-.386,2.295-.793,3.192-1.691.64-.317,1.165-.849,1.867-1.047.084,0,.169,0,.253,0,.374-.157.693-.052.977.219.786.747,1.053,2.247.579,3.253Z"/><path class="cls-25" d="m266.366,19.322c.05.255-.062.387-.199.484-.198.141-.418.131-.628.017-.402-.219-1.258-2.415-1.119-2.862.069-.222.266-.271.444-.339.156-.059.264-.006.292.175.133.877.664,1.546,1.107,2.262.058.094.083.209.104.262Z"/><path class="cls-25" d="m272.869,16.572c.17,1.169.284,2.317-.187,3.425-.099.233-.185.536-.504.43-.259-.086-.413-.386-.3-.628.482-1.029.488-2.199.992-3.227Z"/><path class="cls-25" d="m270.67,17.639c-.128.159-.041.52-.355.557-.29.034-.476-.156-.48-.461-.004-.303.18-.486.465-.491.2-.003.384.093.37.395Z"/><path class="cls-25" d="m254.649,18.75c.136-.016.152-.284.348-.176.165.572.365,1.136.489,1.717.435,2.044,1.687,3.587,3.036,5.013,1.031,1.09,1.771,2.346,2.395,3.669.604,1.283,1.123,2.599,2.034,3.697.093.112.195.255.062.366-.093.077-.262.091-.392.078-.84-.09-1.487-.589-2.127-1.094-.48-.379-.928-.808-1.537-.97.344-.337.017-.527-.151-.76-1.242-1.719-2.519-3.413-3.708-5.171-1.033-1.528-1.634-3.24-1.642-5.134-.002-.537-.094-1.134.761-1.013.132.019.289-.144.434-.222Z"/><path class="cls-25" d="m254.964,18.497c.125-.831.676-.935,1.347-.838-.418.331-.793.736-1.347.838Z"/></g><path class="cls-2" d="m269.306,54.097c-1.168-.37-2.159-1-2.903-1.989-.039-.164-.127-.278-.306-.297.517-.948.938-1.929,1.005-3.024.021-.35.089-.769-.494-.723-2.005.006-3.952-.346-5.843-.997-.535-.184-.688-.098-.776.501-.141.954-.152,1.89-.067,2.842.042.463-.042.967.6,1.085-.071.036-.141.073-.212.109-.344.056-.648-.101-.964-.187-.846-.232-1.603-.743-2.503-.813-.606-.421-.586-1.105-.725-1.723-.181-.434-.095-.9-.161-1.348-.022-1.269.055-2.523.543-3.717,1.617.116,3.232.282,4.85.336,3.953.133,7.891-.185,11.827-.506.195.004.389.016.584.012,1.492-.037,3.09.114,3.461-1.939.023-.127.136-.241.219-.352.414-.549.191-.741-.403-.729-1.172.005-2.343.009-3.515.014l-.034-.056c1.074-.292,2.175-.153,3.255-.119.86.027,1.267-.33,1.581-1.057.856-1.982,1.593-3.995,1.981-6.129.376-2.068.705-4.135.618-6.249-.027-.658-.301-.886-.908-.635-.675.279-1.392.317-2.071.195-1.12-.201-2.241-.175-3.353-.121-1.546.075-2.221-.631-3.087-2.227.981.102,1.966-.044,2.953-.004,1.007.041,2.061-.589,3.11-.88.559-.155.621-.103.856.285.591.979,1.122,1.07,2.069.017.305-.34.386-.8.445-1.249.049-.157.141-.314.141-.471.003-2.546-.006-5.092-.012-7.639l.07-.678c.288.77-.024,1.595.199,2.439.656-.398,1.27-.767,1.88-1.144.397-.246.887-.718,1.248-.304.277.317-.222.795-.477,1.141-.838,1.138-1.439,2.384-1.787,3.751-.118.463-.275.944.309,1.236-.702.702-1.289,1.513-1.395,2.5-.14,1.295.554,2.278,1.508,3.088-.278.256-.35.544-.174.897.281.563.358,1.171.324,1.792-.082,1.497.42,2.86.95,4.217.779,1.994,1.676,3.938,2.336,5.982.474,1.468.278,2.956.084,4.381-.13.957-.655,1.945-1.223,2.817-.155.238-.355.453-.113.744-.506.663-1.243,1.055-1.864,1.582-1.227.691-2.534,1.223-3.936,1.288-1.596.075-3.058-.518-4.436-1.298-.288-.163-.567-.341-.864-.52-.173.292.03.568-.046.829-.683.119-1.069.626-1.333,1.174-.729,1.518-1.783,2.763-3.027,3.868Z"/><path class="cls-24" d="m280.942,22.424c-.059.449-.14.91-.445,1.249-.947,1.053-1.477.961-2.069-.017-.235-.388-.297-.44-.856-.285-1.049.292-2.103.921-3.11.88-.987-.04-1.972.106-2.953.004-.384-.788-.921-1.472-1.478-2.138-1.446-1.727-2.681-3.579-3.582-5.656-.591-1.362-1.32-2.659-2.163-3.886-.2-.291-.329-.659-.72-.778.477-.986.208-2.457-.584-3.19-.286-.265-.608-.368-.985-.214.083-.199-.01-.489.241-.595,1.075-.454,2.258-.719,3.213.021.842.653,1.712.724,2.654.782.014.039.031.076.049.113.143.376.156.77.127,1.163-.059.809.148,1.556.537,2.251.566,1.012,2.135,1.865,3.177.529-.032.477-.027.946.334,1.324-.227.194-.055.345.055.5.386.542.406,1.177.068,1.667-.516.746-.591,1.489-.477,2.348.108.819.26,1,1.055.725.59-.205,1.225-.313,1.685.075.475.401.855.371,1.349.175.199-.079.449-.108.657-.066.447.089.626.009.515-.494-.065-.295-.017-.614-.021-.922-.027-2.277.296-4.601-.927-6.715-.079-.136-.061-.327-.094-.491-.197-.986-.291-2.005-.888-2.919-.26.436.051.931-.276,1.334-.462-.472-.219-1.19-.678-1.608,0-.112-.011-.225,0-.336.021-.212-.091-.512.173-.596.382-.122.298.311.451.471.057.059.109.122.226.254.219-.69.588-1.275.507-1.991.204.205.122.472.161.715.211,1.325.528,2.621,1.099,3.843.081.172.151.419.378.398.271-.026.164-.305.219-.477.27-.848.298-1.777.829-2.536.134-.191.242-.503.572-.357.294.13.206.385.183.649-.09,1.027-.231,2.048-.27,3.084-.052,1.362-.239,2.719-.39,4.076-.209,1.881-.208,3.742.547,5.518.342.805.852,1.463,1.861,1.437l.044.683Zm-11.444-7.31c-.021-.052-.046-.165-.105-.257-.446-.702-.982-1.359-1.116-2.219-.028-.178-.137-.23-.294-.172-.18.066-.378.115-.448.332-.14.439.723,2.592,1.129,2.807.212.112.433.122.633-.017.138-.095.252-.224.201-.475Z"/><path class="cls-41" d="m282.512,20.755c-.583-.291-.427-.772-.309-1.236.349-1.368.95-2.613,1.787-3.751.255-.347.754-.824.477-1.141-.362-.414-.851.058-1.248.304-.61.377-1.225.746-1.88,1.144-.222-.844.089-1.669-.199-2.438.016-.248.028-.497.049-.745.15-1.775.677-3.496.755-5.282.706-.199,1.29.081,1.844.475.221.252.447.499.661.755,1.091,1.307,2.305,2.525,3.083,4.065,1.19,2.354,1.636,4.911,1.985,7.491-.179.794-.604,1.458-1.111,2.076-.155.189-.321.424-.549.066-.524-1.768-1.565-2.381-3.9-2.293-.575-.093-.952.375-1.447.511Z"/><path class="cls-41" d="m288.347,39.632c-.222,2.963-1.284,5.532-3.537,7.542-.242-.291-.042-.506.113-.744.567-.872,1.093-1.861,1.223-2.817.193-1.425.389-2.913-.084-4.381-.66-2.044-1.557-3.988-2.336-5.982-.53-1.357-1.032-2.72-.95-4.217.034-.621-.043-1.229-.324-1.792-.176-.353-.104-.641.173-.897.78.344,1.558.863,2.439.554.498-.174.645-.015.804.365.365.872.741,1.739,1.112,2.608-.041.34.071.656.198.953.636,1.487.88,3.055,1.005,4.65.013.165.01.336.151.459.004,1.233.008,2.466.012,3.699Z"/><path class="cls-35" d="m281.945,7.61c-.079,1.785-.605,3.507-.755,5.282-.021.248-.033.497-.049.745-.023.226-.046.451-.07.677-.215.449-.142.932-.147,1.4-.021,2.009-.019,4.018-.026,6.027-1.009.026-1.519-.632-1.861-1.437-.755-1.776-.757-3.638-.547-5.518.151-1.357.338-2.714.39-4.076.039-1.036.181-2.056.27-3.084.023-.264.112-.519-.183-.649-.33-.146-.438.166-.572.357-.531.759-.558,1.688-.829,2.536-.055.172.052.451-.219.477-.227.022-.298-.225-.378-.398-.571-1.222-.888-2.518-1.099-3.843-.039-.243.043-.51-.161-.715.038-.453-.09-1.006.53-1.168,1.411-.369,1.454-.329,1.972.618.638,1.167,1.445,2.108,2.968,1.893.427-.06.639.229.912.466.367.318-.31.203-.147.411Z"/><path class="cls-44" d="m274.354,7.588c.459.417.216,1.136.678,1.608.327-.403.016-.898.276-1.334.597.914.691,1.933.888,2.919.033.164.016.355.094.491,1.223,2.114.9,4.439.927,6.715.004.308-.044.628.021.922.111.503-.068.583-.515.494-.208-.042-.459-.013-.657.066-.494.196-.874.226-1.349-.175-.46-.389-1.095-.28-1.685-.075-.795.275-.947.094-1.055-.725-.113-.859-.038-1.603.477-2.348.339-.49.318-1.125-.068-1.667-.11-.155-.282-.306-.055-.5.458.491,1.013.69,1.662.481.748-.241,1.391-.627,1.531-1.49.143-.883-.237-1.6-1.074-2.069-.259-.145-.514-.225-.244-.604.557-.781.39-1.522-.2-2.213.017-.235.124-.407.348-.497Zm1.7,4.828c-.508,1.008-.514,2.156-1,3.165-.114.238.041.532.302.616.322.104.408-.193.508-.422.475-1.087.36-2.213.189-3.359Z"/><path class="cls-27" d="m283.958,20.244c2.334-.087,3.376.525,3.9,2.293.332,1.859-.218,3.117-1.717,3.924-.696.399-1.204-.171-1.794-.339-1.48-.42-2.24-2.489-1.806-3.876.274-.876.877-1.386,1.417-2.003Z"/><path class="cls-17" d="m271.997,12.656c-1.042,1.336-2.611.483-3.177-.529-.389-.695-.596-1.442-.537-2.251.028-.393.016-.786-.127-1.163.689-.373,1.098-1.097,1.805-1.448.564.329,1.129.657,1.693.986.218.864,1.006,1.516.89,2.514-.077.668-.136,1.326-.547,1.891Z"/><path class="cls-50" d="m271.997,12.656c.411-.565.469-1.223.547-1.891.116-.998-.672-1.65-.89-2.514.896-.838,1.563-.885,2.353-.165.59.691.757,1.432.2,2.213-.27.379-.015.46.244.604.837.469,1.216,1.186,1.074,2.069-.14.863-.782,1.249-1.531,1.49-.649.209-1.204.01-1.662-.481-.362-.378-.366-.846-.334-1.324Zm1.841.807c.014-.296-.172-.39-.373-.387-.288.004-.473.184-.469.481.004.299.192.486.484.452.317-.036.229-.39.358-.546Z"/><path class="cls-1" d="m289.518,20.395c-.349-2.58-.796-5.137-1.985-7.491-.778-1.539-1.992-2.758-3.083-4.065-.214-.257-.44-.504-.661-.755,3.143,1.601,4.856,4.291,5.731,7.596.414,1.562.546,3.144-.001,4.715Z"/><path class="cls-32" d="m283.958,20.244c-.54.616-1.143,1.127-1.417,2.003-.434,1.387.326,3.456,1.806,3.876.59.168,1.098.738,1.794.339-.24.689.191,1.231.414,1.811.2.52.483,1.011.425,1.598-.371-.869-.747-1.736-1.112-2.608-.16-.381-.306-.54-.804-.365-.881.309-1.659-.21-2.439-.554-.954-.81-1.648-1.793-1.508-3.088.106-.987.693-1.798,1.395-2.5.494-.136.871-.604,1.447-.511Z"/><path class="cls-11" d="m261.541,6.573c-.021.202.102.343.209.492.083.443.291.886-.006,1.327-.708.194-1.238.716-1.883,1.027-.829-.679-1.744-1.241-2.592-1.884-.584-.443-1.635-.675-1.396-1.807,2.003-1.932,4.243-1.414,5.668.845Z"/><path class="cls-15" d="m255.873,5.727c-.239,1.132.812,1.364,1.396,1.807.847.643,1.763,1.205,2.592,1.884-.904.881-2.055,1.28-3.218,1.658-.419.01-.368-.358-.438-.59-.169-.553-.292-1.12-.434-1.681-.403-.717-.242-1.515-.33-2.277.05-.318.15-.608.432-.8Z"/><path class="cls-51" d="m254.637,9.102c.388-.059.697-.423,1.133-.298.142.561.266,1.128.434,1.681.071.232.019.6.438.59.176,1.21.723,2.309,1.044,3.476-.147.077-.304.236-.438.218-.862-.119-.769.466-.767.993.008,1.857.614,3.536,1.655,5.035,1.198,1.724,2.486,3.385,3.738,5.071.17.229.499.415.153.745-.929.321-1.847.835-2.858.355-.632-.3-1.22-.278-1.823.028-.117.002-.235.003-.352.005-.96.355-1.741-.054-2.493-.587-.212-.4-.552-.479-.979-.446-.977.075-1.8-.255-2.434-1.019-.201-.364-.105-.854-.647-1.075-1.608-.657-1.824-1.057-1.709-2.807.095-.25-.115-.347-.247-.475-.533-.517-.79-1.138-.731-1.883.207-.383.365-.806.634-1.138.272-.336.183-.593.005-.89-.004-.395-.008-.789-.012-1.184.295-.392.59-.785.886-1.177.756-.318,1.052-.948,1.155-1.708.476-.906,1.233-1.467,2.197-1.75.364-.107.644-.272.835-.612.278-.495.796-.755,1.181-1.147Z"/><path class="cls-26" d="m256.995,27.002c.117-.002.235-.003.352-.005-.107.587-.582,1.061-.648,1.619-.183,1.538-.606,3.052-.39,4.638.316,2.311,1.295,4.132,3.317,5.423,2.052,1.31,4.406,1.39,6.661,1.72,2.368.347,4.798.3,7.206.2,0,0,.034.056.033.056-.226.152-.484.125-.734.125-3.17.006-6.344.091-9.51-.019-1.747-.061-3.51-.119-5.244-.562-1.396-.357-2.815-.705-4.272-.791.002-.345-.068-.663-.344-.902-.053-.871-.106-1.742-.159-2.612.052-.787.103-1.575.155-2.363.134-.338.268-.677.401-1.015.215-.554.43-1.109.645-1.663,0,0,.008-.021.008-.021.382-.601.83-1.171,1.128-1.81.355-.762,1.232-1.139,1.396-2.015Z"/><path class="cls-41" d="m273.492,40.596c-2.408.101-4.838.147-7.206-.2-2.254-.33-4.608-.41-6.661-1.72-2.022-1.291-3.001-3.112-3.317-5.423-.217-1.586.207-3.099.39-4.638.066-.558.541-1.031.648-1.619.603-.306,1.192-.328,1.823-.028,1.011.48,1.929-.034,2.858-.355.614.158,1.066.579,1.55.951.645.496,1.298.985,2.145,1.073.131.014.302,0,.395-.076.135-.108.031-.249-.062-.359-.919-1.077-1.441-2.368-2.05-3.626-.628-1.297-1.375-2.529-2.414-3.598-1.36-1.398-2.622-2.911-3.06-4.916-.125-.57-.326-1.123-.493-1.684l-.048-.024.014-.052c.558-.099.936-.497,1.357-.822.913-.489,1.89-.791,2.892-1.039.473-.117.99-.202,1.314-.647.39.119.52.488.72.778.842,1.227,1.572,2.524,2.163,3.886.901,2.077,2.136,3.929,3.582,5.656.557.665,1.094,1.35,1.478,2.138.866,1.596,1.541,2.302,3.087,2.227,1.112-.054,2.233-.08,3.353.121.679.122,1.396.084,2.071-.195.607-.251.881-.024.908.635.087,2.114-.242,4.181-.618,6.249-.388,2.134-1.126,4.147-1.981,6.129-.314.727-.721,1.084-1.581,1.057-1.08-.033-2.181-.173-3.255.119Z"/><path class="cls-23" d="m280.899,21.741c.007-2.009.005-4.018.026-6.027.005-.468-.068-.951.147-1.4.006,2.546.015,5.092.012,7.639,0,.157-.092.314-.141.471-.015-.228-.029-.455-.044-.683Z"/><path class="cls-39" d="m263.567,11.797c-.324.445-.841.53-1.314.647-1.002.248-1.979.55-2.892,1.039-.676-.096-1.232.007-1.357.822l-.014.052s.048.024.048.024c-.197-.106-.213.156-.35.172-.321-1.167-.868-2.266-1.044-3.476,1.162-.378,2.314-.777,3.218-1.658.645-.311,1.174-.833,1.882-1.026.085,0,.17,0,.255,0,.377-.154.699-.051.985.214.792.733,1.061,2.204.584,3.19Z"/><path class="cls-53" d="m269.499,15.113c.051.25-.063.38-.201.475-.2.138-.422.129-.633.017-.406-.215-1.269-2.368-1.129-2.807.069-.218.268-.266.448-.332.157-.058.266-.006.294.172.134.86.669,1.516,1.116,2.219.058.092.084.205.105.257Z"/><path class="cls-46" d="m276.054,12.416c.171,1.146.287,2.272-.189,3.359-.1.229-.186.526-.508.422-.261-.084-.417-.378-.302-.616.486-1.009.492-2.157,1-3.165Z"/><path class="cls-33" d="m273.838,13.463c-.129.156-.041.51-.358.546-.292.034-.48-.153-.484-.452-.004-.297.181-.477.469-.481.202-.003.387.092.373.387Z"/><path class="cls-26" d="m257.687,14.552c.137-.016.153-.278.35-.172.167.561.368,1.114.493,1.684.438,2.004,1.701,3.518,3.06,4.916,1.04,1.069,1.786,2.301,2.414,3.598.609,1.258,1.132,2.549,2.05,3.626.093.11.197.25.062.359-.093.075-.265.09-.395.076-.847-.088-1.499-.577-2.145-1.073-.484-.371-.936-.793-1.55-.951.346-.331.017-.517-.153-.746-1.252-1.686-2.54-3.347-3.738-5.071-1.041-1.499-1.647-3.178-1.655-5.035-.002-.527-.095-1.112.767-.993.133.018.291-.141.438-.218Z"/><path class="cls-51" d="m258.004,14.305c.126-.815.682-.917,1.357-.822-.422.325-.8.722-1.357.822Z"/></g></svg>