<svg width="239" height="180" viewBox="0 0 239 180" fill="none" xmlns="http://www.w3.org/2000/svg">
<path d="M217.172 119.237C218.721 116.114 219.315 112.615 218.884 109.155C218.819 108.938 218.769 108.717 218.735 108.494C218.691 108.246 218.58 108.013 218.413 107.82L218.385 107.781C218.169 107.535 217.878 107.363 217.555 107.292C216.625 107.067 215.752 106.654 214.991 106.081C214.231 105.507 213.601 104.786 213.141 103.963C212.966 103.555 212.583 103.23 212.089 103.333C210.832 103.782 211.649 106.052 211.394 107.106C211.377 111.222 209.923 116.613 205.433 118.041C203.412 118.322 201.761 118.908 203.099 121.116L205.076 125.409C207.232 132.393 215.909 122.431 217.172 119.237ZM207.425 126.163L207.391 126.157C206.358 124.517 205.453 122.043 204.448 119.945C210.607 119.341 212.984 112.601 213.178 106.766C214.274 107.79 215.617 108.527 217.079 108.908C218.159 116.012 214.39 123.366 207.593 126.209C207.558 126.212 207.522 126.211 207.487 126.208C207.47 126.205 207.453 126.202 207.456 126.185C207.459 126.169 207.47 126.205 207.425 126.163Z" fill="#EFDCC4"/>
<path d="M150.609 26.2566C151.078 25.8372 150.772 25.2286 150.797 24.6956C150.968 22.1469 153.706 21.1219 155.812 21.2576C156.598 21.3027 157.374 21.4446 158.125 21.6804C158.011 21.6426 158.045 21.6484 158.142 21.6833C158.949 21.9558 159.72 22.3312 160.436 22.8012C160.432 22.8005 160.428 22.7979 160.425 22.7941C160.423 22.7903 160.422 22.7856 160.422 22.7809C160.5 22.8302 160.547 22.8564 160.436 22.8012C161.86 23.7449 163.025 25.0517 163.824 26.5998L163.827 26.5823C163.865 26.6607 163.859 26.6954 163.848 26.6578C164.147 27.2456 164.378 27.869 164.536 28.5153C164.917 29.4773 166.04 29.0471 166.306 28.2161L166.3 28.2508C166.618 27.7566 166.986 27.2987 167.398 26.8849L167.316 26.9602C168.044 25.9415 170.809 25.351 170.537 24.1573C169.38 16.7379 162.036 11.4053 154.886 12.9116C149.554 13.8408 145.774 18.2651 142.579 22.4874C142.465 22.6273 142.394 22.8003 142.378 22.9823C142.361 23.1642 142.4 23.3463 142.487 23.5032C142.575 23.66 142.707 23.784 142.867 23.8581C143.026 23.9321 143.204 23.9524 143.377 23.9162C144.837 24.2076 149.729 27.0696 150.609 26.2566ZM151.293 23.135C151.298 23.1358 151.302 23.1347 151.306 23.132C151.309 23.1293 151.312 23.1252 151.313 23.1205C151.312 23.1252 151.309 23.1293 151.306 23.132C151.302 23.1347 151.298 23.1358 151.293 23.135ZM167.776 21.0952L167.738 21.017L167.776 21.0952ZM146.101 20.8116C146.816 19.955 147.572 19.1369 148.368 18.3609C151.394 15.2015 156.609 13.464 160.938 15.0276C162.892 15.6801 164.64 16.8568 166.008 18.4399C167.104 19.6345 168.367 21.9331 168.762 23.9003C167.592 24.5014 166.441 25.285 165.604 26.3382C163.972 22.6143 160.332 19.8641 156.369 19.5464C153.329 19.1576 149.507 20.7809 149.146 24.3171C147.667 23.7361 146.195 23.1202 144.7 22.5362L146.101 20.8116Z" fill="#D13535"/>
<path d="M210.916 85.6931C212.809 85.0587 214.872 84.9093 216.887 85.2609C217.019 85.281 217.154 85.2734 217.281 85.2391C217.409 85.2045 217.525 85.144 217.621 85.062C217.717 84.98 217.791 84.8784 217.836 84.7653C217.882 84.6519 217.899 84.5298 217.886 84.408C217.567 81.574 215.782 78.3227 212.912 77.0175C212.71 77.0094 212.515 77.0682 212.361 77.1829C212.207 77.2979 212.107 77.4609 212.077 77.6421C211.894 80.1029 211.116 82.4783 209.797 84.5982C209.462 85.1979 210.235 85.9434 210.916 85.6931ZM215.413 85.0832C215.361 85.0742 215.342 85.0867 215.413 85.0832V85.0832ZM213.607 79.4195C214.206 79.9963 214.718 80.6424 215.13 81.3401L215.133 81.3245C215.53 82.0296 215.822 82.7776 216 83.548C214.744 83.4388 213.482 83.4937 212.254 83.7113C212.897 82.3423 213.352 80.9009 213.607 79.4195Z" fill="#D13535"/>
<path d="M137.369 42.8052C138.444 40.8055 138.814 38.5058 138.42 36.2696C137.738 34.3043 134.751 36.0152 133.411 36.4266C132.425 37.0479 129.399 37.8105 129.421 39.0696C129.442 39.2253 129.5 39.3739 129.591 39.5024C129.683 39.631 129.804 39.7357 129.945 39.8074C132.004 40.9431 134.081 42.082 136.155 43.2388C136.598 43.4824 137.149 43.2097 137.369 42.8052ZM132.234 38.9897C133.665 38.2802 135.131 37.5769 136.716 37.2637C136.823 38.5869 136.622 39.9158 136.129 41.1483C134.82 40.4206 133.526 39.7142 132.234 38.9897Z" fill="#D13535"/>
<path d="M183.936 119.62C186.381 117.976 189.617 116.744 191.818 114.821C192.56 114.624 192.64 113.475 191.954 113.155L183.34 108.431C182.757 108.111 182.054 108.678 182.11 109.342L183.005 118.821C183.062 119.285 183.473 119.702 183.936 119.62ZM189.993 114.102L184.583 117.207L183.976 110.814L189.993 114.102Z" fill="#CE9C5C"/>
<path d="M48.3772 54.1744C49.196 54.1279 49.5718 52.1756 50.5712 51.488C51.0927 50.8203 52.2798 50.7004 52.4048 49.7908C52.5299 48.8813 51.1758 48.7995 50.5879 48.2999C50.1023 47.9669 49.6478 47.587 49.2333 47.1659C47.3605 44.3542 46.1343 41.0347 46.3522 37.5713C46.4254 36.3293 46.6407 35.0992 46.9937 33.906L46.9879 33.9395C47.1181 33.2896 47.7537 32.5556 47.2153 31.9612C47.018 31.7369 46.6068 31.5788 46.3263 31.7366C45.9517 31.9332 45.5615 32.0957 45.1599 32.2224C44.0633 32.5271 42.9063 32.5042 41.8276 32.1566C41.8327 32.1638 41.8405 32.1699 41.8473 32.1741C41.8554 32.1784 41.8651 32.1812 41.8738 32.182C41.4677 32.0383 41.0752 31.8599 40.6999 31.6488C40.6537 31.6234 40.4129 31.4605 40.6105 31.5814C37.7905 29.8459 39.3938 41.2349 39.7069 42.5316C40.8099 47.1404 42.62 54.3569 48.3772 54.1744ZM47.0979 52.4152C41.6929 50.2963 40.3442 38.7966 40.7715 33.5587C42.1678 34.1653 45.0321 35.4602 45.2668 33.9316C44.2729 40.5709 44.847 45.3977 49.927 49.8573C49.0597 49.1191 48.2942 51.469 47.7733 52.5163C47.5446 52.5078 47.3178 52.4739 47.0979 52.4152ZM47.72 52.5241C47.5698 52.5152 47.7041 52.5213 47.7401 52.5105C47.7398 52.5126 47.7381 52.5146 47.7378 52.5166C47.7362 52.5184 47.7347 52.5201 47.7332 52.5214C47.7317 52.5228 47.729 52.5235 47.7276 52.5242C47.725 52.5246 47.7225 52.5246 47.72 52.5241Z" fill="#CE9C5C"/>
<path d="M79.0215 54.577C80.3662 54.3643 81.6388 53.8441 82.7387 53.058C83.8385 52.2721 84.7342 51.2423 85.3536 50.0513L85.3867 50.0571L85.3926 50.0237C85.5657 49.537 85.9702 49.2288 86.0982 48.6999L86.1216 48.5661C85.5911 48.0942 84.602 47.8349 84.1183 47.3885C82.3604 46.2637 80.7063 44.9883 79.1758 43.5771C78.7235 43.1533 77.8309 43.4452 77.7736 44.0726C77.681 45.607 76.9937 54.7389 79.0215 54.577ZM79.3125 46.599L79.3503 45.9854C80.7687 47.1668 82.274 48.2424 83.8532 49.2028C83.7536 49.3749 83.6675 49.5666 83.5499 49.7356C83.4324 49.9045 83.3954 50.0187 83.5009 49.8131C83.1754 50.3227 82.7817 50.7869 82.3312 51.1935L82.3282 51.2102C81.8778 51.6163 81.3748 51.9625 80.8325 52.2406C80.4569 52.4286 80.0659 52.585 79.6637 52.708C79.38 50.6834 79.2623 48.6404 79.3125 46.599Z" fill="#CE9C5C"/>
<path d="M146.378 116.116C146.777 113.732 149.393 113.883 151.364 113.938L149.821 112.254C147.553 109.811 151.117 106.379 153.688 108.516C153.71 104.719 159.978 104.402 159.27 110.277C160.544 108.608 162.274 106.781 164.517 108.452C166.681 110.364 164.934 112.291 163.429 113.851C165.629 113.725 168.383 113.696 168.558 116.47C168.732 119.245 165.716 119.245 163.519 119.151C164.332 120.111 165.983 121.389 165.778 122.767C165.716 125.057 162.5 126.096 160.936 124.323L159.574 122.823C160.492 127.774 154.773 128.425 154.073 124.57C151.613 126.799 147.815 123.407 150.002 120.909L151.454 119.238C149.012 119.424 146.096 119.254 146.378 116.116ZM153.584 114.719C153.554 114.869 153.472 115.005 153.351 115.104C153.23 115.204 153.077 115.261 152.917 115.267L149.075 115.293C147.885 115.255 147.264 116.766 148.164 117.537C148.681 118.258 152.209 117.785 152.956 117.898C153.088 117.902 153.216 117.941 153.326 118.011C153.437 118.08 153.525 118.178 153.582 118.293C153.638 118.407 153.659 118.534 153.644 118.659C153.629 118.784 153.578 118.901 153.495 118.998L151.081 121.78C149.928 123.061 152.09 124.786 153.211 123.482L154.175 122.356C154.562 121.878 155.42 122.181 155.419 122.795L155.459 124.404C155.441 125.525 157.043 126.164 157.817 125.311C158.975 124.713 156.971 119.232 159.341 120.584C159.941 121.03 162.027 124.002 162.922 123.887C164.114 124.01 164.851 122.554 164.034 121.712L161.466 118.945C161.381 118.845 161.327 118.725 161.308 118.598C161.29 118.472 161.308 118.343 161.362 118.227C161.416 118.111 161.502 118.012 161.612 117.941C161.722 117.87 161.85 117.83 161.984 117.825C163.199 117.612 167.263 118.562 167.163 116.482C167.063 114.402 163.157 115.406 161.944 115.194C159.092 114.456 166.02 111.186 163.624 109.471C163.486 109.358 163.326 109.272 163.154 109.218C162.982 109.164 162.8 109.142 162.621 109.155C162.441 109.168 162.266 109.215 162.106 109.293C161.947 109.371 161.805 109.479 161.69 109.61L159.145 112.522C159.057 112.63 158.935 112.708 158.796 112.745C158.658 112.782 158.51 112.776 158.374 112.728C158.238 112.679 158.12 112.591 158.039 112.476C157.957 112.361 157.915 112.224 157.919 112.086C157.775 111.379 158.175 107.972 157.401 107.496C156.564 106.668 155.011 107.282 155.077 108.435L155.128 110.285C155.165 110.888 154.307 111.198 153.906 110.736L152.917 109.659C151.737 108.345 149.646 110.092 150.866 111.38C151.085 111.759 153.847 114.237 153.584 114.719Z" fill="#D13535"/>
<path d="M91.6836 28.389C92.0868 25.9863 94.6988 26.1536 96.673 26.1921L95.1272 24.5228C92.845 22.0595 96.4265 18.6268 98.9953 20.782C99.0174 16.9821 105.306 16.65 104.578 22.5437C105.851 20.8733 107.584 19.0275 109.827 20.6993C111.988 22.6297 110.24 24.5582 108.735 26.12C110.935 25.9933 113.69 25.9637 113.864 28.7404C114.038 31.5171 111.021 31.5179 108.824 31.4234L110.385 33.1123C112.78 35.7489 108.678 39.1929 106.244 36.5835L104.878 35.0993C105.15 37.0231 104.648 39.2721 102.195 39.3202C101.489 39.3213 100.805 39.0648 100.282 38.6024C99.7598 38.1403 99.4376 37.5072 99.3806 36.832C96.9169 39.0788 93.12 35.6851 95.3101 33.1688L96.7603 31.5121C94.2716 31.6565 91.4474 31.5715 91.6836 28.389ZM98.8928 26.973C98.8662 27.1249 98.7847 27.2624 98.6629 27.3621C98.5412 27.462 98.387 27.5183 98.226 27.5214L94.3838 27.5482C92.599 27.5429 92.6671 30.2158 94.4565 30.1878L98.265 30.155C101.117 30.893 94.1863 34.183 96.5807 35.8985C97.7469 36.8872 98.8424 35.4244 99.481 34.6322C99.8681 34.1542 100.742 34.4607 100.728 35.0551C100.723 36.0948 100.547 38.0256 102.178 37.987C104.871 37.8955 102.481 33.4004 103.878 32.6557C104.01 32.6113 104.154 32.6055 104.292 32.6386C104.428 32.6715 104.553 32.7423 104.649 32.8418L107.29 35.709C108.454 37.0045 110.543 35.272 109.339 33.9868L106.775 31.2012C106.688 31.1033 106.632 30.9843 106.612 30.858C106.593 30.7318 106.611 30.6034 106.665 30.4878C106.719 30.3721 106.807 30.2741 106.916 30.2049C107.027 30.1359 107.157 30.0985 107.289 30.0972C108.505 29.8834 112.569 30.8336 112.469 28.7521C112.37 26.6708 108.466 27.6592 107.251 27.4635C107.117 27.4633 106.986 27.4267 106.872 27.358C106.758 27.2893 106.667 27.1914 106.609 27.0756C106.55 26.9597 106.527 26.8309 106.543 26.7043C106.558 26.5775 106.61 26.4579 106.694 26.3597L109.127 23.5788C110.262 22.2934 108.12 20.5541 106.998 21.8756L104.452 24.7903C104.363 24.8946 104.24 24.9688 104.103 25.0029C103.966 25.037 103.82 25.0291 103.687 24.9806C103.554 24.9299 103.441 24.8438 103.359 24.7324C103.277 24.6209 103.231 24.4893 103.225 24.3538L103.138 20.6713C103.112 18.9782 100.31 18.9823 100.386 20.6843L100.435 22.5521C100.471 23.1554 99.6136 23.4659 99.2162 22.987L98.2258 21.9096C97.043 20.6109 94.9524 22.3601 96.1732 23.6483C96.3915 24.0277 99.1564 26.4903 98.8928 26.973Z" fill="#D13535"/>
<path d="M196.18 167.989C196.191 167.925 196.22 167.863 196.263 167.809C196.307 167.755 196.364 167.71 196.433 167.674C196.502 167.64 196.58 167.617 196.663 167.607C196.746 167.597 196.833 167.601 196.918 167.617L212.359 170.319C212.444 170.333 212.526 170.359 212.601 170.397C212.676 170.435 212.742 170.483 212.795 170.538C212.847 170.595 212.886 170.657 212.909 170.723C212.931 170.788 212.937 170.856 212.926 170.92C212.902 171.053 212.811 171.168 212.673 171.24C212.534 171.311 212.359 171.335 212.186 171.304L196.745 168.602C196.572 168.572 196.415 168.49 196.309 168.375C196.203 168.261 196.157 168.122 196.18 167.989Z" fill="#CE9C5C"/>
<path d="M198.166 162.444C198.191 162.282 198.279 162.134 198.409 162.034C198.546 161.918 198.723 161.862 198.9 161.876C199.077 161.891 199.241 161.976 199.357 162.112L210.79 175.935C210.903 176.074 210.958 176.252 210.943 176.432C210.927 176.612 210.843 176.779 210.707 176.897C210.568 177.009 210.393 177.063 210.217 177.049C210.041 177.034 209.877 176.952 209.76 176.819L198.31 162.993C198.25 162.917 198.206 162.829 198.181 162.734C198.156 162.64 198.151 162.542 198.166 162.444Z" fill="#CE9C5C"/>
<path d="M196.16 173.904C196.176 173.816 196.209 173.733 196.257 173.658C196.306 173.584 196.369 173.52 196.442 173.471L211.069 163.192C211.143 163.141 211.226 163.104 211.313 163.083C211.401 163.063 211.492 163.061 211.58 163.077C211.669 163.092 211.754 163.125 211.83 163.173C211.905 163.222 211.97 163.286 212.022 163.359C212.122 163.506 212.161 163.685 212.131 163.861C212.1 164.036 212.002 164.192 211.858 164.295L197.214 174.571C197.143 174.623 197.061 174.659 196.975 174.68C196.888 174.7 196.799 174.702 196.712 174.687C196.624 174.672 196.541 174.639 196.467 174.591C196.392 174.542 196.328 174.481 196.279 174.407C196.226 174.335 196.189 174.253 196.168 174.167C196.148 174.081 196.145 173.99 196.16 173.904Z" fill="#CE9C5C"/>
<path d="M202.708 177.095L205.411 161.654C205.424 161.57 205.45 161.488 205.488 161.412C205.525 161.337 205.573 161.271 205.629 161.219C205.685 161.166 205.748 161.127 205.813 161.105C205.879 161.082 205.946 161.076 206.011 161.088C206.143 161.111 206.258 161.202 206.33 161.341C206.402 161.479 206.426 161.655 206.396 161.827L203.693 177.267C203.663 177.44 203.581 177.597 203.466 177.703C203.351 177.809 203.212 177.856 203.08 177.833C203.015 177.822 202.954 177.793 202.9 177.75C202.846 177.706 202.8 177.648 202.766 177.579C202.731 177.511 202.708 177.433 202.698 177.35C202.688 177.266 202.692 177.18 202.708 177.095Z" fill="#CE9C5C"/>
<path d="M34.2739 115.085C34.1339 114.997 33.9741 114.951 33.8114 114.951C33.6488 114.951 33.4891 114.997 33.3491 115.085C33.1818 115.187 33.0241 115.306 32.8784 115.44C32.6592 115.621 32.4514 115.817 32.2563 116.026C32.2264 116.04 32.2025 116.066 32.189 116.097C31.9052 115.943 31.63 115.771 31.3652 115.582L31.1971 115.44L31.0458 115.316L30.575 114.854C30.3229 114.588 30.1043 114.286 29.8521 114.019C29.2299 113.345 28.4397 112.848 27.5151 113.043C26.5903 113.238 25.7496 114.233 26.0691 115.28C26.2037 115.724 26.6576 116.062 27.1116 115.902C27.5655 115.742 27.8177 115.316 27.7168 114.872C27.7336 114.854 27.7504 114.836 27.7168 114.854L27.7841 114.819L27.9185 114.765H27.9858L28.0698 114.801H28.1035C28.1035 114.819 28.1035 114.819 28.1203 114.819L28.2717 114.907L28.3557 114.978C28.4397 115.032 28.3053 114.925 28.3053 114.925C28.3053 114.925 28.5743 115.174 28.6079 115.227C29.0115 115.653 29.3645 116.115 29.8015 116.523C30.1898 116.883 30.6124 117.198 31.0626 117.465C30.0441 118.972 29.418 120.736 29.2468 122.579C29.1291 123.928 29.3308 125.473 30.4069 126.379C30.6865 126.625 31.0128 126.804 31.3637 126.906C31.7147 127.007 32.0822 127.027 32.4412 126.965C32.7229 126.9 32.9897 126.778 33.2263 126.604C33.4628 126.43 33.6647 126.209 33.8199 125.953C34.4924 124.958 34.3748 123.502 33.45 122.739C33.0917 122.462 32.6681 122.296 32.2259 122.259C31.7838 122.221 31.3404 122.313 30.9449 122.526V122.366L30.9953 122.135C31.0997 121.504 31.2631 120.885 31.483 120.288C31.4997 120.27 31.4997 120.235 31.5165 120.199C31.5226 120.192 31.5272 120.184 31.5302 120.174C31.533 120.165 31.5341 120.156 31.5334 120.146L31.5838 120.039C31.651 119.88 31.7351 119.72 31.8024 119.578C31.9562 119.264 32.1303 118.961 32.3236 118.672L32.5925 118.246L32.6766 118.157C32.9023 118.214 33.1361 118.226 33.366 118.193C34.0889 118.104 34.7278 117.678 34.9295 116.896C35.1313 116.115 34.896 115.422 34.2739 115.085ZM28.1203 114.819H28.154C28.154 114.836 28.1371 114.819 28.1203 114.819ZM31.2307 124.745L31.2644 124.798C31.2475 124.781 31.2307 124.763 31.2307 124.745ZM31.3821 124.461L31.4492 124.301C31.4538 124.301 31.458 124.299 31.4611 124.296C31.4643 124.293 31.4661 124.288 31.4661 124.283L31.4997 124.248L31.5334 124.212H31.567L31.6847 124.124L31.9704 124.053H32.1554L32.3067 124.088L32.4245 124.159L32.4916 124.248L32.5253 124.301C32.5297 124.301 32.534 124.303 32.5372 124.306C32.5403 124.31 32.5421 124.314 32.5421 124.319C32.5475 124.362 32.5588 124.404 32.5758 124.443V124.621C32.5565 124.672 32.5451 124.726 32.5421 124.781C32.5253 124.798 32.5253 124.798 32.5253 124.816C32.4628 124.897 32.4119 124.986 32.374 125.083H32.3572C32.3403 125.1 32.2563 125.171 32.2563 125.189H32.189L32.0882 125.242H31.9369L31.8191 125.207H31.7687L31.567 125.1L31.5165 125.065L31.3484 124.905L31.2811 124.834L31.2475 124.781L31.2139 124.727C31.2905 124.655 31.3483 124.563 31.3821 124.461ZM30.9449 122.383C30.9441 122.374 30.9451 122.364 30.9481 122.355C30.951 122.346 30.9556 122.337 30.9616 122.33C30.9556 122.337 30.951 122.346 30.9481 122.355C30.9451 122.364 30.9441 122.374 30.9449 122.383ZM33.3491 116.399H33.366C33.366 116.404 33.3642 116.408 33.361 116.412C33.3579 116.415 33.3536 116.417 33.3491 116.417V116.399ZM33.3155 116.399C33.3323 116.399 33.3323 116.399 33.3323 116.381C33.3323 116.364 33.3323 116.399 33.3155 116.399ZM33.3155 116.417H33.2987C33.2651 116.328 33.2987 116.364 33.2987 116.417H33.3155Z" fill="#D13535"/>
<path d="M68.8002 109.329C68.2907 109.407 67.8052 109.592 67.3785 109.873C67.1626 109.994 67.0049 110.192 66.94 110.425C66.8751 110.658 66.9083 110.907 67.0324 111.116C67.1564 111.326 67.3612 111.479 67.6015 111.542C67.8418 111.605 68.0979 111.572 68.3138 111.452L68.7254 111.216L68.875 111.162L69.0247 111.107H69.0996V111.253C69.0951 111.283 69.0889 111.313 69.0808 111.343L69.0247 111.416L68.9872 111.47L68.9125 111.543L68.8564 111.597C68.7597 111.682 68.6446 111.744 68.5195 111.779L68.4634 111.815L68.2765 111.888L67.8088 112.015L67.5842 112.069H67.1914L67.0979 112.015H67.0604L67.023 111.96L66.9856 111.906V111.87C66.9812 111.839 66.975 111.809 66.9669 111.779L66.9108 111.597V111.525C66.8858 111.44 66.8858 111.458 66.9108 111.579C66.8547 111.488 66.892 111.289 66.892 111.198C66.8733 111.029 66.8733 110.859 66.892 110.69C66.892 110.436 66.9108 110.164 66.9295 109.91C66.9481 109.656 66.9481 109.764 66.9669 109.692C66.9891 109.527 67.0202 109.363 67.0604 109.202C67.1701 108.634 67.3266 108.076 67.5281 107.532C67.5697 107.396 67.6197 107.263 67.6778 107.133C67.6869 107.116 67.6932 107.098 67.6964 107.079C67.7161 107.013 67.7478 106.952 67.79 106.897C67.9145 106.61 68.0583 106.331 68.2203 106.062C68.3699 105.79 68.5383 105.518 68.7066 105.264L69.006 104.846L69.0996 104.738L69.1743 104.647C70.278 104.411 71.1573 103.431 70.9142 102.269C70.8711 102.118 70.7882 101.979 70.6735 101.868C70.5586 101.756 70.416 101.676 70.2594 101.634C70.0986 101.594 69.9298 101.595 69.7694 101.637C69.609 101.678 69.462 101.758 69.3427 101.87C68.9772 102.167 68.6334 102.489 68.3138 102.832H68.2203L67.8835 102.723C67.8835 102.705 67.8461 102.705 67.8274 102.687L67.7152 102.65L67.023 102.342C66.5741 102.124 66.1064 101.943 65.6573 101.743C64.7034 101.344 63.7305 100.945 62.7578 100.582C61.7849 100.219 60.8683 99.9828 59.8768 100.001C58.8515 99.9959 57.8574 100.343 57.0707 100.981C56.8523 100.943 56.6272 100.981 56.4354 101.089C56.2435 101.197 56.0974 101.368 56.0233 101.57C55.9491 101.773 55.9516 101.995 56.0304 102.196C56.1091 102.397 56.2591 102.565 56.4533 102.669C56.4721 102.705 56.4721 102.741 56.4908 102.778C56.4813 102.832 56.4813 102.887 56.4908 102.941C56.4908 103.032 56.4721 103.104 56.4721 103.195C56.416 103.377 56.3786 103.576 56.3225 103.758L56.154 104.211C56.1354 104.247 56.1166 104.266 56.1166 104.302C56.0844 104.392 56.0404 104.477 55.9857 104.556C55.8361 104.919 55.6677 105.264 55.4993 105.627C55.2 106.316 54.9381 107.06 55.0129 107.823C55.0878 108.585 55.5928 109.619 56.2664 110.345C56.8858 111.029 57.6607 111.563 58.5299 111.906C58.9506 112.052 59.3969 112.116 59.8432 112.094C60.2894 112.073 60.7269 111.965 61.1303 111.779C61.5429 111.593 61.8964 111.303 62.1532 110.939C62.41 110.575 62.5608 110.15 62.5894 109.71C62.6142 109.298 62.5272 108.886 62.3368 108.517C62.1464 108.147 61.8594 107.833 61.5043 107.605C60.6438 107.079 59.5026 107.314 58.8478 108.04C58.4595 108.475 58.2122 109.012 58.1371 109.583L58.081 109.528L57.688 109.166L57.3326 108.766V108.73C57.314 108.712 57.314 108.694 57.2952 108.694L57.1269 108.44L56.9959 108.204C57.0894 108.367 56.9959 108.167 56.9771 108.113C56.9439 108.043 56.9188 107.97 56.9024 107.895V107.841C56.893 107.702 56.893 107.562 56.9024 107.423V107.387L56.9585 107.169C56.9848 107.034 57.0223 106.9 57.0707 106.77C57.1443 106.617 57.2069 106.459 57.2578 106.298C57.2969 106.229 57.3282 106.156 57.3513 106.08L57.5758 105.645C57.9487 104.912 58.2071 104.129 58.3428 103.322C58.3833 102.99 58.377 102.654 58.3241 102.324C58.3241 102.306 58.3428 102.306 58.3615 102.288C58.4475 102.217 58.5416 102.156 58.6421 102.106L58.7731 102.052C58.7731 102.033 58.7917 102.033 58.8105 102.033L58.8666 101.997L59.0911 101.925L59.3718 101.852H60.4567L60.7 101.888L61.4482 102.088C61.9245 102.227 62.3928 102.391 62.8513 102.578L63.5248 102.832L63.8988 102.995L64.0672 103.05L64.1608 103.086L65.6012 103.703C66.0877 103.921 66.5927 104.175 67.1165 104.393C66.1026 105.873 65.4383 107.552 65.171 109.311C64.9652 110.726 64.722 112.777 66.1625 113.684C66.9295 114.156 67.9396 114.029 68.7441 113.757C69.5485 113.485 70.3155 113.085 70.7271 112.378C71.1387 111.67 71.1199 110.49 70.4278 109.855C70.2203 109.647 69.964 109.49 69.6806 109.398C69.3972 109.306 69.0951 109.283 68.8002 109.329ZM60.5877 109.928C60.6063 109.91 60.6251 109.873 60.6251 109.891C60.6251 109.91 60.6251 109.91 60.5877 109.928ZM60.4006 109.129C60.4056 109.129 60.4104 109.127 60.4138 109.124C60.4174 109.12 60.4194 109.116 60.4194 109.111C60.4194 109.113 60.4188 109.116 60.4179 109.118C60.417 109.12 60.4155 109.122 60.4138 109.124C60.4121 109.126 60.41 109.127 60.4078 109.128C60.4055 109.129 60.4031 109.129 60.4006 109.129ZM60.3445 109.129C60.3445 109.134 60.3425 109.139 60.339 109.142C60.3355 109.145 60.3308 109.147 60.3258 109.147C60.3071 109.147 60.3071 109.147 60.3445 109.129ZM60.0264 109.547C60.0264 109.542 60.0284 109.537 60.032 109.534C60.0354 109.53 60.0403 109.528 60.0452 109.528C60.0692 109.47 60.1006 109.416 60.1388 109.365C60.1398 109.351 60.1466 109.338 60.1574 109.329C60.1624 109.329 60.1672 109.327 60.1706 109.324C60.1742 109.32 60.1762 109.316 60.1762 109.311C60.2135 109.256 60.2323 109.256 60.2135 109.274L60.2696 109.22H60.3071C60.3095 109.22 60.312 109.22 60.3143 109.219C60.3165 109.218 60.3186 109.216 60.3203 109.215C60.3221 109.213 60.3234 109.211 60.3244 109.209C60.3254 109.207 60.3258 109.204 60.3258 109.202C60.3445 109.202 60.3445 109.202 60.3445 109.184H60.4567C60.4567 109.186 60.4573 109.188 60.4582 109.191C60.4591 109.193 60.4604 109.195 60.4623 109.197C60.464 109.198 60.466 109.2 60.4684 109.2C60.4706 109.201 60.473 109.202 60.4755 109.202C60.4804 109.202 60.4851 109.204 60.4887 109.207C60.4921 109.211 60.4941 109.215 60.4941 109.22L60.5877 109.293C60.5877 109.295 60.5881 109.297 60.5892 109.3C60.5901 109.302 60.5914 109.304 60.5931 109.305C60.5948 109.307 60.597 109.308 60.5992 109.309C60.6015 109.31 60.604 109.311 60.6065 109.311L60.6626 109.456C60.6812 109.474 60.6812 109.492 60.6812 109.528C60.6879 109.536 60.6932 109.544 60.6964 109.554C60.6996 109.563 60.7007 109.573 60.7 109.583V109.71C60.6829 109.757 60.6704 109.806 60.6626 109.855L60.6251 109.91C60.6251 109.928 60.6063 109.946 60.5877 109.982L60.4755 110.073C60.4567 110.091 60.3633 110.145 60.438 110.109H60.4194L60.2323 110.218H60.1949L59.9703 110.273H59.9517V110.218C59.9517 110.145 59.9329 110.091 59.9329 110.037C59.9329 109.982 59.9517 109.91 59.9517 109.873C59.956 109.843 59.9623 109.812 59.9703 109.783L60.0264 109.547ZM56.4533 102.65C56.4721 102.687 56.4908 102.705 56.4533 102.65V102.65ZM56.416 102.578C56.4185 102.578 56.4209 102.578 56.4231 102.579C56.4253 102.58 56.4274 102.582 56.4292 102.583C56.4309 102.585 56.4323 102.587 56.4333 102.589C56.4342 102.591 56.4347 102.594 56.4347 102.596L56.416 102.578ZM56.3972 102.56C56.396 102.546 56.3894 102.533 56.3786 102.524C56.3894 102.533 56.396 102.546 56.3972 102.56ZM56.4908 102.65L56.6217 102.705L56.4908 102.65ZM69.0808 102.669C69.0435 102.524 69.0808 102.614 69.0808 102.669V102.669ZM68.9872 102.759H68.9311H68.9872ZM67.1726 112.124H67.1165H67.1726ZM66.9669 111.888C66.9669 111.906 66.9856 111.924 67.0043 111.978C67.023 112.033 66.9856 111.924 66.9669 111.888ZM68.9872 111.525L69.0435 111.452C69.0415 111.468 69.0351 111.483 69.0254 111.496C69.0155 111.508 69.0024 111.518 68.9872 111.525Z" fill="#EFDCC4"/>
<path d="M102.989 116.502C102.934 116.187 102.68 115.837 102.336 115.784C101.231 115.604 100.094 115.822 99.1447 116.397C99.1396 116.397 99.1357 116.398 99.1319 116.402C99.1281 116.405 99.1268 116.409 99.1268 116.414C99.0359 116.414 98.8734 116.344 98.8184 116.344L98.4741 116.239L98.1836 116.152L98.112 116.117L97.8944 115.994C97.6884 115.888 97.4888 115.771 97.2955 115.644C97.2776 115.609 97.2047 115.574 97.1868 115.557L97.078 115.469L96.7338 115.172C95.1917 113.773 93.5787 111.761 91.2036 112.023C90.0975 112.146 89.0822 112.671 88.5746 113.615C88.4413 113.688 88.334 113.798 88.2664 113.93C87.1242 116.169 86.3626 119.056 87.7406 121.295V121.33C87.754 121.525 87.829 121.712 87.9553 121.865C88.0816 122.018 88.2535 122.13 88.4477 122.187C88.9651 122.68 89.6449 122.983 90.3696 123.044C91.1492 123.114 91.9107 122.747 92.4546 122.204C92.725 121.945 92.9569 121.651 93.1436 121.33C93.3611 120.962 93.5787 120.56 93.5606 120.123C93.4881 119.248 92.6903 118.706 91.8382 118.583C90.986 118.461 89.8438 118.478 89.0098 119.021L88.8466 119.143C88.8256 119.045 88.8135 118.946 88.8103 118.846C88.798 118.577 88.804 118.309 88.8284 118.041C88.8255 117.97 88.8316 117.9 88.8466 117.831V117.726C88.8828 117.586 88.901 117.446 88.9372 117.306C88.9902 117.009 89.069 116.716 89.1729 116.432C89.2655 116.129 89.3744 115.831 89.4993 115.539C89.5194 115.501 89.5318 115.46 89.5355 115.417C89.5673 115.374 89.5918 115.327 89.608 115.277L89.735 115.015C89.9337 114.901 90.0822 114.72 90.1519 114.507C90.1531 114.494 90.1596 114.481 90.1701 114.472C90.1882 114.42 90.1882 114.42 90.1701 114.437C90.152 114.455 90.1882 114.42 90.1882 114.402L90.2608 114.315C90.2789 114.297 90.2789 114.297 90.2789 114.28C90.2789 114.262 90.3152 114.245 90.297 114.28C90.2788 114.315 90.424 114.14 90.442 114.14L90.4784 114.105L90.5871 114.035L90.7685 113.93C90.7503 113.947 90.7321 113.947 90.7865 113.93L90.8409 113.895C90.8409 113.913 90.8409 113.913 90.8228 113.913L90.9678 113.878L91.2579 113.808H91.8562L92.1827 113.878L92.3458 113.947L92.4908 114C92.6858 114.092 92.8737 114.197 93.0528 114.315L93.3611 114.507C93.3611 114.512 93.363 114.516 93.3664 114.52C93.3698 114.523 93.3744 114.525 93.3793 114.525H93.3973C93.4548 114.592 93.522 114.651 93.5968 114.7C94.3945 115.347 95.0471 116.134 95.8636 116.781C96.3998 117.221 97.005 117.576 97.6577 117.831C96.9807 118.887 96.6864 120.13 96.8246 121.365C96.8835 122.142 97.0921 122.901 97.4401 123.604C97.7857 124.234 98.4012 124.828 99.1626 124.968C100.849 125.266 102.39 123.411 101.556 121.907C101.012 120.892 99.6156 120.613 98.6187 121.067C98.6008 120.84 98.6008 120.612 98.6187 120.385C98.6187 120.333 98.6367 120.28 98.6367 120.228C98.6367 120.175 98.6559 120.14 98.6559 120.123L98.7646 119.668C98.8005 119.545 98.8542 119.423 98.8913 119.301C98.9271 119.178 98.9092 119.283 98.9092 119.265H98.9271C98.954 119.2 98.9847 119.136 99.018 119.073L99.1997 118.776L99.3085 118.618L99.3981 118.531C99.48 118.429 99.5708 118.335 99.6707 118.251L99.7065 118.216C100.712 118.212 101.698 117.939 102.554 117.429C102.711 117.332 102.838 117.193 102.915 117.028C102.991 116.863 103.017 116.68 102.989 116.502ZM90.7321 121.277L90.8228 121.242L90.7321 121.277ZM89.7531 120.682C89.7531 120.7 89.735 120.717 89.7168 120.752C89.6988 120.787 89.735 120.717 89.7531 120.682ZM89.735 120.735C89.7415 120.728 89.7465 120.72 89.7496 120.711C89.7528 120.702 89.7539 120.692 89.7531 120.682L89.8438 120.613L89.9344 120.542L90.1701 120.403L90.3152 120.35L90.5327 120.298H91.5299L91.6568 120.333L91.4937 120.595L91.3849 120.752H91.3485C91.2678 120.854 91.1767 120.948 91.0766 121.032L91.0404 121.067L90.8953 121.155L90.8228 121.207L90.7141 121.242L90.5871 121.277H90.4058L90.2789 121.242L90.2064 121.207L90.1157 121.172L89.9344 121.067L89.8438 121.032H89.8981C89.805 120.966 89.7199 120.89 89.6443 120.805L89.6986 120.735C89.6986 120.77 89.7168 120.752 89.735 120.735ZM99.3085 123.096L99.3802 123.166L99.3085 123.096ZM99.8882 123.027V122.992C99.892 123.003 99.892 123.015 99.8882 123.027ZM99.2535 122.747H99.2714C99.2535 122.747 99.2714 122.729 99.3085 122.677C99.3264 122.659 99.3264 122.659 99.3264 122.642H99.6707C99.6707 122.637 99.6694 122.633 99.6655 122.629C99.6617 122.626 99.6579 122.624 99.6527 122.624C99.6579 122.624 99.6617 122.626 99.6655 122.629C99.6694 122.633 99.6707 122.637 99.6707 122.642H99.7065C99.7973 122.642 99.8153 122.677 99.7615 122.659L99.8703 122.694C99.7436 122.659 99.8153 122.642 99.8703 122.694C99.924 122.747 99.8882 122.694 99.8882 122.694H99.9061C99.9061 122.712 99.924 122.712 99.9432 122.729C99.9432 122.734 99.9445 122.738 99.9483 122.742C99.9509 122.745 99.956 122.747 99.9611 122.747C99.9611 122.764 99.9791 122.799 99.9791 122.817V122.904C99.9701 122.921 99.9637 122.938 99.9611 122.957L99.924 123.009L99.8703 123.096L99.7436 123.202L99.6886 123.236H99.6707L99.5619 123.271H99.471L99.3981 123.236L99.3443 123.202L99.2893 123.166L99.1626 123.009L99.2356 123.096L99.1626 122.992C99.1588 122.992 99.1537 122.99 99.1498 122.986C99.1473 122.983 99.1447 122.979 99.1447 122.974L99.2535 122.747Z" fill="#D13535"/>
<path d="M13.1082 101C10.4529 101.035 10.1025 98.3797 9.789 96.4632L8.25856 98.2742C6.04574 100.929 1.65705 98.0281 3.50103 95.1268C-0.279202 95.883 -1.47776 90.397 2.32082 89.6761L4.34922 89.3069C2.30247 88.3399 -0.0209824 86.9508 1.362 84.4715C3.02155 81.9923 5.43715 83.3814 7.41024 84.5947C6.8571 82.4495 6.30383 79.7417 9.2727 79.0912C12.2416 78.4405 12.8315 81.412 13.1451 83.5924C14.5096 81.7989 16.2799 79.601 18.7508 81.3418C21.2217 83.0825 19.3962 85.2452 17.8656 86.8453C23.0842 85.087 24.799 90.6432 20.7792 91.9619C23.6743 94.0016 20.7054 98.327 17.5891 96.6039L15.5238 95.4609C16.1508 97.8874 16.5933 100.683 13.1082 101ZM10.2132 94.1422C10.3825 94.1431 10.5465 94.1994 10.6774 94.3018C10.8085 94.4043 10.8984 94.5466 10.9323 94.7049L11.6883 98.4852C12.0202 100.244 14.8969 99.7337 14.5281 97.9754L13.772 94.2302C13.9196 91.663 18.216 96.2346 19.4147 95.5313C20.6316 95.2676 20.8713 93.562 19.7649 93.0169L18.3636 92.2433C17.792 91.9443 17.9579 91.0475 18.6033 90.9421L20.3367 90.6256C20.7105 90.5575 21.0407 90.3507 21.2549 90.0507C21.4693 89.7509 21.5501 89.3822 21.4799 89.0255C20.8898 86.3881 16.4827 89.5003 15.4132 88.2519C15.3403 88.1292 15.3066 87.989 15.3165 87.8484C15.3263 87.7078 15.3791 87.5729 15.4685 87.4607L18.0685 84.3661C19.2486 82.9946 16.9621 81.2363 15.8189 82.6429L13.2925 85.6497C12.9238 86.1067 12.094 85.9134 12.0018 85.3507C11.5408 84.1902 11.7806 80.0054 9.54927 80.4801C7.31809 80.9549 9.14359 84.5947 9.16207 85.8254C9.18719 85.9568 9.17248 86.0923 9.11964 86.2162C9.06693 86.3399 8.97829 86.4468 8.86415 86.5242C8.75001 86.6017 8.61504 86.6466 8.47513 86.6537C8.33522 86.6606 8.19622 86.6296 8.07414 86.5639L4.60744 84.6649C3.0032 83.7506 1.52794 86.1771 3.16915 87.0386L6.7833 89.0431C6.91671 89.1103 7.02473 89.2157 7.09176 89.3445C7.15892 89.4733 7.18195 89.619 7.15748 89.7608C7.13302 89.9028 7.06234 90.0339 6.95549 90.1354C6.84864 90.2369 6.71094 90.3038 6.56205 90.3267L2.59752 91.0475C1.362 91.241 0.993153 92.9115 2.06273 93.5444C2.70815 94.1071 4.40453 93.4565 5.12375 93.4038C5.27134 93.3767 5.42414 93.3932 5.56158 93.4513C5.69902 93.5093 5.81459 93.6061 5.89281 93.7284C5.97103 93.8508 6.00825 93.9931 5.99927 94.1362C5.99042 94.2793 5.93576 94.4163 5.84283 94.529L4.86553 95.6895C3.68545 97.061 5.97194 98.8193 7.11519 97.4127C7.50252 97.1313 9.64154 93.9663 10.2132 94.1422Z" fill="#D13535"/>
</svg>
