<svg width="10" height="19" viewBox="0 0 10 19" fill="none" xmlns="http://www.w3.org/2000/svg">
<path d="M9.65669 1.10752C9.54859 0.999143 9.42017 0.913159 9.27878 0.854491C9.1374 0.795824 8.98583 0.765625 8.83276 0.765625C8.67968 0.765625 8.52812 0.795824 8.38673 0.854491C8.24535 0.913159 8.11693 0.999143 8.00883 1.10752L0.272264 8.84408C0.185957 8.93021 0.117485 9.03252 0.0707664 9.14514C0.0240478 9.25777 0 9.3785 0 9.50043C0 9.62236 0.0240478 9.74309 0.0707664 9.85572C0.117485 9.96835 0.185957 10.0707 0.272264 10.1568L8.00883 17.8933C8.46501 18.3495 9.2005 18.3495 9.65669 17.8933C10.1129 17.4372 10.1129 16.7017 9.65669 16.2455L2.91629 9.49578L9.666 2.74607C10.1129 2.29919 10.1129 1.5544 9.65669 1.10752Z" fill="black"/>
</svg>
