<svg width="32" height="42" viewBox="0 0 32 42" fill="none" xmlns="http://www.w3.org/2000/svg">
<path d="M16 41.1504C24.8366 41.1504 32 33.9869 32 25.1504C32 16.3138 24.8366 9.15039 16 9.15039C7.16344 9.15039 0 16.3138 0 25.1504C0 33.9869 7.16344 41.1504 16 41.1504Z" fill="#75543B"/>
<path d="M5.62277 13.0595C5.62277 13.0595 1.24182 26.7205 6.11039 31.6043C6.11039 31.6043 13.8971 39.9014 19.2532 40.389C19.2532 40.389 28.5028 39.4138 31.4209 29.1662C31.4209 29.1662 33.8513 18.431 25.0971 12.0843C25.0971 12.0843 15.8399 5.25 5.62277 13.0595Z" fill="#8E6546"/>
<path d="M28.2476 27.3793C30.4705 26.0959 30.4083 21.8266 28.1087 17.8436C25.8091 13.8606 22.1429 11.6721 19.92 12.9555C17.6971 14.2389 17.7592 18.5082 20.0588 22.4912C22.3584 26.4743 26.0247 28.6628 28.2476 27.3793Z" fill="#BA9983"/>
<path d="M28.3124 23.4735C28.7921 23.4735 29.181 23.0846 29.181 22.6049C29.181 22.1252 28.7921 21.7363 28.3124 21.7363C27.8327 21.7363 27.4438 22.1252 27.4438 22.6049C27.4438 23.0846 27.8327 23.4735 28.3124 23.4735Z" fill="white"/>
<path d="M27.2855 21.256C27.8447 20.9043 27.2483 18.9502 25.9533 16.8914C24.6584 14.8327 23.1553 13.4489 22.596 13.8006C22.0368 14.1524 22.6333 16.1064 23.9282 18.1652C25.2232 20.224 26.7263 21.6078 27.2855 21.256Z" fill="white"/>
<path d="M14.1942 5.05078C14.1942 5.05078 12.5332 5.05078 11.4742 5.46983C11.4742 5.46983 11.2532 8.41078 9.15039 11.3517C9.15039 11.3517 9.98849 11.7708 11.2532 10.5136C11.2532 10.5136 11.2532 11.7784 12.518 11.7784C12.518 11.7784 13.3561 11.7784 13.7828 10.9403C13.7828 10.9403 13.7828 12.2051 15.0475 12.2051C15.0475 12.2051 15.8856 12.2051 15.8856 10.9403C15.8856 10.9403 15.8856 12.2051 17.1504 12.2051C17.1504 12.2051 17.9885 12.2051 17.9885 10.9403C17.9885 10.9403 17.9885 11.7784 19.2532 11.7784C19.2532 11.7784 20.0913 11.7784 20.0913 10.5136C20.0913 10.5136 21.7752 11.7784 22.6132 11.3517C22.6132 11.3517 20.0913 8.82983 20.0913 5.88888C20.0913 5.88888 18.7885 5.05078 17.3409 5.05078H14.1942Z" fill="#013459"/>
<path d="M15.6647 5.47048C17.1753 5.47048 18.3999 4.24587 18.3999 2.73524C18.3999 1.22461 17.1753 0 15.6647 0C14.1541 0 12.9294 1.22461 12.9294 2.73524C12.9294 4.24587 14.1541 5.47048 15.6647 5.47048Z" fill="#013459"/>
<path d="M15.6647 4.62475C16.7082 4.62475 17.5542 3.77878 17.5542 2.73523C17.5542 1.69167 16.7082 0.845703 15.6647 0.845703C14.6211 0.845703 13.7751 1.69167 13.7751 2.73523C13.7751 3.77878 14.6211 4.62475 15.6647 4.62475Z" fill="#FFFAEF"/>
</svg>
