<svg width="32" height="41" viewBox="0 0 32 41" fill="none" xmlns="http://www.w3.org/2000/svg">
<path d="M15.8267 40.7354C24.5675 40.7354 31.6533 33.6495 31.6533 24.9087C31.6533 16.1679 24.5675 9.08203 15.8267 9.08203C7.08584 9.08203 0 16.1679 0 24.9087C0 33.6495 7.08584 40.7354 15.8267 40.7354Z" fill="#193670"/>
<path d="M6.17249 12.6381C6.17249 12.6381 1.839 26.1511 6.65483 30.982C6.65483 30.982 14.3571 39.1892 19.6553 39.6716C19.6553 39.6716 28.8046 38.7069 31.6911 28.5703C31.6911 28.5703 34.0952 17.9514 25.4358 11.6734C25.4283 11.6734 16.2789 4.9132 6.17249 12.6381Z" fill="#294D87"/>
<path d="M28.5496 26.8069C30.7484 25.5374 30.6869 21.3143 28.4122 17.3744C26.1375 13.4345 22.511 11.2698 20.3122 12.5393C18.1133 13.8088 18.1748 18.0318 20.4495 21.9717C22.7242 25.9116 26.3507 28.0764 28.5496 26.8069Z" fill="#3561A0"/>
<path d="M28.616 22.9488C29.0905 22.9488 29.4752 22.5641 29.4752 22.0896C29.4752 21.6151 29.0905 21.2305 28.616 21.2305C28.1415 21.2305 27.7568 21.6151 27.7568 22.0896C27.7568 22.5641 28.1415 22.9488 28.616 22.9488Z" fill="white"/>
<path d="M27.6073 20.7642C28.1604 20.4162 27.5704 18.4833 26.2895 16.4469C25.0086 14.4104 23.5218 13.0416 22.9686 13.3895C22.4155 13.7375 23.0054 15.6704 24.2864 17.7068C25.5673 19.7433 27.0541 21.1121 27.6073 20.7642Z" fill="white"/>
<path d="M14.3419 4.98828C14.3419 4.98828 12.699 4.98828 11.6514 5.40279C11.6514 5.40279 11.4329 8.31188 9.35278 11.221C9.35278 11.221 10.1818 11.6355 11.4329 10.392C11.4329 10.392 11.4329 11.643 12.6839 11.643C12.6839 11.643 13.5129 11.643 13.935 10.814C13.935 10.814 13.935 12.0651 15.186 12.0651C15.186 12.0651 16.0151 12.0651 16.0151 10.814C16.0151 10.814 16.0151 12.0651 17.2661 12.0651C17.2661 12.0651 18.0951 12.0651 18.0951 10.814C18.0951 10.814 18.0951 11.643 19.3462 11.643C19.3462 11.643 20.1752 11.643 20.1752 10.392C20.1752 10.392 21.8408 11.643 22.6698 11.221C22.6698 11.221 20.1752 8.72639 20.1752 5.8173C20.1752 5.8173 18.8865 4.98828 17.4545 4.98828H14.3419Z" fill="#013459"/>
<path d="M15.7964 5.41121C17.2907 5.41121 18.502 4.19987 18.502 2.70561C18.502 1.21134 17.2907 0 15.7964 0C14.3022 0 13.0908 1.21134 13.0908 2.70561C13.0908 4.19987 14.3022 5.41121 15.7964 5.41121Z" fill="#013459"/>
<path d="M15.7965 4.57404C16.8288 4.57404 17.6656 3.73724 17.6656 2.70499C17.6656 1.67274 16.8288 0.835938 15.7965 0.835938C14.7643 0.835938 13.9275 1.67274 13.9275 2.70499C13.9275 3.73724 14.7643 4.57404 15.7965 4.57404Z" fill="#FFFAEF"/>
</svg>
