<svg width="33" height="41" viewBox="0 0 33 41" fill="none" xmlns="http://www.w3.org/2000/svg">
<path d="M16.1599 40.7354C24.9007 40.7354 31.9866 33.6495 31.9866 24.9087C31.9866 16.1679 24.9007 9.08203 16.1599 9.08203C7.41909 9.08203 0.333252 16.1679 0.333252 24.9087C0.333252 33.6495 7.41909 40.7354 16.1599 40.7354Z" fill="#B27283"/>
<path d="M6.50575 12.6381C6.50575 12.6381 2.17226 26.1511 6.98808 30.982C6.98808 30.982 14.6904 39.1892 19.9886 39.6716C19.9886 39.6716 29.1379 38.7069 32.0244 28.5703C32.0244 28.5703 34.4285 17.9514 25.7691 11.6734C25.7691 11.6734 16.6122 4.9132 6.50575 12.6381Z" fill="#CC7F90"/>
<path d="M28.8762 26.8029C31.0751 25.5334 31.0136 21.3104 28.7389 17.3705C26.4642 13.4306 22.8377 11.2658 20.6388 12.5354C18.44 13.8049 18.5015 18.0279 20.7762 21.9678C23.0509 25.9077 26.6774 28.0724 28.8762 26.8029Z" fill="#D8A7B4"/>
<path d="M28.9492 22.9488C29.4238 22.9488 29.8084 22.5641 29.8084 22.0896C29.8084 21.6151 29.4238 21.2305 28.9492 21.2305C28.4747 21.2305 28.0901 21.6151 28.0901 22.0896C28.0901 22.5641 28.4747 22.9488 28.9492 22.9488Z" fill="white"/>
<path d="M27.9366 20.7564C28.4898 20.4084 27.8998 18.4755 26.6189 16.4391C25.3379 14.4026 23.8511 13.0338 23.298 13.3817C22.7448 13.7297 23.3348 15.6626 24.6157 17.699C25.8966 19.7355 27.3835 21.1043 27.9366 20.7564Z" fill="white"/>
<path d="M14.6752 4.98828C14.6752 4.98828 13.0322 4.98828 11.9847 5.40279C11.9847 5.40279 11.7661 8.31188 9.68604 11.221C9.68604 11.221 10.5151 11.6355 11.7661 10.392C11.7661 10.392 11.7661 11.643 13.0172 11.643C13.0172 11.643 13.8462 11.643 14.2682 10.814C14.2682 10.814 14.2682 12.0651 15.5193 12.0651C15.5193 12.0651 16.3483 12.0651 16.3483 10.814C16.3483 10.814 16.3483 12.0651 17.5994 12.0651C17.5994 12.0651 18.4284 12.0651 18.4284 10.814C18.4284 10.814 18.4284 11.643 19.6794 11.643C19.6794 11.643 20.5085 11.643 20.5085 10.392C20.5085 10.392 22.174 11.643 23.003 11.221C23.003 11.221 20.5085 8.72639 20.5085 5.8173C20.5085 5.8173 19.2197 4.98828 17.7878 4.98828H14.6752Z" fill="#013459"/>
<path d="M16.1297 5.41121C17.6239 5.41121 18.8353 4.19987 18.8353 2.70561C18.8353 1.21134 17.6239 0 16.1297 0C14.6354 0 13.4241 1.21134 13.4241 2.70561C13.4241 4.19987 14.6354 5.41121 16.1297 5.41121Z" fill="#013459"/>
<path d="M16.1298 4.57404C17.162 4.57404 17.9988 3.73724 17.9988 2.70499C17.9988 1.67274 17.162 0.835938 16.1298 0.835938C15.0975 0.835938 14.2607 1.67274 14.2607 2.70499C14.2607 3.73724 15.0975 4.57404 16.1298 4.57404Z" fill="#FFFAEF"/>
</svg>
