<svg width="32" height="42" viewBox="0 0 33 41" fill="none" xmlns="http://www.w3.org/2000/svg">
<path d="M16.4934 40.7354C25.2342 40.7354 32.3201 33.6495 32.3201 24.9087C32.3201 16.1679 25.2342 9.08203 16.4934 9.08203C7.75259 9.08203 0.666748 16.1679 0.666748 24.9087C0.666748 33.6495 7.75259 40.7354 16.4934 40.7354Z" fill="#CCAE58"/>
<path d="M6.83924 12.6381C6.83924 12.6381 2.50575 26.1511 7.32158 30.982C7.32158 30.982 15.0239 39.1892 20.322 39.6716C20.322 39.6716 29.4714 38.7069 32.3578 28.5703C32.3578 28.5703 34.762 17.9514 26.1025 11.6734C26.095 11.6734 16.9532 4.9132 6.83924 12.6381Z" fill="#E9C861"/>
<path d="M29.2097 26.8029C31.4086 25.5334 31.3471 21.3104 29.0724 17.3705C26.7977 13.4306 23.1712 11.2658 20.9723 12.5354C18.7735 13.8049 18.835 18.0279 21.1097 21.9678C23.3844 25.9077 27.0109 28.0724 29.2097 26.8029Z" fill="#EAD394"/>
<path d="M29.2827 22.9488C29.7572 22.9488 30.1419 22.5641 30.1419 22.0896C30.1419 21.6151 29.7572 21.2305 29.2827 21.2305C28.8082 21.2305 28.4236 21.6151 28.4236 22.0896C28.4236 22.5641 28.8082 22.9488 29.2827 22.9488Z" fill="white"/>
<path d="M28.2596 20.7466C28.8128 20.3987 28.2228 18.4657 26.9419 16.4293C25.6609 14.3928 24.1741 13.024 23.621 13.372C23.0678 13.7199 23.6578 15.6528 24.9387 17.6893C26.2196 19.7257 27.7065 21.0945 28.2596 20.7466Z" fill="white"/>
<path d="M15.0087 4.98828C15.0087 4.98828 13.3657 4.98828 12.3182 5.40279C12.3182 5.40279 12.0996 8.31188 10.0195 11.221C10.0195 11.221 10.8485 11.6355 12.0996 10.392C12.0996 10.392 12.0996 11.643 13.3507 11.643C13.3507 11.643 14.1797 11.643 14.6017 10.814C14.6017 10.814 14.6017 12.0651 15.8528 12.0651C15.8528 12.0651 16.6818 12.0651 16.6818 10.814C16.6818 10.814 16.6818 12.0651 17.9329 12.0651C17.9329 12.0651 18.7619 12.0651 18.7619 10.814C18.7619 10.814 18.7619 11.643 20.0129 11.643C20.0129 11.643 20.842 11.643 20.842 10.392C20.842 10.392 22.5075 11.643 23.3365 11.221C23.3365 11.221 20.842 8.72639 20.842 5.8173C20.842 5.8173 19.5532 4.98828 18.1213 4.98828H15.0087Z" fill="#013459"/>
<path d="M16.4632 5.41121C17.9574 5.41121 19.1688 4.19987 19.1688 2.70561C19.1688 1.21134 17.9574 0 16.4632 0C14.9689 0 13.7576 1.21134 13.7576 2.70561C13.7576 4.19987 14.9689 5.41121 16.4632 5.41121Z" fill="#013459"/>
<path d="M16.4633 4.57404C17.4955 4.57404 18.3323 3.73724 18.3323 2.70499C18.3323 1.67274 17.4955 0.835938 16.4633 0.835938C15.431 0.835938 14.5942 1.67274 14.5942 2.70499C14.5942 3.73724 15.431 4.57404 16.4633 4.57404Z" fill="#FFFAEF"/>
</svg>
