<svg width="32" height="42" viewBox="0 0 33 41" fill="none" xmlns="http://www.w3.org/2000/svg">
<path d="M16.4934 40.7354C25.2342 40.7354 32.3201 33.6495 32.3201 24.9087C32.3201 16.1679 25.2342 9.08203 16.4934 9.08203C7.75259 9.08203 0.666748 16.1679 0.666748 24.9087C0.666748 33.6495 7.75259 40.7354 16.4934 40.7354Z" fill="#2F773C"/>
<path d="M6.83924 12.6459C6.83924 12.6459 2.50575 26.1589 7.32158 30.9898C7.32158 30.9898 15.0239 39.197 20.322 39.6794C20.322 39.6794 29.4714 38.7147 32.3578 28.5781C32.3578 28.5781 34.762 17.9592 26.1025 11.6813C26.1025 11.6813 16.9532 4.92101 6.83924 12.6459Z" fill="#398F4D"/>
<path d="M29.22 26.8127C31.4188 25.5432 31.3573 21.3202 29.0826 17.3803C26.8079 13.4404 23.1814 11.2756 20.9826 12.5451C18.7837 13.8146 18.8452 18.0377 21.1199 21.9775C23.3946 25.9174 27.0211 28.0822 29.22 26.8127Z" fill="#5DA86B"/>
<path d="M29.2827 22.9488C29.7572 22.9488 30.1419 22.5641 30.1419 22.0896C30.1419 21.6151 29.7572 21.2305 29.2827 21.2305C28.8082 21.2305 28.4236 21.6151 28.4236 22.0896C28.4236 22.5641 28.8082 22.9488 29.2827 22.9488Z" fill="white"/>
<path d="M28.274 20.7642C28.8272 20.4162 28.2372 18.4833 26.9563 16.4469C25.6753 14.4104 24.1885 13.0416 23.6354 13.3895C23.0822 13.7375 23.6722 15.6704 24.9531 17.7068C26.2341 19.7433 27.7209 21.1121 28.274 20.7642Z" fill="white"/>
<path d="M15.0087 4.99609C15.0087 4.99609 13.3657 4.99609 12.3182 5.4106C12.3182 5.4106 12.0996 8.31969 10.0195 11.2288C10.0195 11.2288 10.8485 11.6433 12.0996 10.3998C12.0996 10.3998 12.0996 11.6508 13.3507 11.6508C13.3507 11.6508 14.1797 11.6508 14.6017 10.8218C14.6017 10.8218 14.6017 12.0729 15.8528 12.0729C15.8528 12.0729 16.6818 12.0729 16.6818 10.8218C16.6818 10.8218 16.6818 12.0729 17.9329 12.0729C17.9329 12.0729 18.7619 12.0729 18.7619 10.8218C18.7619 10.8218 18.7619 11.6508 20.0129 11.6508C20.0129 11.6508 20.842 11.6508 20.842 10.3998C20.842 10.3998 22.5075 11.6508 23.3365 11.2288C23.3365 11.2288 20.842 8.7342 20.842 5.82511C20.842 5.82511 19.5532 4.99609 18.1213 4.99609H15.0087Z" fill="#013459"/>
<path d="M16.4632 5.41121C17.9574 5.41121 19.1688 4.19987 19.1688 2.70561C19.1688 1.21134 17.9574 0 16.4632 0C14.9689 0 13.7576 1.21134 13.7576 2.70561C13.7576 4.19987 14.9689 5.41121 16.4632 5.41121Z" fill="#013459"/>
<path d="M16.4633 4.57404C17.4955 4.57404 18.3323 3.73724 18.3323 2.70499C18.3323 1.67274 17.4955 0.835938 16.4633 0.835938C15.431 0.835938 14.5942 1.67274 14.5942 2.70499C14.5942 3.73724 15.431 4.57404 16.4633 4.57404Z" fill="#FFFAEF"/>
</svg>
