<svg width="32" height="42" viewBox="0 0 32 42" fill="none" xmlns="http://www.w3.org/2000/svg">
<path d="M16 41.1504C24.8366 41.1504 32 33.9869 32 25.1504C32 16.3138 24.8366 9.15039 16 9.15039C7.16344 9.15039 0 16.3138 0 25.1504C0 33.9869 7.16344 41.1504 16 41.1504Z" fill="#BE2D23"/>
<path d="M5.62277 13.0595C5.62277 13.0595 1.24182 26.7205 6.11039 31.6043C6.11039 31.6043 13.8971 39.9014 19.2532 40.389C19.2532 40.389 28.5028 39.4138 31.4209 29.1662C31.4209 29.1662 33.8513 18.431 25.0971 12.0843C25.0894 12.0843 15.8399 5.25 5.62277 13.0595Z" fill="#D74645"/>
<path d="M28.2307 27.3852C30.4537 26.1018 30.3915 21.8325 28.0919 17.8495C25.7923 13.8664 22.1261 11.6779 19.9031 12.9613C17.6802 14.2448 17.7424 18.514 20.042 22.4971C22.3416 26.4801 26.0078 28.6686 28.2307 27.3852Z" fill="#E56A6B"/>
<path d="M28.3124 23.4735C28.7921 23.4735 29.181 23.0846 29.181 22.6049C29.181 22.1252 28.7921 21.7363 28.3124 21.7363C27.8327 21.7363 27.4438 22.1252 27.4438 22.6049C27.4438 23.0846 27.8327 23.4735 28.3124 23.4735Z" fill="white"/>
<path d="M27.2867 21.2599C27.8459 20.9082 27.2495 18.9541 25.9545 16.8953C24.6596 14.8366 23.1565 13.4528 22.5973 13.8045C22.038 14.1563 22.6345 16.1104 23.9295 18.1691C25.2244 20.2279 26.7275 21.6117 27.2867 21.2599Z" fill="white"/>
<path d="M14.1866 5.05078C14.1866 5.05078 12.5257 5.05078 11.4666 5.46983C11.4666 5.46983 11.2457 8.41078 9.14282 11.3517C9.14282 11.3517 9.98092 11.7708 11.2457 10.5136C11.2457 10.5136 11.2457 11.7784 12.5104 11.7784C12.5104 11.7784 13.3485 11.7784 13.7752 10.9403C13.7752 10.9403 13.7752 12.2051 15.04 12.2051C15.04 12.2051 15.8781 12.2051 15.8781 10.9403C15.8781 10.9403 15.8781 12.2051 17.1428 12.2051C17.1428 12.2051 17.9809 12.2051 17.9809 10.9403C17.9809 10.9403 17.9809 11.7784 19.2457 11.7784C19.2457 11.7784 20.0838 11.7784 20.0838 10.5136C20.0838 10.5136 21.7676 11.7784 22.6057 11.3517C22.6057 11.3517 20.0838 8.82983 20.0838 5.88888C20.0838 5.88888 18.7809 5.05078 17.3333 5.05078H14.1866Z" fill="#013459"/>
<path d="M15.6571 5.47048C17.1677 5.47048 18.3924 4.24587 18.3924 2.73524C18.3924 1.22461 17.1677 0 15.6571 0C14.1465 0 12.9219 1.22461 12.9219 2.73524C12.9219 4.24587 14.1465 5.47048 15.6571 5.47048Z" fill="#013459"/>
<path d="M15.6571 4.62475C16.7007 4.62475 17.5466 3.77878 17.5466 2.73523C17.5466 1.69167 16.7007 0.845703 15.6571 0.845703C14.6135 0.845703 13.7676 1.69167 13.7676 2.73523C13.7676 3.77878 14.6135 4.62475 15.6571 4.62475Z" fill="#FFFAEF"/>
</svg>
