<svg width="32" height="42" viewBox="0 0 33 41" fill="none" xmlns="http://www.w3.org/2000/svg">
<path d="M16.1562 40.7259C24.8949 40.7259 31.9791 33.6418 31.9791 24.903C31.9791 16.1642 24.8949 9.08008 16.1562 9.08008C7.41742 9.08008 0.333252 16.1642 0.333252 24.903C0.333252 33.6418 7.41742 40.7259 16.1562 40.7259Z" fill="#C0C0CE"/>
<path d="M6.51167 12.6359C6.51167 12.6359 2.1792 26.1456 6.9939 30.9754C6.9939 30.9754 14.6944 39.1807 19.9913 39.6629C19.9913 39.6629 29.1385 38.6985 32.0243 28.5643C32.0243 28.5643 34.4278 17.9479 25.7704 11.6714C25.7704 11.6714 16.6157 4.92031 6.51167 12.6359Z" fill="#E0E0EA"/>
<path d="M28.876 26.8001C31.0743 25.5309 31.0129 21.3089 28.7387 17.3699C26.4646 13.431 22.8389 11.2667 20.6406 12.5359C18.4422 13.8051 18.5037 18.0271 20.7779 21.9661C23.052 25.9051 26.6777 28.0693 28.876 26.8001Z" fill="#EFEFF4"/>
<path d="M28.9503 22.9425C29.4247 22.9425 29.8092 22.558 29.8092 22.0836C29.8092 21.6092 29.4247 21.2246 28.9503 21.2246C28.4759 21.2246 28.0913 21.6092 28.0913 22.0836C28.0913 22.558 28.4759 22.9425 28.9503 22.9425Z" fill="white"/>
<path d="M27.9341 20.7587C28.4871 20.4108 27.8973 18.4784 26.6166 16.4424C25.336 14.4064 23.8495 13.0379 23.2965 13.3858C22.7435 13.7336 23.3333 15.6661 24.614 17.7021C25.8946 19.738 27.3811 21.1065 27.9341 20.7587Z" fill="white"/>
<path d="M14.6718 4.98828C14.6718 4.98828 13.0293 4.98828 11.9819 5.40269C11.9819 5.40269 11.7634 8.3111 9.68384 11.2195C9.68384 11.2195 10.5127 11.6339 11.7634 10.3907C11.7634 10.3907 11.7634 11.6414 13.0142 11.6414C13.0142 11.6414 13.843 11.6414 14.265 10.8126C14.265 10.8126 14.265 12.0634 15.5157 12.0634C15.5157 12.0634 16.3445 12.0634 16.3445 10.8126C16.3445 10.8126 16.3445 12.0634 17.5953 12.0634C17.5953 12.0634 18.4241 12.0634 18.4241 10.8126C18.4241 10.8126 18.4241 11.6414 19.6749 11.6414C19.6749 11.6414 20.5037 11.6414 20.5037 10.3907C20.5037 10.3907 22.1689 11.6414 22.9977 11.2195C22.9977 11.2195 20.5037 8.72551 20.5037 5.8171C20.5037 5.8171 19.2153 4.98828 17.7837 4.98828H14.6718Z" fill="#013459"/>
<path d="M16.1261 5.40994C17.62 5.40994 18.8311 4.19888 18.8311 2.70497C18.8311 1.21106 17.62 0 16.1261 0C14.6322 0 13.4211 1.21106 13.4211 2.70497C13.4211 4.19888 14.6322 5.40994 16.1261 5.40994Z" fill="#013459"/>
<path d="M16.1259 4.57316C17.1579 4.57316 17.9946 3.73656 17.9946 2.70455C17.9946 1.67254 17.1579 0.835938 16.1259 0.835938C15.0939 0.835938 14.2573 1.67254 14.2573 2.70455C14.2573 3.73656 15.0939 4.57316 16.1259 4.57316Z" fill="#FFFAEF"/>
</svg>
