<!-- <svg width="32" height="41" viewBox="0 0 32 41" fill="none" xmlns="http://www.w3.org/2000/svg">
<path d="M15.8267 40.7354C24.5675 40.7354 31.6533 33.6495 31.6533 24.9087C31.6533 16.1679 24.5675 9.08203 15.8267 9.08203C7.08584 9.08203 0 16.1679 0 24.9087C0 33.6495 7.08584 40.7354 15.8267 40.7354Z" fill="#193670"/>
<path d="M6.17249 12.6381C6.17249 12.6381 1.839 26.1511 6.65483 30.982C6.65483 30.982 14.3571 39.1892 19.6553 39.6716C19.6553 39.6716 28.8046 38.7069 31.6911 28.5703C31.6911 28.5703 34.0952 17.9514 25.4358 11.6734C25.4283 11.6734 16.2789 4.9132 6.17249 12.6381Z" fill="#294D87"/>
<path d="M28.5496 26.8069C30.7484 25.5374 30.6869 21.3143 28.4122 17.3744C26.1375 13.4345 22.511 11.2698 20.3122 12.5393C18.1133 13.8088 18.1748 18.0318 20.4495 21.9717C22.7242 25.9116 26.3507 28.0764 28.5496 26.8069Z" fill="#3561A0"/>
<path d="M28.616 22.9488C29.0905 22.9488 29.4752 22.5641 29.4752 22.0896C29.4752 21.6151 29.0905 21.2305 28.616 21.2305C28.1415 21.2305 27.7568 21.6151 27.7568 22.0896C27.7568 22.5641 28.1415 22.9488 28.616 22.9488Z" fill="white"/>
<path d="M27.6073 20.7642C28.1604 20.4162 27.5704 18.4833 26.2895 16.4469C25.0086 14.4104 23.5218 13.0416 22.9686 13.3895C22.4155 13.7375 23.0054 15.6704 24.2864 17.7068C25.5673 19.7433 27.0541 21.1121 27.6073 20.7642Z" fill="white"/>
<path d="M14.3419 4.98828C14.3419 4.98828 12.699 4.98828 11.6514 5.40279C11.6514 5.40279 11.4329 8.31188 9.35278 11.221C9.35278 11.221 10.1818 11.6355 11.4329 10.392C11.4329 10.392 11.4329 11.643 12.6839 11.643C12.6839 11.643 13.5129 11.643 13.935 10.814C13.935 10.814 13.935 12.0651 15.186 12.0651C15.186 12.0651 16.0151 12.0651 16.0151 10.814C16.0151 10.814 16.0151 12.0651 17.2661 12.0651C17.2661 12.0651 18.0951 12.0651 18.0951 10.814C18.0951 10.814 18.0951 11.643 19.3462 11.643C19.3462 11.643 20.1752 11.643 20.1752 10.392C20.1752 10.392 21.8408 11.643 22.6698 11.221C22.6698 11.221 20.1752 8.72639 20.1752 5.8173C20.1752 5.8173 18.8865 4.98828 17.4545 4.98828H14.3419Z" fill="#013459"/>
<path d="M15.7964 5.41121C17.2907 5.41121 18.502 4.19987 18.502 2.70561C18.502 1.21134 17.2907 0 15.7964 0C14.3022 0 13.0908 1.21134 13.0908 2.70561C13.0908 4.19987 14.3022 5.41121 15.7964 5.41121Z" fill="#013459"/>
<path d="M15.7965 4.57404C16.8288 4.57404 17.6656 3.73724 17.6656 2.70499C17.6656 1.67274 16.8288 0.835938 15.7965 0.835938C14.7643 0.835938 13.9275 1.67274 13.9275 2.70499C13.9275 3.73724 14.7643 4.57404 15.7965 4.57404Z" fill="#FFFAEF"/>
</svg> -->
<svg
  width="32"
  height="42"
  viewBox="0 0 32 42"
  fill="none"
  xmlns="http://www.w3.org/2000/svg"
  className="flex-grow-0 flex-shrink-0 w-8 h-[40.73px]"
  preserveAspectRatio="none"
>
  <g clip-path="url(#clip0_1765_2699)">
    <path
      d="M15.8267 41.6592C24.5675 41.6592 31.6533 34.5733 31.6533 25.8325C31.6533 17.0917 24.5675 10.0059 15.8267 10.0059C7.08584 10.0059 0 17.0917 0 25.8325C0 34.5733 7.08584 41.6592 15.8267 41.6592Z"
      fill="#193670"
    />
    <path
      d="M6.17237 13.5639C6.17237 13.5639 1.83888 27.0769 6.65471 31.9078C6.65471 31.9078 14.357 40.115 19.6552 40.5973C19.6552 40.5973 28.8045 39.6327 31.691 29.4961C31.691 29.4961 34.0951 18.8771 25.4357 12.5992C25.4281 12.5992 16.2788 5.83898 6.17237 13.5639Z"
      fill="#294D87"
    />
    <path
      d="M28.5494 27.7317C30.7483 26.4622 30.6868 22.2391 28.4121 18.2992C26.1374 14.3593 22.5109 12.1946 20.312 13.4641C18.1132 14.7336 18.1747 18.9566 20.4494 22.8965C22.7241 26.8364 26.3506 29.0012 28.5494 27.7317Z"
      fill="#3561A0"
    />
    <path
      d="M28.6161 23.8736C29.0906 23.8736 29.4753 23.4889 29.4753 23.0144C29.4753 22.5399 29.0906 22.1553 28.6161 22.1553C28.1416 22.1553 27.757 22.5399 27.757 23.0144C27.757 23.4889 28.1416 23.8736 28.6161 23.8736Z"
      fill="white"
    />
    <path
      d="M27.6074 21.688C28.1606 21.3401 27.5706 19.4071 26.2896 17.3707C25.0087 15.3342 23.5219 13.9654 22.9687 14.3134C22.4156 14.6613 23.0056 16.5942 24.2865 18.6307C25.5674 20.6671 27.0542 22.0359 27.6074 21.688Z"
      fill="white"
    />
    <path
      d="M14.3419 5.91406C14.3419 5.91406 12.699 5.91406 11.6514 6.32857C11.6514 6.32857 11.4329 9.23766 9.35278 12.1468C9.35278 12.1468 10.1818 12.5613 11.4329 11.3177C11.4329 11.3177 11.4329 12.5688 12.6839 12.5688C12.6839 12.5688 13.5129 12.5688 13.935 11.7398C13.935 11.7398 13.935 12.9908 15.186 12.9908C15.186 12.9908 16.0151 12.9908 16.0151 11.7398C16.0151 11.7398 16.0151 12.9908 17.2661 12.9908C17.2661 12.9908 18.0951 12.9908 18.0951 11.7398C18.0951 11.7398 18.0951 12.5688 19.3462 12.5688C19.3462 12.5688 20.1752 12.5688 20.1752 11.3177C20.1752 11.3177 21.8408 12.5688 22.6698 12.1468C22.6698 12.1468 20.1752 9.65217 20.1752 6.74308C20.1752 6.74308 18.8865 5.91406 17.4545 5.91406H14.3419Z"
      fill="#013459"
    />
    <path
      d="M15.7965 6.33602C17.2908 6.33602 18.5021 5.12467 18.5021 3.63041C18.5021 2.13615 17.2908 0.924805 15.7965 0.924805C14.3022 0.924805 13.0909 2.13615 13.0909 3.63041C13.0909 5.12467 14.3022 6.33602 15.7965 6.33602Z"
      fill="#013459"
    />
    <path
      d="M15.7965 5.49983C16.8288 5.49983 17.6656 4.66302 17.6656 3.63077C17.6656 2.59852 16.8288 1.76172 15.7965 1.76172C14.7643 1.76172 13.9275 2.59852 13.9275 3.63077C13.9275 4.66302 14.7643 5.49983 15.7965 5.49983Z"
      fill="#FFFAEF"
    />
  </g>
  <defs>
    <clippath id="clip0_1765_2699">
      <rect width="32" height="40.7348" fill="white" transform="translate(0 0.924805)" />
    </clippath>
  </defs>
</svg>