<svg width="180" height="180" viewBox="0 0 180 180" fill="none" xmlns="http://www.w3.org/2000/svg">
<path d="M137.916 120.437C137.027 116.524 134.51 113.234 132.225 109.933C128.912 105.159 125.976 100.134 123.441 94.904C122.263 92.4452 121.109 89.883 119.089 88.0477C113.618 84.0654 106.704 82.4263 100.621 79.506C92.033 75.6276 79.5895 71.6107 72.883 80.5679C68.7392 85.3351 74.9261 90.8639 78.4121 94.2119C79.1278 94.9157 86.065 102.442 86.065 102.442C89.4009 96.3359 95.8994 95.516 100.817 100.306C102.814 102.026 104.602 104.023 106.888 105.339L105.145 106.204C110.513 115.37 119.216 127.34 112.603 137.821C105.85 143.973 97.5734 139.564 92.1023 133.85L92.4479 151.268C94.2029 156.924 105.099 156.89 109.589 156.751C112.948 156.613 116.4 156.832 119.667 155.955C126.107 153.761 134.141 147.759 136.981 141.492C137.477 140.071 137.569 138.548 137.662 137.047C137.777 131.541 138.897 125.897 137.916 120.437Z" fill="#EFDCC4"/>
<path d="M85.8688 94.9735C87.2887 94.5811 89.1009 94.5235 90.4518 94.708C92.8404 95.0428 94.8609 95.9428 96.7653 97.444C98.1855 98.5636 99.9747 100.202 101.856 100.976C104.003 101.922 106.334 102.188 108.181 103.596L108.158 103.573C108.331 103.712 108.493 103.862 108.654 104.011C109.174 104.542 110.005 103.723 109.474 103.204C106.623 100.526 102.422 100.826 99.5931 98.2522C97.4583 96.4396 94.6764 94.2463 91.6173 93.7387C90.6363 93.4732 84.8762 93.0232 85.1648 94.5694C85.2079 94.7143 85.305 94.8376 85.436 94.9123C85.5671 94.9879 85.7221 95.0095 85.8688 94.9735Z" fill="white"/>
<path d="M128.254 128.933C124.999 129.568 121.387 131.391 121.617 135.223C121.605 136.481 121.791 137.74 121.64 138.987C121.64 138.871 121.652 138.918 121.64 138.964C121.605 139.402 121.294 140.36 121.225 140.51C120.969 141.113 120.635 141.68 120.232 142.196C120.059 142.473 118.928 143.592 118.616 143.8C117.813 144.395 116.945 144.898 116.031 145.301C112.96 146.755 107.743 146.259 106.611 150.183C106.288 151.891 108.135 151.938 107.743 150.633C107.719 150.587 107.754 150.161 107.731 150.379C107.812 149.826 108.274 149.341 108.643 149.029C110.732 147.551 113.503 147.506 115.961 146.559C118.939 145.439 121.732 143.188 122.598 140.037C123.118 138.26 122.621 135.95 122.818 134.393C122.872 134.023 122.965 133.659 123.095 133.307C123.22 133.007 123.383 132.724 123.58 132.465C123.868 131.98 125.241 131.08 125.831 130.883C126.721 130.537 127.635 130.255 128.566 130.041C129.281 129.857 128.97 128.737 128.254 128.933Z" fill="white"/>
<path d="M138.631 123.277C136.68 116.155 131.025 110.811 127.666 104.358C127.358 104.608 127.026 104.824 126.673 105.004C127.029 105.421 127.32 105.887 127.539 106.39C135.665 119.457 139.44 120.38 137.397 137.048C137.211 139.287 137.292 141.572 136.727 143.754C134.314 150.149 124.71 157.34 118.085 158.668C110.628 159.094 99.5706 160.687 93.672 155.343C93.0024 154.547 93.1644 153.462 93.141 152.434C93.0258 147.117 92.9142 141.792 92.8062 136.459C106.934 148.267 119.678 138.006 114.23 121.292C111.079 111.388 95.6457 89.9759 86.0996 104.463C84.7492 103.169 83.2716 101.727 81.9558 100.457C81.2632 99.7871 74.7761 92.7347 73.2177 89.5027C71.9712 87.4249 72.2597 85.9475 73.3909 83.9621C81.5171 73.3426 96.0381 81.1687 105.538 85.024C105.621 84.6465 105.799 84.2966 106.058 84.0083C105.93 83.9414 105.794 83.891 105.654 83.8582C96.0264 79.8874 83.3293 73.1118 74.1181 81.365C66.6614 87.8405 77.2462 98.0789 81.8865 101.992C83.0523 102.973 84.0797 104.116 85.1762 105.178C85.5687 105.559 86.2266 106.379 86.6999 105.663C97.0425 88.3138 118.627 122.215 113.71 133.366C111.136 143.062 100.805 141.33 94.5144 136.297C93.7638 135.893 93.2562 135.039 92.3679 134.97C92.0097 134.912 91.629 135.12 91.6406 135.524C92.8988 152.008 86.5614 160.596 108.689 160.272C119.667 160.503 124.272 159.014 132.491 151.488C135.665 148.648 138.447 145.024 138.343 140.569C138.469 134.82 139.636 128.979 138.631 123.277Z" fill="#452D34"/>
<path d="M90.1394 90.3111C88.6737 88.741 72.9638 82.0461 87.5078 83.4082C94.157 84.043 101.267 84.1238 106.334 88.4755C108.181 90.0681 109.705 91.9959 111.46 93.7041C113.572 95.7471 116.019 97.467 117.9 99.7413C119.778 102.036 120.988 104.804 121.398 107.74C121.583 109.045 121.583 110.441 120.971 111.608C119.724 113.939 116.284 114.39 114.01 113.027C111.737 111.665 110.479 109.068 109.901 106.482C109.659 105.444 109.89 104.277 109.058 103.609C109.058 103.609 100.447 101.346 90.1394 90.3111Z" fill="#452D34"/>
<path d="M145.418 53.0391C151.548 60.6112 155.577 65.7131 159.12 70.6305C144.184 84.1241 121.017 107.545 121.017 107.545C118.823 110.407 114.61 110.211 113.133 107.914L111.424 102.304C111.217 101.615 110.853 100.984 110.363 100.458C109.873 99.9315 109.269 99.5247 108.597 99.2682C104.834 97.8255 97.4583 94.5936 97.92 91.6497C97.9893 91.1997 97.4808 90.8649 97.8039 90.5418C108.886 79.2645 118.858 69.5916 130.517 58.8221L145.418 53.0391Z" fill="#D13535"/>
<path d="M158.682 73.9083C155.484 69.4642 152.102 65.1587 148.674 60.8879L144.899 56.2015C144.828 56.1234 144.736 56.0673 144.634 56.0398C144.535 56.0092 144.429 56.0133 144.334 56.0515C139.37 57.9791 134.395 59.8837 129.432 61.8229C127.446 63.4158 125.669 65.3089 123.753 67.0171C114.534 75.6589 105.492 84.497 96.6266 93.5312C96.4097 93.695 96.2621 93.9344 96.2153 94.2026C96.1685 94.4708 96.2243 94.7462 96.3728 94.9739C96.2459 97.3517 98.4968 98.8871 100.32 99.995C101.853 100.914 103.45 101.719 105.099 102.408C106.577 103.112 108.412 103.412 109.381 104.867C110.594 107.037 110.802 109.657 111.794 111.907C113.861 114.735 118.524 114.204 120.486 111.515L120.232 111.665C132.917 99.2561 145.407 86.5246 158.589 74.6008C158.678 74.5114 158.736 74.3953 158.752 74.2702C158.769 74.1451 158.744 74.018 158.682 73.9083ZM97.6769 96.071C97.6238 95.9315 97.5815 95.7884 97.55 95.6435V95.6201C97.5446 95.513 97.5491 95.4041 97.5617 95.297C97.631 95.009 97.4807 94.6508 97.3772 94.4204C107.95 83.639 118.793 73.1234 129.905 62.8733L142.798 57.8752C143.006 57.7367 143.329 57.6444 143.664 57.5404C129.685 70.8033 115.765 84.1353 102.525 98.1365L101.544 99.1868C101.491 99.2363 101.448 99.2948 101.417 99.3605C99.9161 98.5289 98.5427 97.5137 97.6769 96.071ZM119.678 110.707L119.932 110.557C119.055 111.295 118.282 112.242 117.069 112.484C115.534 112.981 113.537 112.369 112.752 111.319C112.106 109.276 111.563 107.175 110.848 105.155C109.901 102.685 107.2 102.085 105.03 101.115C104.199 100.722 103.322 100.33 102.456 99.9032C116.077 85.4281 130.436 71.6805 144.853 58.0022H144.865C149.147 63.3003 153.418 68.6101 157.412 74.1276C144.472 85.936 132.041 98.2985 119.678 110.707Z" fill="#452D34"/>
<path d="M132.929 82.6465C132.907 82.6465 132.883 82.6465 132.883 82.658H132.929V82.6465Z" fill="#CE9C5C"/>
<path d="M137.362 59.9064C138.909 54.7814 120.694 74.7967 119.897 75.7201C121.109 70.5951 123.256 55.4739 116.538 56.2011C113.687 56.7667 112.118 58.8444 111.425 61.4416C103.748 55.0122 91.5714 62.7344 100.032 71.1607C104.453 75.5816 111.171 76.7359 116.654 78.906C115.765 79.3793 94.0293 100.284 99.4896 98.4017C104.999 91.6211 111.074 85.3193 117.646 79.5639L117.704 79.6332C117.751 85.0007 121.664 89.2254 124.918 93.1034C125.988 94.3427 127.096 95.5469 128.243 96.7169C128.354 96.8105 128.497 96.8591 128.642 96.8528C128.786 96.8456 128.924 96.7844 129.026 96.6809C129.128 96.5774 129.188 96.4388 129.192 96.2939C129.197 96.149 129.146 96.0068 129.051 95.897C125.253 91.6382 120.671 87.4478 119.101 81.7917C124.965 86.0856 128.289 93.0692 134.419 97.0517C134.552 97.1273 134.71 97.1489 134.859 97.1102C135.008 97.0715 135.135 96.9752 135.215 96.8438C135.572 95.9546 134.187 95.6774 133.726 95.1473H133.749C128.485 91.0262 125.241 84.8275 119.805 80.8914C119.646 80.5222 119.457 80.167 119.239 79.8295C119.343 79.7695 119.426 79.6808 119.48 79.5741C119.533 79.4675 119.553 79.3476 119.54 79.2291C120.74 78.0634 122.633 78.7098 123.995 79.2291L124.133 79.2869C127.042 80.372 128.877 83.5924 132.121 83.8117C133.426 83.904 134.764 83.4423 135.503 82.3227C135.896 81.3762 134.649 81.2377 134.465 81.8032C134.096 82.2765 133.622 82.5304 132.929 82.6343C132.975 82.6343 132.917 82.6459 132.883 82.6459C132.6 82.6806 132.313 82.6806 132.029 82.6459C131.982 82.6459 131.764 82.6113 131.948 82.6459C131.581 82.5906 131.22 82.4938 130.874 82.3573C130.874 82.3603 130.876 82.3633 130.878 82.3655C130.88 82.3676 130.883 82.3689 130.886 82.3689C129.074 81.5609 127.781 79.968 126.073 78.9868C124.179 77.9249 121.791 76.909 119.632 77.7632C125.13 71.4155 131.054 65.4495 137.362 59.9064ZM129.063 81.2492C129.085 81.2607 129.132 81.3069 129.063 81.2492V81.2492ZM120.832 78.6289H120.775C120.798 78.6289 120.821 78.6174 120.832 78.6289ZM112.256 63.5193C116.134 66.8552 116.885 72.5574 118.039 77.7055L118.016 77.7286C113.768 73.3077 111.725 69.7987 112.256 63.5193ZM114.703 58.198C115.257 57.7363 116.158 57.39 116.562 57.3554H116.642C122.136 57.0668 119.586 72.061 118.766 75.5008C117.646 70.2026 116.457 65.4354 112.441 62.2034C112.81 60.5528 113.595 59.0176 114.703 58.198ZM102.225 71.5531C97.9083 68.2865 96.2802 63.4154 102.018 60.6451C105.319 59.2138 108.493 60.876 111.159 62.7459C110.617 67.5708 111.61 72.315 114.634 75.547C114.034 75.4316 113.722 76.3204 114.264 76.609C114.541 76.759 114.807 76.9206 115.072 77.0937C110.455 75.4778 106.046 74.4504 102.225 71.5531Z" fill="#CE9C5C"/>
<path d="M47.3157 87.9109C48.6651 88.284 50.0436 88.5426 51.4365 88.6843C51.7712 88.7188 52.2214 88.4996 52.4522 88.2571C52.7223 87.9877 52.8757 87.6229 52.8793 87.2414C52.8562 86.872 52.7408 86.4796 52.4522 86.2257L52.1637 85.9948C51.9421 85.8681 51.6916 85.8005 51.4365 85.7985L51.067 85.7524L51.4595 85.81C50.3218 85.6599 49.1958 85.4324 48.089 85.129C47.7101 85.0384 47.311 85.0918 46.9693 85.2791C46.6471 85.4726 46.4116 85.7826 46.3114 86.1448C46.2306 86.5142 46.2421 86.9297 46.4499 87.2529C46.6461 87.5728 46.9549 87.8075 47.3157 87.9109Z" fill="#D13535"/>
<path d="M62.0327 89.0075C62.425 89.1139 62.8273 89.1796 63.2331 89.2037C63.6123 89.2078 63.9909 89.1769 64.3643 89.1113C64.9456 89.0023 65.5063 88.8037 66.0266 88.5226C66.3382 88.3611 66.6383 88.1648 66.9384 87.9686C67.2386 87.7724 67.8618 87.4145 68.3005 87.1144C68.7391 86.8142 69.4547 86.2833 69.8704 85.6946C70.0666 85.3945 70.1012 84.9213 70.0089 84.5865C69.9086 84.2242 69.6731 83.9144 69.3509 83.7208C69.0162 83.5477 68.6122 83.4554 68.2428 83.5707C67.8851 83.6864 67.579 83.9232 67.3771 84.2402L67.3309 84.2979L67.5618 83.9978C67.4004 84.1943 67.2141 84.3689 67.0076 84.5173L67.2963 84.2979C66.7306 84.7366 66.1189 85.0828 65.5187 85.4638C65.1138 85.74 64.6849 85.9795 64.2374 86.1795L64.5837 86.0409C64.2423 86.181 63.886 86.2817 63.5218 86.341L63.9026 86.2833C63.5966 86.3275 63.2862 86.3315 62.9792 86.2949L63.3601 86.341C63.1695 86.3137 62.9807 86.2751 62.7946 86.2256C62.6119 86.1747 62.421 86.1603 62.2328 86.1833C62.0445 86.2062 61.8627 86.266 61.6975 86.3593C61.5325 86.4525 61.3874 86.5775 61.2706 86.7268C61.1538 86.8762 61.0676 87.0471 61.0169 87.2299C60.9362 87.5992 60.9477 88.0148 61.167 88.3379C61.3627 88.6606 61.6712 88.8992 62.0327 89.0075Z" fill="#D13535"/>
<path d="M52.3483 95.6445C52.7227 96.4023 53.2499 97.0755 53.8969 97.62C54.5438 98.1645 55.2964 98.5695 56.1073 98.8089C56.9183 99.0483 57.77 99.1176 58.609 99.0123C59.448 98.9061 60.256 98.6289 60.9824 98.1951C61.2247 98.0457 61.4787 97.8837 61.7557 97.872C62.0328 97.8612 62.3791 98.1033 62.6099 98.3454C64.2721 100.008 66.523 107.995 60.486 108.561C56.8154 108.907 53.214 107.753 49.7627 106.472C48.9085 106.148 48.0428 105.756 47.4772 105.052C46.3576 103.679 46.7038 101.624 47.5233 100.065C48.3152 98.5659 49.465 97.2852 50.8708 96.3375C51.3267 96.0351 51.8245 95.802 52.3483 95.6445Z" fill="#D13535"/>
<path d="M53.0062 83.4668C52.9947 83.4898 53.0062 83.4783 53.0062 83.4668V83.4668Z" fill="#452D34"/>
<path d="M75.9535 54.563C75.9535 54.5514 75.942 54.5399 75.942 54.5283C75.942 54.5168 75.9651 54.6092 75.9535 54.563Z" fill="#452D34"/>
<path d="M56.2844 69.9036C56.2613 69.9036 56.2497 69.892 56.2267 69.9036H56.2844Z" fill="#452D34"/>
<path d="M53.6411 80.4414L53.595 80.4991C53.6065 80.4991 53.6181 80.4876 53.6411 80.4414Z" fill="#452D34"/>
<path d="M55.3379 79.8418H55.2572C55.338 79.8533 55.3495 79.8418 55.3379 79.8418Z" fill="#452D34"/>
<path d="M59.2393 86.6174C59.2163 86.5944 59.1932 86.5828 59.1816 86.5944L59.2393 86.6174Z" fill="#452D34"/>
<path d="M52.4407 56.9866C51.6442 56.5249 50.513 57.2521 50.5938 58.1755C50.6746 59.0989 51.9444 59.8608 52.7292 59.1451C53.5141 58.4294 53.2718 57.2405 52.4407 56.9866Z" fill="#452D34"/>
<path d="M64.0296 56.9514C63.2448 56.4897 62.1135 57.2169 62.1943 58.1404C62.2751 59.0638 63.5333 59.8256 64.3182 59.0984C65.1032 58.5444 64.8607 57.2054 64.0296 56.9514Z" fill="#452D34"/>
<path d="M54.1375 54.9902V54.9671C52.66 54.54 49.0816 54.9325 48.3199 55.071C47.8351 55.1518 47.7427 55.9597 48.2044 56.1214C48.2546 56.1968 48.3236 56.2577 48.4046 56.2982C48.4856 56.3387 48.5758 56.3574 48.6661 56.3522C49.5318 56.2484 56.7231 56.7101 54.1375 54.9902Z" fill="#452D34"/>
<path d="M62.1367 54.7484H62.1136C61.3633 54.7252 61.3748 55.8911 62.1136 55.8911C63.9359 56.0643 65.7659 56.1452 67.5965 56.1335C67.6837 56.1368 67.7705 56.1185 67.849 56.0803C67.9275 56.042 67.9954 55.985 68.0466 55.9141C69.7088 54.1135 63.4064 54.5867 62.1367 54.7484Z" fill="#452D34"/>
<path d="M59.8858 61.1891C59.3317 60.3349 59.8742 59.2614 59.551 58.3265C59.2279 57.3914 58.0851 58.0956 58.5007 58.9035C58.466 61.2583 58.3621 61.1891 59.7935 62.8743C59.805 62.9435 59.8397 63.0128 59.8512 63.0821C59.8627 63.1514 59.8397 63.3476 59.8512 63.1745C59.8627 63.313 59.7242 63.5322 59.6665 63.6131L59.6896 63.59C59.5707 63.7199 59.425 63.8223 59.2625 63.8901C58.8931 64.0171 58.72 64.0171 58.2929 63.9824C57.5541 63.9709 57.5426 65.1368 58.2929 65.1368C60.9016 65.3791 61.9173 62.8628 59.8858 61.1891Z" fill="#452D34"/>
<path d="M42.3406 56.2588C42.4444 54.9544 41.3132 54.7697 41.1401 55.7047C41.2555 56.4088 41.1978 58.1287 42.2251 58.0018C43.0909 57.6901 42.3059 56.7321 42.3175 56.1087C42.3307 56.1577 42.3385 56.2081 42.3406 56.2588Z" fill="#452D34"/>
<path d="M74.4414 55.1177C73.9796 54.9676 73.5064 55.5563 73.7834 55.9719C73.8963 56.126 73.9701 56.3053 73.9983 56.4944C74.0265 56.6834 74.0081 56.8764 73.945 57.0569C73.4717 57.7033 74.4529 58.442 74.8915 57.7379C75.3301 57.0338 75.3071 55.5909 74.4414 55.1177Z" fill="#452D34"/>
<path d="M49.0585 100.147C50.4626 101.171 52.0612 101.898 53.7562 102.283C55.4513 102.668 57.2071 102.703 58.9161 102.386C59.7933 101.982 59.2508 100.955 58.1543 101.347C57.1352 101.478 56.1039 101.481 55.0839 101.359C53.8289 101.187 52.6094 100.817 51.4709 100.262C50.828 99.9539 50.2171 99.5822 49.6472 99.1538C49.0123 98.7614 48.4236 99.7658 49.0585 100.147Z" fill="white"/>
<path d="M84.98 41.5085C84.1027 38.4496 82.4059 35.7024 80.6975 33.0244C78.4236 29.4923 75.8611 25.8101 71.9827 24.1941C69.9511 23.34 67.7003 23.1322 65.4956 22.936C60.1166 22.4627 54.0219 22.1972 50.0281 25.8448C48.9892 26.8028 48.1696 27.9687 47.3848 29.1345C46.3921 30.612 45.03 32.7012 44.1296 34.2365L44.4644 34.2595C45.7803 33.44 47.4771 33.3246 49.0354 33.5323C50.5937 33.7401 52.3943 34.3288 54.1142 34.5481C55.8341 34.7675 57.2424 34.652 58.8007 34.5481L72.883 33.6824C73.9219 33.6131 75.0646 33.5785 75.8842 34.2249C76.7037 34.8713 76.7614 36.4527 75.7688 36.7644L75.9073 36.8567C76.1858 36.8801 76.445 37.0091 76.6316 37.2172C76.8183 37.4253 76.9184 37.6969 76.9115 37.9763V38.138C77.1725 38.7205 77.249 39.369 77.1308 39.9964C77.1137 40.0551 77.0828 40.1087 77.0406 40.1529C76.9985 40.1971 76.9463 40.2305 76.8884 40.2503C76.8884 40.2533 76.8872 40.2563 76.8851 40.2585C76.8829 40.2606 76.8799 40.2619 76.8769 40.2619C74.3028 42.7435 75.284 48.4111 76.0112 53.0283C76.392 55.4292 76.9692 57.3453 76.369 58.8344C76.0342 59.6885 78.0081 61.5931 78.7238 62.1472C78.9546 62.3203 79.2316 62.4935 79.5086 62.4242C79.7857 62.355 79.9127 62.1702 80.0627 61.9625C84.3682 56.1218 86.9769 48.4919 84.98 41.5085Z" fill="#D13535"/>
<path d="M75.0071 111.365C73.9912 112.485 72.9408 113.039 72.4445 114.47C71.9481 115.902 71.9943 117.587 72.9178 118.788C73.3297 119.288 73.821 119.716 74.3722 120.057C75.3764 120.75 76.473 121.385 77.685 121.569C77.8804 121.593 78.0769 121.604 78.2737 121.604C79.9128 121.604 81.3095 120.3 81.3787 118.661C81.3903 118.441 81.3556 118.257 81.2748 118.164C80.9055 117.795 80.0513 116.895 77.9851 114.586C76.75 113.224 75.0071 111.365 75.0071 111.365Z" fill="#EFDCC4"/>
<path d="M91.3752 114.4C94.2255 112.865 97.4808 114.285 98.5662 117.378C99.2124 121.719 93.9492 129.486 86.2381 128.402C86.2381 128.402 83.7565 127.57 83.3178 124.812C83.1447 123.738 82.9831 122.654 82.6137 121.626C82.575 121.518 82.5676 121.401 82.5924 121.288C82.6173 121.176 82.6732 121.072 82.7541 120.99C82.8348 120.909 82.937 120.851 83.049 120.825C83.161 120.798 83.2781 120.804 83.387 120.841C84.5875 121.557 85.9381 121.406 87.1038 120.599C88.085 120.056 89.1008 119.468 89.7011 118.521C90.3015 117.574 90.8784 115.462 91.0746 114.77C91.0971 114.69 91.1349 114.618 91.1862 114.554C91.2384 114.491 91.3023 114.438 91.3752 114.4Z" fill="#D13535"/>
<path d="M79.3125 63.9475C78.987 63.817 78.6453 63.7316 78.2967 63.6935C84.8993 55.1403 85.6495 43.1818 78.7584 34.5592C76.623 31.2349 74.2798 27.772 70.7015 25.8559C64.9762 23.2818 52.0251 22.4392 47.2232 27.0909C44.7531 29.6535 42.6984 32.8393 41.0939 35.979C40.8862 36.3945 41.2209 36.8794 41.4402 37.3295C40.7246 37.9067 39.6857 37.7912 38.9123 38.2876C37.2732 39.1995 38.0813 41.4734 39.6395 41.9582C40.563 42.3391 41.6942 42.1891 42.6291 42.3853C42.7216 42.4034 42.8169 42.4014 42.9084 42.3795C43 42.3576 43.0859 42.3162 43.1601 42.2584C53.618 42.7893 64.0874 42.8932 74.5683 42.5701C75.6649 42.3276 75.2494 40.573 74.9955 39.7882C75.0532 38.6685 75.0878 38.2529 74.4413 38.1029C74.9377 36.9486 74.1182 35.4018 72.9177 35.0209C72.2598 34.7901 71.5326 34.9056 70.8515 34.8824C66.0728 34.8709 61.2941 35.5288 56.5269 35.6905C54.7953 35.829 53.0524 35.8867 51.321 35.6443C48.6084 35.2171 45.7688 34.0629 42.9985 34.8939C47.685 25.3595 53.8373 24.0552 63.7527 25.3134C71.521 25.5096 75.0185 30.5654 78.7122 36.6485C84.7838 45.0402 83.0985 55.5558 77.0386 63.4395L76.9346 63.5665C76.908 63.5859 76.875 63.5941 76.8423 63.5896H76.8654C75.8727 62.9663 75.0878 61.7889 74.476 60.7732C74.1066 60.1267 73.1024 60.7154 73.4833 61.3503C73.9912 62.2045 74.88 63.5896 75.8381 64.2822C71.6827 68.1375 77.835 72.6969 81.1478 69.1302C82.5099 67.318 81.4133 64.6054 79.3125 63.9475ZM41.3826 41.0117C41.2782 41.0088 41.1749 41.0327 41.0824 41.081C40.6437 41.0694 40.2282 41.0232 39.9858 40.8732C39.7435 40.7232 39.0278 40.2383 39.1432 39.7189C39.1201 39.892 39.1548 39.615 39.1778 39.592C39.5125 38.8878 41.3941 39.0609 42.3175 38.0799C43.2525 38.3914 48.5969 39.6728 48.6661 38.3107C48.6631 38.1585 48.6014 38.0134 48.4938 37.9058C48.3862 37.7982 48.2411 37.7365 48.089 37.7335C46.0921 37.7912 44.4067 37.4219 42.5599 37.041C42.4899 36.8424 42.405 36.6496 42.306 36.4638C46.1728 34.4207 50.9978 37.7566 55.488 36.914C60.4052 36.764 65.3225 36.2098 70.2398 36.0136C71.4402 35.9328 73.8065 35.829 73.3794 37.6642C73.3588 37.7079 73.3357 37.7503 73.3101 37.7912C73.262 37.8558 73.1985 37.9074 73.1255 37.9413C72.8369 37.999 72.6407 38.3684 72.7331 38.6569C72.8254 38.9456 73.3794 39.2456 73.518 39.4765C74.0028 40.1113 74.1066 40.7 74.0835 41.4272C63.187 41.7504 52.2675 41.6119 41.3826 41.0117ZM80.5706 67.5603C80.3744 69.7997 76.5537 69.6612 75.7457 67.9182C75.284 66.8678 76.0227 65.7366 76.7731 65.0094C77.4541 64.5939 78.3428 64.8247 79.047 65.0671L79.0008 65.044C79.2481 65.16 79.4839 65.2992 79.7049 65.4596C79.8718 65.5918 80.0229 65.7429 80.1551 65.9098C80.1436 65.8866 80.1321 65.8751 80.1321 65.8636C80.4858 66.3542 80.6424 66.9598 80.5706 67.5603Z" fill="#452D34"/>
<path d="M79.7049 65.4591C79.6933 65.4476 79.6818 65.4475 79.6818 65.4359C79.6818 65.4244 79.6587 65.4591 79.7049 65.4591Z" fill="#452D34"/>
<path d="M77.1077 100.804C77.1084 100.784 77.1045 100.764 77.0962 100.746C77.0962 100.769 77.1077 100.78 77.1077 100.804Z" fill="#452D34"/>
<path d="M80.7322 106.632C80.686 106.586 80.6745 106.563 80.6629 106.563C80.8822 106.874 81.2285 107.394 81.7018 107.106C82.5559 106.367 81.1131 105.455 80.7091 104.831C79.6125 103.597 78.4236 102.43 77.2924 101.23C77.2462 101.171 77.2038 101.11 77.1654 101.045C77.1539 100.999 77.1308 100.872 77.1077 100.803C77.0847 100.734 77.0962 100.803 77.0962 100.769C77.0904 100.707 77.0904 100.645 77.0962 100.583V100.503C77.1077 100.445 77.1308 100.387 77.1423 100.33C77.1465 100.325 77.1497 100.32 77.1517 100.313C77.1537 100.308 77.1544 100.302 77.1539 100.295C77.3155 99.983 77.3501 99.9605 77.6617 99.7868C77.6849 99.7868 77.8349 99.7175 77.8811 99.7292H78.2043C78.9892 100.122 79.5433 98.9795 78.7121 98.6672C76.8653 98.0093 75.1454 100.284 76.2997 101.877C77.7426 103.47 79.3816 104.924 80.7322 106.632ZM77.1654 101.033C77.1612 101.029 77.1581 101.023 77.1561 101.018C77.1541 101.012 77.1533 101.005 77.1539 100.999C77.1539 101.023 77.1539 101.033 77.1654 101.033Z" fill="#452D34"/>
<path d="M79.1164 109.737C79.832 109.945 80.1436 108.825 79.4279 108.617C77.6735 107.971 75.7804 105.651 74.9609 103.654C74.9032 103.423 74.857 103.261 75.0071 102.846L75.1109 102.661L75.1802 102.592L75.2149 102.568H75.3072C75.9536 103.157 76.8078 102.223 76.069 101.68C74.3029 100.503 73.1256 103.261 74.1298 104.577C75.1687 106.759 76.8423 108.825 79.1164 109.737Z" fill="#452D34"/>
<path d="M103.425 104.878C102.894 104.371 102.018 104.29 102.549 104.832L102.884 105.075C104.557 106.622 106.126 109.265 107.384 110.904C109.243 113.27 111.079 116.376 112.118 118.891C113.053 121.039 113.849 123.902 114.103 125.921C114.357 127.549 114.345 130.007 114.149 131.243C113.953 132.478 113.526 134.152 113.214 134.832C112.025 137.891 109.243 140.049 106.45 140.362C103.991 140.661 101.891 140.154 99.5472 139.195C97.8849 138.537 95.0913 136.807 93.6261 135.652C92.3904 134.683 91.3518 133.459 90.3933 132.212C89.4356 130.966 88.1774 129.131 87.0115 127.572C90.648 127.756 95.2299 125.055 96.8463 121.859C97.8156 120.288 98.8776 118.534 98.8434 116.63C98.8065 116.331 98.7408 116.037 98.6472 115.752C99.6282 116.168 100.679 116.41 101.66 116.791C102.029 116.929 102.814 117.403 103.149 117.749C103.679 118.269 104.499 117.449 103.968 116.929C102.676 115.671 100.886 115.371 99.27 114.771C98.8416 114.584 98.4312 114.356 98.0469 114.09C97.9641 114.037 97.8678 114.009 97.7697 114.009C96.4422 112.185 94.1103 111.147 91.8369 111.885L91.467 111.978C91.4787 111.609 91.4553 111.25 91.467 111.008C91.2708 108.815 90.4284 106.703 89.3548 104.798C89.1009 104.371 88.8238 103.909 88.466 103.563C87.935 103.032 87.1155 103.851 87.6464 104.382C88.8816 105.883 89.8858 108.33 90.2664 110.616C90.5094 111.989 88.1544 121.408 82.6368 118.73L82.556 118.673C81.3556 117.945 80.1551 116.503 79.0355 115.279C78.4352 114.852 77.8465 113.212 76.9924 113.87C76.9386 113.923 76.8959 113.986 76.8667 114.056C76.8376 114.125 76.8226 114.2 76.8226 114.274C76.8226 114.35 76.8376 114.425 76.8667 114.494C76.8959 114.563 76.9386 114.626 76.9924 114.678C78.2851 116.19 79.578 117.726 81.0786 119.03C81.2286 119.146 81.4133 119.319 81.6211 119.457L81.598 119.492C81.5287 120 81.6441 120.508 81.7826 121.015C81.688 121.016 81.5953 121.042 81.5141 121.091C81.4329 121.14 81.3662 121.21 81.3209 121.293C81.2088 121.434 81.081 121.562 80.9401 121.673C80.2012 122.251 79.1624 122.274 78.6892 122.216C77.4426 122.077 76.0112 121.166 75.007 120.415C73.3217 119.295 73.2409 116.975 74.072 115.221C74.2798 114.644 74.88 113.697 75.1224 113.409C75.2622 113.206 75.4206 113.017 75.5957 112.843C76.1267 113.328 76.9231 112.52 76.3921 112.012C75.8092 111.492 75.2794 110.916 74.8108 110.292C74.2221 109.623 73.1947 107.892 73.1832 107.187C73.1716 106.483 73.2294 106.229 73.5179 106.01C73.8065 105.791 74.199 105.49 73.9566 105.098C73.1601 104.232 72.052 105.71 72.0174 106.541C71.9597 108.653 73.3448 110.489 74.7761 112.012C67.8619 119.353 77.9504 126.222 82.0943 122.124C82.1572 122.373 82.192 122.628 82.1982 122.886C82.5675 125.287 83.7449 126.648 85.3148 127.237C85.3693 127.368 85.4568 127.484 85.5688 127.572C87.4156 129.915 89.2048 132.928 91.4787 135.248V135.306C91.7784 143.443 92.0673 151.569 91.7784 159.707C91.7784 160.446 92.9331 160.47 92.9331 159.707C93.1257 153.235 93.0789 146.753 92.7945 140.257C92.7486 138.953 92.7018 137.649 92.6676 136.345L92.7486 136.413C100.217 142.635 111.933 144.933 114.969 133.147C117.196 122.493 110.963 111.954 103.425 104.878ZM82.683 119.907C82.683 119.907 82.683 119.862 82.7061 119.85H82.7292C82.7407 119.85 82.7638 119.862 82.7638 119.85C82.7638 119.838 82.7638 119.862 82.7523 119.862C85.0608 121.223 87.3463 119.25 89.0316 117.657C90.036 116.398 90.6246 114.91 91.1205 113.409C92.4363 112.751 93.6837 112.659 94.9995 113.121C94.9995 113.121 94.9878 113.121 94.9995 113.109C95.0112 113.097 95.0688 113.143 95.0337 113.132C96.1533 113.64 96.8922 114.656 97.4925 115.891C98.2548 120.335 92.8989 125.818 88.5929 126.36C83.3871 127.122 83.6872 123.428 82.683 119.907Z" fill="#452D34"/>
<path d="M73.0332 61.43C76.2768 61.1183 78.3545 56.5935 76.8308 53.754C76.6308 53.4341 76.3475 53.1747 76.0113 53.0036C77.431 49.7948 75.942 46.205 74.5107 43.123C74.3552 42.7788 74.1036 42.4868 73.7863 42.282C73.4689 42.0773 73.0992 41.9685 72.7216 41.9687C66.3845 42.3496 45.2726 40.9876 40.4937 42.3265C37.8274 44.6236 35.7727 51.8956 40.4937 52.9575C37.7235 55.2892 39.9282 60.2526 42.987 61.2799C43.3863 65.3464 45.1286 69.1641 47.9389 72.1303C49.1971 75.8586 50.1898 80.926 47.6735 84.5043C41.5557 86.0048 35.161 88.2211 31.1325 93.3463C31.0055 93.5074 30.8785 93.6694 30.7631 93.8422C25.5342 100.676 23.468 109.553 22.8908 118.025C22.3137 126.497 24.2414 141.734 33.8336 143.154C33.6258 148.456 33.618 153.758 33.8104 159.06C33.8104 159.799 34.9763 159.81 34.9647 159.06C34.78 154.662 34.8147 150.264 34.8955 145.866C34.9185 145.001 34.9416 144.123 34.9878 143.246C36.2068 143.271 37.4232 143.124 38.6008 142.808C38.9932 142.634 39.6858 142.565 40.0897 142.299C52.2906 138.213 59.8743 117.99 62.206 107.106C66.0498 104.912 64.0644 96.301 61.2248 95.9779C61.675 93.565 62.4715 90.8416 61.4095 88.4288C61.0401 87.7824 60.0359 88.3711 60.4053 89.0175C60.9939 90.6103 60.7516 92.5147 60.4746 94.0267C60.2206 94.9852 59.932 95.401 60.0821 96.3127C57.5658 97.9174 53.7796 96.9589 52.3714 94.3039C52.8678 91.3609 53.1333 88.2788 53.468 85.2892C53.4796 84.5504 52.6946 84.1118 53.0986 83.1191C54.3568 81.7108 61.9058 83.1884 60.9247 85.8778C60.9593 85.8085 60.9247 85.9009 60.9131 85.924C60.9201 85.9096 60.9241 85.8939 60.9247 85.8778C60.6592 86.5242 59.8743 86.8129 59.2395 86.6166L59.1817 86.5935L58.9855 86.4665C58.6277 86.0279 57.6003 86.5704 58.1775 87.2861C59.1355 88.1403 60.7054 87.9325 61.5365 87.0206C63.8912 87.6439 65.8535 86.4204 67.6196 84.5158C69.2356 84.7351 70.8632 84.8275 72.4907 84.8852C73.2295 84.8967 73.241 83.7309 72.4907 83.7309C71.0825 83.6847 69.4203 83.5924 68.1159 83.4308C66.7885 79.9448 66.8232 76.0202 67.2387 72.3034C70.1475 69.3138 72.1098 65.4815 73.0332 61.43ZM73.5988 53.7424C74.1528 53.6847 74.6607 53.6155 75.0417 53.5346C75.0763 53.9156 75.8035 54.1118 75.942 54.5273C76.1624 55.1445 76.2413 55.8033 76.1729 56.455C76.1613 56.4896 76.1267 56.6743 76.1613 56.5012C75.8843 58.3134 74.8224 59.687 73.2525 60.3103C73.6565 58.1403 73.6218 55.9356 73.5988 53.7424ZM42.3291 59.6177C41.9984 59.3542 41.6965 59.0563 41.4288 58.729C41.208 58.4276 41.0148 58.107 40.8516 57.7709L40.8054 57.667C40.3668 56.5704 40.1359 55.0122 40.9555 54.0425C41.0132 53.9848 41.0132 54.008 40.9786 54.031C41.3711 53.8925 41.5557 53.5923 41.5673 53.3153C41.9598 53.4308 42.3522 53.5346 42.7331 53.6155C42.7331 55.7278 42.9063 57.8517 42.8947 59.9641C42.6963 59.8656 42.507 59.7497 42.3291 59.6177ZM61.0171 85.5662C61.0055 85.647 61.0171 85.5893 61.0171 85.5431V85.5662ZM37.7351 141.837C37.4811 141.907 37.2156 141.954 36.9501 141.999L36.8001 142.034L36.4653 142.08C35.8587 142.132 35.2495 142.143 34.6415 142.115C33.8439 142.036 33.06 141.855 32.3099 141.572L32.1367 141.503H32.1137L31.675 141.318C30.5438 140.741 29.0202 139.414 28.4199 138.525C25.9497 135.235 24.9224 131.218 24.3337 127.155C23.745 123.092 23.849 118.186 24.4376 113.835C24.9455 109.91 26.1459 105.12 27.7273 101.427C28.6277 99.325 29.6896 97.2937 31.0055 95.4235L31.5595 94.6621L31.6635 94.5118L31.6865 94.4884L31.7673 94.3849C32.0213 94.0735 32.5061 93.4849 32.8293 93.1384C36.7192 88.9828 42.3753 87.0321 47.8004 85.6585C49.1856 86.2587 50.6631 86.7089 52.1752 86.8129C51.9097 89.1675 51.5865 91.4302 51.3557 93.7846C47.8927 95.0545 44.6839 99.5104 45.8266 103.042C42.4215 108.34 39.4549 113.904 36.1882 119.294C35.8074 119.93 36.8116 120.53 37.1925 119.883C40.3322 114.677 43.2179 109.31 46.473 104.162C49.4741 106.678 57.0578 108.502 60.9478 107.567C58.0505 119.837 50.9055 138.467 37.7351 141.837ZM62.8524 104.612C62.8639 104.589 62.8755 104.577 62.8755 104.566L62.8524 104.612ZM61.2248 97.1092H61.2018C61.2133 97.0975 61.2248 97.0975 61.2248 97.1092ZM60.7862 97.2703C60.9158 97.2424 61.0331 97.174 61.1209 97.0741C62.8408 98.1829 63.3257 101.542 63.1755 103.365C62.1828 109.529 52.66 105.685 48.7931 104.346C44.2452 102.557 48.089 96.2893 51.4365 94.9969C53.3641 98.3557 57.912 99.0712 60.7862 97.2703ZM53.1563 79.3561C52.3484 79.9333 51.8289 81.3645 52.2906 82.2649C51.7135 82.8882 51.6096 83.8694 52.3137 85.2776C52.3022 85.4045 52.2906 85.52 52.2906 85.647C51.1479 85.6124 49.9013 85.2199 48.8739 84.8505C49.6704 83.6154 50.2591 81.2607 50.2821 80.6258C50.4829 78.3086 50.264 75.9742 49.6358 73.7347C51.1248 74.9467 52.5099 75.6739 53.3756 75.9279C53.3871 77.0706 53.2602 78.2134 53.1563 79.3561ZM56.3422 81.5377C55.2225 81.353 54.126 81.3761 53.2949 81.6647C53.3064 81.226 53.3988 80.799 53.595 80.4988L53.6526 80.4181V80.4411C54.0798 80.0602 54.7031 79.9563 55.2687 79.8524H55.2456C57.4965 79.6101 60.6708 80.2796 60.8208 83.096C59.5511 82.161 57.6696 81.607 56.3422 81.5377ZM56.2267 69.9025C56.169 69.891 56.3422 69.891 56.3422 69.9025H56.2844C56.9655 70.041 57.508 70.8259 57.635 71.6339C57.5658 73.7578 57.5311 76.4126 57.785 78.802C56.6532 78.5552 55.4796 78.5749 54.3568 78.8597C54.6338 76.7705 54.4145 74.6466 54.7146 72.5458C54.8532 71.4377 55.3379 69.914 56.1459 69.891C55.9035 69.9255 56.0882 69.9025 56.2267 69.9025ZM65.4495 84.9545C64.4684 85.67 63.4642 86.2472 62.0905 85.9817C62.333 85.1622 62.1021 84.435 61.5942 83.8232C61.7057 83.7878 61.8022 83.7165 61.869 83.6205C61.9359 83.5244 61.9691 83.4091 61.9636 83.2922C62.0213 81.2492 60.6939 79.8524 58.9624 79.1599C58.8531 78.3796 58.7952 77.593 58.7893 76.8051C61.4441 76.4242 63.9143 75.2007 65.9574 73.4808C65.6688 76.9436 65.8188 80.2103 66.9039 83.5808C66.4999 84.0079 65.6573 84.8159 65.4495 84.9545ZM58.7777 75.6508C58.6854 73.8848 59.0202 72.0033 58.4199 70.3411C59.7589 70.3065 61.8366 70.0872 61.4788 68.8983C61.3171 68.6558 60.9478 68.5058 60.6823 68.6905C59.805 69.2676 58.5122 69.1753 57.4388 69.1983C56.8731 68.7943 56.1921 68.6096 55.5342 68.8521L55.4534 68.8174H55.4649C54.7955 68.2403 53.9066 69.0714 54.5761 69.6485C53.4911 71.0337 53.4334 72.9844 53.3988 74.7851C48.4007 72.4766 44.8686 67.0167 44.176 61.5685C43.9567 59.1792 43.9797 56.2934 43.8874 53.8348C53.999 55.1852 48.0312 52.0918 52.9371 48.7674C55.9151 47.036 57.5311 50.3719 58.4199 49.4023C60.0359 48.4673 62.6562 47.7863 63.9027 49.6447C66.4999 54.6543 66.8 54.2157 72.4446 53.8578C72.4446 55.6701 72.5022 57.4823 72.2483 59.283C71.2094 66.5435 66.4768 74.2772 58.7777 75.6508Z" fill="#452D34"/>
<path d="M52.81 47.4758C52.9485 47.3835 53.0986 47.3027 53.2486 47.2218L53.3756 47.1642C53.2948 47.1987 53.5026 47.0949 53.3756 47.1642C53.4659 47.1245 53.5585 47.0898 53.6526 47.0602C53.8038 47.0087 53.9581 46.9663 54.1143 46.9333L54.3683 46.8871C54.5183 46.864 54.2413 46.8987 54.3913 46.8871H54.5298C54.6985 46.8679 54.8681 46.8601 55.0378 46.864H55.2571L55.3956 46.8871H55.4533C55.7874 46.9471 56.1157 47.0359 56.4344 47.1526H56.4691L56.5499 47.1987L56.9192 47.3488C57.1266 47.4058 57.3394 47.4406 57.5541 47.4527C58.0045 47.4607 58.4496 47.3534 58.8469 47.141L59.0778 47.0256L59.2278 46.9679C59.124 47.0025 59.2047 46.9679 59.2278 46.9563L59.8165 46.7601L60.3706 46.6447C60.486 46.6216 60.3821 46.6447 60.359 46.6447H60.5091L60.7861 46.6216C60.9868 46.6159 61.1877 46.6275 61.3864 46.6562C61.2479 46.6332 61.3979 46.6562 61.4209 46.6678L61.5595 46.6909L61.8366 46.7601L62.1366 46.864C62.2405 46.8987 62.1481 46.864 62.1251 46.864L62.2983 46.9333C62.4742 47.0301 62.6439 47.1381 62.8061 47.2565C63.0485 47.4412 63.464 47.3027 63.591 47.0487C63.718 46.7948 63.6487 46.46 63.3833 46.2638C62.0905 45.2711 60.2782 45.2941 58.8238 45.8944L58.2236 46.1715C58.2005 46.183 58.0504 46.2407 58.1774 46.1945L58.0274 46.2523L57.9119 46.2753C57.8889 46.2868 57.7041 46.31 57.8542 46.2984H57.5541C57.5541 46.2984 57.3925 46.2868 57.4849 46.2984C57.5772 46.31 57.4156 46.2868 57.4156 46.2868L57.127 46.1945H57.0924L56.9654 46.1368C56.2432 45.8183 55.4568 45.672 54.6684 45.7098C53.8014 45.7416 52.9594 46.009 52.2328 46.4831C52.1018 46.5602 52.0065 46.6859 51.9676 46.8329C51.9286 46.9798 51.9493 47.1362 52.025 47.268C52.1867 47.522 52.5445 47.6489 52.81 47.4758Z" fill="white"/>
<path d="M50.1667 47.7175L49.8089 47.983C49.7444 48.0203 49.6891 48.0716 49.6472 48.1331C49.5991 48.1904 49.5638 48.2573 49.5433 48.3293C49.5202 48.4045 49.5202 48.485 49.5433 48.5601C49.5445 48.6332 49.5644 48.7048 49.601 48.7679L49.6934 48.8834C49.7621 48.9564 49.8503 49.0084 49.9474 49.0334L50.1089 49.0565C50.211 49.0585 50.3113 49.0304 50.3975 48.9757L50.7438 48.7218C50.808 48.6842 50.8632 48.6329 50.9054 48.5717C50.9593 48.5185 50.9956 48.45 51.0093 48.3754C51.0356 48.3013 51.0395 48.2211 51.0208 48.1446C51.0209 48.0661 50.9967 47.9895 50.9516 47.9253L50.8592 47.8099C50.7878 47.7402 50.7008 47.6888 50.6053 47.6599L50.4552 47.6367C50.354 47.6402 50.255 47.6679 50.1667 47.7175Z" fill="white"/>
<path d="M67.6311 52.2082C67.8315 52.3745 68.0527 52.5142 68.289 52.6237C68.5247 52.7337 68.7727 52.8151 69.0278 52.8661C69.1029 52.8872 69.1818 52.8912 69.2586 52.8777C69.3313 52.8668 69.4017 52.8433 69.4664 52.8084C69.5327 52.7728 69.5906 52.7235 69.6363 52.6638C69.6822 52.6041 69.7146 52.5353 69.7319 52.4621C69.7539 52.3872 69.7601 52.3084 69.7502 52.231C69.7402 52.1535 69.7144 52.0789 69.6741 52.012C69.638 51.9461 69.5885 51.8885 69.5289 51.8429C69.4693 51.7972 69.4008 51.7643 69.3279 51.7465C69.1335 51.7156 68.9436 51.6613 68.7623 51.5848L68.9008 51.6425C68.7038 51.5575 68.5177 51.449 68.3467 51.3193L68.4622 51.4117H68.4506C68.3998 51.3555 68.3366 51.3121 68.2659 51.2848C68.1936 51.2518 68.1145 51.2361 68.0351 51.2385C67.9221 51.2401 67.8121 51.2749 67.7187 51.3384C67.6253 51.4019 67.5525 51.4914 67.5096 51.5959C67.4665 51.7004 67.4551 51.8152 67.4767 51.926C67.4983 52.0369 67.5519 52.1391 67.6311 52.2197V52.2082Z" fill="white"/>
<path d="M39.9743 44.2207C39.0226 45.3201 38.434 46.6869 38.2891 48.1337C38.2544 48.4339 38.5776 48.7224 38.8661 48.7109C39.1548 48.6994 39.4087 48.4569 39.4433 48.1337C39.4433 48.0991 39.4548 48.0529 39.4548 48.0183C39.4548 47.9837 39.4433 48.1222 39.4548 48.0067C39.4646 47.925 39.4801 47.844 39.501 47.7644C39.5241 47.6143 39.5588 47.4642 39.5933 47.3257L39.7319 46.8871C39.7536 46.8085 39.7806 46.7313 39.8127 46.6562L39.8588 46.5523C39.882 46.46 39.8012 46.6678 39.8588 46.5293C39.9852 46.2517 40.1278 45.9819 40.286 45.7213L40.5515 45.3288L40.6092 45.248C40.5399 45.3519 40.6092 45.2596 40.6207 45.2364L40.7939 45.0287C40.9901 44.8094 41.0362 44.44 40.7939 44.2207C40.5515 44.0014 40.182 43.9667 39.9743 44.2207Z" fill="white"/>
<path d="M45.8958 53.212C46.6488 53.3103 47.4126 53.2869 48.1582 53.1427C48.4583 53.085 48.6545 52.7041 48.5622 52.4271C48.5167 52.2813 48.4173 52.1585 48.2844 52.0834C48.1514 52.0083 47.9948 51.9867 47.8465 52.0231L47.5926 52.0693H47.4426C47.2742 52.0923 47.1046 52.1038 46.9346 52.1039C46.5874 52.1135 46.2399 52.0942 45.8958 52.0462C45.7443 52.0518 45.6004 52.1136 45.4919 52.2193C45.4366 52.2711 45.3926 52.3337 45.3625 52.4032C45.3325 52.4727 45.3169 52.5476 45.3169 52.6233C45.3169 52.699 45.3325 52.774 45.3625 52.8435C45.3926 52.9129 45.4366 52.9755 45.4919 53.0273C45.6021 53.1305 45.745 53.1918 45.8958 53.2005V53.212Z" fill="white"/>
<path d="M87.7965 123.128C90.7398 122.563 94.5603 120.797 94.6989 117.38C94.5027 116.365 93.3606 116.791 93.5217 117.772C93.5217 117.761 93.5451 117.634 93.5334 117.75C93.4929 117.975 93.4317 118.194 93.3489 118.408C93.3138 118.489 93.3489 118.384 93.3606 118.384C93.0834 119.1 92.3445 119.839 91.8828 120.185C91.251 120.645 90.5697 121.032 89.8511 121.339C89.0909 121.656 88.297 121.884 87.4848 122.02C86.7692 122.205 87.0693 123.324 87.7965 123.128Z" fill="white"/>
</svg>
