<svg width="15" height="15" viewBox="0 0 15 15" fill="none" xmlns="http://www.w3.org/2000/svg">
<path d="M0.333344 14.334V12.1288L11.8658 0.585125C11.9557 0.505204 12.0548 0.443366 12.1633 0.399614C12.2718 0.355861 12.3847 0.333984 12.502 0.333984C12.6198 0.333984 12.7336 0.352361 12.8432 0.389113C12.9541 0.426449 13.0561 0.493536 13.1495 0.590376L14.0822 1.52843C14.1791 1.62177 14.245 1.72386 14.28 1.8347C14.3156 1.94613 14.3333 2.05755 14.3333 2.16897C14.3333 2.2874 14.3132 2.40086 14.273 2.50937C14.2333 2.61729 14.1697 2.71618 14.0822 2.80601L2.53834 14.334H0.333344ZM12.1493 3.47281L13.4583 2.18122L12.4853 1.20816L11.1938 2.51725L12.1493 3.47281Z" fill="#4F4E4E"/>
</svg>
