<svg width="20" height="17" viewBox="0 0 20 17" fill="none" xmlns="http://www.w3.org/2000/svg">
<path fill-rule="evenodd" clip-rule="evenodd" d="M19.3334 0.5H0.667787C0.490987 0.5 0.321428 0.570234 0.196411 0.695251C0.0713936 0.820268 0.00115967 0.989827 0.00115967 1.16663V15.8324C0.00115967 16.0092 0.0713936 16.1788 0.196411 16.3038C0.321428 16.4288 0.490987 16.4991 0.667787 16.4991H19.3334C19.5102 16.4991 19.6797 16.4288 19.8047 16.3038C19.9298 16.1788 20 16.0092 20 15.8324V1.16663C20 0.989827 19.9298 0.820268 19.8047 0.695251C19.6797 0.570234 19.5102 0.5 19.3334 0.5ZM1.33442 15.1658V1.83326H18.6667V15.1658H1.33442Z" fill="#FFFFFF"/>
<path fill-rule="evenodd" clip-rule="evenodd" d="M19.7653 1.67327L10.3726 9.6728C10.2517 9.7759 10.0979 9.83241 9.93901 9.83217C9.78011 9.83192 9.62653 9.77493 9.50594 9.67147L0.231818 1.67193C0.12858 1.5831 0.0550289 1.46477 0.0210629 1.33288C-0.0129032 1.20098 -0.00565437 1.06185 0.0418336 0.934196C0.0893216 0.806545 0.17477 0.696502 0.286681 0.618875C0.398592 0.541249 0.531595 0.499763 0.667793 0.500001H19.3334C19.4695 0.500263 19.6024 0.542215 19.714 0.620215C19.8256 0.698216 19.9106 0.808524 19.9577 0.936303C20.0047 1.06408 20.0115 1.2032 19.9771 1.33495C19.9427 1.46671 19.8688 1.58477 19.7653 1.67327ZM17.5228 1.83326H2.46102L9.94325 8.28755L17.5228 1.83326Z" fill="#FFFFFF"/>
</svg>
