<svg width="180" height="80" viewBox="0 0 180 80" fill="none" xmlns="http://www.w3.org/2000/svg">
<g id="happynewhere_logo 1">
<path id="Vector" d="M36.0511 4.33008C35.8801 4.91808 36.2671 4.94708 36.6651 4.91708C37.6421 4.84408 38.4331 5.24308 39.1361 5.86508C39.2531 5.96808 39.5001 6.06708 39.3781 6.25308C39.3091 6.35708 39.1131 6.43408 38.9161 6.44608C38.3981 6.47908 37.9291 6.35708 37.4601 6.15908C37.2661 6.07708 37.0491 5.85608 36.8371 6.03608C36.6331 6.20908 36.8921 6.40708 36.9401 6.56908C37.2881 7.73408 37.4861 8.94108 37.9711 10.0711C38.3421 10.9351 38.9651 11.4521 39.8261 11.7221C41.0241 12.0971 42.2621 12.2581 43.5101 12.3511C44.0451 12.3911 44.5561 12.5291 45.0531 12.7161C45.6281 12.9321 46.0611 13.4871 46.5751 13.6491C47.0671 13.8041 47.6781 13.5131 48.2651 13.8621C48.7111 14.1271 49.0031 13.7541 49.0771 13.2781C49.1041 13.1061 49.0761 12.8711 49.2831 12.8321C49.5141 12.7891 49.6101 13.0071 49.7131 13.1871C50.3771 14.3471 50.2771 15.5891 49.3881 16.4401C54.7631 18.4981 60.1981 20.2461 65.7081 21.8871C65.6171 20.2801 64.9871 19.5691 63.5041 19.3051C61.9021 19.0201 61.7641 18.9291 61.4011 17.8531C62.8341 17.9621 64.0401 17.1051 65.4341 17.0371C65.9361 17.0121 66.2321 16.0201 66.0381 15.3821C65.9471 15.0841 65.5941 14.8561 65.7831 14.4801C65.9261 14.4881 66.0701 14.4961 66.2131 14.5051C66.3351 14.8321 66.4751 15.1541 66.5711 15.4891C66.6191 15.6571 66.6501 15.7941 66.8491 15.6981C67.5151 15.3781 68.4291 15.4371 68.6971 14.5021C68.9051 14.3991 68.8621 14.2261 68.8241 14.0531C68.8251 13.8421 68.8261 13.6311 68.8271 13.4211C68.8741 13.1491 68.7371 12.9691 68.5301 12.8231C68.4181 12.6581 68.0411 12.5641 68.2641 12.3091C68.4921 12.0491 68.7061 12.3291 68.8941 12.4781C69.1741 12.7001 69.1831 13.2871 69.7541 13.1191C69.8451 13.2281 69.9361 13.3381 70.0261 13.4471C69.9941 13.6041 69.9631 13.7601 69.9311 13.9171C69.7141 14.1081 69.4961 14.2991 69.2791 14.4901C69.1811 14.6351 69.0461 14.7691 68.9971 14.9291C68.9541 15.0711 68.5751 15.0281 68.8041 15.3001C68.9231 15.4421 69.0831 15.4391 69.2171 15.3941C69.9961 15.1311 70.8491 15.0971 71.5641 14.6381C71.7691 14.5411 71.9741 14.4441 72.1791 14.3471C72.4671 14.0721 72.2911 13.7301 72.3131 13.4171C72.3721 13.3291 72.4321 13.2401 72.4911 13.1521C72.6931 13.3571 72.8091 13.7911 73.2231 13.4231C73.4021 13.4421 73.5911 13.4331 73.7151 13.6031L73.4031 14.0501C73.1751 14.1671 72.9491 14.2871 72.8001 14.5071C72.3451 14.7571 71.8911 15.0071 71.3681 15.2951C72.0381 15.6321 72.6171 15.6671 73.2051 15.3031C73.3991 15.1821 73.6691 14.9131 73.8211 15.2421C73.9481 15.5181 73.6071 15.6571 73.3821 15.7601C72.9241 15.9691 72.3691 15.9871 71.9731 15.8251C70.8021 15.3451 69.6921 15.7331 68.5521 15.8491C67.7871 15.9271 67.1421 16.2181 66.5721 16.7051C66.4411 16.8171 66.3091 16.9471 66.2931 17.2141C67.5651 17.3771 68.9791 16.8611 70.1391 17.9161C69.3111 18.5151 68.4231 18.3271 67.4631 18.2031C68.2181 19.6121 68.8591 21.0331 69.8661 22.2341C70.4101 22.8831 71.1441 23.1511 72.0021 23.1651C73.6911 23.1941 75.3441 22.6951 77.0401 22.8481C77.3161 22.8731 77.5971 22.8371 77.8601 22.9491C78.4531 23.2031 79.0291 23.6051 79.6741 23.0271C79.7651 22.9451 80.0171 23.0181 80.1871 23.0541C81.0241 23.2281 81.1211 23.1521 81.1611 22.2571C81.1681 22.1121 81.1051 21.9311 81.2781 21.8541C81.4811 21.7641 81.6181 21.9301 81.7251 22.0561C82.2231 22.6441 82.6111 23.2951 82.6811 24.0811C82.7581 24.9551 82.2341 25.5391 81.3651 25.5821C81.1271 25.5941 80.8871 25.5841 80.6341 25.7321C82.3511 26.0861 84.0771 26.4001 85.7821 26.8041C87.8211 27.2881 89.8911 27.6281 91.9491 27.9701C94.3001 28.3611 96.6551 28.7751 99.0281 29.0481C99.4551 29.0971 99.5341 28.9631 99.5491 28.5761C99.6151 26.8641 98.9081 25.9231 97.2511 25.5581C96.4251 25.3771 95.6001 25.1861 95.4391 24.0821C96.9151 24.1721 98.2291 23.3621 99.6881 23.4651C99.9421 23.5611 100.049 24.0241 100.444 23.7701C101.345 23.8281 102.269 23.6021 103.144 23.9711C103.488 24.1161 103.832 24.2741 104.152 24.5971C103.302 25.1591 102.429 24.9911 101.485 24.7971C102.12 26.1841 102.635 27.5011 103.439 28.6751C103.931 29.3931 104.542 29.7871 105.478 29.8711C106.663 29.9771 107.82 29.9811 108.999 29.8551C110.083 29.7391 111.154 29.8751 112.146 30.3921C112.406 30.5281 112.68 30.5641 112.946 30.4221C113.286 30.2421 113.613 30.2711 113.967 30.3961C114.576 30.6121 114.884 30.3741 114.894 29.7251C114.897 29.5461 114.777 29.2791 115.074 29.2281C115.303 29.1881 115.42 29.3991 115.544 29.5571C115.59 29.6161 115.644 29.6801 115.662 29.7501C115.958 30.9051 116.792 30.9561 117.797 30.9351C119.354 30.9011 120.914 31.0261 122.474 31.0841C123.284 31.2731 124.106 31.2121 124.926 31.2041C125.99 31.2101 127.053 31.2041 128.116 31.2281C128.467 31.2361 128.646 31.1691 128.748 30.7791C128.856 30.3651 129.207 30.1591 129.674 30.1411C131.043 30.0901 132.396 30.2691 133.731 30.5081C134.602 30.6641 135.296 30.6511 135.989 29.9831C136.808 29.1931 137.799 28.6011 138.861 28.1671C139.21 28.0251 139.296 27.8041 139.386 27.4521C139.628 26.5031 139.179 25.5221 139.57 24.5931C139.591 24.5441 139.538 24.4461 139.495 24.3901C138.615 23.2621 139.066 22.1841 139.661 21.1501C140.244 20.1381 141.138 19.4181 142.157 18.8781C142.971 18.4471 143.807 18.6551 144.593 18.9991C145.538 19.4131 146.262 20.1311 146.982 20.8471C147.574 21.4361 148.157 22.0381 148.87 22.4871C149.5 22.8841 150.175 23.1601 150.935 23.1631C151.346 23.1651 151.72 23.2011 151.71 22.5541C151.704 22.1591 152.008 21.7611 152.51 21.8211C152.922 21.8701 153.217 22.1511 153.202 22.5921C153.184 23.1201 152.861 23.4381 152.336 23.4611C152.11 23.4711 151.912 23.4491 151.698 23.5761C150.338 24.3821 148.87 24.8721 147.288 24.9721C146.87 24.9981 146.885 25.2891 146.832 25.5401C146.692 26.2021 146.892 26.8501 146.965 27.4991C147.132 28.9861 147.34 30.4691 147.259 32.1481C149.601 30.0441 151.713 27.8481 155.119 27.4811C154.102 28.8571 153.796 30.3031 153.524 31.7511C153.4 32.4121 153.379 33.0941 153.338 33.7681C153.229 35.5951 153 37.3881 151.825 38.8931C151.619 39.1571 151.676 39.3461 151.839 39.5611C152.083 39.8831 152.314 40.2191 152.588 40.5141C153.901 41.9251 154.274 42.0041 156.036 41.2591C156.781 40.9441 157.521 40.6151 158.255 40.2751C158.622 40.1051 158.959 40.0651 159.156 40.4801C159.364 40.9171 158.983 41.0581 158.702 41.2051C155.755 42.7441 152.661 43.9041 149.444 44.7241C146.721 45.4181 143.961 45.8931 141.153 46.1321C138.955 46.3191 136.751 46.3561 134.57 46.2131C131.855 46.0341 129.12 45.7811 126.514 44.8721C126.237 44.7751 125.734 44.7971 125.852 44.3261C125.952 43.9251 126.373 44.1151 126.642 44.1591C128.022 44.3811 129.398 44.6251 130.774 44.8751C131.565 45.0181 131.827 44.8471 131.906 44.0151C131.937 43.6901 132.114 43.4061 132.076 43.0591C132.032 42.6641 132.151 42.2221 131.501 42.2811C131.291 42.3001 131.227 42.0981 131.164 41.9271C129.947 38.6571 130.89 35.1381 134.479 33.6311C134.651 33.6331 134.818 33.6271 134.85 33.3691H132.653C131.69 33.2821 130.833 33.0981 130.118 32.2711C129.834 31.9421 129.048 31.8411 128.441 31.8401C126.618 31.8381 124.793 31.8621 122.971 31.8091C120.937 31.7501 118.906 31.6201 116.873 31.5131C116.514 31.4941 116.317 31.5261 116.222 31.9851C116.056 32.7921 115.389 33.0751 114.255 32.8531C113.854 32.7741 113.725 32.7741 113.892 33.1881C114.212 33.9771 114.28 34.8011 114.279 35.6411C114.278 37.0151 114.894 38.0261 116.173 38.5331C117.43 39.0311 118.092 39.9421 118.369 41.2211C118.492 41.7871 118.637 42.3631 118.881 42.8831C119.103 43.3561 119.319 43.8531 120.06 43.8631C120.579 43.8701 120.9 44.2341 120.734 44.9311C120.556 45.6781 120.103 45.3701 119.76 45.2921C119.114 45.1461 118.636 44.7261 118.35 44.1201C118.221 43.8461 118.123 43.5581 118.011 43.2761C117.687 42.4621 117.44 41.7581 116.284 41.5941C114.747 41.3751 113.466 40.4041 112.28 39.3971C111.024 38.3301 109.675 37.3871 108.36 36.3981C108.063 36.1741 107.769 36.0501 107.39 36.0741C106.06 36.1591 104.792 35.8231 103.53 35.4671C103.262 35.3921 103 35.2621 102.717 35.3161C101.238 35.5951 99.7461 35.7081 98.2521 35.6021C98.2401 35.7101 98.2281 35.7391 98.2371 35.7531C99.0061 36.8881 99.6231 38.1371 100.75 39.0031C100.908 39.1251 101.297 39.3961 100.914 39.6521C100.632 39.8411 100.328 40.2421 99.8861 39.7461C98.6881 38.4021 97.5471 37.0181 96.5741 35.5011C96.396 35.2241 96.2371 34.9351 96.1961 34.5981C96.1101 33.8911 96.4441 33.4671 97.1541 33.5031C98.1831 33.5551 99.1501 33.3531 100.155 32.9491C99.522 32.1131 99.2891 31.1821 99.3871 30.1721C99.4201 29.8361 99.3261 29.7081 98.9521 29.6561C97.0011 29.3841 95.0511 29.0941 93.1091 28.7621C90.3101 28.2841 87.5151 27.7811 84.7241 27.2561C83.3851 27.0041 82.0601 26.6781 80.5751 26.3521C81.0281 27.2781 80.7141 28.1981 81.0471 29.0701C81.4141 30.0321 81.9611 30.7651 82.9621 31.0661C84.3171 31.4731 85.0491 32.4111 85.3811 33.7361C85.5161 34.2751 85.6931 34.8041 85.9761 35.2901C86.2261 35.7201 86.5111 36.0181 87.0741 36.0901C87.9051 36.1961 88.1581 36.7211 87.8301 37.4681C87.6531 37.8721 87.2691 37.8121 86.9801 37.6941C86.2661 37.4021 85.6521 36.9661 85.3421 36.2111C85.3231 36.1641 85.2901 36.1221 85.2761 36.0751C84.9351 34.9061 84.2851 34.1701 82.9591 34.0391C81.7571 33.9201 80.7151 33.2671 79.7431 32.5741C78.1151 31.4131 76.4491 30.3111 74.7651 29.2341C73.9081 28.9541 73.0281 29.1631 72.1611 29.1151C71.3451 29.0491 70.5231 29.0161 69.7551 28.6781C69.5671 28.5951 69.3631 28.5901 69.1611 28.6591C67.8191 29.1161 66.4391 29.3181 64.8171 29.2141C65.6961 30.1351 65.9211 31.3411 67.0201 31.9011C67.2581 32.0221 67.4621 32.2481 67.6241 32.4691C67.7591 32.6531 68.1921 32.8311 67.8441 33.1201C67.5491 33.3661 67.2331 33.7171 66.7581 33.2301C65.5541 31.9981 64.3591 30.7621 63.3411 29.3681C63.1781 29.1451 63.0301 28.9051 62.9101 28.6561C62.5051 27.8221 62.9321 27.0981 63.8651 27.1181C64.8461 27.1391 65.7541 26.9651 66.6401 26.4531C65.8081 25.4901 65.7301 24.3611 65.8011 23.2071C65.8301 22.7291 65.6961 22.5161 65.1991 22.3731C59.4041 20.7061 53.7001 18.7641 48.0671 16.6151C47.5271 16.4091 47.3781 16.4681 47.3951 17.0641C47.4161 17.8131 47.4041 18.5581 47.2871 19.3161C47.1201 20.3981 47.5201 21.4091 48.4661 22.0061C49.8631 22.8881 50.3801 24.0761 50.3351 25.7061C50.3091 26.6621 50.4351 27.7041 51.6261 28.1891C52.2691 28.4511 52.2801 29.0221 51.8641 29.5731C51.6891 29.8051 51.4961 29.7031 51.3241 29.6481C50.6101 29.4191 50.0841 28.9671 49.8441 28.2411C49.7421 27.9311 49.6781 27.6051 49.6301 27.2811C49.4741 26.2161 49.1501 25.3921 47.9291 25.0171C46.6731 24.6321 45.8251 23.5681 44.9631 22.6011C43.7681 21.2601 42.5621 19.9291 41.3711 18.5851C41.1401 18.3241 40.8821 18.1931 40.5371 18.1301C39.3621 17.9151 38.2261 17.5461 37.1821 16.9711C36.5161 16.6031 35.8551 16.4071 35.0961 16.4681C33.9201 16.5631 32.8051 16.2331 31.5221 15.8461C32.1301 16.9081 32.0591 18.1091 32.9141 18.9531C33.1431 19.1791 33.3241 19.4741 33.4561 19.7691C33.5441 19.9651 33.9451 20.2391 33.5061 20.4291C33.1841 20.5681 32.8101 20.8741 32.4651 20.3281C31.4341 18.7011 30.5911 16.9781 29.8401 15.2131C29.6641 14.8001 29.6871 14.2711 30.0731 13.8741C30.4711 13.4651 30.9561 13.5001 31.4151 13.6621C32.2531 13.9561 33.0761 13.9821 34.0111 13.6621C33.2561 12.5201 33.6491 11.3761 33.9771 10.2161C34.1841 9.48208 34.2651 8.73908 34.2271 7.95308C34.1761 6.89408 33.6141 6.35808 32.7411 5.98108C32.4451 5.85308 32.1111 5.79408 31.8731 5.54708C31.7481 4.52508 31.9121 4.43808 32.8881 4.46308C33.9401 4.49008 35.0301 5.02508 36.0541 4.33008H36.0511ZM138.925 42.7631C138.99 42.6291 138.975 42.4781 138.818 42.4811C137.374 42.5151 135.925 42.3291 134.486 42.5751C133.997 42.6881 133.301 42.3311 133.085 42.5751C132.79 42.9071 132.868 43.5681 132.779 44.0871C132.753 44.2361 132.711 44.3831 132.662 44.5251C132.554 44.8371 132.562 44.9821 132.984 45.0491C134.788 45.3351 136.598 45.1031 138.402 45.1791C138.801 45.1961 138.86 44.9521 138.87 44.6531C138.892 44.0231 138.907 43.3931 138.925 42.7631ZM153.344 42.2961C152.754 41.8251 152.233 41.4231 151.829 40.9021C151.538 40.5271 151.311 39.8851 150.972 39.8251C150.618 39.7621 150.179 40.2771 149.753 40.4941C148.689 41.0371 147.541 41.3271 146.379 41.5791C146.179 41.6221 145.74 41.5661 145.807 41.8721C145.981 42.6631 146.37 43.3821 146.83 44.0511C146.924 44.1881 147.11 44.1361 147.256 44.1001C149.276 43.6061 151.293 43.0981 153.344 42.2961ZM140.748 42.5141C140.182 42.4281 139.635 42.4081 139.791 43.2461C139.807 43.3321 139.721 43.4331 139.713 43.5291C139.672 44.0381 139.457 44.6391 139.653 45.0351C139.886 45.5041 140.462 44.9981 140.891 45.0371C140.916 45.0391 140.942 45.0371 140.967 45.0361C142.5 44.9661 144.004 44.6811 145.515 44.4481C145.871 44.3931 145.921 44.3031 145.772 43.9731C145.527 43.4291 145.25 42.8721 145.163 42.2941C145.091 41.8201 144.934 41.8611 144.587 41.9191C143.31 42.1341 142.028 42.3191 140.749 42.5151L140.748 42.5141Z" fill="black"/>
<path id="Vector_2" d="M36.0511 4.32954C35.0271 5.02454 33.9371 4.48954 32.8851 4.46254C31.9091 4.43754 31.7451 4.52454 31.8701 5.54654C31.4931 5.51054 31.3041 5.22454 31.1621 4.93954C31.0561 4.72554 30.8771 4.44254 31.0281 4.22554C31.2081 3.96554 31.4231 4.30154 31.6241 4.30254C32.8121 4.30854 34.0051 4.35854 35.1831 4.25054C35.5781 4.21454 36.0541 3.85854 36.0171 3.25454C35.9981 2.95254 36.0171 2.64854 36.0101 2.34554C36.0061 2.15254 35.9041 1.90954 36.2211 1.88254C36.4611 1.86254 36.4751 2.08154 36.5321 2.24354C36.5401 2.26754 36.5411 2.29754 36.5571 2.31454C36.7911 2.58354 36.3001 3.17654 36.8851 3.23354C37.6611 3.30854 38.4791 3.33754 38.9991 2.55254C39.3221 2.06454 39.4661 1.55354 39.2151 0.976543C39.1321 0.785543 38.8021 0.691543 38.9681 0.410543C39.0021 0.352543 39.1611 0.313543 39.2321 0.341543C39.4841 0.440543 39.6541 0.656543 39.6801 0.911543C39.7151 1.26054 39.9001 1.61154 39.6331 1.96854C40.3131 2.00854 39.9681 1.36754 40.2711 1.18954C40.5411 1.85954 40.4601 2.28654 39.8821 2.51154C39.4281 2.68754 39.1751 3.04654 38.6991 3.37654C39.9711 3.67654 41.1301 3.72154 42.2391 3.28354C42.8251 3.05154 42.7051 2.40454 42.7201 1.87854C42.7261 1.68454 42.5171 1.34554 42.8781 1.34054C43.1151 1.33754 43.1271 1.67254 43.1421 1.90154C43.1651 2.25354 43.1031 2.58554 42.8831 2.88854C43.9721 2.77554 44.6321 1.61754 44.2461 0.549543C44.1841 0.379543 43.9391 0.163543 44.2111 0.0305431C44.4921 -0.107457 44.5821 0.201543 44.6781 0.385543C44.9631 0.931543 44.8331 1.50454 44.7221 2.08054C45.2141 1.97754 45.2971 1.46354 45.6481 1.17054C45.7571 2.21054 44.8181 2.81254 41.2841 4.05454C41.9051 4.55254 42.5461 4.80054 43.3101 4.40054C43.4601 4.32154 43.6851 4.21854 43.7811 4.42054C43.8981 4.66554 43.6471 4.75554 43.4771 4.85854C42.7921 5.27454 42.2151 4.98054 41.5951 4.64354C39.8061 3.67154 37.9501 3.52854 36.0511 4.32954Z" fill="black"/>
<path id="Vector_3" d="M100.444 23.7676C100.048 24.0216 99.942 23.5586 99.688 23.4626C100.299 22.8346 100.487 22.1466 100.001 21.3526C99.904 21.1946 99.868 21.0006 100.095 20.9106C100.318 20.8226 100.427 20.9946 100.487 21.1636C100.613 21.5166 100.716 21.8776 100.831 22.2436C101.087 22.1626 101.346 22.0596 101.615 21.9986C103.116 21.6556 103.576 20.4786 102.67 19.2576C102.568 19.1196 102.483 19.0196 102.627 18.8786C102.778 18.7316 102.922 18.8426 103.028 18.9326C103.465 19.3036 103.575 19.8396 103.677 20.3806C104.054 20.1426 103.833 19.7456 103.966 19.4396C104.393 19.9106 104.364 20.5436 103.816 20.8766C103.394 21.1326 103.271 21.5626 102.821 21.9146C104.131 22.0346 105.212 21.7496 106.221 21.2296C106.88 20.8906 106.413 20.2266 106.514 19.7196C106.552 19.5316 106.206 19.2366 106.55 19.1516C106.879 19.0706 106.887 19.4756 106.935 19.6846C107.006 19.9986 106.98 20.3336 106.995 20.6526C108.007 20.1606 108.343 19.0906 107.779 18.1166C107.685 17.9546 107.423 17.7806 107.643 17.6036C107.9 17.3966 108.037 17.7036 108.168 17.8596C108.437 18.1816 108.516 18.5996 108.523 19.4616C109.105 19.4076 108.807 18.6166 109.318 18.5096C109.525 19.5376 107.787 21.1516 105.466 22.0566C106.135 22.4646 106.758 22.5216 107.425 22.1606C107.614 22.0586 107.898 21.7386 108.05 22.0656C108.188 22.3646 107.823 22.5736 107.567 22.6246C106.95 22.7486 106.363 22.7796 105.704 22.5596C104.04 22.0046 102.39 22.2566 100.842 23.0676C100.611 23.1886 100.222 23.3366 100.444 23.7676Z" fill="black"/>
<path id="Vector_4" d="M74.446 12.9696C74.31 13.0326 74.175 13.0956 74.039 13.1586C73.821 13.2256 73.868 13.4856 73.717 13.6016C73.593 13.4316 73.404 13.4406 73.225 13.4216C73.494 13.1766 73.575 12.8316 73.706 12.5136C73.933 12.2466 73.972 11.9146 74.027 11.5876C74.063 11.6006 74.099 11.6126 74.136 11.6226C74.152 11.9176 74.168 12.2136 74.189 12.6016C74.491 12.2986 74.68 12.0446 74.626 11.6716C75.002 11.3576 75.149 11.5036 75.104 11.9306C75.057 12.3766 74.685 12.6336 74.446 12.9696Z" fill="black"/>
<path id="Vector_5" d="M73.245 10.6953C73.758 10.7723 73.983 11.1003 74.027 11.5873C73.972 11.9143 73.933 12.2463 73.706 12.5133L73.682 12.5273C73.729 12.0853 73.707 11.6583 73.402 11.2973C73.285 11.1133 73.161 10.9313 73.245 10.6953Z" fill="black"/>
<path id="Vector_6" d="M4.184 66.8964C3.438 66.8964 2.728 66.6794 2.056 66.2474C1.381 65.8134 0.876 65.1754 0.541 64.3364C0.421 64.0224 0.341 63.6844 0.306 63.3234C0.271 62.9654 0.25 62.6154 0.25 62.2784V61.8084C0.25 61.6414 0.271 61.4854 0.306 61.3414C0.341 61.1974 0.432 61.1244 0.576 61.1244C0.623 61.1244 0.649 61.1474 0.649 61.1974C0.649 61.3414 0.64 61.4854 0.628 61.6294C0.616 61.7734 0.61 61.9174 0.61 62.0614C0.61 63.1944 0.895 64.0464 1.458 64.6244C2.022 65.1994 2.726 65.4904 3.569 65.4904C4.412 65.4904 5.228 65.2494 6.023 64.7684C6.816 64.2874 7.55 63.6734 8.222 62.9274C8.774 62.3284 9.323 61.5444 9.863 60.5844C10.406 59.6214 10.964 58.5884 11.542 57.4814C10.77 57.5044 9.966 57.5344 9.123 57.5724C8.28 57.6074 7.511 57.6864 6.816 57.8044C6.599 57.8304 6.54 57.7694 6.634 57.6254C6.731 57.4814 6.91 57.2994 7.177 57.0854C7.441 56.8684 7.723 56.6744 8.025 56.5074C8.324 56.3404 8.571 56.2434 8.762 56.2194C9.173 56.2424 9.684 56.2604 10.297 56.2724C10.91 56.2844 11.515 56.3044 12.117 56.3284C12.645 55.3654 13.156 54.3854 13.649 53.3864C14.142 52.3874 14.606 51.4574 15.041 50.5914C15.279 50.1104 15.599 49.6224 15.995 49.1294C16.391 48.6364 16.838 48.1984 17.331 47.8144C17.824 47.4304 18.335 47.1894 18.863 47.0924C17.589 47.1394 16.271 47.1774 14.914 47.2014C13.555 47.2244 12.26 47.4044 11.036 47.7414C10.481 47.8854 9.988 48.0794 9.556 48.3194C9.122 48.5604 8.81 48.8594 8.617 49.2204C8.426 49.5814 8.329 49.9774 8.329 50.4094C8.329 51.0114 8.496 51.4454 8.834 51.7104C8.857 51.7334 8.869 51.7574 8.869 51.7804C8.869 51.8304 8.828 51.8774 8.743 51.9244C8.658 51.9744 8.582 51.9864 8.508 51.9624C8.294 51.8424 8.027 51.5454 7.715 51.0784C7.401 50.6084 7.21 50.2184 7.137 49.9044C7.067 49.6164 7.031 49.3524 7.031 49.1114C7.031 48.4864 7.234 47.9984 7.642 47.6494C8.053 47.3034 8.57 47.0504 9.195 46.8924C9.82 46.7364 10.457 46.6404 11.106 46.6044C11.755 46.5684 12.333 46.5514 12.838 46.5514H16.842C17.755 46.5514 18.548 46.5454 19.223 46.5304C19.895 46.5184 20.435 46.4774 20.846 46.4044C20.893 46.4044 20.928 46.4014 20.955 46.3864C20.978 46.3744 21.002 46.3684 21.025 46.3684C21.169 46.3684 21.242 46.4184 21.242 46.5124C21.242 46.6094 21.201 46.7004 21.116 46.7824C21.031 46.8674 20.966 46.9084 20.916 46.9084C20.17 46.9814 19.475 47.3074 18.826 47.8834C18.177 48.4614 17.587 49.2074 17.059 50.1204C16.912 50.3844 16.648 50.8774 16.263 51.6004C15.878 52.3234 15.459 53.1154 15.001 53.9814C14.546 54.8474 14.123 55.6514 13.739 56.3974C14.197 56.4204 14.576 56.4414 14.875 56.4534C15.177 56.4654 15.351 56.4714 15.398 56.4714H20.703C20.917 56.4714 21.322 56.4334 21.91 56.3624C22.5 56.2894 22.952 56.1804 23.263 56.0364C23.912 54.7854 24.575 53.5474 25.248 52.3224C25.92 51.0954 26.551 49.9944 27.142 49.0194C27.732 48.0474 28.193 47.3434 28.531 46.9084C28.939 46.7414 29.403 46.5384 29.92 46.2974C30.437 46.0564 30.953 45.8394 31.473 45.6454C31.99 45.4544 32.451 45.3574 32.862 45.3574C32.982 45.3574 33.109 45.3924 33.241 45.4664C33.373 45.5404 33.438 45.6104 33.438 45.6834C33.438 45.8034 33.197 45.8624 32.719 45.8624C32.478 45.8624 32.226 45.9064 31.962 45.9884C31.695 46.0734 31.36 46.3314 30.952 46.7634C30.614 47.1014 30.174 47.6734 29.634 48.4774C29.094 49.2844 28.51 50.2214 27.884 51.2894C27.259 52.3614 26.628 53.4854 25.99 54.6624C25.353 55.8424 24.757 56.9904 24.205 58.1094C23.65 59.2274 23.18 60.2374 22.796 61.1394C22.412 62.0414 22.159 62.7334 22.039 63.2154C22.016 63.3824 21.986 63.5704 21.951 63.7734C21.913 63.9784 21.895 64.1754 21.895 64.3694C21.895 64.7544 21.992 65.0914 22.186 65.3794C22.377 65.6674 22.738 65.8114 23.266 65.8114C23.651 65.8114 24.041 65.7414 24.44 65.5974C24.836 65.4504 25.189 65.2954 25.503 65.1274C26.369 64.6464 27.15 63.9914 27.849 63.1604C28.545 62.3324 29.111 61.6284 29.543 61.0494C29.616 60.9554 29.663 60.9054 29.687 60.9054C29.76 60.9054 29.796 60.9904 29.796 61.1574C29.796 61.3014 29.761 61.4334 29.687 61.5534C29.232 62.2054 28.63 62.9564 27.884 63.8084C27.138 64.6624 26.272 65.3674 25.286 65.9194C24.517 66.3274 23.639 66.5334 22.653 66.5334C21.907 66.5334 21.264 66.2634 20.724 65.7234C20.184 65.1804 19.911 64.5254 19.911 63.7564C19.911 63.3714 19.984 62.9874 20.128 62.6024C20.345 62.0474 20.7 61.2554 21.194 60.2214C21.684 59.1884 22.245 58.0434 22.87 56.7924C22.629 57.0094 22.353 57.2034 22.039 57.3704C21.728 57.5374 21.425 57.6114 21.138 57.5874C20.392 57.5144 19.544 57.4734 18.596 57.4614C17.645 57.4494 16.424 57.4434 14.935 57.4434H13.203C12.528 58.8114 11.832 60.1534 11.11 61.4654C10.388 62.7744 9.642 63.8524 8.873 64.6914C8.271 65.3434 7.552 65.8714 6.709 66.2794C5.866 66.6874 5.024 66.8934 4.184 66.8934V66.8964Z" fill="black" stroke="black" stroke-width="0.499" stroke-miterlimit="10"/>
<path id="Vector_7" d="M33.9811 66.2821C33.7401 66.2821 33.5351 66.2351 33.3671 66.1381C33.1991 66.0411 33.1151 65.8621 33.1151 65.5981C33.1151 65.2601 33.2001 64.8762 33.3671 64.4412C33.5341 64.0092 33.7281 63.5841 33.9451 63.1611C34.1591 62.7411 34.3531 62.3981 34.5201 62.1341C33.6771 63.0241 32.8001 63.8661 31.8871 64.6591C31.4321 65.0441 30.9271 65.4051 30.3721 65.7421C29.8201 66.0801 29.2301 66.2472 28.6051 66.2472C28.3641 66.2472 28.1971 66.1681 28.1001 66.0121C28.0031 65.8561 27.9561 65.6691 27.9561 65.4511C27.9561 65.3341 27.9681 65.2481 27.9911 65.1991C28.1111 64.2631 28.4111 63.2881 28.8921 62.2781C29.3731 61.2681 29.9641 60.3201 30.6591 59.4271C31.3581 58.5371 32.0681 57.8181 32.7871 57.2631C33.6061 56.6381 34.5071 56.3271 35.4941 56.3271H39.6421C39.7621 56.3271 39.8241 56.3741 39.8241 56.4711C39.8241 56.6621 39.7151 56.7591 39.4981 56.7591C39.2571 56.7591 39.0171 56.9091 38.7761 57.2111C38.5351 57.5101 38.3561 57.7571 38.2361 57.9511C38.0691 58.2151 37.8021 58.6591 37.4431 59.2841C37.0821 59.9091 36.7151 60.5901 36.3421 61.3242C35.9691 62.0552 35.6491 62.7361 35.3851 63.3611C35.1211 63.9861 34.9891 64.4412 34.9891 64.7322C34.9891 65.0702 35.1561 65.2371 35.4941 65.2371C35.8551 65.2371 36.2631 65.0702 36.7211 64.7322C37.1761 64.3942 37.6401 63.9801 38.1101 63.4871C38.5801 62.9941 39.0111 62.5011 39.4081 62.0071C39.8051 61.5131 40.1241 61.1231 40.3651 60.8361C40.5091 60.9801 40.5031 61.1771 40.3471 61.4291C40.1881 61.6811 40.0501 61.8812 39.9301 62.0252C39.4511 62.6502 38.8971 63.2931 38.2711 63.9571C37.6461 64.6181 36.9681 65.1691 36.2341 65.6161C35.5001 66.0591 34.7491 66.2821 33.9791 66.2821H33.9811ZM30.0851 65.0201C30.3731 65.0201 30.7751 64.8091 31.2951 64.3891C31.8121 63.9691 32.3691 63.4381 32.9711 62.8011C33.5731 62.1641 34.1361 61.4921 34.6651 60.7811C35.1961 60.0731 35.6341 59.4221 35.9831 58.8351C36.3321 58.2451 36.5061 57.7931 36.5061 57.4821C36.5061 57.2181 36.4271 57.0362 36.2711 56.9422C36.1151 56.8452 35.9161 56.7951 35.6751 56.7951C35.2901 56.7951 34.8761 56.9362 34.4331 57.2122C33.9871 57.4882 33.6321 57.7581 33.3671 58.0221C33.0791 58.2861 32.7361 58.7031 32.3401 59.2671C31.9441 59.8341 31.5501 60.4531 31.1661 61.1251C30.7821 61.7971 30.4581 62.4491 30.1941 63.0711C29.9271 63.6991 29.7981 64.2041 29.7981 64.5891C29.7981 64.8771 29.8921 65.0212 30.0861 65.0212L30.0851 65.0201Z" fill="black" stroke="black" stroke-width="0.499" stroke-miterlimit="10"/>
<path id="Vector_8" d="M28.2421 78.7997C27.3291 78.7997 26.4451 78.5887 25.5911 78.1687C24.7401 77.7487 24.1081 77.1057 23.6971 76.2397C23.5531 75.9257 23.4561 75.5937 23.4091 75.2477C23.3621 74.8987 23.3361 74.5547 23.3361 74.2177V73.8217C23.3361 73.6307 23.3621 73.4547 23.4091 73.2987C23.4561 73.1427 23.5761 73.0637 23.7701 73.0637C23.8401 73.0637 23.8791 73.0867 23.8791 73.1367C23.8791 73.2807 23.8611 73.4247 23.8231 73.5687C23.7881 73.7127 23.7701 73.8707 23.7701 74.0387C23.7701 75.1457 24.1251 75.9877 24.8331 76.5637C25.5431 77.1417 26.4271 77.4297 27.4841 77.4297C27.9181 77.4297 28.3651 77.3827 28.8201 77.2857C29.2781 77.1887 29.7101 77.0567 30.1181 76.8897C31.6361 76.2407 32.9571 75.3247 34.0871 74.1477C35.2171 72.9677 36.2041 71.6347 37.0461 70.1437C37.8881 68.6527 38.6311 67.1257 39.2831 65.5607C39.9791 63.8547 40.6451 62.1637 41.2851 60.4937C41.9221 58.8237 42.6351 57.1827 43.4311 55.5707C44.1771 54.0797 44.9691 52.9607 45.8121 52.2157C46.6521 51.4697 47.4941 51.0977 48.3371 51.0977C48.5541 51.0977 48.7631 51.1567 48.9681 51.2767C49.1711 51.3967 49.2621 51.5907 49.2381 51.8547L49.1681 52.8647C49.1681 52.9377 49.1181 52.9737 49.0211 52.9737C48.9981 52.9737 48.9861 52.9617 48.9861 52.9387C48.9861 52.6477 48.8831 52.4517 48.6811 52.3427C48.4761 52.2337 48.2761 52.1817 48.0851 52.1817C47.2661 52.1817 46.5381 52.4637 45.9011 53.0267C45.2641 53.5937 44.7061 54.3217 44.2251 55.2107C43.7441 56.0997 43.3351 57.0307 42.9981 58.0057C42.6611 58.9807 42.3841 59.8757 42.1701 60.6917C42.3371 60.5477 42.6431 60.2487 43.0891 59.7907C43.5321 59.3357 44.0581 58.8427 44.6601 58.3107C45.2591 57.7827 45.8721 57.3277 46.4981 56.9427C47.1241 56.5577 47.7021 56.3647 48.2301 56.3647C48.5411 56.3647 48.7291 56.5027 48.7911 56.7787C48.8501 57.0547 48.8561 57.3157 48.8091 57.5537C48.6891 58.4457 48.3861 59.4057 47.9051 60.4397C47.4241 61.4757 46.8071 62.4567 46.0501 63.3817C45.2931 64.3067 44.4501 65.0577 43.5221 65.6367C42.5971 66.2147 41.6281 66.5027 40.6191 66.5027C40.4991 66.5027 40.3371 66.4967 40.1321 66.4847C39.9291 66.4697 39.8031 66.4407 39.7531 66.3937C39.2481 67.9087 38.5991 69.4587 37.8071 71.0467C37.0111 72.6347 36.0571 74.0707 34.9391 75.3597C33.8211 76.6457 32.4911 77.6147 30.9521 78.2627C30.1361 78.6237 29.2321 78.8027 28.2451 78.8027L28.2421 78.7997ZM41.1591 65.8857C41.5171 65.8857 41.9341 65.7357 42.4041 65.4337C42.8711 65.1347 43.2261 64.8637 43.4671 64.6237C43.7551 64.3597 44.0981 63.9457 44.4941 63.3787C44.8901 62.8147 45.2901 62.1957 45.6861 61.5207C46.0821 60.8487 46.4111 60.1997 46.6781 59.5747C46.9421 58.9497 47.0741 58.4447 47.0741 58.0567C47.0741 57.9397 47.0511 57.8307 47.0011 57.7337C46.9541 57.6367 46.8691 57.5897 46.7491 57.5897C46.5351 57.5897 46.2441 57.7217 45.8831 57.9857C45.5221 58.2497 45.1431 58.5697 44.7471 58.9427C44.3511 59.3157 43.9841 59.6737 43.6461 60.0227C43.3111 60.3717 43.0711 60.6307 42.9271 60.7977C42.6861 61.0887 42.3601 61.5077 41.9521 62.0597C41.5441 62.6147 41.1831 63.1727 40.8691 63.7387C40.5581 64.3027 40.4021 64.7777 40.4021 65.1627C40.4021 65.6437 40.6541 65.8857 41.1591 65.8857Z" fill="black" stroke="black" stroke-width="0.499" stroke-miterlimit="10"/>
<path id="Vector_9" d="M37.439 78.7997C36.526 78.7997 35.642 78.5887 34.788 78.1687C33.937 77.7487 33.305 77.1057 32.894 76.2397C32.75 75.9257 32.653 75.5937 32.606 75.2477C32.559 74.8987 32.533 74.5547 32.533 74.2177V73.8217C32.533 73.6307 32.559 73.4547 32.606 73.2987C32.653 73.1427 32.773 73.0637 32.967 73.0637C33.037 73.0637 33.076 73.0867 33.076 73.1367C33.076 73.2807 33.058 73.4247 33.02 73.5687C32.985 73.7127 32.967 73.8707 32.967 74.0387C32.967 75.1457 33.322 75.9877 34.03 76.5637C34.74 77.1417 35.624 77.4297 36.681 77.4297C37.115 77.4297 37.562 77.3827 38.017 77.2857C38.475 77.1887 38.907 77.0567 39.315 76.8897C40.833 76.2407 42.154 75.3247 43.284 74.1477C44.414 72.9677 45.401 71.6347 46.243 70.1437C47.085 68.6527 47.828 67.1257 48.48 65.5607C49.176 63.8547 49.842 62.1637 50.482 60.4937C51.119 58.8237 51.832 57.1827 52.628 55.5707C53.374 54.0797 54.166 52.9607 55.009 52.2157C55.849 51.4697 56.691 51.0977 57.534 51.0977C57.751 51.0977 57.96 51.1567 58.165 51.2767C58.368 51.3967 58.459 51.5907 58.435 51.8547L58.365 52.8647C58.365 52.9377 58.315 52.9737 58.218 52.9737C58.195 52.9737 58.183 52.9617 58.183 52.9387C58.183 52.6477 58.08 52.4517 57.878 52.3427C57.673 52.2337 57.473 52.1817 57.282 52.1817C56.463 52.1817 55.735 52.4637 55.098 53.0267C54.461 53.5937 53.903 54.3217 53.422 55.2107C52.941 56.0997 52.532 57.0307 52.195 58.0057C51.858 58.9807 51.581 59.8757 51.367 60.6917C51.534 60.5477 51.84 60.2487 52.286 59.7907C52.729 59.3357 53.255 58.8427 53.857 58.3107C54.456 57.7827 55.069 57.3277 55.695 56.9427C56.321 56.5577 56.899 56.3647 57.427 56.3647C57.738 56.3647 57.926 56.5027 57.988 56.7787C58.047 57.0547 58.053 57.3157 58.006 57.5537C57.886 58.4457 57.583 59.4057 57.102 60.4397C56.621 61.4757 56.004 62.4567 55.247 63.3817C54.49 64.3067 53.647 65.0577 52.719 65.6367C51.794 66.2147 50.825 66.5027 49.816 66.5027C49.696 66.5027 49.534 66.4967 49.329 66.4847C49.126 66.4697 49 66.4407 48.95 66.3937C48.445 67.9087 47.796 69.4587 47.004 71.0467C46.208 72.6347 45.254 74.0707 44.136 75.3597C43.018 76.6457 41.688 77.6147 40.149 78.2627C39.333 78.6237 38.429 78.8027 37.442 78.8027L37.439 78.7997ZM50.356 65.8857C50.714 65.8857 51.131 65.7357 51.601 65.4337C52.068 65.1347 52.423 64.8637 52.664 64.6237C52.952 64.3597 53.295 63.9457 53.691 63.3787C54.087 62.8147 54.487 62.1957 54.883 61.5207C55.279 60.8487 55.608 60.1997 55.875 59.5747C56.139 58.9497 56.271 58.4447 56.271 58.0567C56.271 57.9397 56.248 57.8307 56.198 57.7337C56.151 57.6367 56.066 57.5897 55.946 57.5897C55.732 57.5897 55.441 57.7217 55.08 57.9857C54.719 58.2497 54.34 58.5697 53.944 58.9427C53.548 59.3157 53.181 59.6737 52.843 60.0227C52.508 60.3717 52.268 60.6307 52.124 60.7977C51.883 61.0887 51.557 61.5077 51.149 62.0597C50.741 62.6147 50.38 63.1727 50.066 63.7387C49.755 64.3027 49.599 64.7777 49.599 65.1627C49.599 65.6437 49.851 65.8857 50.356 65.8857Z" fill="black" stroke="black" stroke-width="0.499" stroke-miterlimit="10"/>
<path id="Vector_10" d="M54.361 78.7997C53.448 78.7997 52.564 78.5887 51.71 78.1687C50.856 77.7487 50.225 77.1057 49.816 76.2397C49.672 75.9257 49.575 75.5937 49.528 75.2477C49.478 74.8987 49.455 74.5547 49.455 74.2177V73.8217C49.455 73.6307 49.478 73.4547 49.528 73.2987C49.575 73.1427 49.695 73.0637 49.886 73.0637C49.936 73.0637 49.959 73.0867 49.959 73.1367C49.959 73.2807 49.947 73.4247 49.924 73.5687C49.901 73.7127 49.886 73.8707 49.886 74.0387C49.886 75.1457 50.241 75.9877 50.952 76.5637C51.662 77.1417 52.546 77.4297 53.603 77.4297C54.037 77.4297 54.481 77.3827 54.939 77.2857C55.394 77.1887 55.829 77.0567 56.237 76.8897C57.752 76.2407 59.07 75.3187 60.188 74.1297C61.306 72.9377 62.284 71.5957 63.127 70.1077C63.97 68.6167 64.727 67.1017 65.399 65.5607C65.784 64.6477 66.127 63.7577 66.426 62.8917C66.728 62.0257 66.998 61.2447 67.239 60.5457C66.998 60.8837 66.684 61.2917 66.3 61.7727C65.916 62.2537 65.531 62.7177 65.146 63.1617C64.761 63.6077 64.424 63.9627 64.136 64.2277C63.534 64.8027 62.891 65.2907 62.207 65.6867C61.52 66.0857 60.818 66.2827 60.096 66.2827C59.855 66.2827 59.65 66.2357 59.482 66.1387C59.314 66.0417 59.23 65.8627 59.23 65.5987C59.23 65.2607 59.321 64.8647 59.5 64.4067C59.682 63.9517 59.879 63.4937 60.096 63.0357C60.313 62.5807 60.492 62.2077 60.636 61.9177C60.927 61.3657 61.203 60.8137 61.467 60.2587C61.731 59.7067 61.96 59.2367 62.151 58.8527C62.345 58.4917 62.442 58.2507 62.442 58.1307C62.442 57.9397 62.301 57.9397 62.025 58.1307C61.749 58.3247 61.491 58.5157 61.25 58.7087C60.722 59.2137 60.167 59.8067 59.591 60.4937C59.013 61.1777 58.569 61.7267 58.255 62.1347C58.185 62.2317 58.123 62.2787 58.076 62.2787C58.026 62.2787 58.003 62.2197 58.003 62.0997C58.003 61.9057 58.065 61.7267 58.185 61.5567C58.52 61.0777 58.916 60.5467 59.374 59.9717C59.832 59.3937 60.299 58.8417 60.78 58.3097C61.238 57.8307 61.708 57.3617 62.189 56.9037C62.668 56.4487 63.281 56.2197 64.027 56.2197C64.532 56.2197 64.784 56.4107 64.784 56.7947C64.784 57.1327 64.64 57.5167 64.352 57.9517C64.182 58.2157 63.918 58.6597 63.559 59.2847C63.198 59.9097 62.831 60.5907 62.458 61.3247C62.085 62.0557 61.765 62.7367 61.501 63.3617C61.237 63.9867 61.105 64.4417 61.105 64.7327C61.105 65.0707 61.272 65.2377 61.61 65.2377C61.874 65.2377 62.2 65.0997 62.585 64.8207C62.97 64.5447 63.366 64.2157 63.774 63.8317C64.473 63.1567 65.116 62.4107 65.706 61.5947C66.293 60.7757 66.804 59.9947 67.238 59.2487C67.311 59.1287 67.438 58.9107 67.617 58.5997C67.796 58.2857 67.99 57.9857 68.195 57.6987C68.398 57.4077 68.559 57.2407 68.679 57.1937C68.799 57.1437 69.04 57.0117 69.401 56.7947C69.762 56.5807 70.123 56.4337 70.484 56.3627C70.819 56.2897 71.074 56.2537 71.241 56.2537C71.505 56.2537 71.637 56.3267 71.637 56.4707C71.637 56.6617 71.528 56.7587 71.311 56.7587C71.047 56.7587 70.806 56.8267 70.592 56.9587C70.375 57.0907 70.207 57.2527 70.087 57.4457C69.87 57.7567 69.564 58.3237 69.165 59.1397C68.769 59.9587 68.337 60.9007 67.867 61.9727C67.397 63.0417 66.933 64.1247 66.478 65.2197C66.02 66.3117 65.6 67.3157 65.216 68.2317C64.638 69.6027 63.977 70.9417 63.231 72.2537C62.485 73.5627 61.613 74.7427 60.615 75.7887C59.617 76.8347 58.434 77.6587 57.063 78.2607C56.244 78.6217 55.343 78.8007 54.356 78.8007L54.361 78.7997Z" fill="black" stroke="black" stroke-width="0.499" stroke-miterlimit="10"/>
<path id="Vector_11" d="M90.073 67.2565C90.003 67.2565 89.935 67.2335 89.876 67.1835C89.814 67.1365 89.797 67.1015 89.82 67.0745C89.987 66.8605 90.128 66.6255 90.234 66.3725C90.343 66.1205 90.445 65.8615 90.542 65.5975C90.228 63.9125 89.814 62.1565 89.297 60.3305C88.78 58.5015 88.225 56.6665 87.638 54.8295C87.048 52.9885 86.487 51.2395 85.959 49.5805C85.792 49.7005 85.618 49.9885 85.436 50.4465C85.257 50.9015 85.131 51.2395 85.057 51.4565C84.746 52.2725 84.379 53.2295 83.956 54.3245C83.536 55.4195 83.066 56.5465 82.55 57.7155C82.033 58.8805 81.455 60.0225 80.818 61.1415C80.181 62.2605 79.479 63.2755 78.707 64.1885C78.349 64.6465 77.856 65.0485 77.23 65.3985C76.604 65.7485 75.953 66.0235 75.281 66.2295C74.609 66.4325 73.995 66.5345 73.44 66.5345C72.694 66.5345 71.981 66.3235 71.294 65.9035C70.61 65.4835 70.099 64.8405 69.762 63.9745C69.665 63.6605 69.595 63.3315 69.545 62.9825C69.498 62.6335 69.475 62.2895 69.475 61.9555C69.475 61.6175 69.534 61.4505 69.654 61.4505C69.774 61.4505 69.836 61.5445 69.836 61.7385C69.836 62.8685 70.147 63.8055 70.772 64.5505C71.397 65.2955 72.143 65.6685 73.009 65.6685C73.852 65.6685 74.691 65.4655 75.534 65.0545C76.377 64.6465 77.134 64.0825 77.806 63.3605C78.889 62.1565 79.802 60.8825 80.548 59.5355C81.294 58.1905 81.954 56.7935 82.533 55.3525C83.111 53.9085 83.698 52.4665 84.3 51.0225C84.661 50.1095 85.166 49.3165 85.815 48.6415C86.464 47.9695 87.221 47.5495 88.087 47.3795H86.102C85.262 47.3795 84.373 47.4145 83.433 47.4885C82.497 47.5615 81.642 47.7175 80.873 47.9585C80.101 48.1995 79.549 48.5605 79.211 49.0385C79.02 49.3295 78.923 49.6785 78.923 50.0865C78.923 50.5185 79.032 50.9295 79.249 51.3135C79.466 51.6975 79.742 51.9745 80.077 52.1415L80.15 52.2145C80.15 52.2845 80.097 52.3525 79.989 52.4115C79.88 52.4735 79.766 52.4905 79.646 52.4675C79.452 52.3475 79.212 52.1475 78.924 51.8715C78.636 51.5955 78.378 51.3015 78.149 50.9875C77.92 50.6765 77.77 50.4095 77.697 50.1945C77.603 49.9035 77.553 49.6165 77.553 49.3285C77.553 48.7505 77.764 48.2805 78.184 47.9225C78.607 47.5615 79.153 47.2855 79.825 47.0915C80.5 46.8975 81.228 46.7595 82.009 46.6775C82.79 46.5925 83.541 46.5455 84.264 46.5305C84.986 46.5185 85.609 46.5125 86.14 46.5125H90.505C90.625 46.4895 90.631 46.5745 90.523 46.7645C90.414 46.9585 90.282 47.1435 90.127 47.3255C89.968 47.5045 89.842 47.5955 89.748 47.5955C89.507 47.5725 89.14 47.6135 88.647 47.7215C88.154 47.8295 87.81 47.9565 87.62 48.1005C87.69 49.0135 87.864 50.0855 88.143 51.3125C88.419 52.5365 88.751 53.8315 89.135 55.1905C89.52 56.5465 89.945 57.9065 90.415 59.2655C90.885 60.6245 91.346 61.8925 91.804 63.0705C92.189 62.1575 92.62 61.0395 93.102 59.7175C93.583 58.3935 94.094 56.9875 94.637 55.4955C95.177 54.0045 95.741 52.5565 96.331 51.1475C96.921 49.7415 97.508 48.4845 98.098 47.3785C98.688 46.2725 99.272 45.4555 99.848 44.9275C100.139 44.6635 100.485 44.4515 100.896 44.2965C101.304 44.1375 101.689 44.0615 102.05 44.0615C102.385 44.0615 102.675 44.1375 102.916 44.2965C103.154 44.4525 103.262 44.6985 103.239 45.0335L103.204 46.3345C103.204 46.3575 103.142 46.3815 103.025 46.4045C102.902 46.4305 102.855 46.4305 102.878 46.4045C102.901 46.0935 102.784 45.8705 102.52 45.7385C102.253 45.6065 102.039 45.5415 101.868 45.5415C101.363 45.5155 100.829 45.8295 100.265 46.4775C99.698 47.1265 99.114 47.9805 98.515 49.0375C97.913 50.0975 97.323 51.2565 96.745 52.5195C96.17 53.7815 95.621 55.0445 95.104 56.3065C94.587 57.5715 94.123 58.7315 93.715 59.7885C93.307 60.8485 92.969 61.6765 92.705 62.2775C92.464 62.7825 92.344 63.2755 92.344 63.7575V63.9745C92.344 64.0445 92.356 64.1185 92.382 64.1885C92.382 64.2855 92.4 64.3935 92.435 64.5145C92.47 64.6355 92.503 64.7555 92.526 64.8755C92.526 64.8985 92.532 64.9225 92.544 64.9455C92.556 64.9715 92.562 65.0075 92.562 65.0545C92.562 65.2485 92.465 65.4155 92.274 65.5595C92.033 65.7295 91.769 65.8735 91.478 65.9935C91.311 66.0635 91.076 66.2515 90.776 66.5515C90.474 66.8535 90.289 67.0625 90.215 67.1825C90.168 67.2325 90.118 67.2555 90.071 67.2555L90.073 67.2565Z" fill="black" stroke="black" stroke-width="0.499" stroke-miterlimit="10"/>
<path id="Vector_12" d="M98.549 66.4637C97.563 66.4637 96.879 66.2697 96.494 65.8857C96.109 65.5017 95.916 65.0317 95.916 64.4797C95.916 63.7807 96.104 63.0357 96.477 62.2427C96.85 61.4497 97.202 60.7747 97.54 60.2227C97.925 59.6447 98.441 59.0427 99.093 58.4177C99.742 57.7927 100.449 57.2637 101.221 56.8327C101.99 56.3987 102.736 56.1807 103.455 56.1807C104.08 56.1807 104.515 56.3337 104.756 56.6327C104.997 56.9347 105.117 57.2877 105.117 57.6987C105.117 58.4447 104.894 59.0547 104.448 59.5367C104.005 60.0177 103.456 60.4087 102.807 60.7107C102.158 61.0097 101.533 61.2567 100.931 61.4507C100.57 61.5447 100.15 61.6417 99.669 61.7387C99.188 61.8357 98.733 61.8827 98.298 61.8827C98.131 62.3147 97.999 62.7367 97.902 63.1447C97.805 63.5527 97.758 63.9257 97.758 64.2627C97.758 64.6707 97.861 65.0087 98.063 65.2727C98.268 65.5367 98.612 65.6687 99.093 65.6687C99.284 65.6687 99.513 65.6457 99.777 65.5987C100.041 65.5487 100.329 65.4787 100.643 65.3817C101.365 65.1407 102.073 64.7567 102.771 64.2277C103.467 63.6997 104.11 63.1267 104.7 62.5137C105.29 61.9007 105.742 61.3897 106.053 60.9817C106.126 61.0517 106.162 61.1377 106.162 61.2337C106.162 61.3537 106.077 61.5447 105.91 61.8087C105.429 62.4837 104.803 63.1797 104.034 63.9017C103.265 64.6237 102.411 65.2317 101.474 65.7247C100.535 66.2147 99.56 66.4647 98.55 66.4647L98.549 66.4637ZM98.584 61.1587C98.898 61.1817 99.253 61.1767 99.65 61.1407C100.047 61.1047 100.437 61.0267 100.821 60.9057C101.807 60.6177 102.524 60.1537 102.967 59.5167C103.413 58.8797 103.636 58.3067 103.636 57.8027C103.636 57.5147 103.574 57.2747 103.454 57.0837C103.334 56.8897 103.143 56.7927 102.879 56.7927C102.18 56.7927 101.555 57.0507 101.003 57.5707C100.448 58.0877 99.967 58.6837 99.559 59.3557C99.151 60.0277 98.825 60.6297 98.584 61.1587Z" fill="black" stroke="black" stroke-width="0.499" stroke-miterlimit="10"/>
<path id="Vector_13" d="M108.433 66.3912C108.098 66.3912 107.808 66.2712 107.567 66.0302C107.329 65.7892 107.209 65.3692 107.209 64.7682C107.209 64.2402 107.25 63.6142 107.335 62.8922C107.417 62.1702 107.543 61.4302 107.714 60.6732C107.881 59.9162 108.075 59.2492 108.289 58.6712C107.881 59.2732 107.423 59.8922 106.918 60.5292C106.413 61.1662 105.993 61.7032 105.656 62.1352C105.586 62.2322 105.524 62.2792 105.477 62.2792C105.427 62.2792 105.404 62.2202 105.404 62.1002C105.404 61.9062 105.466 61.7272 105.586 61.5572C106.091 60.8612 106.66 60.0692 107.298 59.1762C107.935 58.2862 108.484 57.4822 108.939 56.7602C109.203 56.7132 109.523 56.6402 109.896 56.5432C110.269 56.4492 110.539 56.3172 110.709 56.1472C110.826 56.0772 110.9 56.0382 110.923 56.0382C110.996 56.0382 111.032 56.0822 111.032 56.1642C111.032 56.2492 110.997 56.3402 110.923 56.4342C110.709 56.7482 110.468 57.2352 110.204 57.8962C109.937 58.5592 109.684 59.2902 109.444 60.0982C109.203 60.9022 109.007 61.6922 108.851 62.4612C108.692 63.2302 108.616 63.8672 108.616 64.3722C108.616 64.7572 108.681 65.0212 108.813 65.1652C108.945 65.3092 109.098 65.3822 109.265 65.3822C109.603 65.3822 109.955 65.2262 110.331 64.9122C110.701 64.6012 111.074 64.2162 111.447 63.7582C111.82 63.3002 112.152 62.8572 112.439 62.4222C112.73 61.9902 112.944 61.6532 113.091 61.4122C113.57 60.6432 114.033 59.8062 114.48 58.9052C114.923 58.0042 115.302 57.2872 115.616 56.7592C115.88 56.7122 116.197 56.6392 116.57 56.5422C116.943 56.4482 117.225 56.3162 117.418 56.1462C117.491 56.0762 117.55 56.0372 117.6 56.0372C117.67 56.0372 117.712 56.0812 117.726 56.1632C117.738 56.2482 117.705 56.3392 117.635 56.4332C117.418 56.7472 117.189 57.2292 116.948 57.8772C116.707 58.5252 116.475 59.2422 116.246 60.0232C116.017 60.8042 115.829 61.5762 115.685 62.3332C115.541 63.0902 115.471 63.7332 115.471 64.2622C115.471 64.9842 115.735 65.3452 116.264 65.3452C116.625 65.3452 117.027 65.2132 117.474 64.9462C117.917 64.6822 118.284 64.4062 118.572 64.1182C119.391 63.2752 120.075 62.4482 120.63 61.6292C121.182 60.8132 121.652 59.8732 122.036 58.8142C122.18 58.4562 122.277 58.1362 122.324 57.8602C122.374 57.5842 122.397 57.3262 122.397 57.0852C122.397 56.7472 122.341 56.4772 122.236 56.2722C122.127 56.0692 122.013 55.9552 121.893 55.9292C121.773 55.8822 121.711 55.8232 121.711 55.7502C121.711 55.7032 121.773 55.6472 121.893 55.5892C122.013 55.5272 122.145 55.5102 122.289 55.5332C122.674 55.6302 123.005 55.8032 123.281 56.0562C123.557 56.3092 123.695 56.6752 123.695 57.1572C123.695 57.5422 123.61 57.9532 123.443 58.3842C123.105 59.2742 122.621 60.1952 121.984 61.1442C121.344 62.0952 120.631 62.9792 119.835 63.7952C119.042 64.6142 118.212 65.2752 117.348 65.7802C117.034 65.9472 116.708 66.0942 116.373 66.2142C116.035 66.3312 115.71 66.3932 115.398 66.3932C115.013 66.3932 114.682 66.2732 114.406 66.0322C114.13 65.7912 113.992 65.3712 113.992 64.7702C113.992 64.1452 114.057 63.3992 114.189 62.5332C114.321 61.6672 114.497 60.8272 114.714 60.0082C114.544 60.2722 114.382 60.5542 114.227 60.8562C114.068 61.1552 113.895 61.4642 113.702 61.7752C113.103 62.6412 112.484 63.4602 111.847 64.2292C111.207 64.9982 110.661 65.5152 110.206 65.7792C109.915 65.9462 109.616 66.0932 109.302 66.2132C108.991 66.3302 108.7 66.3922 108.436 66.3922L108.433 66.3912Z" fill="black" stroke="black" stroke-width="0.499" stroke-miterlimit="10"/>
<path id="Vector_14" d="M126.4 66.8964C125.654 66.8964 124.944 66.6794 124.272 66.2474C123.597 65.8134 123.092 65.1754 122.757 64.3364C122.637 64.0224 122.557 63.6844 122.522 63.3234C122.487 62.9654 122.466 62.6154 122.466 62.2784V61.8084C122.466 61.6414 122.487 61.4854 122.522 61.3414C122.557 61.1974 122.648 61.1244 122.792 61.1244C122.839 61.1244 122.865 61.1474 122.865 61.1974C122.865 61.3414 122.856 61.4854 122.844 61.6294C122.832 61.7734 122.826 61.9174 122.826 62.0614C122.826 63.1944 123.111 64.0464 123.674 64.6244C124.238 65.1994 124.942 65.4904 125.785 65.4904C126.628 65.4904 127.444 65.2494 128.239 64.7684C129.032 64.2874 129.766 63.6734 130.438 62.9274C130.99 62.3284 131.539 61.5444 132.079 60.5844C132.622 59.6214 133.18 58.5884 133.758 57.4814C132.986 57.5044 132.182 57.5344 131.339 57.5724C130.496 57.6074 129.727 57.6864 129.032 57.8044C128.815 57.8304 128.756 57.7694 128.85 57.6254C128.947 57.4814 129.126 57.2994 129.393 57.0854C129.657 56.8684 129.939 56.6744 130.241 56.5074C130.54 56.3404 130.787 56.2434 130.978 56.2194C131.389 56.2424 131.9 56.2604 132.513 56.2724C133.126 56.2844 133.731 56.3044 134.333 56.3284C134.861 55.3654 135.372 54.3854 135.865 53.3864C136.358 52.3884 136.822 51.4574 137.257 50.5914C137.495 50.1104 137.815 49.6224 138.211 49.1294C138.607 48.6364 139.054 48.1984 139.547 47.8144C140.04 47.4304 140.551 47.1894 141.079 47.0924C139.805 47.1394 138.487 47.1774 137.13 47.2014C135.771 47.2244 134.476 47.4044 133.252 47.7414C132.697 47.8854 132.204 48.0794 131.772 48.3194C131.338 48.5604 131.026 48.8594 130.833 49.2204C130.642 49.5814 130.545 49.9774 130.545 50.4094C130.545 51.0114 130.712 51.4454 131.05 51.7104C131.073 51.7334 131.085 51.7574 131.085 51.7804C131.085 51.8304 131.044 51.8774 130.959 51.9244C130.874 51.9744 130.798 51.9864 130.724 51.9624C130.51 51.8424 130.243 51.5454 129.931 51.0784C129.617 50.6084 129.426 50.2184 129.353 49.9044C129.283 49.6164 129.247 49.3524 129.247 49.1114C129.247 48.4864 129.45 47.9984 129.858 47.6494C130.269 47.3034 130.786 47.0504 131.411 46.8924C132.036 46.7364 132.673 46.6404 133.322 46.6044C133.971 46.5684 134.549 46.5514 135.054 46.5514H139.058C139.971 46.5514 140.764 46.5454 141.439 46.5304C142.111 46.5184 142.651 46.4774 143.062 46.4044C143.109 46.4044 143.144 46.4014 143.171 46.3864C143.194 46.3744 143.218 46.3684 143.241 46.3684C143.385 46.3684 143.458 46.4184 143.458 46.5124C143.458 46.6094 143.417 46.7004 143.332 46.7824C143.247 46.8674 143.182 46.9084 143.132 46.9084C142.386 46.9814 141.691 47.3074 141.042 47.8834C140.393 48.4614 139.803 49.2074 139.275 50.1204C139.128 50.3844 138.864 50.8774 138.479 51.6004C138.094 52.3234 137.675 53.1154 137.217 53.9814C136.762 54.8474 136.339 55.6514 135.955 56.3974C136.413 56.4204 136.792 56.4414 137.091 56.4534C137.393 56.4654 137.567 56.4714 137.614 56.4714H142.919C143.133 56.4714 143.538 56.4334 144.126 56.3624C144.716 56.2894 145.168 56.1804 145.479 56.0364C146.128 54.7854 146.791 53.5474 147.464 52.3224C148.136 51.0954 148.767 49.9944 149.358 49.0194C149.948 48.0474 150.409 47.3434 150.747 46.9084C151.155 46.7414 151.619 46.5384 152.136 46.2974C152.653 46.0564 153.169 45.8394 153.689 45.6454C154.206 45.4544 154.667 45.3574 155.078 45.3574C155.198 45.3574 155.325 45.3924 155.457 45.4664C155.589 45.5404 155.654 45.6104 155.654 45.6834C155.654 45.8034 155.413 45.8624 154.935 45.8624C154.694 45.8624 154.442 45.9064 154.178 45.9884C153.911 46.0734 153.576 46.3314 153.168 46.7634C152.83 47.1014 152.39 47.6734 151.85 48.4774C151.31 49.2844 150.726 50.2214 150.1 51.2894C149.475 52.3614 148.844 53.4854 148.206 54.6624C147.569 55.8424 146.973 56.9904 146.421 58.1094C145.866 59.2274 145.396 60.2374 145.012 61.1394C144.628 62.0414 144.375 62.7334 144.255 63.2154C144.232 63.3824 144.202 63.5704 144.167 63.7734C144.129 63.9784 144.111 64.1754 144.111 64.3694C144.111 64.7544 144.208 65.0914 144.402 65.3794C144.593 65.6674 144.954 65.8114 145.482 65.8114C145.867 65.8114 146.257 65.7414 146.656 65.5974C147.052 65.4504 147.405 65.2954 147.719 65.1274C148.585 64.6464 149.366 63.9914 150.065 63.1604C150.761 62.3324 151.327 61.6284 151.759 61.0494C151.832 60.9554 151.879 60.9054 151.903 60.9054C151.976 60.9054 152.012 60.9904 152.012 61.1574C152.012 61.3014 151.977 61.4334 151.903 61.5534C151.448 62.2054 150.846 62.9564 150.1 63.8084C149.354 64.6624 148.488 65.3674 147.502 65.9194C146.733 66.3274 145.855 66.5334 144.869 66.5334C144.123 66.5334 143.48 66.2634 142.94 65.7234C142.4 65.1804 142.127 64.5254 142.127 63.7564C142.127 63.3714 142.2 62.9874 142.344 62.6024C142.561 62.0474 142.916 61.2554 143.41 60.2214C143.9 59.1884 144.461 58.0434 145.086 56.7924C144.845 57.0094 144.569 57.2034 144.255 57.3704C143.944 57.5374 143.641 57.6114 143.354 57.5874C142.608 57.5144 141.76 57.4734 140.812 57.4614C139.861 57.4494 138.64 57.4434 137.151 57.4434H135.419C134.744 58.8114 134.048 60.1534 133.326 61.4654C132.604 62.7744 131.858 63.8524 131.089 64.6914C130.487 65.3434 129.768 65.8714 128.925 66.2794C128.082 66.6874 127.24 66.8934 126.4 66.8934V66.8964Z" fill="black" stroke="black" stroke-width="0.499" stroke-miterlimit="10"/>
<path id="Vector_15" d="M153.346 66.4637C152.36 66.4637 151.676 66.2697 151.291 65.8857C150.906 65.5017 150.713 65.0317 150.713 64.4797C150.713 63.7807 150.901 63.0357 151.274 62.2427C151.647 61.4497 151.999 60.7747 152.337 60.2227C152.722 59.6447 153.238 59.0427 153.89 58.4177C154.539 57.7927 155.246 57.2637 156.018 56.8327C156.787 56.3987 157.533 56.1807 158.252 56.1807C158.877 56.1807 159.312 56.3337 159.553 56.6327C159.794 56.9347 159.914 57.2877 159.914 57.6987C159.914 58.4447 159.691 59.0547 159.245 59.5367C158.802 60.0177 158.253 60.4087 157.604 60.7107C156.955 61.0097 156.33 61.2567 155.728 61.4507C155.367 61.5447 154.947 61.6417 154.466 61.7387C153.985 61.8357 153.53 61.8827 153.095 61.8827C152.928 62.3147 152.796 62.7367 152.699 63.1447C152.602 63.5527 152.555 63.9257 152.555 64.2627C152.555 64.6707 152.658 65.0087 152.86 65.2727C153.065 65.5367 153.409 65.6687 153.89 65.6687C154.081 65.6687 154.31 65.6457 154.574 65.5987C154.838 65.5487 155.126 65.4787 155.44 65.3817C156.162 65.1407 156.87 64.7567 157.568 64.2277C158.264 63.6997 158.907 63.1267 159.497 62.5137C160.087 61.9007 160.539 61.3897 160.85 60.9817C160.923 61.0517 160.959 61.1377 160.959 61.2337C160.959 61.3537 160.874 61.5447 160.707 61.8087C160.226 62.4837 159.6 63.1797 158.831 63.9017C158.062 64.6237 157.208 65.2317 156.271 65.7247C155.332 66.2147 154.357 66.4647 153.347 66.4647L153.346 66.4637ZM153.381 61.1587C153.695 61.1817 154.05 61.1767 154.447 61.1407C154.844 61.1047 155.234 61.0267 155.618 60.9057C156.604 60.6177 157.321 60.1537 157.764 59.5167C158.21 58.8797 158.433 58.3067 158.433 57.8027C158.433 57.5147 158.371 57.2747 158.251 57.0837C158.131 56.8897 157.94 56.7927 157.676 56.7927C156.977 56.7927 156.352 57.0507 155.8 57.5707C155.245 58.0877 154.764 58.6837 154.356 59.3557C153.948 60.0277 153.622 60.6297 153.381 61.1587Z" fill="black" stroke="black" stroke-width="0.499" stroke-miterlimit="10"/>
<path id="Vector_16" d="M160.489 66.6788C160.392 66.6788 160.392 66.5818 160.489 66.3908C160.606 66.1738 160.721 65.9328 160.83 65.6688C160.939 65.4048 161.053 65.1168 161.173 64.8028C161.414 64.2278 161.678 63.5788 161.966 62.8568C162.257 62.1348 162.533 61.4298 162.797 60.7458C163.061 60.0588 163.296 59.4718 163.502 58.9788C163.705 58.4858 163.843 58.1658 163.916 58.0218C163.578 58.3828 163.176 58.8348 162.706 59.3748C162.236 59.9148 161.799 60.4378 161.391 60.9428C160.98 61.4508 160.669 61.8468 160.452 62.1348C160.382 62.2318 160.32 62.2788 160.273 62.2788C160.223 62.2788 160.2 62.2198 160.2 62.0998C160.2 61.9058 160.262 61.7268 160.382 61.5568C160.837 60.9818 161.348 60.3328 161.914 59.6108C162.478 58.8888 162.988 58.2218 163.446 57.6088C163.904 56.9958 164.192 56.5928 164.312 56.3988C164.576 56.3518 164.967 56.2788 165.483 56.1818C166 56.0878 166.355 55.9558 166.549 55.7858C166.619 55.7158 166.693 55.6768 166.766 55.6768C166.813 55.6768 166.842 55.7208 166.854 55.8028C166.866 55.8878 166.836 55.9788 166.766 56.0758C166.619 56.2198 166.411 56.5308 166.135 57.0118C165.856 57.4928 165.551 58.0448 165.213 58.6708C164.875 59.2968 164.552 59.8978 164.238 60.4758C164.479 60.1148 164.799 59.6888 165.195 59.1958C165.591 58.7028 166.032 58.2208 166.513 57.7518C166.992 57.2818 167.479 56.8918 167.972 56.5808C168.465 56.2668 168.929 56.1108 169.361 56.1108C169.675 56.1108 169.939 56.1788 170.157 56.3078C170.371 56.4428 170.542 56.6748 170.662 57.0128C170.732 57.1828 170.771 57.3738 170.771 57.5908C170.771 57.9988 170.668 58.3898 170.463 58.7618C170.258 59.1338 170.108 59.4168 170.014 59.6098C169.988 59.6798 169.905 59.7478 169.762 59.8068C169.615 59.8688 169.557 59.8508 169.58 59.7538C169.603 59.6338 169.621 59.5128 169.636 59.3928C169.648 59.2728 169.654 59.1408 169.654 58.9968C169.654 58.5888 169.575 58.2158 169.419 57.8788C169.26 57.5408 168.979 57.3738 168.571 57.3738C168.186 57.3738 167.717 57.6148 167.165 58.0958C166.61 58.5768 166.058 59.1288 165.506 59.7548C164.807 60.5738 164.255 61.3488 163.844 62.0828C163.436 62.8168 163.098 63.5298 162.834 64.2288C162.69 64.6138 162.546 64.9918 162.402 65.3648C162.258 65.7378 162.15 66.0308 162.076 66.2488C161.765 66.2718 161.451 66.3518 161.14 66.4838C160.826 66.6158 160.609 66.6808 160.491 66.6808L160.489 66.6788Z" fill="black" stroke="black" stroke-width="0.499" stroke-miterlimit="10"/>
<path id="Vector_17" d="M172.138 66.4637C171.152 66.4637 170.468 66.2697 170.083 65.8857C169.698 65.5017 169.505 65.0317 169.505 64.4797C169.505 63.7807 169.693 63.0357 170.066 62.2427C170.439 61.4497 170.791 60.7747 171.129 60.2227C171.514 59.6447 172.03 59.0427 172.682 58.4177C173.331 57.7927 174.038 57.2637 174.81 56.8327C175.579 56.3987 176.325 56.1807 177.044 56.1807C177.669 56.1807 178.104 56.3337 178.345 56.6327C178.586 56.9347 178.706 57.2877 178.706 57.6987C178.706 58.4447 178.483 59.0547 178.037 59.5367C177.594 60.0177 177.045 60.4087 176.396 60.7107C175.747 61.0097 175.122 61.2567 174.52 61.4507C174.159 61.5447 173.739 61.6417 173.258 61.7387C172.777 61.8357 172.322 61.8827 171.887 61.8827C171.72 62.3147 171.588 62.7367 171.491 63.1447C171.394 63.5527 171.347 63.9257 171.347 64.2627C171.347 64.6707 171.45 65.0087 171.652 65.2727C171.857 65.5367 172.201 65.6687 172.682 65.6687C172.873 65.6687 173.102 65.6457 173.366 65.5987C173.63 65.5487 173.918 65.4787 174.232 65.3817C174.954 65.1407 175.662 64.7567 176.36 64.2277C177.056 63.6997 177.699 63.1267 178.289 62.5137C178.879 61.9007 179.331 61.3897 179.642 60.9817C179.715 61.0517 179.751 61.1377 179.751 61.2337C179.751 61.3537 179.666 61.5447 179.499 61.8087C179.018 62.4837 178.392 63.1797 177.623 63.9017C176.854 64.6237 176 65.2317 175.063 65.7247C174.124 66.2147 173.149 66.4647 172.139 66.4647L172.138 66.4637ZM172.173 61.1587C172.487 61.1817 172.842 61.1767 173.239 61.1407C173.636 61.1047 174.026 61.0267 174.41 60.9057C175.396 60.6177 176.113 60.1537 176.556 59.5167C177.002 58.8797 177.225 58.3067 177.225 57.8027C177.225 57.5147 177.163 57.2747 177.043 57.0837C176.923 56.8897 176.732 56.7927 176.468 56.7927C175.769 56.7927 175.144 57.0507 174.592 57.5707C174.037 58.0877 173.556 58.6837 173.148 59.3557C172.74 60.0277 172.414 60.6297 172.173 61.1587Z" fill="black" stroke="black" stroke-width="0.499" stroke-miterlimit="10"/>
</g>
</svg>
