<svg xmlns="http://www.w3.org/2000/svg" width="16" height="16" viewBox="0 0 16 16" fill="none">
  <path d="M7.96666 11.9997C8.2 11.9997 8.39733 11.919 8.55866 11.7577C8.72 11.5963 8.80044 11.3992 8.79999 11.1663C8.79999 10.933 8.71955 10.7357 8.55866 10.5743C8.39777 10.413 8.20044 10.3326 7.96666 10.333C7.73333 10.333 7.53622 10.4137 7.37533 10.575C7.21444 10.7363 7.13377 10.9335 7.13333 11.1663C7.13333 11.3997 7.21399 11.597 7.37533 11.7583C7.53666 11.9197 7.73377 12.0001 7.96666 11.9997ZM7.36666 9.43301H8.59999C8.59999 9.06634 8.64177 8.77745 8.72533 8.56634C8.80888 8.35523 9.04488 8.06634 9.43333 7.69967C9.72222 7.41079 9.95 7.13567 10.1167 6.87434C10.2833 6.61301 10.3667 6.29923 10.3667 5.93301C10.3667 5.31079 10.1389 4.83301 9.68333 4.49967C9.22777 4.16634 8.68888 3.99967 8.06666 3.99967C7.43333 3.99967 6.91955 4.16634 6.52533 4.49967C6.13111 4.83301 5.856 5.23301 5.7 5.69967L6.79999 6.13301C6.85555 5.93301 6.98066 5.71634 7.17533 5.48301C7.36999 5.24967 7.66711 5.13301 8.06666 5.13301C8.42222 5.13301 8.68888 5.23034 8.86666 5.42501C9.04444 5.61967 9.13333 5.83345 9.13333 6.06634C9.13333 6.28856 9.06666 6.49701 8.93333 6.69167C8.79999 6.88634 8.63333 7.06679 8.43333 7.23301C7.94444 7.66634 7.64444 7.99412 7.53333 8.21634C7.42222 8.43856 7.36666 8.84412 7.36666 9.43301ZM8 14.6663C7.07777 14.6663 6.21111 14.4915 5.4 14.1417C4.58888 13.7919 3.88333 13.3168 3.28333 12.7163C2.68333 12.1163 2.20844 11.4108 1.85866 10.5997C1.50888 9.78856 1.33377 8.9219 1.33333 7.99967C1.33333 7.07745 1.50844 6.21079 1.85866 5.39967C2.20888 4.58856 2.68377 3.88301 3.28333 3.28301C3.88333 2.68301 4.58888 2.20812 5.4 1.85834C6.21111 1.50856 7.07777 1.33345 8 1.33301C8.92222 1.33301 9.78888 1.50812 10.6 1.85834C11.4111 2.20856 12.1167 2.68345 12.7167 3.28301C13.3167 3.88301 13.7918 4.58856 14.142 5.39967C14.4922 6.21079 14.6671 7.07745 14.6667 7.99967C14.6667 8.9219 14.4916 9.78856 14.1413 10.5997C13.7911 11.4108 13.3162 12.1163 12.7167 12.7163C12.1167 13.3163 11.4111 13.7915 10.6 14.1417C9.78888 14.4919 8.92222 14.6668 8 14.6663ZM8 13.333C9.48888 13.333 10.75 12.8163 11.7833 11.783C12.8167 10.7497 13.3333 9.48856 13.3333 7.99967C13.3333 6.51079 12.8167 5.24967 11.7833 4.21634C10.75 3.18301 9.48888 2.66634 8 2.66634C6.51111 2.66634 5.24999 3.18301 4.21666 4.21634C3.18333 5.24967 2.66666 6.51079 2.66666 7.99967C2.66666 9.48856 3.18333 10.7497 4.21666 11.783C5.24999 12.8163 6.51111 13.333 8 13.333Z" fill="#9A0501"/>
</svg>