<svg width="21" height="20" viewBox="0 0 21 20" fill="none" xmlns="http://www.w3.org/2000/svg">
<path d="M19.8334 19L13.8334 13M1.83337 8C1.83337 8.91925 2.01443 9.82951 2.36622 10.6788C2.718 11.5281 3.23362 12.2997 3.88363 12.9497C4.53364 13.5998 5.30531 14.1154 6.15459 14.4672C7.00387 14.8189 7.91412 15 8.83337 15C9.75263 15 10.6629 14.8189 11.5122 14.4672C12.3614 14.1154 13.1331 13.5998 13.7831 12.9497C14.4331 12.2997 14.9487 11.5281 15.3005 10.6788C15.6523 9.82951 15.8334 8.91925 15.8334 8C15.8334 7.08075 15.6523 6.1705 15.3005 5.32122C14.9487 4.47194 14.4331 3.70026 13.7831 3.05025C13.1331 2.40024 12.3614 1.88463 11.5122 1.53284C10.6629 1.18106 9.75263 1 8.83337 1C7.91412 1 7.00387 1.18106 6.15459 1.53284C5.30531 1.88463 4.53364 2.40024 3.88363 3.05025C3.23362 3.70026 2.718 4.47194 2.36622 5.32122C2.01443 6.1705 1.83337 7.08075 1.83337 8Z" stroke="#909090" stroke-width="2" stroke-linecap="round" stroke-linejoin="round"/>
</svg>
