<svg width="12" height="15" viewBox="0 0 12 15" fill="none" xmlns="http://www.w3.org/2000/svg">
<path d="M11.5694 1.69363C11.5776 1.55471 11.547 1.41625 11.481 1.29373C11.415 1.17121 11.3162 1.06947 11.1957 0.999891C11.0752 0.930309 10.9377 0.895631 10.7986 0.899736C10.6595 0.90384 10.5243 0.946565 10.4081 1.02313L0.611433 7.4914C0.489923 7.57158 0.394372 7.68539 0.336439 7.81894C0.278506 7.9525 0.260694 8.10003 0.285176 8.24353C0.309658 8.38704 0.375375 8.52032 0.474311 8.62711C0.573248 8.7339 0.701126 8.80959 0.842346 8.84495L4.62582 9.79179C4.78397 9.83133 4.95069 9.81827 5.10075 9.75458C5.25082 9.69089 5.37604 9.58005 5.45747 9.43883L7.1716 6.46987C7.27105 6.29761 7.43487 6.17191 7.627 6.12043C7.81914 6.06895 8.02385 6.0959 8.19612 6.19535C8.36838 6.29481 8.49408 6.45862 8.54556 6.65076C8.59704 6.84289 8.57009 7.04761 8.47064 7.21987L6.75651 10.1888C6.67492 10.33 6.64154 10.4938 6.66142 10.6556C6.68129 10.8174 6.75334 10.9684 6.86666 11.0855L9.57876 13.8881C9.67991 13.9927 9.80933 14.0657 9.95124 14.0981C10.0932 14.1305 10.2414 14.1208 10.378 14.0704C10.5145 14.02 10.6334 13.9309 10.7202 13.814C10.807 13.6972 10.8579 13.5576 10.8667 13.4123L11.5694 1.69363Z" fill="white"/>
</svg>
