<svg width="170" height="299" viewBox="0 0 170 299" fill="none" xmlns="http://www.w3.org/2000/svg">
<path d="M99.8801 187.713C95.1226 180.918 77.6992 180.759 72.1564 182.647C58.6172 187.266 57.7729 197.11 57.8822 199.583C57.8822 199.583 61.7959 195.133 63.9812 193.623C66.1666 192.113 69.0671 190.007 72.8219 188.795C76.5767 187.583 81.9109 186.312 86.1628 186.014C93.7414 185.497 99.8801 187.713 99.8801 187.713Z" fill="#D13535"/>
<path d="M107.807 201.817C107.805 201.761 107.799 201.704 107.788 201.649C107.013 196.841 105.234 191.109 100.507 188.884C95.1525 182.269 81.5534 182.06 73.8054 183.471C66.6435 185.298 59.6604 190.424 58.1008 197.983C58.0413 198.52 57.6241 200.198 57.7731 201.132C54.7235 205.642 54.048 217.333 62.0643 212.844C65.1734 211.284 67.2098 208.393 69.9215 206.307C78.3847 200.228 89.5595 197.328 99.5326 201.291C101.43 201.917 103.297 202.622 105.225 203.089C106.407 203.546 107.907 203.397 107.807 201.817ZM73.1697 184.663C77.7887 183.49 82.8548 183.6 87.5629 184.156C90.0661 184.494 92.6195 185.06 94.9536 186.023C96.215 186.55 97.5861 187.335 98.629 188.268C84.9507 184.365 68.1236 189.033 58.816 199.841C59.422 192.44 65.9879 186.749 73.1697 184.663ZM106.446 202.334C104.956 202.056 103.517 201.589 102.086 201.102C94.7454 198.192 86.4808 197.318 79.0503 200.447C74.6498 202.125 70.2791 204.251 66.9217 207.619C65.9383 208.582 64.7661 209.804 63.8125 210.539C62.5212 211.512 60.763 212.605 59.3525 212.824C58.8558 212.873 58.5379 212.863 58.0909 212.685C57.644 212.506 57.2764 212.098 57.038 211.493C56.6208 210.311 56.5513 208.93 56.7102 207.529C56.7305 207.468 56.7407 207.405 56.74 207.34C56.74 207.311 56.7499 207.271 56.7499 207.241C56.7712 207.108 56.8078 206.978 56.8592 206.854L56.9386 206.715C56.9884 206.625 57.0479 206.536 57.1075 206.446L57.1274 206.427C57.6638 205.751 58.379 205.235 59.0445 204.698C59.7101 204.162 60.6338 203.556 61.4683 203.218C61.6669 203.119 62.7 202.821 62.9086 202.821C63.314 202.768 63.7243 202.764 64.1304 202.811C64.329 202.841 64.5278 202.89 64.7264 202.94C65.3422 203.119 65.6105 202.155 64.9946 201.986C63.4252 201.519 61.7563 201.907 60.3458 202.652C59.4419 203.248 58.2101 203.963 57.2466 204.837C57.4254 204.221 57.634 203.615 57.8625 203.039C57.9221 202.821 58.5082 201.738 58.6273 201.629L58.6472 201.609C58.6691 201.59 58.6861 201.566 58.6969 201.539C66.9714 191.04 81.2456 186.669 94.2481 188.268C96.6324 188.636 99.6218 189.172 101.658 190.712C104.897 193.444 106.178 197.854 106.824 201.897C106.834 202.125 106.735 202.423 106.446 202.334Z" fill="#452D34"/>
<path d="M111.89 274.589C115.162 269.442 116.893 263.465 116.877 257.365C116.877 252.071 115.654 247.044 113.24 242.435C111.001 238.172 107.831 234.467 103.963 231.598C108.049 226.947 110.296 220.962 110.281 214.771C110.281 210.092 109.297 206.546 106.893 202.553C106.857 202.49 106.807 202.436 106.75 202.393C106.692 202.349 106.626 202.318 106.555 202.301C106.485 202.283 106.412 202.28 106.34 202.29C106.269 202.301 106.2 202.326 106.139 202.364C106.077 202.401 106.024 202.449 105.981 202.507C105.94 202.564 105.909 202.63 105.892 202.699C105.876 202.768 105.873 202.84 105.884 202.911C105.896 202.981 105.922 203.049 105.959 203.109C108.254 206.923 109.187 210.301 109.187 214.771C109.187 228.27 98.2012 239.256 84.7021 239.256C71.2027 239.256 60.2065 228.27 60.2065 214.771V214.284C60.1941 213.989 60.2041 213.694 60.2363 213.4C60.2428 213.328 60.2351 213.256 60.2137 213.187C60.1923 213.118 60.1575 213.054 60.1114 212.999C60.0653 212.944 60.0087 212.898 59.945 212.865C59.8811 212.831 59.8114 212.811 59.7397 212.804C59.5948 212.791 59.4505 212.836 59.3387 212.929C59.227 213.022 59.1568 213.156 59.1437 213.301C59.1115 213.634 59.1016 213.969 59.1138 214.304V214.771C59.0984 220.962 61.345 226.947 65.4315 231.598C61.5689 234.474 58.4016 238.181 56.1636 242.446C53.7498 247.054 52.528 252.08 52.528 257.365C52.528 263.554 54.2564 269.484 57.5046 274.58C50.1937 281.662 46.3396 291.009 46.3396 301.648C46.3396 301.793 46.3971 301.932 46.4996 302.034C46.6021 302.137 46.741 302.195 46.8859 302.195C47.0308 302.195 47.1698 302.137 47.2722 302.034C47.3746 301.932 47.4323 301.793 47.4323 301.648C47.4323 291.377 51.1274 282.357 58.1205 275.513C59.2552 277.16 60.5351 278.703 61.9448 280.123C67.9814 286.153 76.1648 289.54 84.6971 289.54C93.2296 289.54 101.413 286.153 107.449 280.123C108.864 278.707 110.145 277.165 111.273 275.513C118.168 282.447 121.962 291.705 121.962 301.648C121.962 301.793 122.02 301.932 122.122 302.034C122.225 302.137 122.363 302.195 122.509 302.195C122.653 302.195 122.793 302.137 122.895 302.034C122.997 301.932 123.054 301.793 123.054 301.648C123.054 291.337 119.092 281.741 111.89 274.589ZM84.7021 288.447C67.5572 288.447 53.6207 274.51 53.6207 257.365C53.6207 247.372 58.19 238.303 66.1665 232.412L66.6036 232.859C71.4036 237.656 77.9116 240.35 84.6971 240.35C91.4828 240.35 97.9904 237.656 102.79 232.859L103.228 232.412C111.214 238.283 115.783 247.353 115.783 257.365C115.783 274.51 101.838 288.447 84.7021 288.447Z" fill="#452D34"/>
<path d="M81.007 210.857C80.3117 210.459 79.3382 211.115 79.4276 211.91C79.517 212.704 80.6295 213.34 81.2851 212.694C81.9407 212.049 81.603 211.095 81.007 210.857Z" fill="#452D34"/>
<path d="M96.8312 211.026C96.1452 210.628 95.1618 211.284 95.2519 212.079C95.3411 212.873 96.4631 213.509 97.1193 212.863C97.7747 212.218 97.4372 211.264 96.8312 211.026Z" fill="#452D34"/>
<path d="M100.427 216.29C100.705 217.154 98.3704 218.197 99.4236 218.168C99.7143 218.157 100.002 218.104 100.278 218.009C101.639 217.572 102.463 216.33 102.105 215.227C101.747 214.125 100.367 213.598 99.0062 214.035C98.3466 214.232 97.7797 214.658 97.4065 215.237C97.109 215.724 100.257 215.764 100.427 216.29Z" fill="#D13535"/>
<path d="M80.5662 216.93C80.8761 215.82 80.0092 214.609 78.6301 214.224C77.251 213.839 75.8819 214.426 75.5721 215.536C75.2622 216.645 76.1291 217.857 77.5082 218.242C78.8873 218.627 80.2564 218.04 80.5662 216.93Z" fill="#D13535"/>
<path d="M91.5066 220.274C85.3382 220.582 87.2354 214.721 90.0463 215.099C93.4735 215.565 96.8803 216.31 99.7117 216.966C100.466 217.135 100.466 218.218 99.7117 218.396L91.5066 220.274Z" fill="#CE9C5C"/>
<path d="M99.8308 215.347C96.781 214.642 93.4932 213.927 90.1255 213.47C89.103 213.331 88.1093 213.817 87.4633 214.781C86.8182 215.744 86.6694 217.076 87.2151 218.039C87.6529 218.834 88.6856 219.748 91.0495 219.748H91.5263L91.6258 219.728L99.8308 217.85C100.111 217.784 100.361 217.624 100.54 217.398C100.718 217.172 100.816 216.892 100.816 216.604C100.816 216.315 100.718 216.035 100.54 215.809C100.361 215.583 100.111 215.424 99.8308 215.357V215.347ZM99.592 216.778L94.367 217.969C94.4367 217.602 94.5064 217.234 94.5659 216.867C94.7453 216.241 93.7712 215.973 93.6122 216.599C93.6326 217.016 93.3045 217.701 93.2943 218.218L91.4269 218.645C89.7779 218.715 88.6159 218.317 88.1688 217.503C87.8212 216.897 87.9011 216.072 88.3677 215.397C88.8344 214.721 89.2517 214.543 89.7881 214.543H89.9768L90.9007 214.672C90.0864 216.907 91.7847 216.877 91.6657 215.874V215.725C91.7252 215.427 91.8442 215.138 91.8944 214.831C93.7015 215.129 95.4899 215.486 97.2086 215.864C97.2162 215.916 97.2196 215.969 97.2179 216.023C97.2111 216.067 97.1975 216.111 97.1788 216.152C97.1593 216.193 97.1355 216.233 97.1091 216.271C96.3934 217.175 97.8444 217.642 98.1521 216.39C98.1869 216.294 98.2107 216.194 98.2218 216.092L99.592 216.4C99.6336 216.407 99.671 216.43 99.6965 216.463C99.722 216.496 99.7348 216.537 99.7314 216.579C99.7373 216.623 99.7263 216.669 99.7008 216.705C99.6753 216.742 99.6362 216.768 99.592 216.778Z" fill="#452D34"/>
<path d="M147.75 232.085C146.796 233.227 145.902 234.468 144.908 235.492C144.772 235.64 144.605 235.757 144.421 235.835C144.236 235.914 144.037 235.952 143.835 235.949C142.584 235.909 142.504 234.22 142.018 233.128C141.114 231.111 138.034 230.982 136.336 232.393C134.637 233.803 134.021 236.117 133.674 238.303C133.424 239.815 133.268 241.341 133.207 242.872C133.147 244.462 133.843 245.177 134.806 246.448C134.895 246.577 134.727 247.591 134.776 247.73C135.054 248.534 135.104 249.409 135.432 250.193C136.028 251.643 137.478 252.607 138.998 252.955C140.518 253.303 142.127 253.093 143.647 252.726C149.047 251.432 153.817 248.272 157.117 243.806C159.133 241.054 160.574 237.628 159.967 234.28C159.828 233.515 158.834 230.744 156.937 230.326" fill="#D13535"/>
<path d="M108.86 256.222C108.647 255.929 108.467 255.612 108.324 255.279C108.344 255.329 108.354 255.338 108.344 255.329C108.188 254.95 108.081 254.552 108.026 254.147C107.956 253.61 108.006 252.657 108.333 251.932C108.323 251.949 108.316 251.97 108.314 251.991C108.409 251.749 108.532 251.519 108.681 251.306C109.019 250.749 108.155 250.253 107.827 250.799C106.466 252.816 106.834 255.806 108.642 257.435C109.089 257.882 109.804 257.176 109.337 256.729C109.168 256.57 109.009 256.401 108.86 256.222Z" fill="#452D34"/>
<path d="M141.263 231.607H141.253C141.263 231.689 141.284 231.669 141.263 231.607Z" fill="#452D34"/>
<path d="M156.739 228.072C155.824 228.003 155.974 229.085 156.799 229.125H156.788C157.802 229.591 158.308 230.446 158.825 231.579C159.242 232.412 159.391 234.082 159.202 235.343C158.884 237.688 157.662 240.111 156.113 242.118L156.074 242.167L156.034 242.217C154.844 243.728 153.477 245.088 151.961 246.27C148.286 249.091 140.785 252.657 136.793 249.786C136.564 249.637 136.098 249.13 136.037 249.051C135.859 248.81 135.706 248.55 135.581 248.276C135.322 247.64 135.233 246.945 135.064 246.29C134.915 245.465 134.11 244.631 133.892 244.005C133.038 242.028 133.436 239.892 133.663 237.728C133.668 237.698 133.672 237.668 133.674 237.637C134.041 235.104 134.478 232.503 136.416 230.922C136.64 230.761 136.879 230.622 137.13 230.506H137.16C137.489 230.371 137.833 230.274 138.184 230.218H138.203C138.263 230.208 138.223 230.218 138.193 230.218C138.526 230.178 138.864 230.178 139.197 230.218C139.482 230.261 139.761 230.334 140.031 230.436C140.111 230.466 140.001 230.426 140.001 230.416C140.369 230.571 140.695 230.809 140.955 231.111C141.074 231.264 141.175 231.431 141.253 231.608C141.69 232.662 141.789 234.121 143.001 234.588C144.57 235.104 145.514 233.387 146.378 232.403C146.676 231.807 148.345 230.545 147.769 229.97C147.591 229.8 147.243 229.75 147.074 229.97C146.08 231.132 145.216 232.412 144.113 233.476C144.053 233.527 143.986 233.57 143.915 233.605L143.835 233.635L143.676 233.675H143.448L143.239 233.614C143.418 233.665 143.22 233.605 143.16 233.565L143.14 233.546L143.001 233.396C142.91 233.261 142.83 233.118 142.763 232.969C142.167 230.386 140.785 228.847 137.965 229.244C133.713 229.97 132.938 235.045 132.561 238.621C132.144 241.224 132.353 243.966 133.902 246.022C132.154 247.154 130.256 248.028 128.349 248.852C124.068 250.65 118.436 252.379 113.827 252.945C112.486 253.094 111.145 253.183 109.794 253.094C109.158 253.084 109.148 254.087 109.794 254.087C116.966 254.246 123.978 251.813 130.485 248.981C130.942 248.704 132.988 247.869 134.15 247.074C135.998 255.16 146.875 251.197 151.722 247.68C156.074 244.492 160.146 239.723 160.275 234.082C160.295 231.727 159.173 228.807 156.739 228.072ZM137.16 230.496L137.19 230.476L137.16 230.496Z" fill="#452D34"/>
<path d="M156.799 229.124C156.849 229.145 156.88 229.185 156.799 229.124V229.124Z" fill="#452D34"/>
<path d="M28.8273 241.581C28.3207 242.256 28.0028 243.071 27.4565 243.726C26.4432 244.918 24.7745 245.405 23.2149 245.266C21.6554 245.127 20.2052 244.451 18.8641 243.647C14.1128 240.763 10.5263 236.302 8.73213 231.042C7.6494 227.814 7.3216 224.118 8.92082 221.108C10.5201 218.098 14.5034 216.231 17.5232 217.82C20.6919 219.479 21.3375 223.681 22.897 226.839C22.9797 227.021 23.1005 227.183 23.2514 227.313C23.4023 227.443 23.5797 227.54 23.7712 227.595C24.9831 227.943 25.5692 226.363 26.3638 225.469C27.8439 223.82 30.804 224.625 31.996 226.492C33.188 228.359 33.0788 230.743 32.7509 232.929C32.5277 234.444 32.2092 235.944 31.7974 237.419C31.3801 238.949 30.953 238.72 29.6517 239.644C29.5226 239.733 28.9166 241.452 28.8273 241.581Z" fill="#D13535"/>
<path d="M35.1847 242.634C33.9196 241.83 32.7383 240.902 31.6583 239.862C31.4497 239.733 31.251 239.465 31.0325 239.236C32.5722 237.865 33.3271 235.819 33.6847 233.813C34.3006 230.654 35.2046 226.939 33.2477 224.078C31.0623 221.327 27.4963 221.515 25.9765 224.525C25.7949 224.773 25.5693 224.985 25.3109 225.151L25.1718 225.19H24.9931C24.8491 225.166 24.7129 225.109 24.5957 225.022H24.5858C24.4981 224.947 24.4212 224.86 24.3573 224.763C23.513 223.114 22.9964 221.247 22.1521 219.449C20.5429 215.357 16.3113 213.43 12.4075 215.843C6.56671 219.36 7.87791 227.495 10.6691 232.63C13.232 237.935 23.215 248.048 28.9266 241.918C29.4133 241.293 29.7213 240.568 30.1783 239.922L30.2378 239.872C31.261 241.144 34.1615 243.13 34.688 243.488C35.2144 243.845 35.7409 242.961 35.1847 242.634ZM28.132 241.342C27.9544 241.558 27.7583 241.757 27.5459 241.939C27.2696 242.14 26.9733 242.313 26.6618 242.455C26.2529 242.63 25.8216 242.746 25.3804 242.802C22.8673 243.14 20.1257 241.452 17.9701 239.832C14.804 237.384 12.3178 234.166 10.7486 230.485C9.72548 228.041 9.00034 225.141 9.37783 222.37C9.42747 221.833 9.74537 220.611 9.99374 220.075C10.2308 219.498 10.5413 218.954 10.9175 218.456C11.0367 218.247 11.9704 217.333 12.1592 217.224C13.4704 216.171 15.3279 215.615 16.7285 215.823C17.6523 215.963 18.2781 216.241 19.0331 216.807C20.0662 217.542 21.0992 219.37 21.5561 220.542C22.3707 222.24 22.6885 224.297 23.9103 225.757C25.6884 227.148 26.8705 224.932 27.6652 223.879C28.6882 222.747 30.4167 222.965 31.7477 223.939C31.9915 224.141 32.2144 224.368 32.4133 224.614C32.6214 224.918 32.8009 225.241 32.9497 225.578C33.5456 226.909 33.5059 229.005 33.2874 230.485C32.9993 232.343 32.6119 234.548 32.006 236.157C31.5843 237.171 30.9149 238.062 30.0591 238.749C29.8173 238.868 29.6089 239.046 29.4531 239.266L29.3637 239.375C28.9067 240.001 28.5989 240.716 28.132 241.342Z" fill="#452D34"/>
<path d="M53.3823 250.929C50.303 249.647 47.0051 248.296 44.0252 247.044C42.5252 246.409 41.0253 245.753 39.5651 245.028C39.0088 244.7 38.5022 245.565 39.0585 245.882C42.6146 247.621 46.3198 249.041 49.9653 250.581L53.1241 251.882C53.7301 252.071 54.0082 251.107 53.3823 250.929Z" fill="#452D34"/>
<path d="M82.338 257.245C84.3623 257.245 86.0038 255.604 86.0038 253.58C86.0038 251.556 84.3623 249.915 82.338 249.915C80.3137 249.915 78.6726 251.556 78.6726 253.58C78.6726 255.604 80.3137 257.245 82.338 257.245Z" fill="#CE9C5C"/>
<path d="M82.338 276.189C84.3623 276.189 86.0038 274.547 86.0038 272.523C86.0038 270.499 84.3623 268.857 82.338 268.857C80.3137 268.857 78.6726 270.499 78.6726 272.523C78.6726 274.547 80.3137 276.189 82.338 276.189Z" fill="#CE9C5C"/>
<path d="M80.9872 257.404C75.4444 257.305 75.4444 249.07 80.9872 248.971C86.5198 249.07 86.5198 257.305 80.9872 257.404ZM80.9872 250.064C76.8748 250.134 76.8748 256.242 80.9872 256.312C85.0995 256.381 85.0893 250.134 80.9872 250.064Z" fill="#452D34"/>
<path d="M80.9872 276.348C75.4444 276.248 75.4444 268.014 80.9872 267.914C86.5198 268.014 86.5198 276.248 80.9872 276.348ZM80.9872 269.007C76.8748 269.076 76.8748 275.186 80.9872 275.255C85.0995 275.324 85.0893 269.076 80.9872 269.007Z" fill="#452D34"/>
<path d="M145.504 242.584L145.723 242.396C146.072 242.129 146.452 241.905 146.855 241.73C147.352 241.501 148.276 241.253 148.981 241.164C149.686 241.075 150.729 241.035 151.544 241.015C152.189 241.024 152.189 240.021 151.544 240.021C149.666 240.072 147.719 240.14 146.011 241.035C145.574 241.265 145.167 241.549 144.799 241.879C144.342 242.326 145.048 243.031 145.504 242.584Z" fill="#452D34"/>
<path d="M144.63 237.906C144.487 237.994 144.365 238.113 144.272 238.253C143.925 238.74 144.223 239.426 144.819 239.534C145.415 239.644 145.474 239.723 145.365 240.31C145.339 240.447 145.348 240.589 145.392 240.722C145.435 240.855 145.512 240.975 145.614 241.071C145.715 241.167 145.84 241.236 145.975 241.271C146.111 241.307 146.253 241.307 146.389 241.273C146.763 241.162 147.12 241.002 147.451 240.797C147.577 240.719 147.721 240.675 147.869 240.667C148.812 240.647 151.246 241.064 150.54 238.224C150.519 238.153 150.512 238.078 150.521 238.005C150.53 237.899 150.518 237.792 150.486 237.691C150.453 237.59 150.401 237.496 150.331 237.415C150.261 237.335 150.176 237.269 150.081 237.222C149.986 237.175 149.882 237.147 149.776 237.141C149.595 237.122 149.425 237.047 149.288 236.928C149.151 236.809 149.054 236.651 149.011 236.475V236.456C148.981 236.337 148.926 236.227 148.849 236.133C148.771 236.037 148.674 235.962 148.564 235.909C148.453 235.857 148.334 235.83 148.211 235.83C148.09 235.83 147.969 235.857 147.858 235.909C146.637 236.435 144.809 236.117 144.878 237.478C144.883 237.566 144.861 237.652 144.817 237.728C144.773 237.805 144.708 237.866 144.63 237.906Z" fill="#EFDCC4"/>
<path d="M146.04 240.767L146.082 240.787C146.082 240.776 146.062 240.776 146.04 240.767Z" fill="#452D34"/>
<path d="M149.518 236.437C149.518 236.431 149.517 236.426 149.515 236.42C149.514 236.415 149.511 236.41 149.507 236.405C149.511 236.41 149.514 236.415 149.515 236.42C149.517 236.426 149.518 236.431 149.518 236.437Z" fill="#452D34"/>
<path d="M151.156 238.879C151.047 237.906 150.968 236.685 149.726 236.624C149.706 236.624 149.547 236.495 149.617 236.555C149.686 236.615 149.527 236.465 149.518 236.435C149.518 236.416 149.478 236.346 149.507 236.396C149.368 235.462 148.136 235.134 147.659 235.443C146.487 235.909 144.322 235.691 144.372 237.469C144.372 237.459 144.372 237.459 144.382 237.459C144.392 237.429 144.392 237.459 144.382 237.459H144.372C143.18 238.105 143.547 239.932 144.899 240.051C144.901 240.068 144.898 240.086 144.888 240.102C144.899 240.091 144.899 240.081 144.908 240.051C144.581 241.959 146.567 242.098 147.759 241.174C149.467 241.213 151.335 241.094 151.156 238.879ZM150.014 237.896H150.024C150.014 237.866 150.014 237.817 150.014 237.896ZM149.855 237.667C149.875 237.677 149.904 237.677 149.855 237.667V237.667ZM149.696 236.615C149.686 236.615 149.686 236.615 149.686 236.605C149.686 236.594 149.686 236.615 149.696 236.615ZM148.504 236.495C148.494 236.475 148.494 236.486 148.504 236.495V236.495ZM148.524 236.545C148.514 236.555 148.514 236.535 148.504 236.526L148.524 236.545ZM144.392 237.469C144.412 237.449 144.431 237.41 144.392 237.469V237.469ZM146.646 240.657C146.667 240.647 146.686 240.647 146.646 240.657V240.657ZM150.173 239.247C150.163 239.555 150.024 239.873 149.736 240.002C149.686 240.032 149.527 240.081 149.706 240.022C148.911 240.379 147.988 239.952 147.212 240.359C146.885 240.538 146.547 240.757 146.169 240.797C146.169 240.799 146.171 240.802 146.173 240.804C146.174 240.805 146.177 240.806 146.18 240.806H146.08C146.101 240.816 145.991 240.776 146.04 240.787L146.001 240.767C146.01 240.787 145.981 240.757 145.971 240.747C145.932 240.713 145.899 240.672 145.872 240.628C145.872 240.608 145.862 240.598 145.872 240.608C145.859 240.583 145.852 240.556 145.851 240.528C146.04 239.595 145.673 239.187 144.779 239.019L144.719 238.979H144.74L144.71 238.939C144.729 238.989 144.69 238.909 144.67 238.909H144.679C144.628 238.83 144.61 238.733 144.63 238.641C144.64 238.621 144.679 238.561 144.64 238.621C144.697 238.511 144.779 238.416 144.878 238.343C145.544 237.995 145.177 237.41 145.544 237.042L145.524 237.062C146.279 236.664 147.362 236.724 148.057 236.367L148.146 236.346H148.136C148.2 236.333 148.265 236.34 148.325 236.367C148.276 236.327 148.355 236.386 148.365 236.376L148.384 236.396H148.395C148.375 236.376 148.435 236.435 148.445 236.426H148.435C148.643 236.942 148.911 237.489 149.527 237.608C149.666 237.648 149.825 237.628 149.935 237.737C150.044 237.846 149.984 237.787 149.984 237.807C149.984 237.826 149.994 237.817 150.004 237.836C150.03 238.147 150.077 238.456 150.143 238.76C150.143 238.78 150.153 238.849 150.143 238.81C150.167 238.954 150.177 239.1 150.173 239.247Z" fill="#452D34"/>
<path d="M146.12 240.797C146.14 240.797 146.151 240.807 146.171 240.797H146.12Z" fill="#452D34"/>
<path d="M148.367 236.365H148.325C148.336 236.365 148.346 236.376 148.367 236.365Z" fill="#452D34"/>
<path d="M148.437 236.417L148.395 236.386C148.405 236.396 148.416 236.417 148.437 236.417Z" fill="#452D34"/>
<path d="M150.005 237.827C150.005 237.817 149.995 237.807 149.984 237.796C149.974 237.786 149.995 237.817 150.005 237.827Z" fill="#452D34"/>
<path d="M145.981 240.737H146.002L145.971 240.716C145.974 240.715 145.977 240.714 145.98 240.715C145.983 240.716 145.985 240.719 145.986 240.721C145.988 240.724 145.988 240.728 145.987 240.73C145.986 240.733 145.984 240.736 145.981 240.737Z" fill="#452D34"/>
<path d="M145.852 240.5C145.852 240.476 145.864 240.5 145.852 240.5V240.5Z" fill="#452D34"/>
<path d="M144.74 238.968L144.781 238.999C144.779 238.99 144.774 238.982 144.766 238.977C144.758 238.97 144.749 238.968 144.74 238.968Z" fill="#452D34"/>
<path d="M145.872 240.587V240.609C145.883 240.598 145.872 240.598 145.872 240.587Z" fill="#452D34"/>
<path d="M144.679 238.899L144.711 238.931C144.711 238.924 144.701 238.913 144.679 238.899Z" fill="#452D34"/>
<path d="M145.942 216.519C146.22 217.012 146.449 217.531 146.627 218.069C146.65 218.14 146.657 218.215 146.65 218.289C146.642 218.363 146.62 218.435 146.583 218.5C146.547 218.565 146.498 218.622 146.439 218.668C146.379 218.713 146.311 218.746 146.239 218.764L143.587 219.241C143.548 219.247 143.507 219.244 143.47 219.23C143.432 219.217 143.398 219.195 143.372 219.165C143.345 219.135 143.326 219.099 143.317 219.061C143.307 219.022 143.308 218.981 143.319 218.943C143.466 218.416 143.684 217.912 143.965 217.443C144.302 216.857 144.878 216.36 145.544 216.301C145.628 216.295 145.711 216.316 145.783 216.36C145.847 216.4 145.902 216.455 145.942 216.519Z" fill="#CE9C5C"/>
<path d="M147.133 218.039C146.815 217.244 146.567 215.814 145.504 215.804C144.064 215.575 141.451 219.857 143.736 219.717C144.838 219.35 147.282 219.737 147.133 218.039ZM143.517 218.744C143.428 218.764 143.468 218.744 143.528 218.744H143.517ZM143.806 219.042C143.795 219.072 143.806 219.112 143.806 219.042V219.042ZM146.13 218.277H146.12L143.925 218.674C144.233 217.92 144.64 216.976 145.524 216.797C145.603 216.936 145.673 217.075 145.743 217.214C144.679 217.373 145.206 218.605 146.14 218.178C146.15 218.188 146.15 218.208 146.16 218.218C146.15 218.198 146.16 218.188 146.16 218.218C146.16 218.247 146.169 218.198 146.16 218.227C146.157 218.227 146.155 218.229 146.152 218.23C146.151 218.232 146.15 218.235 146.15 218.237H146.13V218.277ZM146.169 218.257C146.167 218.257 146.164 218.256 146.163 218.254C146.161 218.253 146.16 218.25 146.16 218.247H146.169V218.257Z" fill="#452D34"/>
<path d="M146.15 218.259C146.158 218.247 146.161 218.232 146.161 218.218C146.153 218.23 146.15 218.245 146.15 218.259Z" fill="#452D34"/>
<path d="M146.12 218.278C146.131 218.278 146.141 218.278 146.141 218.268L146.12 218.278Z" fill="#452D34"/>
<path d="M149.904 232.096L149.946 232.055L149.904 232.096Z" fill="#452D34"/>
<path d="M152.199 232.422L152.219 232.474C152.21 232.453 152.199 232.442 152.199 232.422Z" fill="#452D34"/>
<path d="M151.643 231.717L151.684 231.759L151.653 231.727L151.643 231.717Z" fill="#452D34"/>
<path d="M156.203 230.455L156.254 230.496C156.254 230.494 156.253 230.491 156.251 230.489C156.248 230.487 156.246 230.486 156.243 230.486L156.203 230.455Z" fill="#452D34"/>
<path d="M148.484 214.572C147.938 214.016 146.865 214.364 146.696 215.119C146.379 216.569 148.494 217.115 148.891 215.665C149.011 215.119 148.793 214.751 148.484 214.572Z" fill="#452D34"/>
<path d="M144.809 214.155C144.253 213.599 143.18 213.947 143.021 214.702C142.693 216.152 144.809 216.698 145.206 215.248C145.325 214.702 145.117 214.334 144.809 214.155Z" fill="#452D34"/>
<path d="M154.901 221.18L154.922 221.148L154.901 221.18Z" fill="#452D34"/>
<path d="M160.644 224.308H160.634L160.603 224.287C160.613 224.287 160.624 224.308 160.644 224.308Z" fill="#452D34"/>
<path d="M161.954 225.102L161.934 225.072V225.052C161.934 225.047 161.933 225.041 161.932 225.036C161.93 225.031 161.927 225.027 161.924 225.023C161.924 225.02 161.925 225.017 161.927 225.016C161.928 225.013 161.931 225.012 161.934 225.012C161.934 224.933 161.924 224.963 161.924 224.993C162.083 223.334 160.017 222.668 158.586 223.145C158.607 222.768 158.696 222.231 158.646 221.794C159.739 221.347 160.523 220.374 160.256 218.983C161.03 218.705 161.119 217.503 160.593 216.887C160.067 216.271 159.659 216.063 159.033 215.924C158.259 215.735 156.987 215.665 156.58 215.387C154.196 211.424 149.001 208.493 144.511 210.699C141.868 212.109 140.507 214.533 140.14 217.225C140.059 217.246 139.984 217.287 139.922 217.344C138.858 218.387 137.965 219.698 137.578 221.148C137.249 222.072 138.034 223.125 138.888 223.066C139.1 223.452 139.435 223.758 139.84 223.932C140.245 224.107 140.697 224.141 141.124 224.029C141.849 225.758 142.921 227.317 144.253 228.489C145.822 230.009 147.64 230.883 149.438 231.151C148.852 231.668 148.475 232.423 148.792 233.098C149.12 233.436 149.636 233.148 149.647 232.721C149.656 232.293 149.726 232.383 149.914 232.095L149.895 232.115L149.914 232.095C149.935 232.075 149.965 232.045 149.954 232.065C150.03 231.97 150.117 231.883 150.213 231.807H150.351C150.5 232.099 150.594 232.415 150.63 232.741V232.691C150.65 233.098 150.59 233.714 151.146 233.724C152.06 233.555 151.544 232.185 151.305 231.519C151.427 231.575 151.543 231.642 151.653 231.717C151.643 231.717 151.643 231.717 151.643 231.708C151.643 231.698 151.653 231.717 151.663 231.727L151.693 231.757C151.92 231.931 152.097 232.16 152.209 232.423C152.199 232.412 152.199 232.412 152.199 232.403C152.199 232.393 152.209 232.412 152.209 232.423C152.209 232.441 152.217 232.458 152.229 232.473C152.269 232.582 152.3 232.695 152.318 232.81C152.318 233.088 152.498 233.396 152.815 233.376C153.133 233.357 153.331 233.158 153.312 232.88C153.282 232.244 152.934 231.549 152.428 231.072C152.851 230.974 153.266 230.845 153.67 230.684C153.587 231.263 153.631 231.852 153.798 232.412C154.147 233.148 155.07 232.73 154.653 231.708C154.615 231.441 154.612 231.171 154.643 230.903H154.653L154.762 231.081C154.811 231.916 155.875 232.026 155.805 231.132C155.728 230.775 155.568 230.441 155.338 230.158C155.557 230.148 155.636 230.178 155.924 230.277L156.212 230.446L156.252 230.476H156.262C156.55 230.684 156.689 231.27 157.255 231.002C157.961 230.347 156.907 229.552 155.915 229.254L156.203 228.976L156.252 228.927L156.282 228.887L156.431 228.737C157.196 228.062 159.242 228.151 160.553 227.724C161.646 227.476 162.818 226.174 161.954 225.102ZM160.93 224.625C160.93 224.615 160.921 224.615 160.921 224.605C160.926 224.61 160.93 224.617 160.93 224.625ZM159.262 219.897C159.268 219.874 159.271 219.851 159.272 219.827C159.281 219.837 159.272 219.857 159.262 219.897ZM159.938 217.92C159.937 217.903 159.94 217.886 159.947 217.87C159.94 217.886 159.937 217.903 159.938 217.92ZM138.511 221.486C138.501 221.566 138.511 221.516 138.511 221.486V221.486ZM138.531 221.854C138.535 221.863 138.539 221.873 138.541 221.884C138.537 221.879 138.535 221.875 138.533 221.87C138.531 221.864 138.53 221.859 138.531 221.854ZM139.852 222.738C139.853 222.745 139.856 222.753 139.862 222.758C139.856 222.753 139.853 222.745 139.852 222.738ZM140.717 223.105H140.478C140.383 223.086 140.29 223.06 140.2 223.026C140.329 223.075 140.031 222.946 140.011 222.917C139.992 222.887 139.941 222.847 139.872 222.768C139.803 222.688 139.793 222.648 139.782 222.619C139.772 222.589 139.763 222.589 139.753 222.569C139.634 221.874 139.176 221.814 138.869 222.052H138.799L138.729 222.032L138.64 221.983L138.581 221.923L138.551 221.874C138.547 221.87 138.545 221.865 138.543 221.86C138.541 221.855 138.541 221.849 138.541 221.844C138.499 221.723 138.489 221.593 138.511 221.466C138.565 221.204 138.645 220.948 138.75 220.701C139.07 219.96 139.499 219.271 140.021 218.655C140.019 220.159 140.267 221.653 140.756 223.075L140.717 223.105ZM145.663 228.4C144.004 227.128 142.703 225.281 141.968 223.523C141.539 222.502 141.245 221.43 141.094 220.334C141.005 219.698 140.955 218.317 141.094 217.443C141.094 217.463 141.084 217.493 141.084 217.513C141.262 216.003 141.918 214.424 142.683 213.46C142.951 213.092 143.686 212.367 143.856 212.268C144.203 211.99 145.067 211.493 145.266 211.434C145.798 211.215 146.355 211.065 146.925 210.987C147.878 210.788 149.855 211.106 150.779 211.553C152.537 212.318 153.848 213.41 155.05 214.92C156.153 217.006 157.325 216.47 159.162 216.986C159.299 217.049 159.428 217.126 159.55 217.215C159.634 217.289 159.714 217.369 159.788 217.453H159.779C159.788 217.463 159.788 217.473 159.798 217.473C159.808 217.473 159.898 217.612 159.898 217.662L159.877 217.612C159.904 217.665 159.921 217.722 159.927 217.781C159.93 217.781 159.933 217.782 159.934 217.784C159.936 217.786 159.938 217.788 159.938 217.791C159.933 217.834 159.933 217.877 159.938 217.92C159.929 217.95 159.919 217.98 159.908 218.009L159.877 218.059H159.868C159.371 217.98 159.063 218.566 159.252 219.152C159.283 219.382 159.29 219.615 159.272 219.847C159.272 219.867 159.262 219.877 159.262 219.887L159.222 220.016C159.166 220.131 159.099 220.24 159.023 220.344L158.993 220.374C158.91 220.479 158.813 220.572 158.705 220.652C158.584 220.747 158.451 220.824 158.308 220.88H158.328C158.198 220.924 158.065 220.96 157.931 220.99H157.782C157.057 221.039 156.173 220.89 155.894 220.692C155.875 220.692 155.795 220.592 155.775 220.572C155.428 220.105 154.692 220.533 154.921 221.069V221.089V221.109H154.931C154.921 221.109 154.921 221.109 154.921 221.119C154.911 221.139 154.911 221.148 154.901 221.139C154.891 221.129 154.891 221.158 154.891 221.168C154.879 221.187 154.862 221.201 154.842 221.208L154.792 221.248H154.782C154.712 221.277 154.639 221.297 154.563 221.307C154.156 221.367 153.302 221.069 152.964 220.781C152.784 220.634 152.618 220.471 152.468 220.294C152.35 220.132 152.247 219.959 152.159 219.778C152.04 219.46 152 219.321 152.03 219.013C152.388 218.466 151.544 217.731 151.137 218.556C150.262 221.417 154.931 223.374 155.745 221.685C156.331 221.968 156.986 222.079 157.632 222.003C157.672 223.423 157.394 224.933 156.937 226.036C156.674 226.639 156.344 227.212 155.954 227.744C155.904 227.804 155.855 227.873 155.795 227.933C155.679 228.03 155.579 228.144 155.497 228.27C155.267 228.528 155.01 228.761 154.732 228.966C154.136 229.502 152.498 230.168 151.762 230.208C150.421 230.416 148.882 230.089 147.858 229.652C147.143 229.403 146.071 228.728 145.663 228.4ZM160.921 226.453C160.046 227.069 158.755 227.039 157.613 227.267L157.464 227.287C157.971 226.364 158.31 225.358 158.467 224.317C158.477 224.317 158.477 224.317 158.477 224.307C159.014 223.9 159.868 223.94 160.324 224.119L160.384 224.148L160.603 224.277C160.593 224.268 160.603 224.268 160.623 224.287H160.642L160.851 224.486C160.88 224.524 160.907 224.564 160.93 224.605L160.951 224.675V224.724V224.754C160.851 225.072 161.11 225.618 161.199 225.697C161.216 225.722 161.23 225.749 161.238 225.777C161.238 225.797 161.259 225.827 161.259 225.837C161.259 225.847 161.269 225.877 161.269 225.896C161.269 225.917 161.248 226.015 161.238 226.026V226.055L161.149 226.204C161.083 226.296 161.006 226.379 160.921 226.453ZM161.229 226.095C161.239 226.076 161.239 226.055 161.248 226.055L161.229 226.095Z" fill="#452D34"/>
<path d="M151.471 228.609C152.794 227.263 152.359 224.691 150.501 222.865C148.642 221.038 146.063 220.649 144.741 221.995C143.418 223.341 143.852 225.912 145.71 227.739C147.569 229.566 150.148 229.955 151.471 228.609Z" fill="#D13535"/>
<path d="M49.2203 232.721C49.0106 233.247 48.8542 233.793 48.7534 234.349C48.7408 234.424 48.7435 234.501 48.7614 234.574C48.7794 234.648 48.8121 234.717 48.8577 234.777C48.9032 234.837 48.9607 234.888 49.0264 234.926C49.0922 234.963 49.1649 234.987 49.2402 234.995L51.9222 235.095C51.9613 235.097 52.0008 235.091 52.0366 235.075C52.0724 235.058 52.1032 235.032 52.1262 235.001C52.1492 234.968 52.1635 234.931 52.1678 234.892C52.1721 234.853 52.1661 234.813 52.1506 234.777C51.9341 234.27 51.6501 233.796 51.3063 233.366C50.8891 232.84 50.2534 232.433 49.5878 232.462C49.5457 232.462 49.5038 232.468 49.4646 232.484C49.4254 232.499 49.3896 232.523 49.3593 232.552C49.2977 232.593 49.2494 232.652 49.2203 232.721Z" fill="#CE9C5C"/>
<path d="M49.2402 234.438V234.46C49.2509 234.46 49.2402 234.449 49.2402 234.438Z" fill="#452D34"/>
<path d="M52.5282 234.4C52.1011 233.535 51.525 232.641 50.6309 232.194C50.025 231.906 49.0019 231.767 48.7437 232.592C47.9688 234.459 47.9489 235.731 50.3727 235.532C51.2369 235.572 53.1938 235.909 52.5282 234.4ZM49.2403 234.439V234.419C49.2416 234.419 49.2429 234.419 49.2441 234.42C49.2453 234.42 49.2464 234.421 49.2473 234.422C49.2482 234.423 49.249 234.424 49.2495 234.425C49.2499 234.427 49.2502 234.428 49.2502 234.429L49.2403 234.439ZM49.2403 234.439C49.2403 234.441 49.2392 234.444 49.2373 234.446C49.2355 234.448 49.233 234.449 49.2304 234.449C49.2204 234.429 49.2304 234.429 49.2403 234.439ZM49.2999 234.499H49.29C49.29 234.499 49.2503 234.489 49.2403 234.459V234.429C49.247 234.417 49.2504 234.403 49.2502 234.389C49.5383 234.439 49.8561 234.389 50.035 234.25C50.2137 234.111 50.1145 233.386 49.6873 233.396H49.5085C49.5581 233.247 49.6079 233.098 49.6674 232.939H49.7966C50.6211 233.069 51.1277 233.893 51.515 234.568L49.2999 234.499ZM51.9124 234.598C51.9223 234.608 51.9322 234.598 51.9124 234.598V234.598Z" fill="#452D34"/>
<path d="M46.6575 230.943L46.5383 231.052C46.4139 231.124 46.3137 231.231 46.2503 231.36C45.7138 232.194 46.7072 233.296 47.6012 232.949C49.111 232.373 48.0681 230.098 46.6575 230.943Z" fill="#452D34"/>
<path d="M50.2535 230.029L50.1342 230.138C50.0078 230.207 49.9069 230.315 49.8462 230.445C49.3098 231.28 50.3031 232.382 51.1972 232.035C52.707 231.458 51.664 229.184 50.2535 230.029Z" fill="#452D34"/>
<path d="M57.4849 234.965C57.167 234.538 55.9551 232.889 55.1306 232.67C52.995 225.111 43.0417 223.512 38.6115 232.979C38.5664 233.03 38.5165 233.076 38.4624 233.117C37.3996 233.743 35.3533 233.723 34.7077 235.184C34.3202 235.859 34.6481 236.952 35.3832 237.13C35.3136 238.561 36.2473 239.415 37.3996 239.693C37.4592 240.15 37.5188 240.587 37.6082 241.005C36.0983 240.716 34.1017 241.829 34.5487 243.289C34.5587 243.3 34.5587 243.309 34.5487 243.329C34.5518 243.346 34.5482 243.364 34.5388 243.379C33.9229 244.243 34.7474 245.475 35.8302 245.723C37.2506 246.17 39.3565 245.733 40.3498 246.18L40.7173 246.498H40.7273L41.0253 246.726C40.3299 247.014 39.734 247.59 39.7141 248.315C39.8035 248.713 40.4392 248.812 40.6279 248.434C40.8167 248.057 40.8067 248.077 41.0749 247.829C41.184 247.757 41.2967 247.691 41.4127 247.63C41.4101 247.63 41.4075 247.631 41.4057 247.633C41.4038 247.635 41.4028 247.637 41.4028 247.64C41.4028 247.637 41.4038 247.635 41.4057 247.633C41.4075 247.631 41.4101 247.63 41.4127 247.63H41.4226C41.4822 247.61 41.4524 247.63 41.4226 247.64C41.5514 247.591 41.6845 247.555 41.8199 247.531C41.4921 247.968 41.3034 248.544 41.6014 248.981C41.8994 249.418 42.5152 248.961 42.4557 248.485C42.4756 248.425 42.4855 248.366 42.5053 248.305C42.5323 248.264 42.5555 248.221 42.5748 248.177C42.6047 248.296 42.6345 248.425 42.6543 248.554C42.6858 248.828 42.6824 249.105 42.6445 249.379C42.4756 249.816 43.3099 250.362 43.6079 249.617C43.7002 249.027 43.6663 248.424 43.5086 247.849C43.936 247.948 44.3716 248.008 44.8099 248.027C44.3609 248.54 44.1263 249.204 44.1543 249.885C44.1741 250.143 44.3728 250.392 44.651 250.382C45.1178 250.372 45.1774 249.915 45.1576 249.547C45.18 249.408 45.2166 249.272 45.2668 249.14C45.3316 249.001 45.4081 248.869 45.4953 248.743H45.5052C45.5944 248.633 45.6942 248.534 45.8032 248.445L45.9522 248.345C45.7972 248.925 45.7701 249.532 45.8727 250.123C46.0614 250.789 47.0548 250.431 46.8264 249.795C46.8049 249.658 46.7982 249.518 46.8065 249.379C46.8032 249.249 46.8099 249.119 46.8264 248.991V248.971C46.8544 248.813 46.8909 248.658 46.9356 248.504L47.1045 248.464C47.3799 248.621 47.5988 248.861 47.7303 249.15C47.7898 249.488 48.0283 249.845 48.4157 249.726C48.5403 249.689 48.646 249.606 48.7106 249.493C48.7754 249.38 48.7943 249.246 48.7633 249.12C48.6078 248.521 48.2317 248.003 47.7104 247.67C50.8891 246.717 53.8492 243.925 55.0015 239.614L55.0312 239.525C55.9153 239.654 56.7994 239.088 57.1074 238.253C57.3933 238.223 57.6619 238.102 57.8722 237.905C58.7463 237.051 58.061 235.78 57.4849 234.965ZM35.6513 236.187L35.6314 236.167L35.6513 236.187ZM35.5322 235.968C35.5421 235.978 35.5421 235.988 35.5421 236.008C35.5435 235.994 35.5401 235.98 35.5322 235.968ZM35.6911 237.14L35.84 237.121C35.8179 237.134 35.7933 237.143 35.7676 237.146C35.742 237.15 35.7159 237.147 35.6911 237.14ZM35.3633 244.273C35.3475 244.235 35.3374 244.195 35.3334 244.154C35.3334 244.124 35.3236 244.104 35.3236 244.074V244.054C35.3331 244.036 35.3398 244.015 35.3434 243.995C35.5222 243.686 35.6216 243.309 35.4824 242.971C35.4726 242.961 35.4726 242.931 35.4726 242.921V242.852L35.5023 242.773C35.5222 242.743 35.5818 242.624 35.6017 242.604C35.6215 242.584 35.6017 242.594 35.6116 242.584C35.6742 242.501 35.7477 242.428 35.8302 242.365C35.8202 242.365 35.8202 242.355 35.85 242.346H35.8699C35.9339 242.302 36.0002 242.263 36.0685 242.226L36.1977 242.157C36.6832 241.946 37.2316 241.932 37.7274 242.117C37.7848 242.172 37.8522 242.217 37.9261 242.246C38.2188 243.228 38.672 244.154 39.2671 244.988C37.6678 244.839 35.8997 245.187 35.3633 244.273ZM41.055 247.849L41.0749 247.829C41.065 247.839 41.065 247.849 41.055 247.849ZM50.0746 245.385C49.8262 245.623 48.4356 246.438 48.1475 246.518C46.9654 247.044 45.5251 247.203 44.5317 247.064C44.0748 247.024 43.1113 246.726 42.9226 246.637C42.4855 246.478 41.6511 245.952 41.4822 245.802L41.4028 245.742C41.3201 245.659 41.2304 245.583 41.1345 245.515C40.8089 245.217 40.5066 244.895 40.2306 244.551C39.1876 243.18 38.681 241.78 38.4228 240.051C38.4074 239.962 38.4007 239.872 38.4029 239.783C39.0495 239.766 39.6788 239.57 40.2207 239.216C40.7273 239.763 41.8398 239.792 42.5152 239.366C42.9514 239.163 43.3429 238.877 43.6669 238.523C43.991 238.168 44.2411 237.752 44.4026 237.299C45.1774 235.015 43.151 234.607 43.4689 235.928C43.4969 235.959 43.5143 235.997 43.5185 236.038C43.5396 236.089 43.5562 236.143 43.5682 236.197C43.6179 237.001 43.2503 237.617 42.5748 238.183C42.4012 238.312 42.2148 238.421 42.0186 238.511C41.8461 238.584 41.6663 238.637 41.4822 238.67H41.1942L41.0749 238.63L41.0253 238.601L40.9855 238.571L40.9558 238.531V238.501C40.9558 238.491 40.9657 238.491 40.9657 238.482C41.1345 237.876 40.2207 237.607 40.0021 238.183H39.9822L39.9127 238.253C39.9127 238.263 39.8929 238.273 39.883 238.283C39.5949 238.501 38.9492 238.67 38.3929 238.77H38.3134C38.1381 238.779 37.9624 238.779 37.787 238.77L37.4393 238.69L37.3301 238.65C37.0221 238.541 36.7241 238.234 36.6446 238.134C36.5652 238.035 36.5553 237.995 36.5056 237.925C36.4733 237.817 36.4468 237.708 36.4261 237.598C36.4261 236.902 36.436 235.978 35.6216 236.137C35.6163 236.137 35.6112 236.135 35.6075 236.131C35.6037 236.128 35.6017 236.123 35.6017 236.117L35.5818 236.078C35.5792 236.078 35.5766 236.076 35.5747 236.075C35.573 236.073 35.5719 236.07 35.5719 236.068C35.5615 236.024 35.5482 235.981 35.5322 235.939C35.5305 235.899 35.5339 235.859 35.5421 235.82C35.5539 235.752 35.5705 235.685 35.5917 235.621C35.5719 235.64 35.5818 235.64 35.5917 235.621C35.6017 235.601 35.6017 235.601 35.6017 235.591C35.6017 235.581 35.6911 235.442 35.7109 235.422L35.7308 235.392C35.8173 235.281 35.9174 235.18 36.0288 235.094C36.0089 235.104 35.999 235.104 35.999 235.114C36.079 235.06 36.162 235.01 36.2473 234.965L36.3665 234.915C40.1412 233.833 38.83 233.872 40.916 230.992C41.4655 230.288 42.0993 229.654 42.8033 229.105C43.1709 228.806 44.1444 228.181 44.8 227.932C46.2005 227.267 48.5647 227.187 49.9554 227.843C50.4593 228.072 50.9385 228.351 51.3858 228.677C51.8559 229.052 52.2824 229.479 52.6572 229.949C53.6704 231.22 54.2565 232.988 54.4353 234.369C54.7234 236.644 54.4055 238.68 53.5313 240.796C52.846 242.425 51.634 244.193 50.0746 245.385ZM40.9458 238.491C40.9359 238.482 40.9458 238.482 40.9458 238.491V238.491ZM40.9458 238.541V238.551V238.541ZM40.9359 238.511V238.491C40.9365 238.499 40.94 238.506 40.9458 238.511H40.9359ZM43.5185 236.018V235.998C43.5208 236.005 43.5208 236.012 43.5185 236.018ZM57.2762 237.061C57.2564 237.111 57.2663 237.071 57.2762 237.041C57.2618 237.072 57.2452 237.102 57.2265 237.13C57.2067 237.151 57.1868 237.18 57.167 237.19L57.0676 237.24H57.008C56.5412 236.912 56.1538 237.469 56.2133 237.696C56.2054 237.792 56.182 237.887 56.1438 237.975C56.0732 238.115 55.9753 238.24 55.8557 238.342L55.677 238.452C55.5938 238.484 55.5071 238.508 55.4187 238.521H55.2597C55.564 237.065 55.6211 235.567 55.4286 234.091C56.2928 234.885 57.0676 235.919 57.2961 236.763V236.942C57.2861 236.962 57.2861 237.011 57.2762 237.032V237.061Z" fill="#452D34"/>
<path d="M57.0081 237.25H57.0184C57.0184 237.253 57.0196 237.255 57.0215 237.257C57.0235 237.259 57.0261 237.26 57.0289 237.26C57.0316 237.26 57.0343 237.259 57.0363 237.257C57.0382 237.255 57.0393 237.253 57.0393 237.25H57.0081Z" fill="#452D34"/>
<path d="M35.8719 242.316H35.8615L35.8303 242.348L35.8719 242.316Z" fill="#452D34"/>
<path d="M50.9682 243.926C52.5617 241.865 52.6431 239.258 51.1499 238.104C49.6567 236.949 47.1544 237.685 45.5608 239.747C43.9672 241.809 43.8859 244.416 45.3791 245.57C46.8723 246.724 49.3746 245.988 50.9682 243.926Z" fill="#D13535"/>
<path d="M74.292 176.677C75.4144 180.203 78.0269 182.627 81.3049 182.865C84.871 183.123 88.1194 180.541 89.6094 176.677" fill="white"/>
<path d="M81.8016 168.084C81.7139 168.642 81.6805 169.208 81.7022 169.773C81.7071 169.848 81.7272 169.921 81.7612 169.988C81.7951 170.055 81.8423 170.114 81.8998 170.162C81.9574 170.211 82.0241 170.247 82.096 170.269C82.1679 170.29 82.2435 170.297 82.3181 170.289L84.9603 169.792C84.9988 169.785 85.0347 169.767 85.0645 169.742C85.0951 169.717 85.118 169.685 85.1333 169.649C85.1478 169.612 85.1537 169.573 85.1495 169.534C85.1452 169.495 85.1316 169.457 85.1095 169.425C84.7863 168.979 84.4017 168.581 83.967 168.243C83.4505 167.816 82.7353 167.567 82.0896 167.746C82.0089 167.767 81.9383 167.817 81.891 167.885C81.8401 167.94 81.8086 168.01 81.8016 168.084Z" fill="#CE9C5C"/>
<path d="M79.7952 165.283L79.7157 165.342C79.4574 165.432 79.2488 165.65 79.1693 166.028C79.0104 166.773 79.7356 167.538 80.4905 167.379C82.1096 167.011 81.315 164.558 79.7952 165.283Z" fill="#452D34"/>
<path d="M83.5002 165.173L83.4208 165.233C83.1724 165.322 82.9539 165.541 82.8744 165.918C82.7154 166.663 83.4406 167.428 84.1955 167.269C85.815 166.902 85.0203 164.448 83.5002 165.173Z" fill="#452D34"/>
<path d="M95.1822 170.368C95.977 168.888 93.7219 167.915 92.4903 168.61C91.8842 168.859 91.3181 169.206 90.7223 169.474C90.6619 169.157 90.5829 168.829 90.4936 168.511C87.7617 158.707 76.5569 159.303 73.7558 168.729C73.6763 168.988 73.6068 169.256 73.5472 169.524C72.7823 169.186 71.5307 168.282 70.4777 168.392C69.4249 168.501 68.4216 169.494 68.9878 170.378C67.1004 172.136 68.8189 174.848 71.0042 175.256C70.9843 175.971 71.6698 176.736 72.4049 176.914C72.8719 177.1 73.3728 177.185 73.8749 177.163C74.8286 179.884 76.6464 181.901 78.8913 182.835C78.2953 183.282 77.8582 183.977 78.0172 184.672C78.2059 185.04 78.8417 184.97 78.9211 184.553C78.9409 184.444 78.9807 184.345 79.0105 184.235C79.2489 183.778 79.3681 183.659 79.8549 183.421H79.8747C79.7226 183.796 79.6879 184.208 79.7754 184.603C79.984 185.278 80.9574 184.881 80.7191 184.245V184.037C80.729 183.987 80.7488 183.937 80.7587 183.888C80.8077 183.967 80.8509 184.05 80.8879 184.136C80.9434 184.289 80.9898 184.445 81.027 184.603C81.0476 184.681 81.0642 184.761 81.0766 184.841C80.9972 185.586 82.0104 185.815 82.0899 185.03C82.0482 184.473 81.8962 183.929 81.6428 183.431H81.8018C82.1509 183.429 82.4995 183.402 82.8447 183.351C82.5704 183.928 82.5138 184.584 82.6859 185.199C82.7653 185.447 83.0435 185.636 83.3017 185.546C83.56 185.457 83.7089 185.02 83.5898 184.692C83.5749 184.56 83.5749 184.427 83.5898 184.295C83.5898 184.275 83.5997 184.245 83.5997 184.235C83.6991 183.808 83.7884 183.58 84.0567 183.321C84.0467 183.739 84.1361 184.275 84.3745 184.931C84.6129 185.586 85.5169 185.278 85.3282 184.672C85.1199 184.225 85.0596 183.6 85.08 183.212C85.1361 183.197 85.1896 183.174 85.2389 183.143L85.4276 183.212C85.5959 183.282 85.9937 183.55 86.1323 183.898C86.4408 184.454 87.3146 183.947 86.9874 183.391C86.7324 182.89 86.3057 182.499 85.7846 182.288C86.0532 182.129 86.3116 181.951 86.57 181.762C88.0499 180.639 89.2322 179.05 90.0168 177.143C90.5506 177.215 91.0946 177.164 91.6063 176.994C92.401 176.835 93.2153 176.03 93.1949 175.275C95.3607 174.848 97.1092 172.107 95.1822 170.368ZM94.9638 171.739C94.9638 171.719 94.9536 171.709 94.9536 171.699C94.9536 171.69 94.9638 171.719 94.9638 171.739ZM94.3475 169.772L94.328 169.743C94.3331 169.746 94.3373 169.75 94.3416 169.755C94.345 169.76 94.3467 169.766 94.3475 169.772ZM69.9215 169.633L69.9016 169.663L69.9215 169.633ZM69.256 170.656H69.2758C69.3354 170.706 69.3056 170.696 69.256 170.656ZM69.2262 170.18L69.1964 170.199L69.2262 170.18ZM79.7456 183.46L79.825 183.431L79.7456 183.46ZM92.1919 175.265L92.2123 175.285L92.1919 175.265ZM92.152 175.216C92.1579 175.221 92.1613 175.228 92.1622 175.236C92.1613 175.228 92.1579 175.221 92.152 175.216ZM95.0131 172.375C94.9842 172.527 94.9442 172.676 94.8941 172.822V172.842C94.6255 173.517 93.7712 173.974 93.1856 174.252C93.0725 174.296 92.9561 174.329 92.8379 174.352H92.6586C92.0925 174.083 91.6156 174.898 92.1622 175.226H92.1817V175.246H92.1919C92.1919 175.26 92.1953 175.273 92.2021 175.285V175.345C92.2021 175.355 92.1919 175.365 92.1919 175.375C92.1851 175.387 92.1817 175.401 92.1817 175.414C92.0925 175.633 91.6556 175.871 91.4966 175.941C91.0614 176.114 90.5914 176.179 90.1256 176.13C89.8969 176.099 89.6734 176.039 89.46 175.951C89.2849 175.878 89.1175 175.784 88.9636 175.673H88.9738C88.8863 175.602 88.8038 175.525 88.7256 175.444C88.6865 175.392 88.6534 175.335 88.6262 175.275C88.616 175.275 88.6058 175.256 88.6058 175.246H88.5964C88.5267 174.54 87.4336 174.689 87.6028 175.395C87.7719 176.1 88.3278 176.547 88.9534 176.825C87.454 180.341 84.4342 182.527 81.3448 182.298C78.4741 182.09 76.1199 180.093 74.9676 176.934C75.1311 176.872 75.2903 176.799 75.4445 176.716C77.5801 175.504 76.1099 173.944 75.5935 175.236C75.551 175.319 75.5012 175.399 75.4445 175.474C75.2378 175.686 74.9914 175.855 74.7193 175.971C74.573 176.035 74.4196 176.081 74.2624 176.11H74.1531C73.4777 176.199 72.673 176.04 72.2459 175.693C72.1848 175.641 72.1283 175.585 72.077 175.524C72.0502 175.486 72.027 175.446 72.0075 175.405C71.9975 175.385 71.9975 175.365 71.9876 175.345V175.285C71.9934 175.28 71.997 175.273 71.9975 175.265L72.0274 175.206C72.5439 174.977 72.1764 174.044 71.5605 174.332H71.3718C71.2492 174.307 71.1294 174.271 71.0142 174.223C70.5871 174.024 69.8817 173.656 69.5241 173.189C69.4361 173.073 69.3627 172.946 69.3056 172.812C69.2999 172.807 69.2963 172.8 69.2957 172.792C69.2521 172.679 69.2189 172.563 69.1964 172.444C69.1864 172.425 69.1864 172.365 69.1765 172.355C69.1566 172.057 69.1467 171.908 69.2361 171.67C69.3255 171.431 69.9016 171.004 70.1102 170.547C70.2195 170.289 70.001 169.921 69.8321 169.822V169.842L69.8619 169.762C69.8771 169.737 69.8904 169.71 69.9016 169.683C70.0109 169.574 70.001 169.554 70.1599 169.484H70.1699C70.4777 169.385 70.5373 169.385 70.8751 169.405C71.0431 169.438 71.2065 169.492 71.3618 169.564C76.0007 172.127 73.2691 169.554 76.5272 165.481C77.1729 164.567 78.7423 163.276 79.7853 162.889C80.3439 162.651 80.932 162.491 81.5336 162.412C82.0815 162.351 82.6345 162.351 83.1825 162.412H83.1925L83.7587 162.521C84.1073 162.605 84.4494 162.714 84.7818 162.849C85.3452 163.094 85.8756 163.407 86.3609 163.783C86.9066 164.221 87.4005 164.721 87.8314 165.273C88.5072 166.137 89.2118 167.537 89.5297 168.749C89.7881 169.703 89.7779 171.173 91.2085 170.358C91.914 170.041 92.5795 169.603 93.2051 169.435C93.3743 169.396 93.5494 169.386 93.7219 169.405C93.8231 169.422 93.9234 169.449 94.0194 169.484L94.1784 169.574L94.1988 169.594L94.2778 169.683H94.288C94.2974 169.708 94.311 169.731 94.328 169.752C94.328 169.762 94.3373 169.772 94.3373 169.782C94.3399 169.803 94.3467 169.824 94.3577 169.842V169.862C93.6327 170.368 94.4274 171.084 94.7351 171.392C94.8201 171.495 94.8941 171.609 94.9536 171.729C94.9638 171.749 94.9638 171.759 94.9731 171.759C94.9825 171.819 94.9961 171.879 95.0131 171.938C95.0224 172.083 95.0224 172.229 95.0131 172.375Z" fill="#452D34"/>
<path d="M88.9651 175.704C88.9026 175.642 88.9445 175.694 88.9651 175.704V175.704Z" fill="#452D34"/>
<path d="M85.6263 169.375C85.0101 168.084 82.3678 166.077 81.3446 167.875C80.9672 169.951 81.0864 171.332 83.5896 170.557C84.3048 170.328 85.815 170.497 85.6263 169.375ZM82.2287 169.802C82.2387 169.802 82.2387 169.802 82.2387 169.812L82.2287 169.802ZM82.2685 169.792C82.2584 169.795 82.2478 169.796 82.2376 169.794C82.2272 169.792 82.2174 169.788 82.2088 169.782C82.2088 169.742 82.199 169.742 82.199 169.762V169.703C83.1525 169.693 83.3512 168.63 82.3777 168.65L82.2387 168.69H82.2287C82.2387 168.531 82.2585 168.372 82.2784 168.213C82.3082 168.203 82.4969 168.173 82.3578 168.203C82.4274 168.163 82.6757 168.203 82.7453 168.203C83.4505 168.342 83.977 168.888 84.4538 169.395L82.2685 169.792ZM84.6822 169.683C84.6922 169.693 84.6922 169.703 84.7021 169.703L84.6822 169.683Z" fill="#452D34"/>
<path d="M86.134 176.65C86.3253 174.051 84.7764 171.819 82.6755 171.665C80.5744 171.51 78.7166 173.492 78.5257 176.091C78.3348 178.69 79.8833 180.922 81.9843 181.076C84.0853 181.23 85.9428 179.249 86.134 176.65Z" fill="#D13535"/>
<path d="M138.888 196.086C137.468 196.096 137.269 194.596 137.101 193.513L136.287 194.546C135.085 196.046 132.73 194.397 133.714 192.758C131.498 193.106 130.664 189.649 134.17 189.48C133.068 188.924 131.816 188.149 132.561 186.739C133.455 185.338 134.767 186.133 135.829 186.808C135.531 185.606 135.233 184.077 136.832 183.709C138.432 183.341 138.74 185.01 138.909 186.242L139.733 185.219C141.024 183.62 143.448 185.577 142.177 187.176L141.451 188.09C144.243 187.096 145.206 190.215 143.021 190.98C144.581 192.132 142.981 194.566 141.302 193.593L140.19 192.947C140.537 194.298 140.736 195.937 138.888 196.086ZM137.329 192.202C137.422 192.203 137.511 192.236 137.582 192.296C137.652 192.356 137.7 192.439 137.716 192.53L138.124 194.656C138.303 195.649 139.852 195.361 139.653 194.367L139.246 192.252C139.233 192.177 139.24 192.101 139.269 192.031C139.297 191.961 139.346 191.901 139.407 191.857C139.468 191.813 139.541 191.788 139.616 191.784C139.692 191.78 139.766 191.797 139.833 191.834C140.24 191.983 141.829 193.215 142.296 192.987C142.951 192.838 143.07 191.884 142.485 191.566L141.73 191.129C141.412 190.96 141.501 190.454 141.849 190.404L142.782 190.225C143.776 190.046 143.488 188.487 142.494 188.696L140.548 189.063C140.2 189.143 139.931 188.705 140.16 188.427C140.389 188.149 141.879 186.61 141.73 186.113C141.68 185.447 140.746 185.179 140.349 185.716L138.988 187.404C138.94 187.462 138.878 187.505 138.807 187.529C138.736 187.552 138.66 187.556 138.587 187.538C138.514 187.52 138.449 187.483 138.396 187.429C138.344 187.376 138.309 187.308 138.293 187.235C138.044 186.58 138.184 184.226 136.982 184.484C135.78 184.742 136.753 186.818 136.763 187.513C136.624 189.172 134.002 185.636 133.247 187.136C132.323 188.547 136.952 189.172 135.363 190.056C134.965 190.205 132.929 190.315 132.73 190.792C132.332 191.338 132.859 192.132 133.515 191.993L134.598 191.785C134.945 191.705 135.213 192.152 134.975 192.421L134.449 193.076C133.813 193.851 135.045 194.854 135.67 194.05C135.869 193.891 137.031 192.113 137.329 192.202Z" fill="#D13535"/>
<path d="M111.661 158.032C111.556 158.032 111.455 157.99 111.381 157.915C111.306 157.841 111.264 157.74 111.264 157.634V148.218C111.264 148.112 111.306 148.011 111.381 147.937C111.455 147.862 111.556 147.82 111.661 147.82C111.767 147.82 111.868 147.862 111.942 147.937C112.016 148.011 112.059 148.112 112.059 148.218V157.634C112.059 157.74 112.016 157.841 111.942 157.915C111.868 157.99 111.767 158.032 111.661 158.032Z" fill="#EFDCC4"/>
<path d="M108.294 157.366C108.201 157.366 108.11 157.334 108.036 157.277C107.958 157.208 107.909 157.111 107.902 157.007C107.895 156.903 107.928 156.8 107.996 156.721L114.721 148.695C114.789 148.614 114.887 148.564 114.992 148.556C115.098 148.548 115.201 148.581 115.282 148.65C115.362 148.718 115.412 148.816 115.421 148.921C115.429 149.026 115.395 149.131 115.327 149.211L108.602 157.227C108.563 157.27 108.515 157.305 108.463 157.329C108.409 157.352 108.352 157.365 108.294 157.366Z" fill="#EFDCC4"/>
<path d="M115.357 157.058C115.304 157.058 115.253 157.047 115.206 157.026C115.157 157.006 115.115 156.976 115.078 156.939L107.678 149.538C107.605 149.464 107.564 149.364 107.564 149.26C107.564 149.156 107.605 149.056 107.678 148.982C107.715 148.945 107.757 148.915 107.806 148.895C107.853 148.875 107.904 148.864 107.956 148.864C108.008 148.864 108.06 148.875 108.107 148.895C108.155 148.915 108.198 148.945 108.234 148.982L115.644 156.382C115.717 156.457 115.758 156.556 115.758 156.66C115.758 156.764 115.717 156.864 115.644 156.939C115.607 156.977 115.563 157.007 115.513 157.028C115.463 157.048 115.411 157.058 115.357 157.058Z" fill="#EFDCC4"/>
<path d="M116.36 153.323H106.953C106.848 153.323 106.747 153.281 106.672 153.207C106.598 153.132 106.556 153.031 106.556 152.926C106.556 152.82 106.598 152.719 106.672 152.645C106.747 152.57 106.848 152.528 106.953 152.528H116.36C116.465 152.528 116.567 152.57 116.641 152.645C116.715 152.719 116.757 152.82 116.757 152.926C116.757 153.031 116.715 153.132 116.641 153.207C116.567 153.281 116.465 153.323 116.36 153.323Z" fill="#EFDCC4"/>
<path d="M36.9725 187.672C36.8672 187.672 36.7661 187.63 36.6916 187.556C36.617 187.481 36.5752 187.38 36.5752 187.275V177.868C36.5752 177.763 36.617 177.662 36.6916 177.587C36.7661 177.513 36.8672 177.471 36.9725 177.471C37.0243 177.471 37.0754 177.481 37.1231 177.501C37.1708 177.521 37.2139 177.551 37.25 177.588C37.2861 177.625 37.3144 177.669 37.3333 177.717C37.3522 177.765 37.3613 177.816 37.3599 177.868V187.275C37.3613 187.327 37.3522 187.378 37.3333 187.426C37.3144 187.474 37.2861 187.518 37.25 187.555C37.2139 187.592 37.1708 187.622 37.1231 187.642C37.0754 187.662 37.0243 187.672 36.9725 187.672Z" fill="#CE9C5C"/>
<path d="M33.6052 187.017C33.5099 187.016 33.4179 186.981 33.3469 186.917C33.2672 186.85 33.2172 186.753 33.2079 186.649C33.1986 186.545 33.2307 186.442 33.2973 186.361L40.0321 178.345C40.1027 178.277 40.1958 178.238 40.2935 178.235C40.3912 178.231 40.4868 178.264 40.5618 178.327C40.6368 178.39 40.6861 178.478 40.7001 178.575C40.7142 178.671 40.6921 178.77 40.6381 178.851L33.9032 186.868C33.8682 186.914 33.8232 186.951 33.7716 186.977C33.7199 187.003 33.663 187.016 33.6052 187.017Z" fill="#CE9C5C"/>
<path d="M40.6678 186.709C40.6159 186.709 40.5645 186.698 40.5166 186.678C40.4688 186.657 40.4256 186.627 40.3897 186.59L32.9893 179.19C32.9518 179.153 32.922 179.109 32.9016 179.06C32.8813 179.011 32.8708 178.959 32.8708 178.906C32.8708 178.854 32.8813 178.802 32.9016 178.753C32.922 178.704 32.9518 178.66 32.9893 178.623C33.0636 178.551 33.1635 178.51 33.2675 178.51C33.3715 178.51 33.4714 178.551 33.5456 178.623L40.9459 186.034C40.9832 186.07 41.0128 186.113 41.0331 186.161C41.0533 186.209 41.0637 186.26 41.0637 186.312C41.0637 186.364 41.0533 186.415 41.0331 186.463C41.0128 186.511 40.9832 186.554 40.9459 186.59C40.9103 186.628 40.8672 186.658 40.8194 186.679C40.7715 186.699 40.7199 186.709 40.6678 186.709Z" fill="#CE9C5C"/>
<path d="M41.6711 182.964H32.2642C32.2126 182.966 32.1611 182.957 32.1129 182.938C32.0648 182.919 32.0209 182.891 31.9839 182.854C31.9468 182.818 31.9174 182.775 31.8973 182.728C31.8772 182.68 31.8669 182.629 31.8669 182.577C31.8669 182.472 31.9088 182.371 31.9833 182.296C32.0578 182.222 32.1588 182.18 32.2642 182.18H41.6711C41.7765 182.18 41.8776 182.222 41.9521 182.296C42.0266 182.371 42.0685 182.472 42.0685 182.577C42.0685 182.629 42.0581 182.68 42.038 182.728C42.018 182.775 41.9885 182.818 41.9515 182.854C41.9145 182.891 41.8706 182.919 41.8224 182.938C41.7743 182.957 41.7228 182.966 41.6711 182.964Z" fill="#CE9C5C"/>
<path d="M122.094 60.4287C120.674 60.4386 120.475 58.9387 120.307 57.856L119.493 58.8891C118.291 60.389 115.936 58.7401 116.92 57.101C114.705 57.4487 113.87 53.9919 117.376 53.8231C116.274 53.2667 115.022 52.492 115.767 51.0815C116.661 49.6809 117.973 50.4755 119.035 51.151C118.737 49.949 118.439 48.4193 120.038 48.0517C121.638 47.6842 121.946 49.353 122.115 50.5847L122.939 49.5617C124.23 47.9624 126.654 49.9193 125.383 51.5185L124.657 52.4324C127.449 51.4391 128.412 54.5581 126.227 55.323C127.787 56.4752 126.187 58.9089 124.508 57.9355L123.396 57.2898C123.743 58.6407 123.942 60.2797 122.094 60.4287ZM120.536 56.5448C120.628 56.5457 120.717 56.5789 120.788 56.6388C120.859 56.6986 120.906 56.7813 120.922 56.8726L121.33 58.9983C121.509 59.9917 123.058 59.7036 122.859 58.7102L122.452 56.5944C122.439 56.5202 122.446 56.4436 122.475 56.3737C122.503 56.3038 122.552 56.2434 122.613 56.1997C122.674 56.1559 122.747 56.1306 122.822 56.1266C122.898 56.1226 122.972 56.1402 123.039 56.1772C123.446 56.3262 125.035 57.558 125.502 57.3295C126.157 57.1805 126.276 56.227 125.691 55.9091L124.936 55.472C124.618 55.3031 124.707 54.7965 125.055 54.7468L125.988 54.568C126.982 54.3893 126.694 52.8297 125.7 53.0383L123.754 53.4058C123.406 53.4853 123.137 53.0482 123.366 52.7701C123.595 52.492 125.085 50.9523 124.936 50.4556C124.886 49.7901 123.953 49.5219 123.555 50.0583L122.194 51.7469C122.146 51.8047 122.084 51.8478 122.013 51.8715C121.942 51.8951 121.866 51.8983 121.794 51.8807C121.72 51.8631 121.655 51.8253 121.602 51.7718C121.55 51.7183 121.515 51.6511 121.499 51.5781C121.25 50.9225 121.39 48.5683 120.188 48.8266C118.986 49.0848 119.959 51.1609 119.969 51.8563C119.83 53.5151 117.208 49.9789 116.453 51.4788C115.529 52.8893 120.158 53.5151 118.569 54.3992C118.171 54.5482 116.135 54.6574 115.936 55.1343C115.538 55.6806 116.065 56.4752 116.721 56.3362L117.804 56.1276C118.151 56.0481 118.419 56.4951 118.181 56.7633L117.655 57.4189C117.019 58.1937 118.251 59.197 118.876 58.3924C119.075 58.2335 120.237 56.4553 120.536 56.5448Z" fill="#D13535"/>
<path d="M46.105 96.2115C45.9996 96.2115 45.8984 96.1696 45.8245 96.0951C45.7497 96.0206 45.708 95.9195 45.708 95.8141V86.3973C45.708 86.292 45.7497 86.1909 45.8245 86.1164C45.8984 86.0419 45.9996 86 46.105 86C46.2104 86 46.3115 86.0419 46.3863 86.1164C46.4603 86.1909 46.5028 86.292 46.5028 86.3973V95.8141C46.5028 95.9195 46.4603 96.0206 46.3863 96.0951C46.3115 96.1696 46.2104 96.2115 46.105 96.2115Z" fill="#EFDCC4"/>
<path d="M42.7381 95.546C42.6446 95.5454 42.5536 95.5139 42.4796 95.4566C42.4014 95.3877 42.353 95.2907 42.3454 95.1867C42.3386 95.0825 42.3717 94.9798 42.4397 94.9004L49.1649 86.8743C49.2329 86.7939 49.3306 86.744 49.436 86.7356C49.5414 86.7273 49.6451 86.761 49.7259 86.8295C49.8058 86.8981 49.8559 86.9956 49.8644 87.1009C49.8729 87.2062 49.8389 87.3104 49.7709 87.3908L43.0458 95.407C43.0067 95.4499 42.9591 95.4843 42.9064 95.5083C42.8528 95.5322 42.7959 95.545 42.7381 95.546Z" fill="#EFDCC4"/>
<path d="M49.8009 95.2374C49.7482 95.2373 49.6972 95.2266 49.6496 95.2062C49.6011 95.1857 49.5586 95.1557 49.5221 95.1183L42.122 87.7179C42.0489 87.6436 42.0081 87.5437 42.0081 87.4398C42.0081 87.3358 42.0489 87.2359 42.122 87.1617C42.1585 87.1244 42.201 87.0948 42.2495 87.0745C42.2971 87.0543 42.3481 87.0439 42.3999 87.0439C42.4518 87.0439 42.5036 87.0543 42.5512 87.0745C42.5988 87.0948 42.6422 87.1244 42.6779 87.1617L50.0882 94.5619C50.1613 94.6362 50.2021 94.7361 50.2021 94.8401C50.2021 94.9441 50.1613 95.044 50.0882 95.1183C50.0508 95.1565 50.0066 95.1868 49.9564 95.2073C49.9071 95.2277 49.8544 95.238 49.8009 95.2374Z" fill="#EFDCC4"/>
<path d="M50.8039 91.5027H41.397C41.2916 91.5027 41.1904 91.4608 41.1156 91.3863C41.0416 91.3118 41 91.2107 41 91.1053C41 91 41.0416 90.8989 41.1156 90.8244C41.1904 90.7498 41.2916 90.708 41.397 90.708H50.8039C50.9093 90.708 51.0105 90.7498 51.0844 90.8244C51.1592 90.8989 51.2009 91 51.2009 91.1053C51.2009 91.2107 51.1592 91.3118 51.0844 91.3863C51.0105 91.4608 50.9093 91.5027 50.8039 91.5027Z" fill="#EFDCC4"/>
<path d="M88.1055 122.202C88.0002 122.202 87.8992 122.16 87.8246 122.085C87.7501 122.011 87.7083 121.91 87.7083 121.804V112.397C87.7083 112.292 87.7501 112.191 87.8246 112.116C87.8992 112.042 88.0002 112 88.1055 112C88.1573 112 88.2085 112.01 88.2562 112.03C88.3038 112.051 88.3469 112.08 88.3831 112.117C88.4192 112.154 88.4475 112.198 88.4664 112.246C88.4852 112.294 88.4943 112.346 88.493 112.397V121.804C88.4943 121.856 88.4852 121.907 88.4664 121.956C88.4475 122.004 88.4192 122.048 88.3831 122.085C88.3469 122.122 88.3038 122.151 88.2562 122.171C88.2085 122.191 88.1573 122.202 88.1055 122.202Z" fill="#CE9C5C"/>
<path d="M84.7383 121.546C84.6429 121.546 84.551 121.51 84.48 121.447C84.4003 121.379 84.3503 121.283 84.3409 121.179C84.3317 121.074 84.3638 120.971 84.4303 120.89L91.1651 112.874C91.2358 112.806 91.3289 112.767 91.4266 112.764C91.5243 112.761 91.6198 112.793 91.6949 112.856C91.7698 112.919 91.8191 113.007 91.8332 113.104C91.8473 113.201 91.8252 113.299 91.7711 113.381L85.0363 121.397C85.0013 121.443 84.9562 121.48 84.9046 121.506C84.853 121.532 84.796 121.546 84.7383 121.546Z" fill="#CE9C5C"/>
<path d="M91.8009 121.238C91.7489 121.238 91.6975 121.228 91.6497 121.207C91.6019 121.187 91.5587 121.157 91.5228 121.119L84.1224 113.719C84.0848 113.682 84.0551 113.638 84.0347 113.589C84.0144 113.541 84.0039 113.488 84.0039 113.436C84.0039 113.383 84.0144 113.331 84.0347 113.282C84.0551 113.234 84.0848 113.19 84.1224 113.153C84.1967 113.08 84.2966 113.039 84.4005 113.039C84.5046 113.039 84.6044 113.08 84.6786 113.153L92.079 120.563C92.1163 120.599 92.1459 120.642 92.1661 120.69C92.1863 120.738 92.1967 120.789 92.1967 120.841C92.1967 120.893 92.1863 120.944 92.1661 120.992C92.1459 121.04 92.1163 121.083 92.079 121.119C92.0434 121.157 92.0003 121.187 91.9524 121.208C91.9046 121.228 91.853 121.239 91.8009 121.238Z" fill="#CE9C5C"/>
<path d="M92.8042 117.494H83.3973C83.3456 117.495 83.2942 117.486 83.246 117.467C83.1979 117.448 83.1539 117.42 83.117 117.384C83.0799 117.348 83.0505 117.304 83.0303 117.257C83.0103 117.209 82.9999 117.158 83 117.106C83 117.001 83.0418 116.9 83.1164 116.825C83.1908 116.751 83.2919 116.709 83.3973 116.709H92.8042C92.9096 116.709 93.0106 116.751 93.0852 116.825C93.1596 116.9 93.2015 117.001 93.2015 117.106C93.2015 117.158 93.1912 117.209 93.1711 117.257C93.151 117.304 93.1215 117.348 93.0846 117.384C93.0475 117.42 93.0037 117.448 92.9555 117.467C92.9073 117.486 92.8558 117.495 92.8042 117.494Z" fill="#CE9C5C"/>
<path d="M20.1055 10.2016C20.0002 10.2016 19.8992 10.1597 19.8246 10.0852C19.7501 10.0107 19.7083 9.90965 19.7083 9.80424V0.397377C19.7083 0.291977 19.7501 0.19091 19.8246 0.11645C19.8992 0.0419046 20.0002 0 20.1055 0C20.1573 0 20.2085 0.0103701 20.2562 0.0304302C20.3038 0.0505752 20.3469 0.0799856 20.3831 0.116961C20.4192 0.154021 20.4475 0.197882 20.4664 0.246077C20.4852 0.294187 20.4943 0.345697 20.493 0.397377V9.80424C20.4943 9.85592 20.4852 9.90743 20.4664 9.95554C20.4475 10.0037 20.4192 10.0476 20.3831 10.0847C20.3469 10.1216 20.3038 10.151 20.2562 10.1712C20.2085 10.1912 20.1573 10.2016 20.1055 10.2016Z" fill="#CE9C5C"/>
<path d="M16.7383 9.54585C16.6429 9.54568 16.551 9.51032 16.48 9.44657C16.4003 9.37899 16.3503 9.28269 16.3409 9.17856C16.3317 9.07444 16.3638 8.97091 16.4303 8.89024L23.1651 0.874059C23.2358 0.806399 23.3289 0.767215 23.4266 0.7639C23.5243 0.760585 23.6198 0.79348 23.6949 0.85621C23.7698 0.918855 23.8191 1.00708 23.8332 1.10381C23.8473 1.20063 23.8252 1.29914 23.7711 1.38066L17.0363 9.39684C17.0013 9.44283 16.9562 9.48014 16.9046 9.50598C16.853 9.53182 16.796 9.54551 16.7383 9.54585Z" fill="#CE9C5C"/>
<path d="M23.8009 9.23842C23.7489 9.23825 23.6975 9.22753 23.6497 9.20705C23.6019 9.18656 23.5587 9.15673 23.5228 9.11916L16.1224 1.71889C16.0848 1.68192 16.0551 1.6378 16.0347 1.58918C16.0144 1.54065 16.0039 1.48846 16.0039 1.43576C16.0039 1.38306 16.0144 1.33087 16.0347 1.28233C16.0551 1.23371 16.0848 1.1896 16.1224 1.15262C16.1967 1.07986 16.2966 1.03906 16.4005 1.03906C16.5046 1.03906 16.6044 1.07986 16.6786 1.15262L24.079 8.56292C24.1163 8.59904 24.1459 8.64231 24.1661 8.69008C24.1863 8.73785 24.1967 8.78919 24.1967 8.84104C24.1967 8.89298 24.1863 8.94431 24.1661 8.99208C24.1459 9.03986 24.1163 9.08312 24.079 9.11916C24.0434 9.15715 24.0003 9.18733 23.9524 9.2079C23.9046 9.22838 23.853 9.23876 23.8009 9.23842Z" fill="#CE9C5C"/>
<path d="M24.8042 5.4937H15.3973C15.3456 5.49497 15.2942 5.48597 15.246 5.4671C15.1979 5.44823 15.1539 5.41992 15.117 5.3838C15.0799 5.34767 15.0505 5.30449 15.0303 5.25689C15.0103 5.20921 14.9999 5.15804 15 5.10627C15 5.00087 15.0418 4.89981 15.1164 4.82535C15.1908 4.7508 15.2919 4.70898 15.3973 4.70898H24.8042C24.9096 4.70898 25.0106 4.7508 25.0852 4.82535C25.1596 4.89981 25.2015 5.00087 25.2015 5.10627C25.2015 5.15804 25.1912 5.20921 25.1711 5.25689C25.151 5.30449 25.1215 5.34767 25.0846 5.3838C25.0475 5.41992 25.0037 5.44823 24.9555 5.4671C24.9073 5.48597 24.8558 5.49497 24.8042 5.4937Z" fill="#CE9C5C"/>
</svg>
